<svg width="506" height="369" viewBox="0 0 506 369" fill="none" xmlns="http://www.w3.org/2000/svg">
<path d="M56.7477 96.677H448.058" stroke="#DED8D5" stroke-width="2.624" stroke-miterlimit="10"/>
<path d="M442.948 313.133H61.8581C59.0356 313.133 56.7474 310.845 56.7474 308.023V76.1354C56.7474 73.3136 59.0356 71.0255 61.8581 71.0255H442.948C445.77 71.0255 448.058 73.3136 448.058 76.1354V308.023C448.058 310.845 445.77 313.133 442.948 313.133Z" stroke="#DED8D5" stroke-width="2.624" stroke-miterlimit="10"/>
<path d="M82.5367 84.1128C82.5367 86.0891 80.9343 87.6923 78.9572 87.6923C76.9802 87.6923 75.3777 86.0891 75.3777 84.1128C75.3777 82.1357 76.9802 80.5333 78.9572 80.5333C80.9343 80.5333 82.5367 82.1357 82.5367 84.1128Z" fill="#FFB1A5"/>
<path d="M96.4477 84.1128C96.4477 86.0891 94.8453 87.6923 92.8682 87.6923C90.8912 87.6923 89.2887 86.0891 89.2887 84.1128C89.2887 82.1357 90.8912 80.5333 92.8682 80.5333C94.8453 80.5333 96.4477 82.1357 96.4477 84.1128Z" fill="#EAD254"/>
<path d="M110.359 84.1128C110.359 86.0891 108.756 87.6923 106.779 87.6923C104.802 87.6923 103.2 86.0891 103.2 84.1128C103.2 82.1357 104.802 80.5333 106.779 80.5333C108.756 80.5333 110.359 82.1357 110.359 84.1128Z" fill="#F9C838"/>
<path d="M498.892 183.076H406.927C404.334 183.076 402.232 180.974 402.232 178.382V93.3272C402.232 90.7351 404.334 88.6334 406.927 88.6334H498.892C501.485 88.6334 503.587 90.7351 503.587 93.3272V178.382C503.587 180.974 501.485 183.076 498.892 183.076Z" fill="#EDEDED"/>
<path d="M498.892 183.076H406.927C404.334 183.076 402.232 180.974 402.232 178.382V93.3273C402.232 90.7351 404.334 88.6334 406.927 88.6334H498.892C501.485 88.6334 503.587 90.7351 503.587 93.3273V178.382C503.587 180.974 501.485 183.076 498.892 183.076Z" stroke="#DED8D5" stroke-width="2.624" stroke-miterlimit="10"/>
<path d="M429.16 158.508H476.959C479.565 158.508 481.679 156.396 481.679 153.79V114.616C481.679 112.01 479.565 109.898 476.959 109.898H429.16C426.555 109.898 424.442 112.01 424.442 114.616V153.79C424.442 156.396 426.555 158.508 429.16 158.508Z" fill="#FF522C"/>
<path d="M466.116 142.285H443.743H439.703V124.572H466.116V129V142.285Z" stroke="white" stroke-width="2.196" stroke-miterlimit="10" stroke-linecap="round" stroke-linejoin="round"/>
<path d="M439.703 124.572L452.91 134.98L466.116 124.572" stroke="white" stroke-width="2.196" stroke-miterlimit="10" stroke-linecap="round" stroke-linejoin="round"/>
<path d="M94.183 254.298H6.47676C4.00369 254.298 2 252.292 2 249.82V173.352C2 170.88 4.00369 168.876 6.47676 168.876H94.183C96.6553 168.876 98.6598 170.88 98.6598 173.352V249.82C98.6598 252.292 96.6553 254.298 94.183 254.298Z" fill="#EDEDED"/>
<path d="M94.183 254.298H6.47676C4.00369 254.298 2 252.292 2 249.82V173.352C2 170.88 4.00369 168.876 6.47676 168.876H94.183C96.6553 168.876 98.6598 170.88 98.6598 173.352V249.82C98.6598 252.292 96.6553 254.298 94.183 254.298Z" stroke="#DED8D5" stroke-width="2.624" stroke-miterlimit="10"/>
<path d="M72.8461 237.84H27.3584C24.4849 237.84 22.156 235.511 22.156 232.637V188.708C22.156 185.834 24.4849 183.506 27.3584 183.506H72.8461C75.7196 183.506 78.0493 185.834 78.0493 188.708V232.637C78.0493 235.511 75.7196 237.84 72.8461 237.84Z" fill="#FFB1A5"/>
<path d="M64.6694 210.256H57.8763C57.8394 208.214 57.5738 206.171 57.0684 204.13H62.8365C63.8787 205.957 64.5268 208.038 64.6694 210.256ZM62.8365 218.231H56.8858C57.4241 216.188 57.7485 214.147 57.8481 212.104H64.6694C64.5275 214.322 63.8787 216.404 62.8365 218.231ZM54.3931 224.882C55.1681 223.281 55.8185 221.681 56.3404 220.079H61.5812C59.7632 222.352 57.2643 224.056 54.3931 224.882ZM50.443 225.437C49.8098 225.437 49.1868 225.396 48.5756 225.316C47.7042 223.57 46.9622 221.825 46.3658 220.079H54.5209C53.9237 221.825 53.1817 223.57 52.3111 225.316C51.6999 225.396 51.0761 225.437 50.443 225.437ZM39.3055 220.079H44.5455C45.0682 221.68 45.7186 223.281 46.4936 224.882C43.6224 224.056 41.1235 222.352 39.3055 220.079ZM38.0494 218.231C37.0072 216.404 36.3592 214.322 36.2165 212.104H43.0386C43.1374 214.146 43.4626 216.188 44.0009 218.231H38.0494ZM38.0494 204.13H43.8183C43.3121 206.171 43.0473 208.214 43.0096 210.256H36.2165C36.3592 208.038 37.008 205.957 38.0494 204.13ZM46.3 197.536C45.4968 199.117 44.8464 200.7 44.3418 202.282H39.3055C41.082 200.06 43.5104 198.382 46.3 197.536ZM50.443 196.923C51.2031 196.923 51.9483 196.984 52.6755 197.097C53.644 198.826 54.4025 200.554 54.9675 202.282H45.9192C46.4834 200.554 47.2427 198.826 48.2105 197.097C48.9376 196.984 49.6836 196.923 50.443 196.923ZM56.1837 212.104C56.045 214.146 55.6743 216.188 55.0984 218.231H45.7883C45.2116 216.189 44.8417 214.147 44.7022 212.104H56.1837ZM44.6403 210.256C44.6427 208.214 44.8833 206.171 45.3895 204.13H55.4972C56.0027 206.171 56.244 208.214 56.2456 210.256H44.6403ZM61.5812 202.282H56.5449C56.0395 200.7 55.3891 199.117 54.5867 197.536C57.3763 198.382 59.8047 200.06 61.5812 202.282ZM39.2687 200.006C33.1315 206.143 33.1315 216.217 39.2687 222.354C45.4059 228.492 55.48 228.492 61.6172 222.354C67.7544 216.217 67.7544 206.143 61.6172 200.006C55.48 193.869 45.4059 193.869 39.2687 200.006Z" fill="white"/>
<path d="M88.9556 48.684H9.49921C7.85755 48.684 6.52698 47.3534 6.52698 45.7117C6.52698 44.0701 7.85755 42.7395 9.49921 42.7395H88.9556C90.5973 42.7395 91.9278 44.0701 91.9278 45.7117C91.9278 47.3534 90.5973 48.684 88.9556 48.684Z" fill="#FF522C"/>
<path d="M502.13 242.771H463.565C461.923 242.771 460.593 241.441 460.593 239.799C460.593 238.158 461.923 236.827 463.565 236.827H502.13C503.772 236.827 505.102 238.158 505.102 239.799C505.102 241.441 503.772 242.771 502.13 242.771Z" fill="#56DFED"/>
<path d="M475.12 277.154H470.407C469.169 277.154 468.166 276.15 468.166 274.912V270.488C468.166 269.25 469.169 268.247 470.407 268.247H475.12C476.358 268.247 477.362 269.25 477.362 270.488V274.912C477.362 276.15 476.358 277.154 475.12 277.154Z" fill="#FF522C"/>
<path d="M28.4256 297.745H23.713C22.4749 297.745 21.4711 296.742 21.4711 295.504V291.08C21.4711 289.842 22.4749 288.838 23.713 288.838H28.4256C29.6637 288.838 30.6675 289.842 30.6675 291.08V295.504C30.6675 296.742 29.6637 297.745 28.4256 297.745Z" fill="#FFB1A5"/>
<path d="M389.101 45.6139H310.675C309.371 45.6139 308.314 44.5568 308.314 43.2536V24.1054C308.314 22.8022 309.371 21.7459 310.675 21.7459H389.101C390.405 21.7459 391.462 22.8022 391.462 24.1054V43.2536C391.462 44.5568 390.405 45.6139 389.101 45.6139Z" fill="#FFB1A5"/>
<path d="M319.64 30.2501H375.416" stroke="white" stroke-width="1.57333" stroke-miterlimit="10"/>
<path d="M319.64 35.9748H342.358" stroke="white" stroke-width="1.57333" stroke-miterlimit="10"/>
<path d="M317.371 42.9137V52.2159L329.07 42.9137H317.371Z" fill="#FFB1A5"/>
<path d="M196.417 47.0338H158.453C154.765 47.0338 151.777 44.0443 151.777 40.3566V5.06133C151.777 2.26619 154.043 -3.8147e-06 156.838 -3.8147e-06H196.417C199.212 -3.8147e-06 201.479 2.26619 201.479 5.06133V41.9717C201.479 44.7676 199.212 47.0338 196.417 47.0338Z" fill="#56DFED"/>
<path d="M187.064 29.6229C186.862 29.8251 186.66 30.0272 186.458 30.2294C186.103 30.5327 185.801 30.8861 185.447 31.2395C184.941 31.7449 184.386 31.998 183.627 31.998H183.375C181.859 31.8969 180.443 31.2904 179.432 30.785C176.552 29.3698 174.025 27.399 171.903 24.8727C170.184 22.8 169.022 20.8292 168.213 18.7574C167.708 17.5443 167.506 16.5836 167.607 15.6237C167.657 15.0681 167.859 14.5627 168.315 14.1584L170.033 12.4399C170.184 12.2879 170.437 12.0865 170.74 12.0865C171.043 12.0865 171.245 12.2377 171.447 12.4399C171.751 12.7432 172.054 13.0464 172.357 13.3497C172.509 13.5009 172.661 13.7031 172.863 13.8543L174.278 15.2703C174.429 15.4216 174.631 15.7248 174.631 15.9771C174.631 16.2812 174.429 16.5335 174.278 16.6847C174.126 16.8368 173.975 16.988 173.823 17.14C173.368 17.5945 172.964 17.9988 172.559 18.4032L172.509 18.4541C172.004 18.9595 172.105 19.414 172.206 19.7173V19.7674C172.559 20.6772 173.116 21.4859 173.874 22.4968C175.289 24.2661 176.805 25.6304 178.473 26.6914C178.675 26.8434 178.927 26.9445 179.13 27.0448C179.331 27.1467 179.483 27.1968 179.635 27.2979L179.686 27.3489C180.191 27.6012 180.696 27.5001 181.101 27.0958L182.869 25.3272C183.021 25.1751 183.274 24.973 183.577 24.973C183.83 24.973 184.082 25.1751 184.234 25.3272L187.064 28.1568C187.519 28.612 187.519 29.1175 187.064 29.6229ZM188.226 26.9947L185.397 24.1651C184.891 23.6087 184.234 23.3054 183.577 23.3054C182.92 23.3054 182.263 23.6087 181.757 24.1141L180.14 25.7315L179.837 25.5795C179.635 25.4784 179.483 25.4282 179.331 25.3272C177.815 24.3664 176.451 23.1033 175.137 21.4859C174.53 20.7282 174.076 20.0206 173.823 19.414C174.228 19.0606 174.581 18.6555 174.935 18.3021C175.087 18.1509 175.238 17.9988 175.39 17.8476C175.945 17.2912 176.249 16.6346 176.249 15.9771C176.249 15.3205 175.945 14.6638 175.39 14.1074L173.975 12.693C173.823 12.541 173.671 12.389 173.519 12.1876C173.217 11.8836 172.863 11.5301 172.559 11.2269C172.054 10.7215 171.397 10.4182 170.74 10.4182C170.083 10.4182 169.477 10.6705 168.921 11.2269L167.152 12.9955C166.495 13.6529 166.091 14.5118 165.99 15.4717C165.889 16.988 166.293 18.4032 166.646 19.313C167.455 21.6379 168.718 23.7098 170.589 25.9337C172.863 28.612 175.541 30.7348 178.675 32.2511C179.837 32.8067 181.454 33.4634 183.224 33.6154H183.577C184.79 33.6154 185.801 33.1609 186.609 32.3013L186.66 32.2511C186.913 31.9479 187.215 31.6446 187.569 31.3414C187.772 31.1392 188.025 30.8861 188.226 30.6839C189.288 29.5727 189.288 28.0557 188.226 26.9947Z" fill="white"/>
<path d="M361.561 225.345L332.958 221.305L333.181 224.319L308.725 227.773C308.725 227.773 292.962 269.729 306.855 362H326.748L333.908 268.437H336.451L343.386 362H363.279C377.172 269.729 361.561 225.345 361.561 225.345Z" fill="#8E716C"/>
<path d="M324.813 265.733H345.568" stroke="#282828" stroke-width="1.644" stroke-miterlimit="10" stroke-linecap="round" stroke-linejoin="round"/>
<path d="M378.265 183.393C375.817 179.488 362.071 179.625 361.346 179.54C357.63 179.104 363.729 208.676 371.459 234.524C372.942 239.479 378.394 242.06 383.156 240.041C383.208 240.02 383.259 239.997 383.31 239.976C387.078 238.38 389.221 234.38 388.463 230.36C384.787 210.856 381.094 187.91 378.265 183.393Z" fill="#FFB1A5"/>
<path d="M381.541 194.086L363.991 200.895L362.345 192.569L380.518 188.036L381.541 194.086Z" fill="#F3978E"/>
<path d="M384.856 210.744C384.856 210.744 376.542 221.91 376.938 221.397C377.334 220.883 383.458 203.352 383.458 203.352L384.856 210.744Z" fill="#F3978E"/>
<path d="M396.743 195.737L372.912 226.613C369.783 230.667 370.782 236.529 375.078 239.317C379.366 242.1 385.116 240.637 387.552 236.143L407.389 199.544L396.743 195.737Z" fill="#FFB1A5"/>
<path d="M402.911 203.665C397.744 201.996 394.909 196.456 396.578 191.289C398.247 186.123 403.788 183.288 408.955 184.957C414.121 186.626 416.956 192.167 415.287 197.333C413.618 202.5 408.077 205.334 402.911 203.665Z" fill="#FFB1A5"/>
<path d="M413.101 188.402C413.101 188.402 415.791 185.609 411.018 183.651C406.246 181.693 400.345 182.143 396.578 191.289L413.101 188.402Z" fill="#FFB1A5"/>
<path d="M418.044 168.889L428.023 173.215C428.577 173.456 428.78 174.114 428.474 174.684L415.348 199.205C415.041 199.776 414.343 200.044 413.788 199.803L403.81 195.477C403.254 195.236 403.053 194.578 403.358 194.007L416.485 169.487C416.791 168.916 417.489 168.648 418.044 168.889Z" fill="#372F5F"/>
<path d="M417.091 168.455L427.069 172.781C427.625 173.022 427.827 173.68 427.521 174.25L414.394 198.77C414.089 199.342 413.39 199.61 412.835 199.369L402.857 195.043C402.301 194.802 402.099 194.144 402.406 193.573L415.533 169.053C415.838 168.482 416.536 168.214 417.091 168.455Z" fill="#261B43"/>
<path d="M415.966 170.95L424.733 174.751L414.035 194.734L405.268 190.933L415.966 170.95Z" fill="#E6E6E6"/>
<path d="M424.733 174.751L405.268 190.933L415.966 170.949L424.733 174.751Z" fill="white"/>
<path d="M408.153 182.837C408.153 182.837 410.375 183.27 412.38 184.406C413.263 184.907 413.716 185.926 413.471 186.912C413.248 187.81 412.495 188.478 411.576 188.595L406.389 189.249C406.389 189.249 403.682 193.914 400.146 194.437L403.39 186.247L408.153 182.837Z" fill="#FFB1A5"/>
<path d="M341.903 144.51C341.331 144.507 378.691 149.68 384.855 192.275L365.469 195.245L361.561 227.401H307.478L296.741 167.989C296.741 167.989 308.724 150.817 330.971 144.51H341.903Z" fill="#F9C838"/>
<path d="M365.469 195.245L367.151 176.648" stroke="#282828" stroke-width="1.644" stroke-miterlimit="10" stroke-linecap="round" stroke-linejoin="round"/>
<path d="M345.454 145.12V130.324H328.116V145.293C327.229 145.558 325.751 146.093 323.458 147.182L336.981 155.237L350.805 147.182C350.805 147.182 348.61 145.905 345.454 145.12Z" fill="#FFB1A5"/>
<path d="M327.955 132.131C327.955 132.131 331.069 140.399 339.381 139.686C347.021 139.03 345.805 127.572 345.805 127.572L327.955 132.131Z" fill="#282828"/>
<path d="M320.394 121.136C317.676 123.601 311.599 114.251 314.225 111.626C316.851 109.001 318.854 113.119 318.854 113.119L320.026 115.911L320.91 119.69L321.121 120.68L320.394 121.136Z" fill="#F3978E"/>
<path d="M315.494 114.938C315.494 114.938 317.551 114.012 319.378 116.995" stroke="#282828" stroke-width="1.324" stroke-miterlimit="10" stroke-linecap="round" stroke-linejoin="round"/>
<path d="M352.532 120.852C355.031 123.538 361.877 114.735 359.482 111.898C357.088 109.06 354.744 112.995 354.744 112.995L353.34 115.676L352.138 119.368L351.845 120.337L352.532 120.852Z" fill="#F3978E"/>
<path d="M357.938 115.091C357.938 115.091 355.966 113.995 353.893 116.812" stroke="#282828" stroke-width="1.324" stroke-miterlimit="10" stroke-linecap="round" stroke-linejoin="round"/>
<path d="M315.627 102.707C315.627 115.083 325.063 120.953 336.703 120.953C348.343 120.953 357.779 115.083 357.779 102.707C357.779 90.3307 348.343 81.9108 336.703 81.9108C325.063 81.9108 315.627 90.3307 315.627 102.707Z" fill="#282828"/>
<path d="M318.491 103.568C318.491 111.166 319.565 117.722 320.636 122.375C321.685 126.931 324.638 130.115 328.81 132.678L329.57 133.145C333.984 135.857 339.688 135.92 344.17 133.307C348.69 130.671 351.855 127.197 352.829 122.308C354.601 113.416 354.794 103.568 354.794 103.568C354.794 103.568 356.48 84.3876 336.902 84.7606C317.324 85.1336 318.491 103.568 318.491 103.568Z" fill="#FFB1A5"/>
<path d="M335.455 114.514V117.168C335.455 117.325 335.485 117.476 335.541 117.614C335.758 118.156 336.385 118.416 336.95 118.266L338.167 117.943" stroke="#282828" stroke-width="1.64267" stroke-miterlimit="10" stroke-linecap="round" stroke-linejoin="round"/>
<path d="M332.342 104.222L322.612 106.502C322.612 106.502 323.054 104.026 327.035 103.126C331.016 102.226 332.342 104.222 332.342 104.222Z" fill="#282828"/>
<path d="M340.978 104.222L350.373 106.502C350.373 106.502 349.946 104.026 346.102 103.126C342.259 102.226 340.978 104.222 340.978 104.222Z" fill="#282828"/>
<path d="M330.286 111.369C330.286 112.273 329.552 113.005 328.645 113.005C327.739 113.005 327.005 112.273 327.005 111.369C327.005 110.466 327.739 109.733 328.645 109.733C329.552 109.733 330.286 110.466 330.286 111.369Z" fill="#282828"/>
<path d="M345.843 111.369C345.843 112.273 345.109 113.005 344.202 113.005C343.295 113.005 342.561 112.273 342.561 111.369C342.561 110.466 343.295 109.733 344.202 109.733C345.109 109.733 345.843 110.466 345.843 111.369Z" fill="#282828"/>
<path d="M330.286 121.355H342.94C342.94 121.355 337.332 128.178 330.286 121.355Z" fill="white"/>
<path d="M334.933 112.005C334.933 115.859 331.809 118.983 327.955 118.983C324.101 118.983 320.976 115.859 320.976 112.005C320.976 108.151 324.101 105.027 327.955 105.027C331.809 105.027 334.933 108.151 334.933 112.005Z" stroke="#FF522C" stroke-width="1.78933" stroke-miterlimit="10"/>
<path d="M352.075 112.005C352.075 115.859 348.951 118.983 345.097 118.983C341.244 118.983 338.119 115.859 338.119 112.005C338.119 108.151 341.244 105.027 345.097 105.027C348.951 105.027 352.075 108.151 352.075 112.005Z" stroke="#FF522C" stroke-width="1.78933" stroke-miterlimit="10"/>
<path d="M334.933 112.005C334.933 112.005 336.585 110.462 338.119 112.005" stroke="#FF522C" stroke-width="1.78933" stroke-miterlimit="10"/>
<path d="M320.977 112.005L318.779 111.95" stroke="#FF522C" stroke-width="1.78933" stroke-miterlimit="10"/>
<path d="M352.075 112.005L354.286 111.95" stroke="#FF522C" stroke-width="1.78933" stroke-miterlimit="10"/>
<path d="M354.543 109.927C354.543 109.927 346.715 99.345 348.521 88.6244C348.521 88.6244 354.331 91.548 355.844 99.0942C357.358 106.641 354.543 109.927 354.543 109.927Z" fill="#282828"/>
<path d="M318.478 110.644C318.478 110.644 327.571 98.6249 325.766 87.9043C325.766 87.9043 319.459 91.5481 317.945 99.0942C316.433 106.641 318.478 110.644 318.478 110.644Z" fill="#282828"/>
<path d="M353.886 92.8465C353.886 92.8465 343.836 103.85 316.336 101.966C316.336 101.966 320.547 85.8199 333.874 84.0999C333.874 84.0999 349.262 82.2623 353.886 92.8465Z" fill="#282828"/>
<path d="M366.311 79.9832C366.311 87.2347 360.432 93.1134 353.181 93.1134C345.929 93.1134 340.051 87.2347 340.051 79.9832C340.051 72.7317 345.929 66.8538 353.181 66.8538C360.432 66.8538 366.311 72.7317 366.311 79.9832Z" fill="#282828"/>
<path d="M192.898 225.561L168.443 222.049L168.666 218.987L140.063 223.094C140.063 223.094 124.452 268.208 138.346 362H158.239L165.173 266.896H167.716L174.875 362H194.768C208.662 268.208 192.898 225.561 192.898 225.561Z" fill="#282828"/>
<path d="M190.948 106.097C187.638 102.203 184.987 97.6608 182.735 91.2861C180.317 84.4437 172.4 87.2247 172.4 87.2247C172.4 87.2247 165.803 78.7374 155.876 81.694C145.948 84.6497 142.499 91.7148 142.296 100.113C142.093 108.512 135.488 109.826 130.4 119.542C121.42 136.695 136.54 151.143 164.064 147.135L164.1 146.868C166.811 147.691 170.133 148.05 174.188 147.809C207.253 145.846 204.062 121.526 190.948 106.097Z" fill="#282828"/>
<path d="M180.122 118.817C182.84 121.283 188.917 111.933 186.291 109.307C183.665 106.683 181.662 110.801 181.662 110.801L180.49 113.592L179.605 117.372L179.394 118.361L180.122 118.817Z" fill="#F3978E"/>
<path d="M185.022 112.62C185.022 112.62 182.965 111.694 181.137 114.677" stroke="#282828" stroke-width="1.324" stroke-miterlimit="10" stroke-linecap="round" stroke-linejoin="round"/>
<path d="M147.984 118.534C145.484 121.22 138.639 112.418 141.033 109.58C143.428 106.743 145.772 110.677 145.772 110.677L147.176 113.358L148.377 117.05L148.67 118.018L147.984 118.534Z" fill="#F3978E"/>
<path d="M142.578 112.773C142.578 112.773 144.549 111.677 146.623 114.494" stroke="#282828" stroke-width="1.324" stroke-miterlimit="10" stroke-linecap="round" stroke-linejoin="round"/>
<path d="M184.889 100.389C184.889 112.765 175.452 118.634 163.813 118.634C152.173 118.634 142.737 112.765 142.737 100.389C142.737 88.0124 152.173 79.5925 163.813 79.5925C175.452 79.5925 184.889 88.0124 184.889 100.389Z" fill="#282828"/>
<path d="M172.4 150.457H155.062V128.006H172.4V150.457Z" fill="#FFB1A5"/>
<path d="M152.532 126.606C152.532 126.606 157.358 136.238 163.296 137.742C164.882 138.144 166.576 138.006 168.105 137.464C170.34 136.671 173.174 133.34 173.656 129.653L173.879 127.547C173.879 127.547 163.314 133.3 152.532 126.606Z" fill="#282828"/>
<path d="M182.024 101.25C182.024 108.848 180.95 115.404 179.879 120.057C178.83 124.613 175.877 127.797 171.705 130.36L170.945 130.827C166.531 133.539 160.828 133.601 156.345 130.989C151.825 128.353 148.66 124.878 147.686 119.99C145.914 111.098 145.721 101.25 145.721 101.25C145.721 101.25 144.035 82.0697 163.614 82.4427C183.192 82.8149 182.024 101.25 182.024 101.25Z" fill="#FFB1A5"/>
<path d="M162.505 113.235V114.811C162.505 114.968 162.535 115.118 162.59 115.256C162.808 115.797 163.434 116.056 164 115.906L165.217 115.585" stroke="#282828" stroke-width="1.64" stroke-miterlimit="10" stroke-linecap="round" stroke-linejoin="round"/>
<path d="M166.584 102.838L177 105.303C177 105.303 176.527 102.626 172.265 101.653C168.004 100.68 166.584 102.838 166.584 102.838Z" fill="#282828"/>
<path d="M161.115 102.838L150.565 105.303C150.565 105.303 151.044 102.626 155.36 101.653C159.676 100.68 161.115 102.838 161.115 102.838Z" fill="#282828"/>
<path d="M157.336 109.303C157.336 110.204 156.602 110.934 155.695 110.934C154.789 110.934 154.054 110.204 154.054 109.303C154.054 108.402 154.789 107.671 155.695 107.671C156.602 107.671 157.336 108.402 157.336 109.303Z" fill="#282828"/>
<path d="M172.892 109.303C172.892 110.204 172.158 110.934 171.251 110.934C170.346 110.934 169.611 110.204 169.611 109.303C169.611 108.402 170.346 107.671 171.251 107.671C172.158 107.671 172.892 108.402 172.892 109.303Z" fill="#282828"/>
<path d="M156.252 118.634H170.654C170.654 118.634 169.638 122.591 163.107 122.591C158.134 122.591 156.252 118.634 156.252 118.634Z" fill="white"/>
<path d="M145.973 107.609C145.973 107.609 153.8 97.0262 151.995 86.3057C151.995 86.3057 146.185 89.2293 144.672 96.7763C143.159 104.322 145.973 107.609 145.973 107.609Z" fill="#282828"/>
<path d="M182.037 107.256C182.037 107.256 172.944 96.3071 174.75 85.5865C174.75 85.5865 181.057 89.2295 182.569 96.7757C184.083 104.323 182.037 107.256 182.037 107.256Z" fill="#282828"/>
<path d="M146.629 90.5282C146.629 90.5282 155.611 102.601 183.11 100.718C183.11 100.718 179.969 83.5016 166.642 81.7816C166.642 81.7816 151.254 79.9448 146.629 90.5282Z" fill="#282828"/>
<path d="M121.562 278.188C121.162 278.817 144.449 176.863 137.536 178.404C136.905 178.545 124.796 179.669 122.997 183.329C117.779 193.936 114.038 277.414 114.038 277.414L121.562 278.188Z" fill="#FFB1A5"/>
<path d="M114.038 277.414C114.038 277.414 110.284 294.831 124.474 296.734C125.409 296.859 126.312 296.307 126.62 295.416L126.661 295.298C127 294.313 126.508 293.259 125.557 292.834C123.244 291.799 119.655 289.185 121.435 283.25C121.435 283.25 123.487 282.999 124.618 286.825C124.91 287.809 126.015 288.303 126.931 287.842C127.557 287.527 127.909 286.853 127.821 286.158C127.481 283.478 126.133 277.029 120.96 275.298L114.038 277.414Z" fill="#FFB1A5"/>
<path d="M118.813 207.826C118.813 207.826 132.23 226.722 132.301 226.356C132.372 225.991 136.993 199.827 136.993 199.827L120.711 192.774L118.813 207.826Z" fill="#F3978E"/>
<path d="M156.094 146.761C156.666 146.758 122.933 147.362 116.768 189.957L136.154 192.927L140.063 225.084H194.145L204.882 165.67C204.882 165.67 197.249 152.799 175.001 146.492L156.094 146.761Z" fill="#F9C838"/>
<path d="M139.606 151.91C139.606 151.91 144.373 158.239 163.906 158.239C183.258 158.239 188.206 151.579 188.206 151.579C188.206 151.579 176.799 145.205 163.561 143.143C163.561 143.143 151.74 145.249 139.606 151.91Z" fill="#FFB1A5"/>
<path d="M297.221 286.85L297.175 371.797H255.15L251.921 286.85H297.221Z" fill="#215D9F"/>
<path d="M205.976 286.85L206.023 371.797H248.046L251.277 286.85H205.976Z" fill="#215D9F"/>
<path d="M477 362H83V371H477V362Z" fill="#102048"/>
<path d="M274.269 316.362H230.818V286.85H274.269V316.362Z" fill="#215D9F"/>
<path d="M323.769 212.717C326.375 241.502 323.626 262.476 324.386 315.442L299.304 316.493L295.567 217.348L323.769 212.717Z" fill="#FFB1A5"/>
<path d="M298.66 235.179C298.66 235.179 314.193 233.758 324.812 226.753L324.533 220.588L298.652 224.113L298.66 235.179Z" fill="#F3978E"/>
<path d="M273.742 146.444C273.742 146.444 323.078 158.851 332.017 221.472C332.017 221.472 307.871 231.941 283.673 227.438L289.117 206.494L273.742 146.444Z" fill="#FF522C"/>
<path d="M126.377 172.482L163.111 215.864L151.87 247.521C151.87 247.521 123.95 208.703 111.404 178.7L126.377 172.482Z" fill="#FFB1A5"/>
<path d="M127.584 174.048C127.584 174.048 114.685 181.336 111.404 178.699C105.671 174.093 100.932 157.229 100.932 157.229C100.932 157.229 125.054 148.136 124.827 148.491C124.6 148.846 127.584 174.048 127.584 174.048Z" fill="#FFB1A5"/>
<path d="M127.584 174.048C127.355 172.75 132.367 158.74 134.085 153.487C134.499 152.22 133.626 150.83 132.251 150.567C131.355 150.396 129.937 150.506 129.267 151.79L123.216 162.131L127.584 174.048Z" fill="#FFB1A5"/>
<path d="M127.142 158.904L122.988 138.237C122.742 136.862 121.36 135.915 119.981 136.175C118.788 136.401 118.001 137.464 118.142 138.66L119.952 154.048L127.142 158.904Z" fill="#FFB1A5"/>
<path d="M118.882 151.281L113.24 136.523C112.774 135.231 111.32 134.515 110.036 134.945C108.923 135.318 108.297 136.44 108.562 137.592L112.747 154.645L118.882 151.281Z" fill="#FFB1A5"/>
<path d="M112.819 155.632L105.682 141.131C105.027 139.786 103.398 139.161 102.059 139.743C100.803 140.289 100.247 141.713 100.784 143.007L106.474 156.697L112.819 155.632Z" fill="#FFB1A5"/>
<path d="M100.932 157.229L95.3319 148.346C94.868 147.301 95.2966 146.129 96.3114 145.665C97.2823 145.222 98.4812 145.571 99.1097 146.48L106.474 156.697L100.932 157.229Z" fill="#FFB1A5"/>
<path d="M126.013 157.351C126.013 157.351 117.603 156.469 116.739 167.677" stroke="#282828" stroke-width="2.04267" stroke-miterlimit="10" stroke-linecap="round" stroke-linejoin="round"/>
<path d="M144.419 232.714C144.419 232.714 151.329 256.625 165.097 253.446C178.864 250.267 200.321 220.862 200.321 220.862L195.519 170.653L156.876 218.212L144.419 232.714Z" fill="#FFB1A5"/>
<path d="M168.862 203.44C168.862 203.44 181.908 223.118 193.038 230.057L200.322 220.862L172.221 199.123L168.862 203.44Z" fill="#F3978E"/>
<path d="M225.942 145.358C225.942 145.358 187.639 153.992 167.227 198.507C167.227 198.507 179.56 217.09 199.331 225.349L212.568 209.133L225.942 145.358Z" fill="#FF522C"/>
<path d="M225.942 145.221C210.979 152.896 201.573 163.074 201.573 163.074L204.525 293.199H298.815L298.509 163.745C298.509 163.745 286.624 152.114 273.742 146.444C262.802 141.628 236.578 139.765 225.942 145.221Z" fill="#FF522C"/>
<path d="M270.558 208.628C263.315 208.628 257.444 202.756 257.444 195.513V182.398H283.673V195.513C283.673 202.756 277.801 208.628 270.558 208.628Z" stroke="#282828" stroke-width="1.86267" stroke-miterlimit="10" stroke-linecap="round" stroke-linejoin="round"/>
<path d="M298.66 227.922L299.884 185.354" stroke="#282828" stroke-width="1.86267" stroke-miterlimit="10" stroke-linecap="round" stroke-linejoin="round"/>
<path d="M203.022 220.827L200.984 183.928" stroke="#282828" stroke-width="1.86267" stroke-miterlimit="10" stroke-linecap="round" stroke-linejoin="round"/>
<path d="M227.046 97.6924L223.116 78.2472C222.895 76.6635 222.28 74.2186 223.033 71.9227C224.278 68.123 228.853 60.826 236.674 64.1665L238.364 71.8655C238.364 71.8655 230.243 73.5048 226.985 84.129L227.046 97.6924Z" fill="#282828"/>
<path d="M236.098 68.1805C235.955 70.7358 233.7 81.9148 225.772 85.9872C225.772 85.9872 218.827 71.0947 236.098 68.1805Z" fill="#282828"/>
<path d="M263.91 141.64V108.622H233.472V141.64L224.411 145.77C224.411 145.77 226.536 159.455 249.01 159.759C271.485 160.063 273.742 146.444 273.742 146.444L263.91 141.64Z" fill="#FFB1A5"/>
<path d="M236.673 64.1668C236.673 64.1668 242.26 49.4302 259.486 57.2639C269.912 62.0063 272.832 68.3638 274.074 72.8687C274.487 74.3654 274.652 76.7225 274.54 78.1228L270.372 97.6927L254.106 70.6166L238.364 71.8657L236.673 64.1668Z" fill="#282828"/>
<path d="M270.373 97.6924C270.373 97.6924 272.425 94.4279 276.658 96.0335C280.891 97.6391 278.976 107.918 272.627 109.228C272.627 109.228 270.351 109.724 268.566 108.166C268.566 108.166 270.128 100.574 270.373 97.6924Z" fill="#F3978E"/>
<path d="M275.818 99.6599C275.818 99.6599 272.273 98.4767 269.756 103.698" stroke="#282828" stroke-width="1.86267" stroke-miterlimit="10" stroke-linecap="round" stroke-linejoin="round"/>
<path d="M227.046 97.6924C227.046 97.6924 224.994 94.4279 220.762 96.0335C216.529 97.6391 218.444 107.918 224.793 109.228C224.793 109.228 227.068 109.724 228.853 108.166C228.853 108.166 227.292 100.574 227.046 97.6924Z" fill="#F3978E"/>
<path d="M221.601 99.6599C221.601 99.6599 225.146 98.4767 227.663 103.698" stroke="#282828" stroke-width="1.86267" stroke-miterlimit="10" stroke-linecap="round" stroke-linejoin="round"/>
<path d="M270.797 87.9383C270.799 94.1351 270.191 107.099 266.381 114.793C262.805 122.018 256.888 125.907 249.133 126.138C241.377 126.37 235.599 123.38 230.969 114.004C226.339 104.628 226.56 88.0535 226.56 88.0535C226.56 88.0535 226.56 65.9165 248.438 65.9165C271.481 65.9165 270.797 87.9383 270.797 87.9383Z" fill="#FFB1A5"/>
<path d="M233.7 118.625C233.7 118.625 236.249 131.56 247.506 133.045C260.46 134.755 263.911 118.954 263.911 118.954C263.911 118.954 258.186 126.127 249.132 126.138C239.036 126.151 233.7 118.625 233.7 118.625Z" fill="#282828"/>
<path d="M247.118 97.1285V102.252C247.118 102.471 247.16 102.682 247.238 102.875C247.541 103.635 248.415 103.998 249.205 103.788L250.903 103.336" stroke="#282828" stroke-width="1.86267" stroke-miterlimit="10" stroke-linecap="round" stroke-linejoin="round"/>
<path d="M240.656 94.6816C240.656 95.7818 239.765 96.6735 238.664 96.6735C237.565 96.6735 236.673 95.7818 236.673 94.6816C236.673 93.5822 237.565 92.6897 238.664 92.6897C239.765 92.6897 240.656 93.5822 240.656 94.6816Z" fill="#282828"/>
<path d="M259.331 94.6816C259.331 95.7818 258.438 96.6735 257.339 96.6735C256.239 96.6735 255.347 95.7818 255.347 94.6816C255.347 93.5822 256.239 92.6897 257.339 92.6897C258.438 92.6897 259.331 93.5822 259.331 94.6816Z" fill="#282828"/>
<path d="M252.24 84.7732L265.632 88.2329C265.632 88.2329 265.023 84.4763 259.544 83.1112C254.066 81.7469 252.24 84.7732 252.24 84.7732Z" fill="#282828"/>
<path d="M243.919 84.7732L230.528 88.2329C230.528 88.2329 231.137 84.4763 236.615 83.1112C242.093 81.7469 243.919 84.7732 243.919 84.7732Z" fill="#282828"/>
<path d="M241.256 107.413C241.256 107.413 243.232 108.927 248.426 108.927C253.151 108.927 256.101 107.413 256.101 107.413" stroke="#282828" stroke-width="1.86267" stroke-miterlimit="10" stroke-linecap="round" stroke-linejoin="round"/>
<path d="M246.592 95.2636C246.592 99.9378 242.804 103.727 238.129 103.727C233.455 103.727 229.666 99.9378 229.666 95.2636C229.666 90.5893 233.455 86.8006 238.129 86.8006C242.804 86.8006 246.592 90.5893 246.592 95.2636Z" stroke="white" stroke-width="2.60133" stroke-miterlimit="10"/>
<path d="M267.383 95.2636C267.383 99.9378 263.594 103.727 258.92 103.727C254.246 103.727 250.456 99.9378 250.456 95.2636C250.456 90.5893 254.246 86.8006 258.92 86.8006C263.594 86.8006 267.383 90.5893 267.383 95.2636Z" stroke="white" stroke-width="2.60133" stroke-miterlimit="10"/>
<path d="M246.592 95.2636C246.592 95.2636 248.597 93.3931 250.457 95.2636" stroke="white" stroke-width="2.60133" stroke-miterlimit="10"/>
<path d="M229.666 95.2636L226.828 95.1915" stroke="white" stroke-width="2.60133" stroke-miterlimit="10"/>
<path d="M267.383 95.2636L270.551 95.2126" stroke="white" stroke-width="2.60133" stroke-miterlimit="10"/>
<path d="M233.7 68.6859C233.7 68.6859 237.765 80.2324 256.104 79.8782C268.566 79.6377 271.544 88.6554 271.544 88.6554C271.544 88.6554 269.375 68.4955 268.805 68.6859C268.235 68.8764 249.842 63.7782 249.842 63.7782L233.7 68.6859Z" fill="#282828"/>
</svg>
