<svg width="254" height="187" viewBox="0 0 254 187" fill="none" xmlns="http://www.w3.org/2000/svg">
<path d="M159.658 38.7954L158.889 38.0379L184.149 13.1288L204.027 32.6774L235.085 2.08716L235.854 2.84464L204.027 34.2214L184.149 14.6437L159.658 38.7954Z" fill="#01B1EC"/>
<path d="M184.358 12.1675L181.992 13.9155V12.1675H184.358Z" fill="#01B1EC"/>
<path d="M184.447 12.1678L181.992 13.9741V13.9159L184.358 12.1678H184.447Z" fill="#01B1EC"/>
<path d="M184.506 12.1674L181.992 14.061V13.9736L184.447 12.1674H184.506Z" fill="#01B1EC"/>
<path d="M184.595 12.1672L181.992 14.1191V14.0609L184.506 12.1672H184.595Z" fill="#01B1EC"/>
<path d="M184.683 12.1665L181.992 14.1768V14.1185L184.595 12.1665H184.683Z" fill="#01B1EC"/>
<path d="M184.772 12.1674L181.992 14.2358V14.1776L184.683 12.1674H184.772Z" fill="#01B1EC"/>
<path d="M184.861 12.1677L181.992 14.2944V14.2362L184.772 12.1677H184.861Z" fill="#01B1EC"/>
<path d="M184.95 12.1675L181.992 14.3525V14.2943L184.861 12.1675H184.95Z" fill="#01B1EC"/>
<path d="M185.009 12.167L181.992 14.4395V14.3521L184.95 12.167H185.009Z" fill="#01B1EC"/>
<path d="M185.098 12.1669L181.992 14.4976V14.4393L185.009 12.1669H185.098Z" fill="#01B1EC"/>
<path d="M185.186 12.1667L181.992 14.5557V14.4974L185.098 12.1667H185.186Z" fill="#01B1EC"/>
<path d="M185.275 12.168L181.992 14.6152V14.557L185.186 12.168H185.275Z" fill="#01B1EC"/>
<path d="M185.364 12.1664L181.992 14.6719V14.6136L185.275 12.1664H185.364Z" fill="#01B1EC"/>
<path d="M185.452 12.1672L181.992 14.731V14.6727L185.364 12.1672H185.452Z" fill="#01B1EC"/>
<path d="M185.541 12.1657L181.992 14.8169V14.7295L185.452 12.1657H185.541Z" fill="#01B1EC"/>
<path d="M185.6 12.167L181.992 14.8765V14.8182L185.541 12.167H185.6Z" fill="#01B1EC"/>
<path d="M185.689 12.1674L181.992 14.9351V14.8768L185.6 12.1674H185.689Z" fill="#01B1EC"/>
<path d="M185.778 12.1672L181.992 14.9932V14.9349L185.689 12.1672H185.778Z" fill="#01B1EC"/>
<path d="M185.867 12.1671L181.992 15.0513V14.993L185.778 12.1671H185.867Z" fill="#01B1EC"/>
<path d="M185.955 12.1674L181.992 15.1099V15.0516L185.867 12.1674H185.955Z" fill="#01B1EC"/>
<path d="M186.044 12.1664L181.992 15.1963V15.1089L185.955 12.1664H186.044Z" fill="#01B1EC"/>
<path d="M186.103 12.1667L181.992 15.2549V15.1966L186.044 12.1667H186.103Z" fill="#01B1EC"/>
<path d="M186.103 12.2253L181.992 15.3135V15.2552L186.103 12.1671V12.2253Z" fill="#01B1EC"/>
<path d="M186.103 12.2839L181.992 15.3721V15.3138L186.103 12.2256V12.2839Z" fill="#01B1EC"/>
<path d="M186.103 12.342L181.992 15.4302V15.3719L186.103 12.2838V12.342Z" fill="#01B1EC"/>
<path d="M186.103 12.4293L181.992 15.4883V15.43L186.103 12.3419V12.4293Z" fill="#01B1EC"/>
<path d="M186.103 12.487L181.992 15.5752V15.4878L186.103 12.4288V12.487Z" fill="#01B1EC"/>
<path d="M186.103 12.5461L181.992 15.6343V15.576L186.103 12.4879V12.5461Z" fill="#01B1EC"/>
<path d="M186.103 12.6042L181.992 15.6924V15.6341L186.103 12.546V12.6042Z" fill="#01B1EC"/>
<path d="M186.103 12.6618L181.992 15.75V15.6917L186.103 12.6036V12.6618Z" fill="#01B1EC"/>
<path d="M186.103 12.7199L181.992 15.8081V15.7498L186.103 12.6617V12.7199Z" fill="#01B1EC"/>
<path d="M186.103 12.8077L181.992 15.8667V15.8084L186.103 12.7203V12.8077Z" fill="#01B1EC"/>
<path d="M186.103 12.8659L181.992 15.9541V15.8667L186.103 12.8077V12.8659Z" fill="#01B1EC"/>
<path d="M186.103 12.9241L181.992 16.0122V15.9539L186.103 12.8658V12.9241Z" fill="#01B1EC"/>
<path d="M186.103 12.9826L181.992 16.0708V16.0125L186.103 12.9244V12.9826Z" fill="#01B1EC"/>
<path d="M186.103 13.0408L181.992 16.1289V16.0706L186.103 12.9825V13.0408Z" fill="#01B1EC"/>
<path d="M186.103 13.0998L181.992 16.188V16.1297L186.103 13.0416V13.0998Z" fill="#01B1EC"/>
<path d="M186.103 13.1864L182.051 16.2163H181.992V16.1872L186.103 13.099V13.1864Z" fill="#01B1EC"/>
<path d="M186.104 13.2447L182.14 16.2163H182.051L186.104 13.1864V13.2447Z" fill="#01B1EC"/>
<path d="M186.102 13.303L182.227 16.2163H182.139L186.102 13.2447V13.303Z" fill="#01B1EC"/>
<path d="M186.103 13.3612L182.317 16.2163H182.228L186.103 13.303V13.3612Z" fill="#01B1EC"/>
<path d="M186.103 13.4195L182.405 16.2163H182.316L186.103 13.3612V13.4195Z" fill="#01B1EC"/>
<path d="M186.102 13.4778L182.494 16.2163H182.405L186.102 13.4195V13.4778Z" fill="#01B1EC"/>
<path d="M186.104 13.5652L182.584 16.2163H182.495L186.104 13.4778V13.5652Z" fill="#01B1EC"/>
<path d="M182.582 16.2163L186.102 13.5652V16.2163H182.582Z" fill="#01B1EC"/>
<path d="M186.103 14.177C186.103 15.3132 185.186 16.2163 184.062 16.2163C182.909 16.2163 181.992 15.3132 181.992 14.177C181.992 13.0699 182.909 12.1667 184.062 12.1667C185.186 12.1667 186.103 13.0699 186.103 14.177Z" fill="#01B1EC"/>
<path d="M204.443 31.6568L202.077 33.4048V31.6568H204.443Z" fill="#01B1EC"/>
<path d="M204.532 31.6578L202.077 33.4932V33.4058L204.443 31.6578H204.532Z" fill="#01B1EC"/>
<path d="M204.62 31.6561L202.077 33.5498V33.4915L204.532 31.6561H204.62Z" fill="#01B1EC"/>
<path d="M204.68 31.6569L202.077 33.6089V33.5506L204.62 31.6569H204.68Z" fill="#01B1EC"/>
<path d="M204.768 31.6573L202.077 33.6675V33.6092L204.68 31.6573H204.768Z" fill="#01B1EC"/>
<path d="M204.857 31.6571L202.077 33.7256V33.6673L204.768 31.6571H204.857Z" fill="#01B1EC"/>
<path d="M204.946 31.6579L202.077 33.7847V33.7264L204.857 31.6579H204.946Z" fill="#01B1EC"/>
<path d="M205.035 31.6574L202.077 33.8716V33.7842L204.946 31.6574H205.035Z" fill="#01B1EC"/>
<path d="M205.123 31.6583L202.077 33.9307V33.8724L205.035 31.6583H205.123Z" fill="#01B1EC"/>
<path d="M205.183 31.6576L202.077 33.9883V33.93L205.123 31.6576H205.183Z" fill="#01B1EC"/>
<path d="M205.271 31.6574L202.077 34.0464V33.9881L205.183 31.6574H205.271Z" fill="#01B1EC"/>
<path d="M205.36 31.6563L202.077 34.1035V34.0453L205.271 31.6563H205.36Z" fill="#01B1EC"/>
<path d="M205.449 31.6571L202.077 34.1626V34.1043L205.36 31.6571H205.449Z" fill="#01B1EC"/>
<path d="M205.537 31.6571L202.077 34.25V34.1626L205.449 31.6571H205.537Z" fill="#01B1EC"/>
<path d="M205.626 31.6574L202.077 34.3086V34.2503L205.537 31.6574H205.626Z" fill="#01B1EC"/>
<path d="M205.715 31.6573L202.077 34.3667V34.3084L205.626 31.6573H205.715Z" fill="#01B1EC"/>
<path d="M205.774 31.6581L202.077 34.4258V34.3675L205.715 31.6581H205.774Z" fill="#01B1EC"/>
<path d="M205.863 31.6574L202.077 34.4834V34.4251L205.774 31.6574H205.863Z" fill="#01B1EC"/>
<path d="M205.952 31.6583L202.077 34.5425V34.4842L205.863 31.6583H205.952Z" fill="#01B1EC"/>
<path d="M206.04 31.6568L202.077 34.6284V34.541L205.952 31.6568H206.04Z" fill="#01B1EC"/>
<path d="M206.129 31.6586L202.077 34.6885V34.6302L206.04 31.6586H206.129Z" fill="#01B1EC"/>
<path d="M206.188 31.6575L202.077 34.7456V34.6873L206.129 31.6575H206.188Z" fill="#01B1EC"/>
<path d="M206.188 31.7161L202.077 34.8042V34.7459L206.188 31.6578V31.7161Z" fill="#01B1EC"/>
<path d="M206.188 31.7741L202.077 34.8623V34.804L206.188 31.7159V31.7741Z" fill="#01B1EC"/>
<path d="M206.188 31.8616L202.077 34.9497V34.8623L206.188 31.7742V31.8616Z" fill="#01B1EC"/>
<path d="M206.188 31.9197L202.077 35.0078V34.9495L206.188 31.8614V31.9197Z" fill="#01B1EC"/>
<path d="M206.188 31.9783L202.077 35.0664V35.0081L206.188 31.92V31.9783Z" fill="#01B1EC"/>
<path d="M206.188 32.0364L202.077 35.1245V35.0663L206.188 31.9781V32.0364Z" fill="#01B1EC"/>
<path d="M206.188 32.0954L202.077 35.1836V35.1253L206.188 32.0372V32.0954Z" fill="#01B1EC"/>
<path d="M206.188 32.1521L202.077 35.2402V35.182L206.188 32.0938V32.1521Z" fill="#01B1EC"/>
<path d="M206.188 32.24L202.077 35.3281V35.2407L206.188 32.1526V32.24Z" fill="#01B1EC"/>
<path d="M206.188 32.2976L202.077 35.3857V35.3275L206.188 32.2393V32.2976Z" fill="#01B1EC"/>
<path d="M206.188 32.3562L202.077 35.4443V35.3861L206.188 32.2979V32.3562Z" fill="#01B1EC"/>
<path d="M206.188 32.4143L202.077 35.5024V35.4442L206.188 32.356V32.4143Z" fill="#01B1EC"/>
<path d="M206.188 32.4734L202.077 35.5615V35.5033L206.188 32.4151V32.4734Z" fill="#01B1EC"/>
<path d="M206.188 32.531L202.077 35.6191V35.5609L206.188 32.4727V32.531Z" fill="#01B1EC"/>
<path d="M206.188 32.6184L202.077 35.7065V35.6191L206.188 32.531V32.6184Z" fill="#01B1EC"/>
<path d="M206.188 32.6767L202.165 35.7065H202.077L206.188 32.6184V32.6767Z" fill="#01B1EC"/>
<path d="M206.188 32.7349L202.224 35.7065H202.165L206.188 32.6767V32.7349Z" fill="#01B1EC"/>
<path d="M206.187 32.7932L202.312 35.7065H202.224L206.187 32.7349V32.7932Z" fill="#01B1EC"/>
<path d="M206.189 32.8515L202.403 35.7065H202.314L206.189 32.7932V32.8515Z" fill="#01B1EC"/>
<path d="M206.188 32.9097L202.49 35.7065H202.401L206.188 32.8515V32.9097Z" fill="#01B1EC"/>
<path d="M206.188 32.9971L202.579 35.7065H202.491L206.188 32.9097V32.9971Z" fill="#01B1EC"/>
<path d="M206.188 33.0554L202.668 35.7065H202.579L206.188 32.9971V33.0554Z" fill="#01B1EC"/>
<path d="M202.667 35.7065L206.187 33.0554V35.7065H202.667Z" fill="#01B1EC"/>
<path d="M206.188 33.6672C206.188 34.8034 205.271 35.7065 204.147 35.7065C202.994 35.7065 202.077 34.8034 202.077 33.6672C202.077 32.5601 202.994 31.657 204.147 31.657C205.271 31.657 206.188 32.5601 206.188 33.6672Z" fill="#01B1EC"/>
<path d="M159.571 36.3767L157.205 38.1538V36.3767H159.571Z" fill="#01B1EC"/>
<path d="M159.66 36.3765L157.205 38.2119V38.1536L159.571 36.3765H159.66Z" fill="#01B1EC"/>
<path d="M159.719 36.3778L157.205 38.2715V38.2132L159.66 36.3778H159.719Z" fill="#01B1EC"/>
<path d="M159.808 36.3772L157.205 38.3291V38.2708L159.719 36.3772H159.808Z" fill="#01B1EC"/>
<path d="M159.897 36.3775L157.205 38.3877V38.3294L159.808 36.3775H159.897Z" fill="#01B1EC"/>
<path d="M159.986 36.3765L157.205 38.4741V38.3867L159.897 36.3765H159.986Z" fill="#01B1EC"/>
<path d="M160.074 36.3768L157.205 38.5327V38.4744L159.986 36.3768H160.074Z" fill="#01B1EC"/>
<path d="M160.163 36.3772L157.205 38.5913V38.533L160.074 36.3772H160.163Z" fill="#01B1EC"/>
<path d="M160.252 36.3775L157.205 38.6499V38.5916L160.163 36.3775H160.252Z" fill="#01B1EC"/>
<path d="M160.311 36.3768L157.205 38.7075V38.6492L160.252 36.3768H160.311Z" fill="#01B1EC"/>
<path d="M160.4 36.3767L157.205 38.7656V38.7074L160.311 36.3767H160.4Z" fill="#01B1EC"/>
<path d="M160.488 36.3772L157.205 38.8535V38.7661L160.4 36.3772H160.488Z" fill="#01B1EC"/>
<path d="M160.577 36.378L157.205 38.9126V38.8543L160.488 36.378H160.577Z" fill="#01B1EC"/>
<path d="M160.666 36.3773L157.205 38.9702V38.9119L160.577 36.3773H160.666Z" fill="#01B1EC"/>
<path d="M160.755 36.3772L157.205 39.0283V38.9701L160.666 36.3772H160.755Z" fill="#01B1EC"/>
<path d="M160.814 36.376L157.205 39.0854V39.0272L160.755 36.376H160.814Z" fill="#01B1EC"/>
<path d="M160.903 36.3768L157.205 39.1445V39.0863L160.814 36.3768H160.903Z" fill="#01B1EC"/>
<path d="M160.991 36.3759L157.205 39.231V39.1436L160.903 36.3759H160.991Z" fill="#01B1EC"/>
<path d="M161.08 36.3777L157.205 39.291V39.2327L160.991 36.3777H161.08Z" fill="#01B1EC"/>
<path d="M161.169 36.3765L157.205 39.3481V39.2899L161.08 36.3765H161.169Z" fill="#01B1EC"/>
<path d="M161.257 36.3769L157.205 39.4067V39.3485L161.169 36.3769H161.257Z" fill="#01B1EC"/>
<path d="M161.317 36.3772L157.205 39.4653V39.4071L161.257 36.3772H161.317Z" fill="#01B1EC"/>
<path d="M161.317 36.4343L157.205 39.5225V39.4642L161.317 36.376V36.4343Z" fill="#01B1EC"/>
<path d="M161.317 36.5227L157.205 39.6108V39.5234L161.317 36.4644V36.5227Z" fill="#01B1EC"/>
<path d="M161.317 36.5813L157.205 39.6694V39.6112L161.317 36.523V36.5813Z" fill="#01B1EC"/>
<path d="M161.317 36.6389L157.205 39.7271V39.6688L161.317 36.5806V36.6389Z" fill="#01B1EC"/>
<path d="M161.317 36.6975L157.205 39.7856V39.7274L161.317 36.6392V36.6975Z" fill="#01B1EC"/>
<path d="M161.317 36.7566L157.205 39.8447V39.7865L161.317 36.6983V36.7566Z" fill="#01B1EC"/>
<path d="M161.317 36.8428L157.205 39.9019V39.8436L161.317 36.7554V36.8428Z" fill="#01B1EC"/>
<path d="M161.317 36.9016L157.205 39.9897V39.9023L161.317 36.8433V36.9016Z" fill="#01B1EC"/>
<path d="M161.317 36.9592L157.205 40.0474V39.9891L161.317 36.9009V36.9592Z" fill="#01B1EC"/>
<path d="M161.317 37.0183L157.205 40.1064V40.0482L161.317 36.96V37.0183Z" fill="#01B1EC"/>
<path d="M161.317 37.0759L157.205 40.1641V40.1058L161.317 37.0176V37.0759Z" fill="#01B1EC"/>
<path d="M161.317 37.1345L157.205 40.2227V40.1644L161.317 37.0762V37.1345Z" fill="#01B1EC"/>
<path d="M161.317 37.2213L157.205 40.2803V40.222L161.317 37.1338V37.2213Z" fill="#01B1EC"/>
<path d="M161.317 37.2795L157.205 40.3677V40.2803L161.317 37.2213V37.2795Z" fill="#01B1EC"/>
<path d="M161.317 37.3371L157.205 40.4253V40.367L161.317 37.2789V37.3371Z" fill="#01B1EC"/>
<path d="M161.317 37.3954L157.294 40.4253H157.205L161.317 37.3371V37.3954Z" fill="#01B1EC"/>
<path d="M161.316 37.4537L157.353 40.4253H157.293L161.316 37.3954V37.4537Z" fill="#01B1EC"/>
<path d="M161.316 37.5119L157.441 40.4253H157.353L161.316 37.4537V37.5119Z" fill="#01B1EC"/>
<path d="M161.315 37.5993L157.529 40.4253H157.44L161.315 37.5119V37.5993Z" fill="#01B1EC"/>
<path d="M161.314 37.6576L157.617 40.4253H157.528L161.314 37.5993V37.6576Z" fill="#01B1EC"/>
<path d="M161.317 37.7159L157.708 40.4253H157.62L161.317 37.6576V37.7159Z" fill="#01B1EC"/>
<path d="M161.316 37.7741L157.796 40.4253H157.707L161.316 37.7159V37.7741Z" fill="#01B1EC"/>
<path d="M157.795 40.4253L161.315 37.7741V40.4253H157.795Z" fill="#01B1EC"/>
<path d="M161.317 38.4151C161.317 39.5222 160.4 40.4253 159.276 40.4253C158.122 40.4253 157.205 39.5222 157.205 38.4151C157.205 37.2789 158.122 36.3757 159.276 36.3757C160.4 36.3757 161.317 37.2789 161.317 38.4151Z" fill="#01B1EC"/>
<path d="M235.766 0.45609L233.399 2.2041V0.45609H235.766Z" fill="#01B1EC"/>
<path d="M235.855 0.455436L233.399 2.26172V2.20345L235.766 0.455436H235.855Z" fill="#01B1EC"/>
<path d="M235.914 0.455442L233.399 2.34912V2.26172L235.855 0.455442H235.914Z" fill="#01B1EC"/>
<path d="M236.002 0.455277L233.399 2.40723V2.34896L235.914 0.455277H236.002Z" fill="#01B1EC"/>
<path d="M236.091 0.455605L233.399 2.46582V2.40755L236.002 0.455605H236.091Z" fill="#01B1EC"/>
<path d="M236.18 0.456421L233.399 2.5249V2.46664L236.091 0.456421H236.18Z" fill="#01B1EC"/>
<path d="M236.269 0.455282L233.399 2.58203V2.52377L236.18 0.455282H236.269Z" fill="#01B1EC"/>
<path d="M236.357 0.456099L233.399 2.64111V2.58285L236.269 0.456099H236.357Z" fill="#01B1EC"/>
<path d="M236.446 0.454635L233.399 2.72705V2.63965L236.357 0.454635H236.446Z" fill="#01B1EC"/>
<path d="M236.505 0.456427L233.399 2.78711V2.72884L236.446 0.456427H236.505Z" fill="#01B1EC"/>
<path d="M236.594 0.455773L233.399 2.84473V2.78646L236.505 0.455773H236.594Z" fill="#01B1EC"/>
<path d="M236.683 0.455124L233.399 2.90234V2.84408L236.594 0.455124H236.683Z" fill="#01B1EC"/>
<path d="M236.771 0.455452L233.399 2.96094V2.90267L236.683 0.455452H236.771Z" fill="#01B1EC"/>
<path d="M236.86 0.455454L233.399 3.04834V2.96094L236.771 0.455454H236.86Z" fill="#01B1EC"/>
<path d="M236.949 0.454803L233.399 3.10596V3.04769L236.86 0.454803H236.949Z" fill="#01B1EC"/>
<path d="M237.008 0.456108L233.399 3.16553V3.10726L236.949 0.456108H237.008Z" fill="#01B1EC"/>
<path d="M237.097 0.454971L233.399 3.22266V3.16439L237.008 0.454971H237.097Z" fill="#01B1EC"/>
<path d="M237.186 0.455782L233.399 3.28174V3.22347L237.097 0.455782H237.186Z" fill="#01B1EC"/>
<path d="M237.274 0.455133L233.399 3.33936V3.28109L237.186 0.455133H237.274Z" fill="#01B1EC"/>
<path d="M237.363 0.455133L233.399 3.42676V3.33936L237.274 0.455133H237.363Z" fill="#01B1EC"/>
<path d="M237.452 0.454974L233.399 3.48486V3.4266L237.363 0.454974H237.452Z" fill="#01B1EC"/>
<path d="M237.511 0.45579L233.399 3.54395V3.48568L237.452 0.45579H237.511Z" fill="#01B1EC"/>
<path d="M237.511 0.51341L233.399 3.60156V3.5433L237.511 0.45514V0.51341Z" fill="#01B1EC"/>
<path d="M237.511 0.572493L233.399 3.66064V3.60238L237.511 0.514227V0.572493Z" fill="#01B1EC"/>
<path d="M237.511 0.631082L233.399 3.71924V3.66097L237.511 0.572816V0.631082Z" fill="#01B1EC"/>
<path d="M237.511 0.718L233.399 3.80615V3.71875L237.511 0.630599V0.718Z" fill="#01B1EC"/>
<path d="M237.511 0.776102L233.399 3.86426V3.80599L237.511 0.717835V0.776102Z" fill="#01B1EC"/>
<path d="M237.511 0.835184L233.399 3.92334V3.86507L237.511 0.776917V0.835184Z" fill="#01B1EC"/>
<path d="M237.511 0.891824L233.399 3.97998V3.92171L237.511 0.833558V0.891824Z" fill="#01B1EC"/>
<path d="M237.511 0.950422L233.399 4.03857V3.98031L237.511 0.892152V0.950422Z" fill="#01B1EC"/>
<path d="M237.511 1.00902L233.399 4.09717V4.0389L237.511 0.95075V1.00902Z" fill="#01B1EC"/>
<path d="M237.511 1.09739L233.399 4.18555V4.09815L237.511 1.00999V1.09739Z" fill="#01B1EC"/>
<path d="M237.511 1.15404L233.399 4.24219V4.18392L237.511 1.09577V1.15404Z" fill="#01B1EC"/>
<path d="M237.511 1.2136L233.399 4.30176V4.24349L237.511 1.15534V1.2136Z" fill="#01B1EC"/>
<path d="M237.511 1.2722L233.399 4.36035V4.30209L237.511 1.21393V1.2722Z" fill="#01B1EC"/>
<path d="M237.511 1.32884L233.399 4.41699V4.35873L237.511 1.27057V1.32884Z" fill="#01B1EC"/>
<path d="M237.511 1.38792L233.399 4.47607V4.41781L237.511 1.32965V1.38792Z" fill="#01B1EC"/>
<path d="M237.511 1.47548L233.488 4.50537H233.399V4.47624L237.511 1.38808V1.47548Z" fill="#01B1EC"/>
<path d="M237.512 1.53375L233.548 4.50537H233.489L237.512 1.47548V1.53375Z" fill="#01B1EC"/>
<path d="M237.513 1.59202L233.638 4.50537H233.549L237.513 1.53375V1.59202Z" fill="#01B1EC"/>
<path d="M237.514 1.65028L233.727 4.50537H233.639L237.514 1.59202V1.65028Z" fill="#01B1EC"/>
<path d="M237.513 1.70855L233.815 4.50537H233.727L237.513 1.65028V1.70855Z" fill="#01B1EC"/>
<path d="M237.512 1.76682L233.904 4.50537H233.815L237.512 1.70855V1.76682Z" fill="#01B1EC"/>
<path d="M237.513 1.85422L233.993 4.50537H233.904L237.513 1.76682V1.85422Z" fill="#01B1EC"/>
<path d="M233.994 4.50537L237.514 1.85422V4.50537H233.994Z" fill="#01B1EC"/>
<path d="M237.511 2.46602C237.511 3.60223 236.594 4.50537 235.47 4.50537C234.316 4.50537 233.399 3.60223 233.399 2.46602C233.399 1.35895 234.316 0.455808 235.47 0.455808C236.594 0.455808 237.511 1.35895 237.511 2.46602Z" fill="#01B1EC"/>
<path d="M18.8604 153.698C20.3986 155.825 21.9959 157.835 23.6227 159.816H239.641C244.581 151.717 247.095 140.85 243.575 131.848C240.854 124.827 235.086 120.427 231.862 113.727C224.94 99.4804 230.294 77.2806 219.941 66.9674C210.358 57.4407 194.266 66.1225 185.333 55.6053C181.518 51.0896 180.127 44.0975 176.844 38.9409C172.259 31.8032 164.391 29.0646 157.203 30.2591C150.045 31.4536 143.479 36.0275 137.622 41.4464C129.576 48.8754 122.507 57.9651 114.55 65.5689C106.593 73.2019 97.3347 79.4365 87.396 79.9318C67.0749 80.9223 49.2977 58.1399 29.0653 60.2666C19.5408 61.2863 10.5486 68.191 5.4018 78.4168C-0.454931 90.0994 -1.10568 105.22 1.97058 118.505C5.04684 131.819 11.4656 143.53 18.8604 153.698Z" fill="white" fill-opacity="0.2"/>
<path d="M147.915 133.654C154.009 140.85 163.001 145.162 172.466 145.512C176.252 145.628 180.275 145.133 183.795 143.356C186.191 142.161 188.35 140.355 190.007 137.733C190.007 137.733 195.686 129.547 188.676 122.788C188.676 122.788 181.251 114.922 188.439 110.785C189.681 110.056 191.101 109.707 192.521 109.532C194.533 109.299 198.437 108.425 201.513 105.249C203.968 102.715 205.211 99.1894 204.856 95.6934C204.56 92.9257 203.288 89.5753 199.384 87.1573C196.84 85.584 195.716 82.0298 197.49 79.4951C198.112 78.6211 198.91 77.9219 199.679 77.1645C201.632 75.2125 203.406 72.8527 204.323 70.2307C205.122 67.9874 205.152 65.3654 203.909 63.326C203.229 62.1898 202.164 61.2867 200.981 60.5583C200.705 60.3835 200.419 60.2282 200.123 60.0922C198.26 59.1017 196.1 58.4899 194 58.8977C192.077 59.2765 190.391 60.5583 189.238 62.1024C187.374 64.5205 186.457 67.6378 186.043 70.6094C185.925 71.6582 185.836 72.7362 185.54 73.7267C184.594 76.6692 181.044 77.9802 178.205 76.9605C173.886 75.3873 170.425 76.4361 168.029 77.9219C165.012 79.7865 162.942 82.9038 162.409 86.3998C161.729 90.7407 163.445 94.295 164.48 96.0139C165.219 97.2375 165.811 98.5485 165.988 99.9469C167.083 108.075 156.227 107.114 156.227 107.114C146.466 105.803 143.419 115.242 143.419 115.242C140.757 122.409 143.833 128.818 147.915 133.654Z" fill="#01B1EC"/>
<path d="M183.796 143.356C186.192 142.161 188.351 140.355 190.008 137.733C190.008 137.733 195.687 129.547 188.677 122.788C188.677 122.788 181.252 114.922 188.44 110.785C189.682 110.056 191.102 109.707 192.522 109.532C194.533 109.299 198.438 108.425 201.514 105.249C203.969 102.715 205.212 99.1895 204.857 95.6935C204.561 92.9258 203.289 89.5755 199.384 87.1574C196.841 85.5842 195.717 82.0299 197.491 79.4953C198.113 78.6213 198.911 77.922 199.68 77.1646C201.633 75.2126 203.407 72.8528 204.324 70.2308C205.123 67.9875 205.152 65.3655 203.91 63.3261C203.23 62.1899 202.165 61.2868 200.982 60.5585C190.304 73.552 165.161 111.163 183.796 143.356Z" fill="#0ABBF5"/>
<path d="M197.047 65.6562C193.892 71.4829 190.825 77.3485 187.848 83.2529C184.86 89.167 181.961 95.1102 179.062 101.053C176.223 107.026 173.383 112.998 170.603 119.029C167.842 125.03 165.16 131.071 162.557 137.15C165.732 131.323 168.798 125.458 171.756 119.553C174.744 113.639 177.672 107.696 180.541 101.753C183.411 95.7803 186.25 89.8079 189.001 83.8064C191.782 77.8049 194.463 71.7549 197.047 65.6562Z" fill="#0186B3"/>
<path d="M164.068 141.841C168.564 148.833 175.988 153.669 184.271 155.009C187.584 155.563 191.163 155.592 194.446 154.426C196.724 153.64 198.824 152.3 200.599 150.173C200.599 150.173 206.544 143.647 201.161 136.888C201.161 136.888 195.54 129.139 202.344 126.313C203.527 125.817 204.799 125.672 206.071 125.672C207.875 125.701 211.425 125.38 214.471 122.962C216.956 120.981 218.435 118.039 218.553 114.921C218.612 112.445 217.902 109.386 214.737 106.822C212.667 105.132 212.105 101.87 213.968 99.8593C214.59 99.1601 215.388 98.6357 216.157 98.053C218.08 96.5672 219.943 94.6735 221.067 92.4885C222.014 90.5948 222.339 88.3224 221.511 86.3705C221.008 85.2925 220.18 84.3603 219.234 83.6028C219.017 83.428 218.79 83.2532 218.553 83.0784C217.015 82.0296 215.181 81.2138 213.288 81.3595C211.572 81.476 209.946 82.4083 208.733 83.6319C206.81 85.5547 205.657 88.1768 204.947 90.7405C204.71 91.6436 204.533 92.5759 204.118 93.4208C202.965 95.8971 199.682 96.6546 197.315 95.431C193.707 93.5665 190.542 94.0909 188.264 95.1397C185.365 96.4215 183.206 98.9562 182.318 101.928C181.224 105.686 182.318 109.007 183.028 110.639C183.531 111.775 183.886 112.999 183.886 114.251C183.916 121.535 174.45 119.437 174.45 119.437C166.05 117.194 162.264 125.147 162.264 125.147C159.069 131.12 161.051 137.121 164.068 141.841Z" fill="#4A144E"/>
<path d="M194.444 154.426C196.721 153.639 198.821 152.299 200.596 150.172C200.596 150.172 206.542 143.646 201.158 136.887C201.158 136.887 195.538 129.138 202.341 126.312C203.525 125.817 204.796 125.671 206.068 125.671C207.873 125.7 211.422 125.38 214.469 122.962C216.954 120.98 218.433 118.038 218.551 114.921C218.61 112.444 217.9 109.385 214.735 106.822C212.665 105.132 212.103 101.869 213.966 99.8587C214.587 99.1595 215.386 98.6351 216.155 98.0524C218.078 96.5666 219.941 94.6729 221.065 92.4879C222.012 90.5942 222.337 88.3218 221.509 86.3699C221.006 85.2919 220.178 84.3596 219.231 83.6022C208.316 93.828 181.843 124.01 194.444 154.426Z" fill="#641C6B"/>
<path d="M215.18 87.6229C211.729 92.4008 208.357 97.2176 205.064 102.073C201.721 106.909 198.497 111.804 195.244 116.727C192.049 121.622 188.854 126.574 185.719 131.527C182.584 136.499 179.527 141.51 176.549 146.56C180 141.802 183.372 136.995 186.665 132.139C189.978 127.274 193.232 122.379 196.456 117.485C199.68 112.561 202.875 107.638 205.981 102.656C209.136 97.7031 212.202 92.6922 215.18 87.6229Z" fill="#350E38"/>
<path d="M99.8199 133.654C93.7266 140.85 84.7344 145.162 75.269 145.512C71.4828 145.628 67.46 145.133 63.9401 143.356C61.5441 142.161 59.3848 140.355 57.7284 137.733C57.7284 137.733 52.0491 129.547 59.0595 122.788C59.0595 122.788 66.4839 114.922 59.2961 110.785C58.0538 110.056 56.634 109.707 55.2141 109.532C53.2027 109.299 49.2983 108.425 46.222 105.249C43.7669 102.715 42.5246 99.1894 42.8795 95.6934C43.1753 92.9257 44.4472 89.5753 48.3517 87.1573C50.8955 85.584 52.0196 82.0298 50.2448 79.4951C49.6236 78.6211 48.825 77.9219 48.0559 77.1645C46.1037 75.2125 44.3289 72.8527 43.412 70.2307C42.6133 67.9874 42.5837 65.3654 43.8261 63.326C44.5064 62.1898 45.5713 61.2867 46.7544 60.5583C47.0305 60.3835 47.3164 60.2282 47.6122 60.0922C49.4757 59.1017 51.635 58.4899 53.7352 58.8977C55.6578 59.2765 57.3439 60.5583 58.4975 62.1024C60.361 64.5205 61.2779 67.6378 61.692 70.6094C61.8104 71.6582 61.8991 72.7362 62.1949 73.7267C63.1414 76.6692 66.691 77.9802 69.5306 76.9605C73.8492 75.3873 77.31 76.4361 79.7059 77.9219C82.723 79.7865 84.7936 82.9038 85.326 86.3998C86.0063 90.7407 84.2907 94.295 83.2554 96.0139C82.516 97.2375 81.9244 98.5485 81.7469 99.9469C80.6525 108.075 91.5081 107.114 91.5081 107.114C101.269 105.803 104.316 115.242 104.316 115.242C106.978 122.409 103.902 128.818 99.8199 133.654Z" fill="#01B1EC"/>
<path d="M63.9401 143.356C61.5441 142.161 59.3848 140.355 57.7284 137.733C57.7284 137.733 52.0491 129.547 59.0595 122.788C59.0595 122.788 66.4839 114.922 59.2961 110.785C58.0538 110.056 56.634 109.707 55.2141 109.532C53.2027 109.299 49.2983 108.425 46.222 105.249C43.7669 102.715 42.5246 99.1895 42.8795 95.6935C43.1753 92.9258 44.4472 89.5755 48.3517 87.1574C50.8955 85.5842 52.0196 82.0299 50.2448 79.4953C49.6236 78.6213 48.825 77.922 48.0559 77.1646C46.1037 75.2126 44.3289 72.8528 43.412 70.2308C42.6133 67.9875 42.5837 65.3655 43.8261 63.3261C44.5064 62.1899 45.5713 61.2868 46.7544 60.5585C57.4326 73.552 82.5751 111.163 63.9401 143.356Z" fill="#0ABBF5"/>
<path d="M50.689 65.6562C53.8441 71.4829 56.9105 77.3485 59.8882 83.2529C62.8757 89.167 65.7745 95.1102 68.6733 101.053C71.5129 107.026 74.3525 112.998 77.133 119.029C79.8937 125.03 82.5756 131.071 85.1786 137.15C82.0037 131.323 78.9373 125.458 75.9794 119.553C72.9919 113.639 70.0635 107.696 67.1943 101.753C64.3251 95.7803 61.4855 89.8079 58.7346 83.8064C55.9541 77.8049 53.2722 71.7549 50.689 65.6562Z" fill="#0186B3"/>
<path d="M89.5855 145.336C85.0895 152.328 77.665 157.164 69.3828 158.504C66.0699 159.058 62.4908 159.087 59.2074 157.922C56.9298 157.135 54.8297 155.795 53.0549 153.668C53.0549 153.668 47.1095 147.142 52.4929 140.383C52.4929 140.383 58.113 132.634 51.3097 129.808C50.1266 129.312 48.8546 129.167 47.5827 129.167C45.7784 129.196 42.2288 128.875 39.1822 126.457C36.6975 124.476 35.2185 121.534 35.1002 118.416C35.041 115.94 35.751 112.881 38.9159 110.317C40.9865 108.628 41.5485 105.365 39.685 103.354C39.0638 102.655 38.2652 102.131 37.4961 101.548C35.5735 100.062 33.71 98.1686 32.5859 95.9836C31.6394 94.09 31.314 91.8175 32.1423 89.8656C32.6451 88.7877 33.4733 87.8554 34.4199 87.0979C34.6368 86.9231 34.8636 86.7483 35.1002 86.5735C36.6383 85.5247 38.4723 84.709 40.3653 84.8546C42.0809 84.9712 43.7078 85.9034 44.9206 87.127C46.8432 89.0499 47.9968 91.6719 48.7067 94.2356C48.9434 95.1388 49.1209 96.071 49.535 96.9159C50.6886 99.3923 53.9719 100.15 56.3382 98.9261C59.9469 97.0616 63.1119 97.586 65.3895 98.6348C68.2883 99.9167 70.4476 102.451 71.335 105.423C72.4294 109.181 71.335 112.502 70.6251 114.134C70.1223 115.27 69.7673 116.494 69.7673 117.746C69.7377 125.03 79.2031 122.932 79.2031 122.932C87.6037 120.689 91.3899 128.642 91.3899 128.642C94.5844 134.615 92.6026 140.616 89.5855 145.336Z" fill="#4A144E"/>
<path d="M59.2074 157.922C56.9298 157.136 54.8297 155.796 53.0549 153.669C53.0549 153.669 47.1095 147.143 52.4929 140.384C52.4929 140.384 58.113 132.634 51.3097 129.809C50.1266 129.313 48.8546 129.168 47.5827 129.168C45.7784 129.197 42.2288 128.876 39.1822 126.458C36.6975 124.477 35.2185 121.535 35.1002 118.417C35.041 115.941 35.751 112.882 38.9159 110.318C40.9865 108.628 41.5485 105.365 39.685 103.355C39.0638 102.656 38.2652 102.132 37.4961 101.549C35.5735 100.063 33.71 98.1695 32.5859 95.9845C31.6394 94.0908 31.314 91.8184 32.1423 89.8664C32.6451 88.7885 33.4733 87.8562 34.4199 87.0987C45.3347 97.3246 71.8083 127.507 59.2074 157.922Z" fill="#641C6B"/>
<path d="M38.4717 91.1195C41.9226 95.8974 45.2947 100.714 48.5878 105.57C51.9303 110.406 55.1545 115.3 58.4082 120.224C61.6028 125.118 64.7974 130.071 67.9328 135.024C71.0682 139.996 74.1247 145.007 77.1024 150.057C73.6515 145.298 70.2794 140.491 66.9863 135.636C63.6734 130.77 60.4196 125.876 57.1955 120.981C53.9713 116.058 50.7767 111.134 47.6709 106.152C44.5157 101.2 41.4493 96.1887 38.4717 91.1195Z" fill="#350E38"/>
<path d="M207.223 50.0696C207.963 48.4672 209.56 46.6027 212.991 46.6027C212.991 46.6027 212.547 40.9508 217.487 38.824C221.421 37.1343 225.267 39.7854 225.71 45.4665C225.71 45.4665 232.129 43.8641 232.099 50.7979C232.099 51.701 231.33 52.4585 230.384 52.4585H208.791C207.548 52.4585 206.72 51.2058 207.223 50.0696Z" fill="white" fill-opacity="0.2"/>
<path d="M228.609 59.5377C229.349 57.9062 230.946 56.0708 234.377 56.0708C234.377 56.0708 233.934 50.4189 238.873 48.2921C242.807 46.6024 246.653 49.2535 247.096 54.9054C247.096 54.9054 253.515 53.3322 253.486 60.2369C253.486 61.1691 252.717 61.8975 251.77 61.8975H230.177C228.935 61.8975 228.106 60.6447 228.609 59.5377Z" fill="white" fill-opacity="0.2"/>
<path d="M15.6948 50.3033C16.4342 48.6718 18.0315 46.8364 21.4627 46.8364C21.4627 46.8364 21.0191 41.1553 25.9884 39.0286C29.8929 37.368 33.7382 39.99 34.2115 45.671C34.2115 45.671 40.6006 44.0978 40.5711 51.0025C40.5711 51.9347 39.802 52.6631 38.8555 52.6631H17.2625C16.0201 52.6631 15.1919 51.4103 15.6948 50.3033Z" fill="white" fill-opacity="0.2"/>
<path d="M175.1 159.816H78.5523C74.8845 159.816 71.897 156.873 71.897 153.232V7.21449C71.897 3.57281 74.8845 0.63031 78.5523 0.63031H175.1C178.767 0.63031 181.755 3.57281 181.755 7.21449V153.232C181.755 156.873 178.767 159.816 175.1 159.816Z" fill="#823585"/>
<path d="M131.5 151.338C131.5 153.902 129.4 155.941 126.827 155.941C124.253 155.941 122.153 153.902 122.153 151.338C122.153 148.803 124.253 146.764 126.827 146.764C129.4 146.764 131.5 148.803 131.5 151.338Z" fill="#4A144E"/>
<path d="M172.232 143.239H81.4229C78.9087 143.239 76.8677 141.229 76.8677 138.753V12.3132C76.8677 9.83684 78.9087 7.82661 81.4229 7.82661H172.232C174.746 7.82661 176.787 9.83684 176.787 12.3132V138.753C176.787 141.229 174.746 143.239 172.232 143.239Z" fill="#A7A7A7"/>
<path d="M153.506 107.084L100.292 107.259C97.2456 107.288 94.7609 104.87 94.7609 101.869L94.6426 73.3471C94.6426 71.8613 95.2933 70.4337 96.4173 69.4432L125.553 44.2136C126.174 43.66 127.121 43.66 127.742 44.1844L157.085 69.2101C158.238 70.2007 158.889 71.5991 158.889 73.114L159.007 101.607C159.007 104.607 156.552 107.055 153.506 107.084Z" fill="#FFB712"/>
<path d="M100.293 107.288L124.134 84.5931L126.826 86.0789L129.488 84.5931L153.507 107.084L100.293 107.288Z" fill="#FFB712"/>
<path d="M147.502 100.878L106.239 101.053C103.991 101.053 102.157 99.2465 102.127 97.0323L101.979 54.5265C101.95 52.2832 103.784 50.4769 106.061 50.4769L147.325 50.3313C149.573 50.3021 151.407 52.1084 151.436 54.3226L151.584 96.8284C151.614 99.0717 149.78 100.878 147.502 100.878Z" fill="white"/>
<path d="M102.039 68.2497L126.885 81.7968L151.466 68.2497L151.584 72.2701L126.885 85.8755L102.039 72.5032V68.2497Z" fill="#E3E1DE"/>
<path d="M158.889 73.1145L159.007 101.636C159.007 104.637 156.552 107.084 153.506 107.084L100.292 107.288C97.2456 107.288 94.7609 104.87 94.7609 101.869L94.6426 73.3475C94.6426 71.8617 95.2933 70.4342 96.4469 69.4436L126.381 85.8458L126.825 86.0789L157.055 69.2106C158.238 70.172 158.889 71.6287 158.889 73.1145Z" fill="#FFB712"/>
<path d="M100.293 107.288L124.134 84.5931L126.826 86.0789L129.488 84.5931L153.507 107.084L100.293 107.288Z" fill="#FFB712"/>
<path d="M124.135 84.594L100.294 107.26C99.022 107.289 97.8388 106.852 96.9219 106.153L121.236 83.0208L124.135 84.594Z" fill="#F5A70A"/>
<path d="M156.85 105.948C155.933 106.647 154.78 107.055 153.508 107.055H153.478L129.489 84.5932L132.329 83.02L156.85 105.948Z" fill="#F5A70A"/>
<path d="M176.787 23.3549L76.8677 68.0166V55.7805L176.787 11.1188V23.3549Z" fill="white" fill-opacity="0.1"/>
<path d="M176.787 86.2826L76.8677 130.944V118.708L176.787 74.0466V86.2826Z" fill="white" fill-opacity="0.1"/>
<path d="M176.787 67.0551L76.8677 111.717V90.158L176.787 45.4963V67.0551Z" fill="white" fill-opacity="0.1"/>
<path d="M169.835 155.038V160.894C169.835 161.651 177.082 162.263 185.985 162.263C194.918 162.263 202.136 161.651 202.136 160.894V155.038H169.835Z" fill="#FCB000"/>
<path d="M194.208 155.038H186.754V162.263C189.475 162.234 192.019 162.176 194.208 162.059V155.038Z" fill="#FCBE03"/>
<path d="M202.136 155.038C202.136 155.795 194.918 156.407 185.985 156.407C177.082 156.407 169.835 155.795 169.835 155.038C169.835 154.28 177.082 153.669 185.985 153.669C194.918 153.669 202.136 154.28 202.136 155.038Z" fill="#FF9100"/>
<path d="M200.449 154.893C200.449 155.33 193.971 155.68 185.985 155.68C178.028 155.68 171.55 155.33 171.55 154.893C171.55 154.485 178.028 154.136 185.985 154.136C193.971 154.136 200.449 154.485 200.449 154.893Z" fill="#FCB000"/>
<path d="M170.841 160.573C172.083 160.69 173.325 160.777 174.597 160.835C175.84 160.913 177.092 160.981 178.354 161.039C180.868 161.156 183.382 161.243 185.867 161.214C188.381 161.272 190.896 161.185 193.41 161.097L195.273 161.01L197.167 160.894C198.409 160.835 199.651 160.66 200.923 160.573C198.438 161.039 195.954 161.389 193.44 161.564C190.925 161.768 188.381 161.855 185.867 161.855C183.353 161.797 180.839 161.709 178.324 161.505C175.81 161.301 173.296 161.039 170.841 160.573Z" fill="#FF9100"/>
<path d="M168.267 148.92V154.747C168.267 155.504 175.484 156.145 184.417 156.145C193.32 156.145 200.567 155.504 200.567 154.747V148.92H168.267Z" fill="#FCB000"/>
<path d="M192.64 148.92H185.157V156.145C187.878 156.116 190.422 156.058 192.64 155.941V148.92Z" fill="#FCBE03"/>
<path d="M200.567 148.92C200.567 149.677 193.32 150.289 184.417 150.289C175.484 150.289 168.267 149.677 168.267 148.92C168.267 148.162 175.484 147.521 184.417 147.521C193.32 147.521 200.567 148.162 200.567 148.92Z" fill="#FF9100"/>
<path d="M198.854 148.775C198.854 149.212 192.376 149.532 184.42 149.532C176.433 149.532 169.985 149.212 169.985 148.775C169.985 148.338 176.433 147.988 184.42 147.988C192.376 147.988 198.854 148.338 198.854 148.775Z" fill="#FCB000"/>
<path d="M169.245 154.455C170.487 154.543 171.759 154.659 173.002 154.717C174.264 154.795 175.516 154.863 176.758 154.921C179.273 155.038 181.787 155.125 184.301 155.096C186.786 155.154 189.3 155.067 191.814 154.98L193.678 154.892L195.571 154.747C196.813 154.717 198.055 154.543 199.327 154.455C196.843 154.921 194.358 155.271 191.844 155.446C189.33 155.65 186.815 155.708 184.271 155.708C181.757 155.679 179.243 155.591 176.729 155.388C174.214 155.184 171.73 154.892 169.245 154.455Z" fill="#FF9100"/>
<path d="M169.716 143.123V148.95C169.716 149.707 176.963 150.348 185.866 150.348C194.799 150.348 202.017 149.707 202.017 148.95V143.123H169.716Z" fill="#FCB000"/>
<path d="M194.09 143.122H186.636V150.318C189.328 150.318 191.872 150.26 194.09 150.144V143.122Z" fill="#FCBE03"/>
<path d="M202.017 143.122C202.017 143.88 194.799 144.492 185.866 144.492C176.963 144.492 169.716 143.88 169.716 143.122C169.716 142.365 176.963 141.724 185.866 141.724C194.799 141.724 202.017 142.365 202.017 143.122Z" fill="#FF9100"/>
<path d="M200.301 142.977C200.301 143.385 193.853 143.734 185.866 143.734C177.91 143.734 171.432 143.385 171.432 142.977C171.432 142.54 177.91 142.19 185.866 142.19C193.853 142.19 200.301 142.54 200.301 142.977Z" fill="#FCB000"/>
<path d="M170.693 148.658C171.965 148.745 173.207 148.862 174.479 148.92C175.721 148.998 176.974 149.066 178.236 149.124C180.75 149.241 183.235 149.328 185.749 149.299C188.263 149.357 190.777 149.27 193.262 149.182L195.155 149.095L197.019 148.949C198.29 148.92 199.533 148.745 200.805 148.658C198.32 149.124 195.806 149.474 193.292 149.648C190.807 149.852 188.263 149.911 185.749 149.911C183.235 149.882 180.72 149.794 178.206 149.59C175.692 149.386 173.178 149.095 170.693 148.658Z" fill="#FF9100"/>
<path d="M171.432 136.509V142.365C171.432 143.123 178.679 143.734 187.582 143.734C196.515 143.734 203.732 143.123 203.732 142.365V136.509H171.432Z" fill="#FCB000"/>
<path d="M195.804 136.509H188.321V143.734C191.042 143.734 193.586 143.676 195.804 143.56V136.509Z" fill="#FCBE03"/>
<path d="M203.732 136.509C203.732 137.296 196.515 137.908 187.582 137.908C178.679 137.908 171.432 137.296 171.432 136.509C171.432 135.752 178.679 135.14 187.582 135.14C196.515 135.14 203.732 135.752 203.732 136.509Z" fill="#FF9100"/>
<path d="M202.017 136.392C202.017 136.8 195.569 137.15 187.583 137.15C179.626 137.15 173.148 136.8 173.148 136.392C173.148 135.955 179.626 135.606 187.583 135.606C195.569 135.606 202.017 135.955 202.017 136.392Z" fill="#FCB000"/>
<path d="M172.409 142.074C173.681 142.162 174.923 142.278 176.195 142.337C177.438 142.414 178.69 142.482 179.952 142.541C182.437 142.628 184.951 142.715 187.465 142.715C189.979 142.774 192.494 142.686 194.978 142.599L196.871 142.511L198.735 142.366C200.007 142.337 201.249 142.162 202.491 142.074C200.036 142.541 197.522 142.89 195.008 143.065C192.494 143.269 189.979 143.327 187.465 143.327C184.951 143.298 182.437 143.211 179.922 143.007C177.408 142.803 174.894 142.511 172.409 142.074Z" fill="#FF9100"/>
<path d="M169.716 130.274V136.101C169.716 136.858 176.963 137.499 185.866 137.499C194.799 137.499 202.017 136.858 202.017 136.101V130.274H169.716Z" fill="#FCB000"/>
<path d="M194.09 130.274H186.636V137.499C189.328 137.47 191.872 137.412 194.09 137.295V130.274Z" fill="#FCBE03"/>
<path d="M202.017 130.275C202.017 131.033 194.799 131.645 185.866 131.645C176.963 131.645 169.716 131.033 169.716 130.275C169.716 129.518 176.963 128.877 185.866 128.877C194.799 128.877 202.017 129.518 202.017 130.275Z" fill="#FF9100"/>
<path d="M200.301 130.128C200.301 130.565 193.853 130.886 185.866 130.886C177.91 130.886 171.432 130.565 171.432 130.128C171.432 129.691 177.91 129.371 185.866 129.371C193.853 129.371 200.301 129.691 200.301 130.128Z" fill="#FCB000"/>
<path d="M170.693 135.81C171.965 135.898 173.207 136.014 174.479 136.072C175.721 136.15 176.974 136.218 178.236 136.276C180.75 136.393 183.235 136.48 185.749 136.451C188.263 136.509 190.777 136.422 193.262 136.335L195.155 136.247L197.019 136.131C198.29 136.072 199.533 135.898 200.805 135.81C198.32 136.276 195.806 136.626 193.292 136.801C190.807 137.005 188.263 137.063 185.749 137.063C183.235 137.034 180.72 136.946 178.206 136.743C175.692 136.539 173.178 136.247 170.693 135.81Z" fill="#FF9100"/>
<path d="M189.86 161.185V167.04C189.86 167.798 197.107 168.41 206.011 168.41C214.944 168.41 222.161 167.798 222.161 167.04V161.185H189.86Z" fill="#FCB000"/>
<path d="M214.234 161.185H206.78V168.41C209.501 168.41 212.045 168.351 214.234 168.235V161.185Z" fill="#FCBE03"/>
<path d="M222.161 161.185C222.161 161.943 214.944 162.583 206.011 162.583C197.107 162.583 189.86 161.943 189.86 161.185C189.86 160.428 197.107 159.816 206.011 159.816C214.944 159.816 222.161 160.428 222.161 161.185Z" fill="#FF9100"/>
<path d="M220.445 161.068C220.445 161.476 213.996 161.826 206.01 161.826C198.053 161.826 191.575 161.476 191.575 161.068C191.575 160.631 198.053 160.282 206.01 160.282C213.996 160.282 220.445 160.631 220.445 161.068Z" fill="#FCB000"/>
<path d="M190.866 166.75C192.109 166.837 193.351 166.954 194.623 167.012C195.865 167.09 197.117 167.158 198.379 167.216C200.894 167.303 203.378 167.391 205.893 167.391C208.407 167.449 210.921 167.362 213.435 167.274L215.299 167.187L217.192 167.041C218.434 167.012 219.677 166.837 220.949 166.75C218.464 167.216 215.979 167.565 213.465 167.74C210.951 167.944 208.407 168.002 205.893 168.002C203.378 167.973 200.864 167.886 198.35 167.682C195.836 167.478 193.321 167.187 190.866 166.75Z" fill="#FF9100"/>
<path d="M188.292 155.067V160.923C188.292 161.68 195.509 162.292 204.442 162.292C213.346 162.292 220.593 161.68 220.593 160.923V155.067H188.292Z" fill="#FCB000"/>
<path d="M212.635 155.067H205.181V162.292C207.902 162.292 210.446 162.205 212.635 162.117V155.067Z" fill="#FCBE03"/>
<path d="M220.593 155.068C220.593 155.825 213.346 156.437 204.442 156.437C195.509 156.437 188.292 155.825 188.292 155.068C188.292 154.31 195.509 153.698 204.442 153.698C213.346 153.698 220.593 154.31 220.593 155.068Z" fill="#FF9100"/>
<path d="M218.878 154.921C218.878 155.358 212.4 155.708 204.443 155.708C196.456 155.708 189.979 155.358 189.979 154.921C189.979 154.514 196.456 154.164 204.443 154.164C212.4 154.164 218.878 154.514 218.878 154.921Z" fill="#FCB000"/>
<path d="M189.267 160.632C190.509 160.719 191.781 160.806 193.024 160.894C194.286 160.971 195.538 161.03 196.78 161.069C199.295 161.185 201.809 161.272 204.323 161.272C206.808 161.302 209.322 161.243 211.836 161.127L213.7 161.069L215.593 160.923C216.835 160.865 218.077 160.69 219.349 160.632C216.865 161.098 214.38 161.418 211.866 161.622C209.352 161.797 206.837 161.884 204.293 161.884C201.779 161.826 199.265 161.768 196.751 161.564C194.236 161.331 191.752 161.069 189.267 160.632Z" fill="#FF9100"/>
<path d="M167.261 184.288C167.261 186.473 148.537 186.386 126.205 186.386C103.872 186.386 86.3906 186.473 86.3906 184.288C86.3906 182.103 104.493 181.666 126.826 181.666C149.158 181.666 167.261 182.103 167.261 184.288Z" fill="#01B1EC" fill-opacity="0.2"/>
<path d="M126.62 115.066C127.33 115.183 128.04 115.445 128.75 115.503C130.051 115.62 131.382 115.562 132.684 115.445C135.316 115.241 137.89 114.688 140.404 113.901C142.918 113.144 145.403 112.182 147.799 111.075C149.002 110.512 150.175 109.92 151.319 109.298C151.911 108.978 152.473 108.686 153.064 108.395C153.656 108.133 154.277 107.841 154.839 107.667L155.046 107.608C156.347 107.2 157.826 107.696 158.714 108.919C159.838 110.434 159.601 112.532 158.211 113.581C157.531 114.076 156.939 114.426 156.288 114.746C155.638 115.076 154.977 115.368 154.306 115.62C152.966 116.125 151.605 116.581 150.225 116.989C147.474 117.834 144.664 118.533 141.765 118.97C138.896 119.407 135.938 119.611 132.95 119.407C130.85 119.262 128.72 118.708 126.65 118.038C126.65 117.048 126.62 116.057 126.62 115.066Z" fill="#FFD6B0"/>
<path d="M159.244 109.212C159.224 109.173 159.204 109.134 159.185 109.095C158.327 107.289 156.079 106.59 154.274 107.493L143.803 112.562L147.205 117.952C147.205 117.952 152.204 116.466 156.463 115.067C158.948 114.252 160.309 111.542 159.244 109.212Z" fill="#F5C243"/>
<path d="M165.249 183.123C165.249 183.123 165.751 184.667 165.604 185.249C165.604 185.249 159.658 185.366 159.333 185.249C159.007 185.104 161.699 183.414 162.705 183.123H165.249Z" fill="#14212B"/>
<path d="M159.392 183.123C159.392 183.123 159.895 184.667 159.776 185.249C159.776 185.249 153.801 185.366 153.476 185.249C153.18 185.104 155.842 183.414 156.848 183.123H159.392Z" fill="#14212B"/>
<path d="M156.05 183.122H159.954L158.86 136.363L160.487 128.031H157.41H153.476L152.116 137.237C151.997 138.198 151.968 139.189 152.056 140.15L156.05 183.122Z" fill="#6591A3"/>
<path d="M164.658 136.363C164.658 136.363 164.717 132.197 164.007 130.245L163.208 128.031H159.245H153.447L157.707 138.693L161.818 183.122H165.752L164.658 136.363Z" fill="#6D9AAF"/>
<path d="M162.232 99.1598C162.35 97.3536 162.35 95.3725 161.847 94.7898C160.842 93.6536 157.825 93.0127 156.494 93.5079C155.902 93.741 155.37 95.5473 155.103 97.5575C154.719 98.548 154.098 100.121 154.098 100.121C154.098 100.121 154.571 100.354 154.955 100.383C154.985 101.811 155.192 103.035 155.665 103.501C156.109 103.967 156.73 104.229 157.411 104.316V107.55L162.055 106.327V101.345C162.409 101.17 163.297 100.646 163.415 99.8008C163.504 99.0724 162.735 98.8976 162.232 99.1598Z" fill="#F4CCA8"/>
<path d="M157.412 104.317C157.412 104.317 159.631 104.317 160.518 102.947C160.518 102.947 159.246 105.773 157.412 105.511V104.317Z" fill="#14212B"/>
<path d="M164.303 95.4894C164.155 95.0815 164.007 94.6154 163.593 94.4697C163.741 93.8579 163.682 93.1587 163.209 92.7508C162.824 92.4304 162.262 92.3721 161.759 92.3429C161.257 92.3429 160.724 92.3429 160.28 92.0516C160.044 91.8768 159.866 91.6437 159.659 91.4689C159.482 91.2941 159.275 91.1485 159.068 91.0611C158.831 90.9737 158.565 91.0028 158.328 91.1193C158.062 91.265 157.914 91.6146 157.648 91.7894C157.352 91.9933 156.938 91.9642 156.583 91.8477C156.228 91.7311 155.903 91.5272 155.548 91.4107C155.222 91.2941 154.808 91.2359 154.483 91.4107C154.217 91.5563 154.039 91.8477 153.98 92.139C153.921 92.4304 153.98 92.7217 154.039 93.0422C154.158 93.654 154.305 94.3823 154.631 94.9067C154.601 95.4602 154.631 96.509 155.222 96.8586L155.518 95.6059C156.169 95.839 156.849 96.0429 157.559 96.1012C158.299 96.1594 159.097 96.0429 159.718 95.5768C159.837 95.4894 159.985 95.3728 160.133 95.3437C160.31 95.3146 160.517 95.402 160.665 95.5185C161.079 95.839 161.257 96.4216 161.316 96.946C161.405 97.7035 161.316 98.4901 161.079 99.1893C161.079 99.2767 161.05 99.3641 161.109 99.3933C161.128 99.3933 161.158 99.3933 161.197 99.3933C161.523 99.3933 161.907 99.2767 162.233 99.1893C162.233 99.1893 163.15 98.7232 163.416 99.5972C163.416 99.5972 163.534 100.529 162.055 101.345V103.093C162.174 103.093 162.114 103.443 162.233 103.385C162.252 103.365 162.272 103.346 162.292 103.326C162.765 102.685 163.505 102.19 163.86 101.491C163.948 101.229 164.037 100.996 164.096 100.733C164.234 100.17 164.362 99.5972 164.481 99.0145C164.57 98.6358 164.629 98.2571 164.658 97.8492C164.717 97.0626 164.51 96.2468 164.303 95.4894Z" fill="#14212B"/>
<path d="M163.149 128.032L165.782 117.544C165.782 117.544 168.414 108.6 160.783 105.366L157.943 106.094C156.02 106.589 154.394 107.871 153.477 109.619C152.027 112.27 150.696 116.786 152.323 123.196L153.417 128.032H163.149Z" fill="#FEC945"/>
<path d="M162.292 106.764C161.434 107.143 160.547 107.463 159.659 107.754C158.772 108.046 157.875 108.308 156.968 108.541C156.879 108.57 156.82 108.512 156.79 108.454C156.79 108.434 156.79 108.415 156.79 108.395C156.849 107.774 156.938 107.162 157.056 106.56C157.096 107.182 157.096 107.803 157.056 108.425L156.879 108.279C157.766 107.968 158.663 107.686 159.571 107.434C160.458 107.172 161.375 106.939 162.292 106.764Z" fill="#F5C243"/>
<path d="M156.464 108.861C155.962 109.473 155.607 110.172 155.34 110.901C155.045 111.619 154.818 112.357 154.66 113.115C154.305 114.63 154.098 116.174 154.069 117.747C153.98 118.504 154.039 119.291 154.009 120.048C154.039 120.835 154.098 121.622 154.128 122.408C154.187 123.166 154.246 123.952 154.335 124.71C154.423 125.496 154.542 126.283 154.631 127.041C154.453 126.283 154.335 125.526 154.157 124.739C154.039 123.981 153.95 123.195 153.861 122.408C153.773 121.651 153.714 120.864 153.684 120.078C153.684 119.291 153.625 118.504 153.684 117.718C153.773 116.145 153.95 114.571 154.364 113.056C154.808 111.541 155.37 110.027 156.464 108.861Z" fill="#F5C243"/>
<path d="M159.926 117.718L160.607 123.107L161.524 122.903C161.524 122.903 161.465 125.555 161.198 126.574C161.198 126.574 159.66 122.262 159.926 117.718Z" fill="#14212B"/>
<path d="M167.113 114.455C167.093 113.736 167.044 113.018 166.965 112.299C166.876 111.6 166.758 110.93 166.492 110.143C165.959 108.483 164.066 107.55 162.232 108.075C160.753 108.483 159.777 109.706 159.718 111.017V111.25C159.688 111.804 159.748 112.503 159.807 113.115C159.895 113.756 159.984 114.397 160.073 115.038C160.27 116.339 160.428 117.64 160.546 118.942C160.783 121.535 160.872 124.127 160.724 126.72C160.605 129.313 160.28 131.906 159.6 134.412C159.462 134.858 159.324 135.305 159.186 135.752C159.984 136.684 161.049 137.325 162.203 137.791C162.676 137.063 163.09 136.305 163.445 135.519C164.658 132.809 165.486 130.012 166.048 127.186C166.61 124.39 166.906 121.535 167.054 118.709C167.113 117.291 167.133 115.873 167.113 114.455Z" fill="#FFD6B0"/>
<path d="M162.411 107.638C162.391 107.638 162.362 107.638 162.322 107.638C160.311 107.842 158.891 109.706 159.157 111.688L160.606 123.108L166.877 121.709C166.877 121.709 167.084 116.553 167.144 112.125C167.173 109.561 165.014 107.405 162.411 107.638Z" fill="#FEC945"/>
<path d="M158.948 134.615C159.48 135.343 159.983 136.043 160.604 136.625C161.225 137.237 161.935 137.674 162.734 138.169C162.823 138.228 162.852 138.344 162.793 138.432C162.763 138.49 162.675 138.519 162.616 138.519C162.142 138.49 161.639 138.344 161.196 138.14C160.722 137.966 160.308 137.645 159.924 137.325C159.569 136.975 159.244 136.567 159.007 136.13C158.77 135.693 158.622 135.227 158.593 134.732C158.593 134.615 158.682 134.528 158.77 134.528C158.829 134.528 158.889 134.557 158.918 134.615H158.948Z" fill="#6691A3"/>
<path d="M115.438 136.946C114.906 136.305 114.225 135.752 113.486 135.373C113.86 135.373 114.235 135.373 114.61 135.373C114.728 135.373 114.906 135.344 114.935 135.227C114.965 135.14 114.935 135.052 114.876 134.994C114.61 134.644 114.166 134.47 113.752 134.324C113.614 134.285 113.466 134.237 113.308 134.178C113.091 134.101 112.894 133.994 112.717 133.858C112.214 133.508 111.622 133.188 111.179 132.78C110.262 131.906 109.463 130.944 108.694 129.954C107.185 127.973 105.973 125.788 104.908 123.515C103.843 121.272 102.985 118.883 102.275 116.494C101.901 115.309 101.575 114.105 101.299 112.882C101.161 112.28 101.003 111.677 100.826 111.075C100.678 110.493 100.471 109.881 100.234 109.386L100.145 109.182C99.6426 108.016 98.3116 107.259 96.8622 107.405C95.0578 107.609 93.6676 109.094 93.8155 110.755C93.8746 111.542 93.993 112.182 94.1704 112.853C94.3479 113.513 94.5648 114.164 94.8212 114.805C95.3142 116.067 95.8466 117.32 96.4185 118.563C97.5721 121.039 98.844 123.486 100.353 125.788C101.891 128.089 103.636 130.304 105.677 132.285C106.83 133.421 108.221 134.382 109.67 135.256C110.38 135.722 111.031 136.334 111.563 137.004C111.721 137.218 111.898 137.432 112.096 137.645C112.717 138.286 113.486 138.84 114.373 138.956C115.024 139.014 115.763 138.781 115.911 138.17C116 137.733 115.734 137.296 115.438 136.946Z" fill="#F4CCA8"/>
<path d="M96.6551 107.055C96.6945 107.036 96.734 107.026 96.7734 107.026C98.7848 106.501 100.826 107.783 101.329 109.764L104.168 121.272L97.6016 122.175C97.6016 122.175 95.5015 117.31 93.8155 113.057C92.8393 110.638 94.1113 107.783 96.6551 107.055Z" fill="#01B1EC"/>
<path d="M92.0103 128.032L89.3777 117.544C89.3777 117.544 86.7452 108.6 94.3767 105.366L97.2163 106.094C99.139 106.589 100.766 107.871 101.712 109.619C103.132 112.27 104.463 116.786 102.836 123.196L101.742 128.032H92.0103Z" fill="#01B1EC"/>
<path d="M121.413 115.475C121.413 115.475 123.779 114.339 124.844 114.222C125.909 114.106 128.808 116.145 128.926 116.553C129.015 116.932 127.921 119.408 124.548 117.893C123.779 117.572 122.922 117.485 122.093 117.66L121.975 117.689L121.413 115.475Z" fill="#F4CCA8"/>
<path d="M123.424 114.6C122.714 114.746 121.383 115.037 120.702 115.095C119.371 115.241 118.07 115.183 116.739 115.124C114.136 114.979 111.533 114.454 108.989 113.726C106.445 113.056 103.96 112.124 101.564 111.075C100.342 110.55 99.1487 109.987 97.9853 109.385C97.3937 109.094 96.8021 108.802 96.2105 108.54C95.6189 108.278 94.9977 107.987 94.4357 107.841L94.1991 107.783C92.9272 107.404 91.4482 107.928 90.5608 109.152C89.496 110.696 89.7622 112.794 91.2116 113.813C91.8623 114.28 92.4835 114.6 93.1342 114.92C93.785 115.231 94.4554 115.503 95.1456 115.736C96.5063 116.222 97.8768 116.659 99.2572 117.047C102.038 117.834 104.848 118.475 107.746 118.853C110.645 119.203 113.603 119.349 116.591 119.087C118.661 118.883 120.791 118.271 122.832 117.572C122.832 116.581 123.453 115.591 123.424 114.6Z" fill="#F4CCA8"/>
<path d="M90.1173 109.123C90.137 109.084 90.1568 109.055 90.1765 109.036C91.0639 107.229 93.3415 106.588 95.1162 107.492L105.617 112.59L102.008 118.096C102.008 118.096 97.0389 116.523 92.7795 115.037C90.3244 114.163 89.0229 111.425 90.1173 109.123Z" fill="#01B1EC"/>
<path d="M91.0645 107.899C91.8927 107.142 93.1646 106.879 94.2886 107.083C94.8802 107.2 95.4126 107.433 95.9155 107.666C96.4479 107.87 96.9508 108.132 97.4536 108.365C98.4593 108.89 99.465 109.385 100.441 109.938C101.417 110.492 102.393 111.075 103.34 111.657C102.334 111.191 101.329 110.696 100.323 110.201C99.3171 109.676 98.3114 109.181 97.3057 108.686C96.8029 108.423 96.3 108.19 95.7972 107.957C95.2647 107.724 94.7619 107.491 94.2294 107.375C93.1942 107.112 92.011 107.258 91.0645 107.899Z" fill="#018BBA"/>
<path d="M89.8809 112.823C90.7091 113.58 91.5965 114.251 92.5726 114.717C93.0754 114.979 93.5783 115.154 94.1107 115.299L95.708 115.824C96.7729 116.173 97.8081 116.523 98.873 116.902C99.9083 117.28 100.973 117.659 102.008 118.096C100.914 117.805 99.8491 117.484 98.7843 117.164C97.7194 116.843 96.6545 116.494 95.5897 116.144L94.022 115.62C93.4896 115.445 92.9275 115.27 92.4543 114.979C91.4486 114.425 90.5908 113.697 89.8809 112.823Z" fill="#018BBA"/>
<path d="M102.186 117.806L107.066 113.173L105.587 112.649L102.186 117.806Z" fill="#14212B"/>
<path d="M125.436 114.281C125.436 114.281 124.342 115.068 124.43 115.417C124.49 115.796 125.525 115.475 126.235 114.98C126.235 114.98 127.743 115.33 127.891 115.417C128.069 115.505 128.838 115.621 128.838 115.621C128.838 115.621 126.442 113.669 125.436 114.281Z" fill="#FFD6B0"/>
<path d="M124.076 117.805C124.076 117.805 124.815 118.737 126.649 118.475C126.649 118.475 126.738 117.514 126.442 117.222C126.442 117.222 126.265 117.135 126.205 117.426C126.205 117.426 126.205 116.844 125.969 116.727C125.703 116.581 125.614 117.077 125.614 117.077C125.614 117.077 125.673 116.727 125.495 116.64C125.318 116.552 125.081 116.756 125.022 117.047C125.022 117.047 124.933 116.436 124.697 116.436C124.46 116.436 124.076 116.989 124.076 117.805Z" fill="#FFD6B0"/>
<path d="M95.8866 182.948C95.8866 182.948 95.3837 184.462 95.5316 185.045C95.5316 185.045 101.477 185.191 101.802 185.045C102.128 184.929 99.4361 183.21 98.4304 182.948H95.8866Z" fill="#14212B"/>
<path d="M99.2592 183.122H95.3251L96.4196 136.363L94.8223 128.031H97.869H101.833L103.164 137.237C103.312 138.198 103.341 139.189 103.252 140.15L99.2592 183.122Z" fill="#F5C243"/>
<path d="M89.9398 182.948C89.9398 182.948 89.4369 184.462 89.5848 185.045C89.5848 185.045 95.5303 185.191 95.8557 185.045C96.1811 184.929 93.4893 183.21 92.4836 182.948H89.9398Z" fill="#14212B"/>
<path d="M90.6501 136.363C90.6501 136.363 90.5614 132.197 91.2713 130.245L92.0995 128.031H96.0336H101.831L97.6013 138.693L93.4602 183.122H89.5557L90.6501 136.363Z" fill="#FEC945"/>
<path d="M100.206 100.383C100.59 100.354 101.063 100.121 101.063 100.121C101.063 100.121 100.442 98.548 100.058 97.5575C99.7914 95.5473 99.2886 93.741 98.6674 93.5079C97.3363 93.0127 94.3192 93.6536 93.3135 94.7898C92.8107 95.3725 92.8107 97.3536 92.9586 99.1598C92.4261 98.8976 91.6571 99.0724 91.7458 99.8008C91.8641 100.646 92.7515 101.17 93.1361 101.345V106.327L97.7504 107.55V104.316C98.4308 104.229 99.0519 103.967 99.4956 103.501C99.9689 103.035 100.176 101.811 100.206 100.383Z" fill="#F4CCA8"/>
<path d="M97.7484 104.317C97.7484 104.317 95.53 104.317 94.6426 102.947C94.6426 102.947 95.9145 105.773 97.7484 105.511V104.317Z" fill="#14212B"/>
<path d="M100.47 92.3716C100.174 91.9638 99.7004 91.7598 98.5173 92.5173C97.3045 93.2748 96.358 91.0024 93.755 92.022C93.3704 92.1677 93.0451 92.3425 92.7788 92.5464C91.6844 93.3039 91.0337 94.5275 90.797 95.8094C89.8209 101.141 93.1042 102.918 93.1042 102.918C93.1042 102.394 93.1338 101.869 93.1634 101.345C93.1634 101.345 91.4478 100.675 91.8323 99.3637C91.8323 99.3637 92.1873 98.9558 92.838 99.1598C93.0944 99.3346 93.3803 99.4317 93.6958 99.4511C94.2874 99.5094 95.9439 96.3629 95.9439 96.3629C96.1213 95.9745 96.2495 95.5763 96.3284 95.1685C96.3875 94.8189 96.8608 94.6732 97.2158 94.6732C97.5411 94.6732 97.8961 94.7606 98.2215 94.8771C98.5468 94.9937 98.8722 95.1102 99.2272 95.1393C99.3159 95.1393 99.4342 95.1102 99.523 95.0811C99.73 95.6346 99.8483 96.3629 99.8483 96.3629C100.529 95.8385 100.47 94.9937 100.381 94.5567C100.44 94.4693 100.529 94.411 100.558 94.2944C100.617 94.1488 100.647 93.974 100.677 93.8283C100.736 93.333 100.706 92.663 100.47 92.3716Z" fill="#14212B"/>
<path d="M246.652 177.093C246.652 178.783 238.281 178.724 228.313 178.724C218.315 178.724 210.506 178.783 210.506 177.093C210.506 175.432 218.582 175.054 228.579 175.054C238.548 175.054 246.652 175.432 246.652 177.093Z" fill="#01B1EC" fill-opacity="0.2"/>
<path d="M225.859 120.807H225.06L221.895 175.228L226.066 175.257L231.005 130.683C230.887 130.654 225.711 121.127 225.859 120.807Z" fill="#01B1EC"/>
<path d="M225.829 175.257C225.829 175.257 226.332 176.801 226.214 177.384C226.214 177.384 220.239 177.5 219.913 177.384C219.618 177.238 222.28 175.548 223.285 175.257H225.829Z" fill="#14212B"/>
<path d="M225.917 126.778L226.302 138.723C226.391 141.636 227.101 144.491 228.195 147.201C228.215 147.239 228.225 147.269 228.225 147.288C228.254 147.463 225.917 126.778 225.917 126.778Z" fill="#14212B"/>
<path d="M225.237 120.778L231.39 175.257H235.561L234.525 137.384C234.525 137.384 237.217 126.604 232.396 120.807L225.237 120.778Z" fill="#01B1EC"/>
<path d="M234.908 175.257C234.908 175.257 235.411 176.801 235.263 177.384C235.263 177.384 229.318 177.5 228.992 177.384C228.667 177.238 231.359 175.548 232.364 175.257H234.908Z" fill="#14212B"/>
<path d="M230.295 106.298C230.265 105.628 230.206 105.016 230.117 104.258C229.969 103.18 228.993 102.336 227.84 102.365C226.627 102.394 225.651 103.413 225.68 104.608L225.71 104.724C225.71 105.22 225.74 105.861 225.74 106.443C225.74 107.026 225.71 107.609 225.71 108.191C225.68 109.386 225.592 110.58 225.503 111.746C225.325 114.135 224.97 116.494 224.497 118.825C224.29 119.99 223.935 121.127 223.639 122.292C223.491 122.846 223.284 123.399 223.107 123.982L223.048 124.127C222.338 126.225 220.948 129.634 219.232 131.003C218.138 131.527 216.925 132.168 217.132 132.489C217.457 133.013 218.729 132.401 218.966 132.693C219.173 132.984 217.398 133.596 215.683 133.625C215.446 133.625 215.357 133.887 215.535 134.004C216.274 134.586 217.901 135.344 220.09 133.887C220.711 133.596 221.303 133.101 221.894 132.518C221.953 132.479 222.013 132.421 222.072 132.343C222.091 132.343 222.101 132.343 222.101 132.343C222.101 132.343 222.111 132.333 222.131 132.314C222.151 132.295 222.17 132.265 222.19 132.227C222.21 132.227 222.22 132.217 222.22 132.197C222.279 132.139 222.338 132.061 222.397 131.964C223.196 131.09 223.935 130.071 224.497 129.197C225 128.497 225.414 127.798 225.769 127.099L225.858 126.953C225.878 126.915 225.887 126.895 225.887 126.895L226.242 126.225L226.627 125.351C226.893 124.739 227.189 124.157 227.426 123.545C227.899 122.321 228.342 121.098 228.668 119.845C229.407 117.339 229.91 114.746 230.176 112.154L230.295 110.202C230.324 109.561 230.354 108.92 230.354 108.25C230.354 107.609 230.334 106.958 230.295 106.298Z" fill="#F4CCA8"/>
<path d="M230.117 103.384C229.762 102.335 228.638 101.694 227.514 102.015C226.45 102.335 225.828 103.501 226.124 104.578C227.041 108.191 227.84 115.474 221.007 123.981C220.652 124.448 220.12 124.797 219.558 125.03C218.641 125.351 217.369 125.875 217.517 126.166C217.753 126.574 218.729 126.196 218.877 126.429C219.055 126.662 217.309 127.099 215.89 126.895C215.89 126.895 217.369 128.934 220.001 127.186C221.953 125.933 223.758 124.418 225.237 122.641C228.49 118.708 232.927 111.454 230.117 103.384Z" fill="#F4CCA8"/>
<path d="M232.335 120.777C232.335 120.777 231.182 116.611 232.631 112.182C233.726 108.949 233.459 104.491 232.572 102.015C232.217 100.966 231.004 100.383 229.91 100.733L227.573 101.432C227.1 101.607 226.656 101.927 226.39 102.364C225.532 103.734 223.58 106.764 223.107 107.405C222.515 108.249 223.787 110.697 225.591 111.25L225.236 120.777H232.335Z" fill="#FEC945"/>
<path d="M227.692 121.301C227.692 128.73 221.599 134.731 214.086 134.731C206.543 134.731 200.45 128.73 200.45 121.301C200.45 113.901 206.543 107.87 214.086 107.87C221.599 107.87 227.692 113.901 227.692 121.301Z" fill="#FF9100"/>
<path d="M225.83 121.301C225.83 122.059 225.77 122.816 225.623 123.515C224.706 128.118 221.008 131.76 216.335 132.663C215.595 132.809 214.856 132.867 214.087 132.867C213.633 132.867 213.199 132.848 212.785 132.809C210.36 132.547 208.171 131.556 206.425 130.1C205.301 129.138 204.355 128.002 203.675 126.691C202.817 125.089 202.314 123.253 202.314 121.301C202.314 114.921 207.579 109.735 214.087 109.735C216.068 109.735 217.932 110.201 219.559 111.075C220.89 111.745 222.043 112.678 222.99 113.785C224.499 115.504 225.504 117.659 225.77 120.019C225.81 120.447 225.83 120.874 225.83 121.301Z" fill="#FCB000"/>
<path d="M222.987 113.785L206.422 130.1C205.298 129.138 204.352 128.002 203.671 126.691L219.556 111.075C220.887 111.745 222.04 112.678 222.987 113.785Z" fill="#FCBE03"/>
<path d="M225.828 121.301C225.828 122.059 225.769 122.816 225.621 123.515L216.333 132.663C215.593 132.809 214.854 132.867 214.085 132.867C213.631 132.867 213.197 132.848 212.783 132.809L225.769 120.019C225.808 120.447 225.828 120.874 225.828 121.301Z" fill="#FCBE03"/>
<path d="M232.957 106.298C232.928 105.628 232.869 105.016 232.78 104.258C232.632 103.18 231.656 102.336 230.532 102.365C229.289 102.394 228.313 103.413 228.373 104.608V104.724C228.373 105.22 228.402 105.861 228.402 106.443C228.402 107.026 228.373 107.609 228.373 108.191C228.343 109.386 228.254 110.58 228.195 111.746C227.988 114.135 227.633 116.494 227.16 118.825C226.953 119.99 226.598 121.127 226.302 122.292C226.154 122.846 225.947 123.399 225.77 123.982L225.71 124.127C225 126.225 223.61 129.634 221.895 131.003C220.8 131.527 219.587 132.168 219.794 132.489C220.12 133.013 221.392 132.401 221.628 132.693C221.835 132.984 220.061 133.596 218.345 133.625C218.108 133.625 218.02 133.887 218.197 134.004C218.937 134.586 220.564 135.344 222.752 133.887C223.374 133.596 223.965 133.101 224.557 132.518C224.616 132.479 224.685 132.421 224.764 132.343C224.764 132.343 224.774 132.333 224.793 132.314C224.813 132.295 224.833 132.265 224.853 132.227C224.872 132.227 224.882 132.217 224.882 132.197C224.941 132.139 225 132.061 225.06 131.964C225.858 131.09 226.598 130.071 227.189 129.197C227.663 128.497 228.077 127.798 228.432 127.099L228.52 126.953C228.54 126.915 228.55 126.895 228.55 126.895L228.905 126.225L229.319 125.351C229.556 124.739 229.851 124.157 230.088 123.545C230.561 122.321 231.005 121.098 231.36 119.845C232.07 117.339 232.573 114.746 232.839 112.154L232.987 110.202C232.987 109.561 233.016 108.92 233.016 108.25C233.016 107.609 232.997 106.958 232.957 106.298Z" fill="#F4CCA8"/>
<path d="M228.697 98.5188C229.909 98.0526 230.59 97.7904 230.649 96.5086C230.708 94.6149 230.708 91.5559 230.057 90.9149C229.081 89.9244 227.425 90.0992 226.212 90.5653C223.934 91.3811 223.698 97.8778 225.058 99.1306C225.916 99.888 227.454 98.9849 228.697 98.5188Z" fill="#F4CCA8"/>
<path d="M227.575 102.598L230.976 101.258L230.621 96.3339L227.131 96.567L227.575 102.598Z" fill="#F4CCA8"/>
<path d="M224.439 93.566C224.173 94.44 223.492 95.9258 223.492 95.9258C223.492 95.9258 224.143 96.4502 224.468 96.3045L224.439 93.566Z" fill="#F4CCA8"/>
<path d="M227.308 99.1018L227.426 100.617C227.426 100.617 229.082 99.4222 229.378 97.7325C229.378 97.7325 227.988 98.9852 227.308 99.1018Z" fill="#14212B"/>
<path d="M226.034 90.7113C226.034 90.7113 227.04 93.916 229.909 94.0908C229.909 94.0908 231.24 94.4404 230.915 95.4018C230.59 96.3341 228.164 99.0144 229.554 101.578C230.945 104.171 232.364 104.928 232.246 106.531C232.128 108.162 232.926 108.803 232.926 108.803C232.926 108.803 236.594 107.987 235.293 104.491C233.991 100.995 233.666 98.5191 234.08 97.1498C234.494 95.8097 235.145 90.9152 231.655 89.546C228.164 88.1767 222.81 88.7011 224.585 92.9546L226.034 90.7113Z" fill="#14212B"/>
<path d="M230.472 96.1001C230.472 96.1001 231.685 95.5174 231.744 94.556C231.773 93.5946 230.295 93.8277 230.235 94.6725L230.472 96.1001Z" fill="#F4CCA8"/>
<path d="M231.361 96.2179C231.391 96.5966 231.095 96.9171 230.711 96.9462C230.326 96.9754 229.971 96.684 229.941 96.3053C229.912 95.9266 230.208 95.6061 230.592 95.577C230.977 95.5478 231.332 95.8392 231.361 96.2179Z" fill="#FEC945"/>
<path d="M60.3315 53.944L22.6177 159.874H26.6405L64.3543 53.944H60.3315Z" fill="#FFB712"/>
<path d="M69.1467 77.835L68.6439 78.8547L67.1945 81.8555H51.2808L53.0259 78.2138L53.2034 77.835H69.1467Z" fill="#FFB712"/>
<path d="M59.2952 106.851L58.7923 107.871L57.3725 110.872H41.4292L43.204 107.23L43.3814 106.851H59.2952Z" fill="#FFB712"/>
<path d="M48.7671 135.898L48.2938 136.888L46.8444 139.889H30.9307L32.6758 136.247L32.8533 135.898H48.7671Z" fill="#FFB712"/>
<path d="M75.3573 53.944L37.6436 159.874H41.6664L79.3506 53.944H75.3573Z" fill="#FFB712"/>
<path d="M18.7412 128.235C18.7412 128.235 17.7059 129.459 17.6172 130.042C17.6172 130.042 23.119 132.343 23.4443 132.343C23.7993 132.314 21.9358 129.78 21.1076 129.168L18.7412 128.235Z" fill="#14212B"/>
<path d="M21.8194 129.43L18.1812 128.002L37.8515 82.0294C37.8515 82.0294 38.1768 81.2137 38.6501 80.1649C39.6262 78.0382 41.3123 76.2901 43.4124 75.2413L45.9858 76.2319L43.442 86.7199L21.8194 129.43Z" fill="#6591A3"/>
<path d="M40.6317 132.983C40.6317 132.983 39.8922 134.41 39.9218 135.022C39.9218 135.022 45.8081 136.071 46.1334 136.013C46.4588 135.925 44.0925 133.828 43.1459 133.391L40.6317 132.983Z" fill="#14212B"/>
<path d="M50.7488 84.4468C50.7685 84.3691 50.7783 84.3011 50.7783 84.2429C51.1629 81.1256 50.3346 77.9791 48.6782 75.2989L44.5371 74.6579L41.7862 74.2209C41.7862 74.2209 38.7691 76.1437 38.0592 80.3972C37.9113 81.3586 38.4733 82.2909 39.3902 82.6988L42.9694 84.3011L42.9398 84.3594L40.4255 132.954L44.1821 133.566L50.7488 84.4468Z" fill="#6D9AAF"/>
<path d="M48.6788 53.1578C47.5547 52.4878 46.9336 52.109 47.1111 50.8272C47.3477 48.9626 47.8801 45.9619 48.6492 45.4083C49.7732 44.6217 51.3705 45.0879 52.4945 45.6997C54.5946 46.9233 53.7073 53.3618 52.1396 54.3523C51.193 54.9641 49.8324 53.8279 48.6788 53.1578Z" fill="#FFD6B0"/>
<path d="M49.0934 57.354L45.958 55.4603L47.1708 50.6533L50.5724 51.4982L49.0934 57.354Z" fill="#FFD6B0"/>
<path d="M53.7362 48.9635C53.8546 49.8666 54.2687 51.4689 54.2687 51.4689C54.2687 51.4689 53.5292 51.8768 53.2334 51.6729L53.7362 48.9635Z" fill="#FFD6B0"/>
<path d="M49.9489 53.9439L49.5939 55.4297C49.5939 55.4297 48.1445 53.973 48.1445 52.2833C48.1445 52.2833 49.2981 53.7399 49.9489 53.9439Z" fill="#14212B"/>
<path d="M47.4931 48.4093C50.3623 49.866 50.806 46.1078 50.806 46.1078C50.806 46.1078 52.9949 45.292 53.4386 47.2731L53.7048 48.5841C53.7048 48.5841 54.8288 45.5251 52.492 44.3306C52.492 44.3306 50.6581 41.9417 48.203 43.7479C48.203 43.7479 45.3042 43.3983 44.8605 45.6708C44.8605 45.6708 41.1631 47.7975 42.1392 51.1479C42.1392 51.1479 40.7194 52.2549 40.2757 54.0321C39.6841 56.3336 41.3406 58.4895 43.7365 58.8391C44.6831 58.9556 45.6592 58.7517 46.3395 57.6738C47.641 55.547 47.5227 52.1675 47.2269 49.8368C47.1381 49.1085 47.4931 48.4093 47.4931 48.4093Z" fill="#14212B"/>
<path d="M47.3454 50.4766C47.3454 50.4766 46.251 49.69 46.3693 48.7286C46.4876 47.7963 47.9074 48.2624 47.8187 49.0781L47.3454 50.4766Z" fill="#FFD6B0"/>
<path d="M46.3691 50.5073C46.2804 50.9152 46.517 51.2939 46.9311 51.4104C47.3453 51.4978 47.7594 51.2648 47.8481 50.8569C47.9664 50.449 47.7002 50.0703 47.2861 49.9538C46.9016 49.8664 46.4874 50.0994 46.3691 50.5073Z" fill="#FEC945"/>
<path d="M77.9037 51.8172C77.46 51.4676 76.3656 51.2637 74.088 51.7881C72.4907 52.1668 71.7808 53.1573 71.5146 53.7109C63.7943 58.0518 53.5598 56.8864 49.3891 55.9542C48.1468 55.6628 46.6087 55.5463 45.7509 56.4786C44.9522 57.3817 45.2184 58.3431 45.6621 59.0423C46.5199 60.4407 60.7476 64.3155 74.4725 54.7597L74.4429 54.7305C75.9219 53.9439 78.2882 52.1085 77.9037 51.8172Z" fill="#F7CFA8"/>
<path d="M41.7866 74.1929C41.7866 74.1929 43.591 70.2599 42.8515 65.6859C42.3191 62.3064 43.2952 57.9655 44.5671 55.664C45.0995 54.6443 46.3714 54.2947 47.4067 54.79L49.5956 55.8679C50.0393 56.101 50.4238 56.4797 50.6013 56.9458C51.252 58.4317 52.6719 61.7529 53.0268 62.4521C53.5001 63.3844 51.8436 65.5985 49.9505 65.8316L48.7674 75.3291L41.7866 74.1929Z" fill="#FEC945"/>
<path d="M67.5496 76.6396C66.3073 75.6199 65.065 75.649 64.4438 75.7655C56.3095 72.2695 51.1626 63.4421 49.447 59.5964C48.9146 58.4602 48.116 57.1784 46.844 57.0618C45.6313 56.9453 45.0101 57.7319 44.6847 58.5185C44.0636 60.0043 49.3879 73.5514 65.3608 78.7372V78.708C66.8989 79.4072 69.7977 80.1647 69.7977 79.6986C69.8273 79.1159 69.3244 78.1254 67.5496 76.6396Z" fill="#FFD6B0"/>
<path d="M45.1851 61.0244C45.1851 61.0244 46.9302 65.4527 49.6516 68.3078L49.3558 70.7842C49.3558 70.7842 45.333 66.3559 45.1851 61.0244Z" fill="#14212B"/>
</svg>
