<svg width="74" height="72" viewBox="0 0 74 72" fill="none" xmlns="http://www.w3.org/2000/svg">
<path d="M71.2468 61.76L56.0241 46.5399C59.1683 41.7995 61.0016 36.1173 61.0016 30.0032C61.0016 25.4636 59.9634 21.1793 58.1633 17.3245L51.1908 24.2939C51.7066 26.1122 52.001 28.0233 52.001 30.0032C52.001 41.581 42.5774 51.0042 30.9999 51.0042C19.4191 51.0042 9.99882 41.5807 9.99882 30.0032C9.99882 18.4224 19.4194 9.00211 30.9999 9.00211C36.1571 9.00211 40.8795 10.88 44.5433 13.9766L50.9156 7.60431C45.6137 2.88746 38.6533 0.00146484 30.9998 0.00146484C14.4296 0.00146484 0.998047 13.4304 0.998047 30.0032C0.998047 46.5734 14.4296 60.0049 30.9998 60.0049C37.1144 60.0049 42.7965 58.1716 47.5365 55.0274L62.7592 70.2475C65.0992 72.5846 68.9004 72.5846 71.247 70.2445C73.5871 67.9013 73.5871 64.1003 71.247 61.7602L71.2468 61.76Z" fill="#FF522C"/>
<path d="M39.9992 22.7603L33.1197 15.8807C32.2588 15.0229 30.9715 14.7677 29.8494 15.2298C28.7303 15.6949 27.9984 16.7899 27.9984 18.0019V34.7611L24.1189 30.8815C22.9456 29.7082 21.0496 29.7082 19.8768 30.8815L14.2363 36.522C14.9983 38.4693 16.0847 40.2513 17.4377 41.8053L21.9978 37.2452L28.8774 44.1248C29.7353 44.9827 31.0256 45.2439 32.1477 44.7758C33.2668 44.3137 33.999 43.2157 33.999 42.0037V25.2445L37.8786 29.124C39.0519 30.2973 40.9479 30.2973 42.1207 29.124L61.6225 9.6222L67.0013 15.0015V0H51.9998L57.3791 5.3793L39.9992 22.7603Z" fill="#FF522C"/>
</svg>
