<svg width="72" height="44" viewBox="0 0 72 44" fill="none" xmlns="http://www.w3.org/2000/svg">
<path d="M58.6025 26.4636C61.6703 25.0462 63.8078 21.9487 63.8078 18.3537C63.8078 13.4259 59.7991 9.41655 54.8719 9.41655C51.3426 9.41655 48.2936 11.4783 46.8427 14.4558C47.1348 13.4531 47.2998 12.3956 47.2998 11.2993C47.2998 5.06892 42.231 0 36.0004 0C29.77 0 24.7011 5.06878 24.7011 11.2993C24.7011 12.3957 24.866 13.452 25.1581 14.4558C23.7067 11.4783 20.6584 9.41755 17.1289 9.41755C12.2011 9.41755 8.19298 13.4269 8.19298 18.3547C8.19298 21.9497 10.3305 25.0477 13.3983 26.4646C5.74271 28.1736 0 35.0087 0 43.1708V43.795H72V43.1708C72 35.0085 66.2573 28.1726 58.6027 26.4632L58.6025 26.4636ZM21.7271 26.6871C21.4401 26.6074 21.153 26.5288 20.8598 26.463C23.9277 25.0456 26.0652 21.9482 26.0652 18.3531C26.0652 17.5416 25.947 16.7584 25.743 16.011C26.943 18.6128 29.0974 20.6841 31.7617 21.7665C27.9731 22.5162 24.538 24.2496 21.7271 26.6871L21.7271 26.6871ZM35.999 17.2423C32.7221 17.2423 30.0566 14.5763 30.0566 11.3C30.0566 8.02366 32.7221 5.35764 35.999 5.35764C39.2758 5.35764 41.9417 8.02366 41.9417 11.3C41.9417 14.5763 39.2757 17.2423 35.999 17.2423ZM50.2708 26.6877C47.46 24.2497 44.0243 22.5157 40.2352 21.7677C42.8995 20.6847 45.0538 18.614 46.2538 16.0122C46.0498 16.7596 45.9317 17.5428 45.9317 18.3543C45.9317 21.9494 48.0692 25.0473 51.137 26.4642C50.846 26.5289 50.5579 26.6069 50.2708 26.6877L50.2708 26.6877Z" fill="#FF522C"/>
<path d="M36.0005 7.7998C34.0709 7.7998 32.5007 9.37054 32.5007 11.3007C32.5007 13.2309 34.0715 14.8016 36.0005 14.8016C37.9307 14.8016 39.5014 13.2309 39.5014 11.3007C39.5014 9.37054 37.9307 7.7998 36.0005 7.7998Z" fill="#FF522C"/>
</svg>
