<svg width="573" height="443" viewBox="0 0 573 443" fill="none" xmlns="http://www.w3.org/2000/svg">
<path d="M200.531 403.345H444.611C503.862 403.345 555.926 372.275 569.147 327.966C575.786 305.542 572.165 281.172 544.953 259.558C468.147 198.553 551.647 190.664 521.582 116.852C490.75 41.0958 350.139 -14.0197 190.656 29.9646C-48.1569 95.7249 -29.065 412.206 200.531 403.345Z" fill="#48CFEF" fill-opacity="0.2"/>
<path d="M224.505 403.399H418.442C465.513 403.399 506.879 378.705 517.358 343.474C522.679 325.643 519.771 306.298 498.156 289.115C437.095 240.646 503.478 234.378 479.558 175.75C455.089 115.556 343.336 71.7334 216.605 106.694C26.8934 158.945 42.0353 410.423 224.505 403.399Z" fill="#48CFEF" fill-opacity="0.2"/>
<path d="M104.899 235.827C106.062 237.068 107.383 238.126 108.846 239.013L111.203 235.241C110.076 234.558 109.077 233.754 108.203 232.822L104.899 235.827ZM118.061 242.202C120.946 242.66 124.093 242.784 127.461 242.627L127.249 238.203C124.116 238.349 121.289 238.228 118.776 237.829L118.061 242.202ZM136.631 241.626C139.494 241.16 142.49 240.55 145.607 239.81L144.553 235.504C141.525 236.223 138.637 236.811 135.899 237.256L136.631 241.626ZM154.396 237.485C157.196 236.675 160.079 235.783 163.038 234.816L161.622 230.612C158.706 231.565 155.873 232.441 153.129 233.235L154.396 237.485ZM171.571 231.901C174.335 230.919 177.156 229.884 180.03 228.801L178.423 224.665C175.573 225.739 172.779 226.763 170.046 227.734L171.571 231.901ZM188.437 225.56C191.187 224.477 193.979 223.359 196.81 222.208L195.094 218.114C192.277 219.259 189.501 220.371 186.768 221.447L188.437 225.56ZM205.113 218.79C207.834 217.657 210.586 216.5 213.366 215.322L211.59 211.254C208.817 212.428 206.073 213.582 203.362 214.71L205.113 218.79ZM221.624 211.802C224.354 210.632 227.109 209.446 229.885 208.247L228.079 204.19C225.306 205.388 222.555 206.573 219.829 207.741L221.624 211.802ZM238.097 204.692C240.817 203.513 243.56 202.323 246.313 201.13L244.502 197.076C241.744 198.271 239.008 199.458 236.285 200.639L238.097 204.692ZM254.547 197.565C257.276 196.386 260.018 195.204 262.77 194.022L260.973 189.962C258.217 191.146 255.472 192.329 252.74 193.509L254.547 197.565ZM271 190.503C273.743 189.337 276.494 188.172 279.251 187.014L277.486 182.94C274.722 184.102 271.965 185.268 269.217 186.437L271 190.503ZM287.51 183.569C290.267 182.428 293.028 181.296 295.792 180.174L294.078 176.079C291.305 177.205 288.534 178.342 285.768 179.486L287.51 183.569ZM304.094 176.841C306.87 175.739 309.645 174.652 312.419 173.58L310.777 169.457C307.99 170.534 305.201 171.627 302.413 172.733L304.094 176.841ZM320.785 170.397C323.586 169.348 326.383 168.319 329.173 167.313L327.626 163.154C324.818 164.167 322.004 165.202 319.187 166.257L320.785 170.397ZM337.588 164.339C340.426 163.358 343.255 162.404 346.072 161.479L344.65 157.277C341.809 158.21 338.958 159.172 336.099 160.16L337.588 164.339ZM354.581 158.767C357.439 157.884 360.282 157.035 363.108 156.223L361.849 151.971C358.992 152.791 356.12 153.649 353.235 154.541L354.581 158.767ZM371.73 153.85C374.642 153.086 377.531 152.366 380.396 151.694L379.353 147.385C376.448 148.067 373.52 148.797 370.572 149.571L371.73 153.85ZM389.089 149.788C392.027 149.192 394.935 148.651 397.808 148.172L397.057 143.805C394.128 144.294 391.168 144.844 388.181 145.45L389.089 149.788ZM406.613 146.882C409.606 146.508 412.555 146.208 415.458 145.987L415.111 141.571C412.13 141.798 409.107 142.106 406.046 142.489L406.613 146.882ZM424.306 145.558C425.775 145.53 427.23 145.526 428.67 145.545L428.73 141.116C427.239 141.096 425.735 141.101 424.219 141.13L424.306 145.558Z" fill="white"/>
<path d="M418.825 433.658C418.825 438.305 361.056 442.033 289.845 442.033C218.58 442.033 160.865 438.305 160.865 433.658C160.865 429.065 218.58 425.337 289.845 425.337C361.056 425.337 418.825 429.065 418.825 433.658Z" fill="#52A4E2" fill-opacity="0.6"/>
<path d="M368.626 430.631L240.908 436.953C228.619 437.548 217.153 430.794 211.776 419.878L92.6712 173.642C88.392 164.835 89.3247 155.811 95.9629 146.733L96.5664 145.76L392.216 414.367C387.059 423.445 379.159 430.145 368.626 430.631Z" fill="#0B283E"/>
<path d="M390.025 415.394L237.51 422.959C233.285 423.175 229.28 420.852 227.47 417.124L96.4051 151.435C94.5947 147.706 97.3378 143.33 101.617 143.33H251.609C255.669 143.33 259.345 145.599 261.155 149.165L392.165 411.774C392.933 413.395 391.836 415.286 390.025 415.394Z" fill="#0F3552"/>
<path d="M106.717 158.621C106.388 157.919 106.662 157.324 106.827 157.054C106.991 156.784 107.43 156.298 108.198 156.298H254.131C256.544 156.298 258.849 157.703 259.891 159.864L375.979 393.726L226.645 398.806C216.605 379.245 106.717 158.621 106.717 158.621Z" fill="#3094D1"/>
<path d="M205.141 371.896L96.4051 151.434C94.5947 147.706 97.3378 143.329 101.617 143.329H251.609C255.669 143.329 205.141 371.896 205.141 371.896Z" fill="#84BDF1" fill-opacity="0.3"/>
<path d="M300.49 304.569L274.431 336.179L378.942 415.935L390.024 415.394L314.48 340.286L300.49 304.569Z" fill="#52A4E2" fill-opacity="0.6"/>
<path d="M290.449 411.179L290.614 411.557C291.437 413.556 293.467 414.799 295.661 414.691L326.713 413.07C330.443 412.854 332.748 409.071 331.157 405.775C330.224 403.938 328.304 402.803 326.274 402.857L295.003 404.046C291.382 404.208 289.023 407.883 290.449 411.179Z" fill="#0B283E"/>
<path d="M320.389 366.487L152.046 229.103C146.411 224.51 145.632 216.286 150.296 210.742L239.232 105.018C243.901 99.474 252.245 98.7014 257.88 103.3L426.223 240.683C431.857 245.276 432.636 253.5 427.973 259.044L339.031 364.768C334.368 370.312 326.018 371.085 320.389 366.487Z" fill="black"/>
<path d="M330.607 374.814L141.828 220.761L247.656 94.9684L436.436 249.021L330.607 374.814Z" fill="#FECD29"/>
<path d="M330.607 374.814L141.828 220.761L247.656 94.9684L436.436 249.021L330.607 374.814Z" fill="#FECD29" fill-opacity="0.3"/>
<path d="M291.767 231.784L148.907 221.302L329.732 372.004L291.767 231.784Z" fill="#FECD29" fill-opacity="0.6"/>
<path d="M289.132 234.918L141.828 220.761L330.607 374.814L289.132 234.918Z" fill="#FECD29"/>
<path d="M261.099 248.048L231.145 133.656C230.048 129.442 229.883 123.282 232.132 119.553L245.244 100.371L432.103 252.857L416.468 266.744C413.121 269.662 406.044 273.066 401.6 272.742L281.234 264.474C271.633 263.772 263.568 257.18 261.099 248.048Z" fill="#FECD29" fill-opacity="0.6"/>
<path d="M264.775 243.671L233.558 128.199C232.461 124.039 233.064 119.554 235.314 115.771L247.658 94.9678L436.437 249.021L418.058 264.907C414.712 267.771 410.323 269.23 405.934 268.906L284.909 260.098C275.308 259.396 267.243 252.803 264.775 243.671Z" fill="#FECD29"/>
<path d="M182.645 164.457L256.599 329.155L193.947 321.158L123.395 179.155L182.645 164.457Z" fill="#3094D1"/>
<path d="M395.236 174.507C395.236 174.507 397.595 197.58 398.363 201.956C399.131 206.333 380.972 201.146 380.972 201.146C380.972 201.146 383.056 190.393 381.904 185.476C380.807 180.559 395.236 174.507 395.236 174.507Z" fill="#F9AF9A"/>
<path d="M364.953 296.248C364.953 296.248 378.998 341.475 383.003 348.392C383.003 348.392 382.015 356.281 386.514 362.224C391.012 368.114 405.825 426.85 405.825 426.85C405.825 426.85 388.544 431.821 385.033 435.279C381.521 438.738 414.384 438.251 416.852 436.738C420.254 434.631 415.865 426.58 415.865 426.58C415.865 426.58 423.6 389.35 418.718 373.085C415.261 361.522 405.331 357.794 407.306 347.905C409.336 338.017 414.054 291.655 405.057 279.281C396.06 266.961 364.953 296.248 364.953 296.248Z" fill="#F9AF9A"/>
<path d="M409.391 331.533C410.927 313.702 411.421 288.035 405.057 279.282C396.06 266.962 364.953 296.248 364.953 296.248C364.953 296.248 372.689 321.158 378.339 336.829C384.923 334.991 397.98 331.695 409.391 331.533Z" fill="#33C7CA"/>
<path d="M409.391 331.533C410.927 313.702 411.421 288.035 405.057 279.282C396.06 266.962 364.953 296.248 364.953 296.248C364.953 296.248 372.689 321.158 378.339 336.829C384.923 334.991 397.98 331.695 409.391 331.533Z" fill="#33C7CA" fill-opacity="0.1"/>
<path d="M393.809 362.278C388.871 356.712 390.901 350.12 390.133 346.986C384.866 326.129 391.834 303.596 391.834 303.596H367.256C371.425 316.673 380.039 343.204 383.001 348.391C383.001 348.391 382.014 356.28 386.512 362.224C389.694 366.384 397.869 396.428 402.477 414.043C402.477 414.043 398.253 367.303 393.809 362.278Z" fill="#F9AF9A" fill-opacity="0.5"/>
<path d="M408.841 276.903C408.841 276.903 406.701 310.89 375.924 310.404C345.091 309.864 309.376 266.852 315.082 257.018C323.86 241.834 339.276 249.831 371.151 264.961C403.025 280.037 408.841 276.903 408.841 276.903Z" fill="#F9AF9A"/>
<path d="M332.364 272.202C332.364 272.202 328.853 297.112 321.94 303.92C315.027 310.674 292.479 326.074 292.479 329.749C292.479 333.423 292.26 340.285 287.322 340.285C284.689 340.285 254.789 329.748 258.52 326.614C262.196 323.48 280.3 325.047 280.3 325.047C280.3 325.047 310.584 251.993 319.581 251.614C328.633 251.236 332.364 272.202 332.364 272.202Z" fill="#F9AF9A"/>
<path d="M344.599 252.911C345.97 258.045 350.194 277.821 342.788 296.733C352.992 304.46 364.788 310.188 375.925 310.404C406.702 310.89 408.842 276.903 408.842 276.903C408.842 276.903 403.026 280.037 371.152 264.961C360.618 259.936 351.895 255.775 344.599 252.911Z" fill="#33C7CA"/>
<path d="M327.534 168.13L324.681 165.753C324.681 164.726 323.859 161.376 325.011 157.215C326.108 152.893 325.12 149.326 323.584 148.732C322.597 148.408 322.706 146.733 321.006 146.679C319.305 146.679 319.47 145.112 317.33 145.598C315.958 145.922 315.465 145.112 314.422 145.058C312.777 145.004 312.228 145.328 310.582 146.084C310.582 146.084 314.422 148.732 313.38 153.379C312.941 155.486 313.106 158.945 315.136 161.7C315.904 162.727 316.233 164.078 315.958 165.321L314.971 169.86L327.534 168.13Z" fill="#F9AF9A"/>
<path d="M391.338 210.278L397.756 198.12C397.756 198.12 408.07 216.6 411.582 222.436C415.532 229.028 428.095 240.862 414.27 253.722C400.445 266.636 383.438 265.88 383.438 265.88L391.338 210.278Z" fill="#B75742"/>
<path d="M391.047 210.369L397.434 198.186C397.434 198.186 407.697 216.705 411.191 222.553C415.122 229.159 427.623 241.018 413.866 253.906C400.109 266.848 383.187 266.09 383.187 266.09L391.047 210.369Z" fill="#B75742" fill-opacity="0.2"/>
<path d="M402.039 217.032C402.039 217.032 412.408 237.349 412.408 241.023C412.408 244.644 404.672 251.614 404.672 251.614L402.039 217.032Z" fill="#9EC700" fill-opacity="0.2"/>
<path d="M368.791 172.616C368.682 172.904 368.59 173.192 368.517 173.48C367.146 178.668 368.846 183.585 370.931 188.286C376.417 200.281 395.674 188.016 398.033 178.073C400.721 166.942 396.881 157.216 388.048 154.19C382.617 152.299 375.759 152.137 371.425 161.106C370.547 162.997 370.766 165.213 370.328 167.212C369.889 169.049 369.395 170.833 368.791 172.616Z" fill="#F9AF9A"/>
<path d="M398.529 175.696L383.442 158.296C383.442 158.296 381.521 163.43 376.913 169.59C372.14 176.074 380.973 189.096 375.103 192.554C377.132 193.419 379.601 193.419 382.125 192.717C381.796 197.039 380.973 201.146 380.973 201.146C380.973 201.146 399.132 206.333 398.364 201.956C397.925 199.255 396.828 189.529 396.06 182.45C396.992 180.991 397.706 179.532 398.035 178.073C398.218 177.281 398.382 176.488 398.529 175.696Z" fill="#F9AF9A" fill-opacity="0.4"/>
<path d="M400.613 157.217C400.613 157.217 401.491 154.407 405.77 153.164C410.598 151.759 415.7 153.651 416.688 158.136C417.95 163.971 416.523 166.889 413.89 169.807C411.311 172.725 406.319 173.644 404.454 171.266C402.643 168.888 400.613 157.217 400.613 157.217Z" fill="#0F3552"/>
<path d="M400.613 157.217C400.613 157.217 401.491 154.407 405.77 153.164C410.598 151.759 415.7 153.651 416.688 158.136C417.95 163.971 416.523 166.889 413.89 169.807C411.311 172.725 406.319 173.644 404.454 171.266C402.643 168.888 400.613 157.217 400.613 157.217Z" fill="#0F3552" fill-opacity="0.3"/>
<path d="M384.703 150.839C384.703 150.839 380.972 152.838 376.748 151.757C372.469 150.677 366.379 149.812 364.184 153.162C361.935 156.513 364.349 164.888 372.853 164.672C381.356 164.51 380.478 173.047 381.905 171.966C383.386 170.886 382.673 168.886 386.349 169.265C390.079 169.589 390.244 176.884 385.965 177.64C381.74 178.343 388.049 194.391 396.553 194.553C396.553 194.553 407.635 187.258 408.568 177.802C409.445 168.346 409.829 162.132 406.154 157.431C402.423 152.676 390.244 148.137 384.703 150.839Z" fill="#0F3552"/>
<path d="M381.244 197.148C381.244 197.148 387.389 203.848 397.758 198.121C397.758 198.121 400.556 209.522 406.81 239.403C412.79 268.15 410.705 284.576 409.004 291.871C409.004 291.871 382.451 292.681 371.369 276.255C360.287 259.828 354.472 257.126 354.472 257.126L364.95 216.6L381.244 197.148Z" fill="#B75742"/>
<path d="M384.757 225.029C386.567 232.108 359.301 238.052 359.301 238.052L363.415 221.355C363.415 221.355 383.769 221.193 384.757 225.029Z" fill="#9EC700" fill-opacity="0.4"/>
<path d="M389.859 204.605C389.859 204.605 387.171 195.797 366.598 197.58C354.528 198.661 339.825 197.364 339.825 197.364L326.055 161.485H312.998C312.998 161.485 310.968 203.686 325.012 214.926C336.259 223.841 357.875 231.568 377.57 229.947C397.265 228.326 389.859 204.605 389.859 204.605Z" fill="#B75742"/>
<path d="M400.996 153.433C404.562 165.969 399.57 170.292 386.348 169.266C384.648 169.103 385.909 176.398 384.977 177.371C383.441 184.071 389.695 194.392 396.553 194.554C396.553 194.554 407.635 187.259 408.567 177.803C409.445 168.347 409.829 162.133 406.153 157.432C405.056 156.027 403.191 154.622 400.996 153.433Z" fill="#0F3552" fill-opacity="0.3"/>
<path d="M382.125 172.508C382.125 172.508 381.576 167.861 385.142 167.537C388.763 167.213 389.477 170.725 389.586 172.995C389.696 175.21 387.282 181.046 383.661 177.804" fill="#F9AF9A"/>
<path d="M382.125 172.508C382.125 172.508 381.576 167.861 385.142 167.537C388.763 167.213 389.477 170.725 389.586 172.995C389.696 175.21 387.282 181.046 383.661 177.804" fill="#F9AF9A" fill-opacity="0.4"/>
<path d="M402.806 154.461C402.806 154.461 403.354 167.861 408.895 172.508L410.322 172.292C410.322 172.292 405.165 168.131 402.806 154.461Z" fill="#FECD29"/>
<path d="M330.663 272.527C330.663 272.527 332.089 277.228 329.84 285.117C329.84 285.117 344.433 298.733 349.425 301.111L335.491 285.765C334.558 284.738 334.009 283.442 333.954 282.091C333.79 279.875 333.186 276.039 330.663 272.527Z" fill="#F9AF9A" fill-opacity="0.5"/>
<path d="M415.863 426.579C415.863 426.579 405.275 432.145 390.078 432.361C387.829 433.333 385.909 434.36 385.031 435.279C381.52 438.737 414.382 438.251 416.851 436.738C420.252 434.63 415.863 426.579 415.863 426.579Z" fill="#0F3552"/>
<path d="M265.487 324.831C262.415 325.047 259.727 325.588 258.52 326.614C254.789 329.748 284.689 340.285 287.322 340.285C292.26 340.285 292.479 333.423 292.479 329.749C292.479 329.749 279.532 332.234 265.487 324.831Z" fill="#0F3552"/>
<path d="M182.645 164.457L228.126 265.826L215.617 323.968L193.947 321.158L123.395 179.155L182.645 164.457Z" fill="#84BDF1" fill-opacity="0.3"/>
<path d="M303.18 127.929C303.18 140.032 293.25 149.867 280.906 149.867C268.617 149.867 258.632 140.032 258.632 127.929C258.632 115.825 268.617 105.99 280.906 105.99C293.25 105.99 303.18 115.825 303.18 127.929Z" fill="#FA3900"/>
<path d="M302.354 125.498C302.354 137.602 292.424 147.436 280.081 147.436C267.791 147.436 257.807 137.602 257.807 125.498C257.807 113.34 267.791 103.56 280.081 103.56C292.424 103.56 302.354 113.34 302.354 125.498Z" fill="#FA3900"/>
<path d="M275.088 115.826V119.23H278.818V134.198H283.098V115.826H275.088Z" fill="white"/>
<path d="M505.673 144.194C505.673 144.194 530.471 133.927 538.261 139.439C546.051 144.95 547.972 168.023 556.256 173.156C556.256 173.156 537.548 169.266 532.665 158.297C532.665 158.297 524.436 162.349 519.279 153.218C519.279 153.218 504.795 156.081 505.673 144.194Z" fill="white"/>
<path d="M466.227 127.659C466.227 127.659 456.516 103.02 447.08 101.291C437.644 99.5614 419.43 114.205 409.938 111.935C409.938 111.935 425.793 122.472 437.205 118.311C437.205 118.311 439.948 126.957 450.152 124.309C450.152 124.309 458.162 136.575 466.227 127.659Z" fill="white"/>
<path d="M501.015 168.386L449.648 147.074C447.925 146.361 447.124 144.41 447.843 142.719L461.64 110.455C462.364 108.764 464.345 107.969 466.062 108.683L517.435 129.994C519.152 130.707 519.958 132.658 519.234 134.349L505.436 166.608C504.718 168.299 502.737 169.094 501.015 168.386Z" fill="black"/>
<path d="M504.138 169.698L446.533 145.761L462.937 107.396L520.542 131.279L504.138 169.698Z" fill="#FECD29"/>
<path d="M504.138 169.698L446.533 145.761L462.937 107.396L520.542 131.279L504.138 169.698Z" fill="#FECD29" fill-opacity="0.3"/>
<path d="M483.946 137.601L448.286 145.383L503.697 169.05L483.946 137.601Z" fill="#FECD29" fill-opacity="0.6"/>
<path d="M483.565 138.521L446.533 145.762L504.138 169.699L483.565 138.521Z" fill="#FECD29"/>
<path d="M477.691 143.761L461.836 118.041C461.233 117.068 460.739 115.609 461.013 114.529L462.769 108.909L519.77 132.522L517.027 137.061C516.424 138.034 514.942 139.385 513.845 139.601L483.836 146.301C481.422 146.841 478.953 145.815 477.691 143.761Z" fill="#FECD29" fill-opacity="0.6"/>
<path d="M478.24 142.464L462.001 116.528C461.398 115.609 461.233 114.474 461.507 113.394L462.934 107.396L520.539 131.279L517.247 136.467C516.644 137.439 515.711 138.088 514.614 138.358L484.385 145.004C482.026 145.49 479.557 144.518 478.24 142.464Z" fill="#FECD29"/>
<path d="M520.762 308.621C520.762 308.621 540.128 296.301 547.534 299.76C554.995 303.272 560.152 322.454 567.888 325.588C567.888 325.588 551.539 325.048 545.724 316.51C545.724 316.51 539.36 321.157 533.654 314.241C533.654 314.241 521.804 318.78 520.762 308.621Z" fill="white"/>
<path d="M484.936 300.516C484.936 300.516 472.921 281.118 464.692 281.064C456.463 281.01 443.351 296.085 434.957 295.545C434.957 295.545 449.934 302.083 458.932 296.896C458.932 296.896 462.607 303.812 470.837 300.03C470.837 300.03 479.45 309.216 484.936 300.516Z" fill="white"/>
<path d="M520.519 329.738L473.87 319.363C472.311 319.018 471.329 317.488 471.681 315.954L478.401 286.656C478.752 285.122 480.305 284.154 481.863 284.506L528.512 294.88C530.07 295.226 531.052 296.755 530.695 298.29L523.98 327.587C523.629 329.122 522.077 330.089 520.519 329.738Z" fill="black"/>
<path d="M523.338 330.344L471.055 318.727L479.064 283.874L531.348 295.492L523.338 330.344Z" fill="#26A5B4"/>
<path d="M523.338 330.344L471.055 318.727L479.064 283.874L531.348 295.492L523.338 330.344Z" fill="#26A5B4" fill-opacity="0.3"/>
<path d="M501.395 306.244L472.482 318.132L522.9 329.911L501.395 306.244Z" fill="#26A5B4" fill-opacity="0.6"/>
<path d="M501.174 307.108L471.055 318.726L523.338 330.343L501.174 307.108Z" fill="#26A5B4"/>
<path d="M497.06 312.405L479.724 293.006C479.066 292.304 478.407 291.115 478.462 290.196L479.121 285.171L530.855 296.681L529.209 300.895C528.88 301.814 527.838 303.165 526.96 303.543L502.601 313.647C500.681 314.458 498.432 313.972 497.06 312.405Z" fill="#26A5B4" fill-opacity="0.6"/>
<path d="M497.336 311.216L479.616 291.709C479.013 291.007 478.683 290.088 478.738 289.169L479.067 283.874L531.351 295.492L529.376 300.409C528.992 301.273 528.278 301.976 527.401 302.354L502.878 312.458C500.957 313.269 498.708 312.729 497.336 311.216Z" fill="#26A5B4"/>
<path d="M117.307 266.799C117.307 266.799 128.718 233.459 141.172 230.595C153.57 227.786 178.642 246.211 191.096 242.645C191.096 242.645 170.687 257.505 155.326 252.642C155.326 252.642 152.144 264.367 138.428 261.341C138.428 261.341 128.553 278.092 117.307 266.799Z" fill="white"/>
<path d="M65.9012 291.006C65.9012 291.006 32.3807 278.794 22.341 286.575C12.2464 294.302 11.0944 325.102 0.451172 332.342C0.451172 332.342 25.0292 326.074 30.8446 311.269C30.8446 311.269 42.0364 316.186 48.3455 303.758C48.3455 303.758 67.7665 306.73 65.9012 291.006Z" fill="white"/>
<path d="M141.719 290.736L66.8871 326.237L42.4736 276.363L117.305 240.808L141.719 290.736Z" fill="#9EC700"/>
<path d="M141.719 290.736L66.8871 326.237L42.4736 276.363L117.305 240.808L141.719 290.736Z" fill="#9EC700" fill-opacity="0.3"/>
<path d="M91.465 282.306L68.0391 324.183L140.731 290.573L91.465 282.306Z" fill="#9EC700" fill-opacity="0.6"/>
<path d="M92.0683 283.549L66.8867 326.237L141.718 290.736L92.0683 283.549Z" fill="#9EC700"/>
<path d="M92.2328 293.924L52.2386 286.845C50.7573 286.575 48.8371 285.764 47.9594 284.522L43.8447 277.875L117.908 242.699L120.048 249.399C120.487 250.804 120.541 253.452 119.828 254.748L100.243 290.141C98.6516 292.897 95.4696 294.464 92.2328 293.924Z" fill="#9EC700" fill-opacity="0.6"/>
<path d="M91.4103 292.141L50.8675 285.332C49.3862 285.062 48.0695 284.252 47.2466 283.063L42.4736 276.363L117.305 240.808L119.664 248.643C120.103 250.048 119.938 251.615 119.225 252.912L99.3653 288.358C97.8291 291.168 94.5923 292.681 91.4103 292.141Z" fill="#9EC700"/>
<path d="M137.66 292.627L70.9484 324.346C68.6991 325.372 66.0108 324.454 64.9136 322.238L44.3953 280.361C43.3529 278.146 44.2856 275.498 46.5349 274.418L113.247 242.753C115.496 241.673 118.184 242.591 119.282 244.807L139.8 286.737C140.842 288.953 139.91 291.601 137.66 292.627Z" fill="#9EC700"/>
<path d="M361.22 32.4502C361.22 32.4502 359.848 9.80962 366.596 5.1086C373.344 0.461613 392.875 5.48684 399.404 0.353542C399.404 0.353542 390.9 14.1324 380.477 14.9429C380.477 14.9429 381.464 22.6699 372.522 24.1829C372.522 24.1829 370.766 36.5568 361.22 32.4502Z" fill="white"/>
<path d="M327.098 52.6585C327.098 52.6585 306.031 43.4726 299.228 48.0656C292.426 52.7125 290.451 72.4893 283.264 76.758C283.264 76.758 299.338 73.678 303.727 64.33C303.727 64.33 310.749 67.9503 315.303 60.2234C315.303 60.2234 327.702 62.8711 327.098 52.6585Z" fill="white"/>
<path d="M374.06 41.6358L329.238 70.5984L309.323 40.7172L354.145 11.7546L374.06 41.6358Z" fill="#33C7CA"/>
<path d="M374.06 41.6358L329.238 70.5984L309.323 40.7172L354.145 11.7546L374.06 41.6358Z" fill="#33C7CA" fill-opacity="0.3"/>
<path d="M341.196 40.4475L329.785 69.14L373.4 41.6363L341.196 40.4475Z" fill="#33C7CA" fill-opacity="0.6"/>
<path d="M341.69 41.1495L329.236 70.5984L374.058 41.6358L341.69 41.1495Z" fill="#33C7CA"/>
<path d="M342.679 47.7957L316.455 46.6069C315.522 46.5529 314.206 46.1746 313.547 45.4722L310.311 41.5276L354.694 12.8892L356.669 16.9959C357.053 17.8604 357.327 19.5355 356.998 20.4541L347.452 44.7157C346.684 46.6069 344.764 47.8497 342.679 47.7957Z" fill="#33C7CA" fill-opacity="0.6"/>
<path d="M342.021 46.7686L315.468 45.742C314.535 45.6879 313.602 45.3097 312.944 44.6072L309.323 40.7167L354.145 11.7541L356.34 16.5632C356.779 17.4278 356.779 18.4004 356.45 19.319L346.794 43.6346C346.026 45.5799 344.106 46.8227 342.021 46.7686Z" fill="#33C7CA"/>
<path d="M371.644 43.203L331.65 69.0316C330.333 69.8962 328.523 69.5179 327.645 68.2211L310.912 43.095C310.035 41.7981 310.419 40.015 311.735 39.1504L351.729 13.3218C353.101 12.4573 354.857 12.8355 355.734 14.1324L372.467 39.2585C373.345 40.5553 372.961 42.3385 371.644 43.203Z" fill="#D0D9E9"/>
<path d="M140.183 317.861L140.12 315.647L140.063 315.649L140.005 315.653L140.183 317.861ZM114.406 305.7C113.832 307.386 113.639 308.992 113.86 310.5L118.31 309.868C118.209 309.175 118.272 308.276 118.669 307.111L114.406 305.7ZM120.102 317.67C122.581 318.775 125.499 319.396 128.247 319.749L128.83 315.357C126.289 315.03 123.862 314.484 121.955 313.635L120.102 317.67ZM136.318 320.207C137.515 320.202 138.517 320.168 139.222 320.135C139.575 320.119 139.855 320.102 140.049 320.09C140.146 320.084 140.221 320.079 140.274 320.075C140.3 320.073 140.321 320.071 140.335 320.07C140.343 320.07 140.348 320.069 140.353 320.069C140.355 320.069 140.357 320.069 140.358 320.069C140.359 320.069 140.36 320.069 140.36 320.069C140.36 320.069 140.36 320.069 140.36 320.069C140.36 320.069 140.361 320.068 140.361 320.068C140.361 320.068 140.361 320.068 140.183 317.861C140.005 315.653 140.005 315.653 140.005 315.653C140.003 315.653 140 315.654 139.995 315.654C139.986 315.655 139.971 315.656 139.95 315.657C139.908 315.66 139.844 315.665 139.759 315.67C139.589 315.681 139.335 315.696 139.009 315.711C138.357 315.741 137.421 315.773 136.297 315.778L136.318 320.207ZM140.246 320.075C141.735 320.033 143.221 319.986 144.705 319.932L144.539 315.506C143.068 315.559 141.595 315.606 140.12 315.647L140.246 320.075ZM153.581 319.534C156.535 319.376 159.478 319.194 162.413 318.988L162.093 314.57C159.184 314.774 156.265 314.955 153.338 315.111L153.581 319.534ZM171.29 318.289C174.238 318.032 177.176 317.751 180.103 317.447L179.632 313.042C176.73 313.344 173.817 313.622 170.893 313.877L171.29 318.289ZM188.937 316.456C191.881 316.101 194.814 315.723 197.735 315.323L197.115 310.936C194.219 311.333 191.31 311.708 188.391 312.06L188.937 316.456ZM206.505 314.048C209.443 313.597 212.367 313.123 215.278 312.628L214.513 308.264C211.626 308.755 208.726 309.224 205.812 309.672L206.505 314.048ZM223.976 311.078C226.905 310.532 229.819 309.964 232.718 309.376L231.811 305.038C228.935 305.621 226.045 306.184 223.14 306.726L223.976 311.078ZM241.368 307.55C244.275 306.912 247.165 306.254 250.038 305.577L248.991 301.27C246.141 301.942 243.274 302.594 240.391 303.227L241.368 307.55ZM258.639 303.478C261.519 302.751 264.38 302.005 267.223 301.241L266.039 296.968C263.219 297.727 260.38 298.467 257.524 299.187L258.639 303.478ZM275.768 298.872C278.618 298.058 281.448 297.226 284.258 296.376L282.938 292.142C280.151 292.985 277.343 293.811 274.516 294.618L275.768 298.872ZM292.739 293.74C295.558 292.839 298.354 291.922 301.128 290.988L299.674 286.797C296.922 287.723 294.148 288.633 291.352 289.527L292.739 293.74ZM309.536 288.086C312.322 287.099 315.083 286.097 317.82 285.08L316.232 280.936C313.518 281.945 310.778 282.939 308.015 283.918L309.536 288.086ZM326.142 281.912C328.895 280.839 331.619 279.751 334.316 278.651L332.595 274.559C329.92 275.651 327.217 276.729 324.488 277.793L326.142 281.912ZM342.54 275.216C345.258 274.055 347.945 272.881 350.601 271.694L348.744 267.661C346.11 268.837 343.446 270.001 340.751 271.153L342.54 275.216ZM358.708 267.992C361.39 266.739 364.038 265.475 366.651 264.201L364.655 260.232C362.066 261.495 359.441 262.748 356.781 263.99L358.708 267.992ZM374.616 260.229C377.263 258.879 379.871 257.52 382.438 256.153L380.299 252.257C377.756 253.612 375.172 254.958 372.549 256.296L374.616 260.229ZM390.227 251.91C392.839 250.455 395.404 248.993 397.921 247.525L395.63 243.714C393.139 245.167 390.599 246.614 388.014 248.055L390.227 251.91ZM405.487 243.011C408.059 241.44 410.576 239.864 413.036 238.286L410.582 234.575C408.15 236.135 405.661 237.693 403.117 239.247L405.487 243.011ZM420.384 233.454C422.885 231.767 425.318 230.08 427.684 228.395L425.049 224.806C422.715 226.468 420.313 228.134 417.843 229.8L420.384 233.454ZM434.849 223.142C437.247 221.332 439.564 219.526 441.796 217.73L438.951 214.3C436.756 216.067 434.476 217.844 432.113 219.628L434.849 223.142ZM448.594 212.063C450.915 210.055 453.127 208.062 455.225 206.088L452.119 202.885C450.069 204.814 447.904 206.765 445.627 208.734L448.594 212.063ZM461.558 199.832C463.707 197.596 465.699 195.39 467.529 193.222L464.071 190.39C462.308 192.48 460.38 194.615 458.292 196.788L461.558 199.832ZM473.014 186.152C474.862 183.528 476.448 180.967 477.753 178.484L473.759 176.448C472.556 178.738 471.075 181.135 469.319 183.627L473.014 186.152ZM481.166 170.064C482.084 166.694 482.364 163.466 481.879 160.464L477.438 161.16C477.802 163.413 477.617 166 476.823 168.916L481.166 170.064ZM477.431 151.664C475.342 149.53 472.601 147.809 469.259 146.494L467.59 150.606C470.471 151.74 472.636 153.146 474.194 154.738L477.431 151.664ZM460.343 144.143C458.848 143.9 457.274 143.703 455.623 143.555L455.215 147.966C456.766 148.105 458.231 148.288 459.61 148.513L460.343 144.143Z" fill="white"/>
<path d="M103.259 228.164C102.93 227.461 102.765 226.705 102.6 226.002C102.491 225.246 102.399 224.489 102.326 223.733H102.546C102.546 224.489 102.6 225.246 102.71 226.002C102.82 226.705 102.985 227.461 103.259 228.164Z" fill="white"/>
<path d="M102.933 217.033L104.085 212.657L104.578 212.819L103.317 217.087L102.933 217.033Z" fill="white"/>
<path d="M106.555 206.334L108.585 202.227L109.298 202.66L107.213 206.604L106.555 206.334Z" fill="white"/>
<path d="M111.984 196.391L114.453 192.609L115.441 193.257L112.862 196.931L111.984 196.391Z" fill="white"/>
<path d="M118.513 187.097L121.311 183.531L122.408 184.395L119.555 187.853L118.513 187.097Z" fill="white"/>
<path d="M125.698 178.344L128.771 174.939L129.923 176.02L126.85 179.316L125.698 178.344Z" fill="white"/>
<path d="M133.435 170.023L136.617 166.781L137.878 168.023L134.642 171.157L133.435 170.023Z" fill="white"/>
<path d="M141.499 162.025L144.846 158.891L146.162 160.35L142.816 163.376L141.499 162.025Z" fill="white"/>
<path d="M149.894 154.352L153.295 151.326L154.721 152.893L151.265 155.865L149.894 154.352Z" fill="white"/>
<path d="M158.508 146.95L162.019 144.032L163.39 145.707L159.934 148.571L158.508 146.95Z" fill="white"/>
<path d="M167.339 139.763L170.905 136.953L172.331 138.682L168.71 141.492L167.339 139.763Z" fill="white"/>
<path d="M176.337 132.792L179.958 130.036L181.329 131.873L177.708 134.575L176.337 132.792Z" fill="white"/>
<path d="M185.333 125.984L188.57 122.958L190.271 124.579L186.869 127.767L185.333 125.984Z" fill="white"/>
<path d="M192.961 117.933L195.649 114.421L197.624 115.772L194.881 119.446L192.961 117.933Z" fill="white"/>
<path d="M199.104 108.746C199.763 107.449 200.366 106.153 200.86 104.802L203.164 105.612C202.616 107.089 201.994 108.512 201.299 109.881L199.104 108.746Z" fill="white"/>
<path d="M201.957 98.6424C201.902 97.3455 201.518 96.0487 200.859 94.914L202.889 93.7252C203.822 95.1841 204.261 96.8592 204.371 98.5343L201.957 98.6424Z" fill="white"/>
<path d="M196.142 91.3481L194.112 90.6997C193.783 90.5376 193.399 90.5376 193.07 90.4295L191.973 90.2134L192.302 87.9439L193.509 88.2141C193.893 88.2681 194.332 88.3221 194.716 88.4302L197.02 89.1867L196.142 91.3481Z" fill="white"/>
<path d="M185.39 89.997L180.891 90.3212L180.672 88.1058L185.28 87.7276L185.39 89.997Z" fill="white"/>
<path d="M174.197 91.2938L169.699 92.1043L169.26 89.9969L173.813 89.1324L174.197 91.2938Z" fill="white"/>
<path d="M163.116 93.5634L158.673 94.6441L158.124 92.5908L162.568 91.456L163.116 93.5634Z" fill="white"/>
<path d="M152.145 96.4273L147.756 97.6701L147.152 95.7789L151.541 94.4281L152.145 96.4273Z" fill="white"/>
<path d="M141.225 99.6679L136.891 101.073L136.287 99.3437L140.621 97.8848L141.225 99.6679Z" fill="white"/>
<path d="M130.474 103.29L126.194 104.857L125.591 103.344L129.87 101.723L130.474 103.29Z" fill="white"/>
<path d="M119.83 107.288L115.605 108.963L115.057 107.667L119.226 105.883L119.83 107.288Z" fill="white"/>
<path d="M109.351 111.664L105.181 113.501L104.633 112.42L108.747 110.475L109.351 111.664Z" fill="white"/>
<path d="M99.0366 116.474L95.0317 118.581L94.5928 117.825L98.5428 115.556L99.0366 116.474Z" fill="white"/>
<path d="M89.2705 122.148C88.0087 122.958 86.8017 123.877 85.6496 124.849L85.2656 124.417C86.3629 123.337 87.5698 122.418 88.8316 121.553L89.2705 122.148Z" fill="white"/>
<path d="M82.4692 130.198C82.6338 130.901 83.1275 131.441 83.731 131.873C84.3345 132.252 85.0477 132.576 85.7609 132.792L85.6512 133.062C84.9379 132.846 84.2248 132.576 83.5115 132.144C82.8532 131.711 82.2497 131.117 82.0303 130.306L82.4692 130.198Z" fill="white"/>
<path d="M117.747 97.9939C117.747 97.9939 139.362 90.0508 145.836 95.022C152.364 99.9932 153.242 119.824 160.1 124.525C160.1 124.525 144.245 120.526 140.459 110.962C140.459 110.962 133.218 114.204 129.158 106.207C129.158 106.207 116.594 108.152 117.747 97.9939Z" fill="white"/>
<path d="M92.8938 86.431C92.8938 86.431 85.4326 64.9792 77.3679 63.142C69.3581 61.3588 53.2287 73.3545 45.1641 71.0851C45.1641 71.0851 58.3857 80.5952 68.3157 77.4612C68.3157 77.4612 70.4005 84.972 79.2332 83.0268C79.2332 83.0268 85.652 93.7797 92.8938 86.431Z" fill="white"/>
<path d="M113.307 130.026L69.9879 110.066C68.5395 109.396 67.9141 107.699 68.5944 106.272L81.5143 79.0659C82.1946 77.6394 83.9173 77.0234 85.3656 77.6934L128.684 97.6538C130.133 98.3239 130.758 100.021 130.078 101.447L117.158 128.648C116.478 130.075 114.755 130.691 113.307 130.026Z" fill="black"/>
<path d="M115.934 131.225L67.3818 108.855L82.7431 76.4882L131.296 98.8586L115.934 131.225Z" fill="#FECD29"/>
<path d="M115.934 131.225L67.3818 108.855L82.7431 76.4882L131.296 98.8586L115.934 131.225Z" fill="#FECD29" fill-opacity="0.3"/>
<path d="M99.6964 103.074L68.9189 108.585L115.606 130.685L99.6964 103.074Z" fill="#FECD29" fill-opacity="0.6"/>
<path d="M99.3114 103.884L67.3818 108.855L115.934 131.225L99.3114 103.884Z" fill="#FECD29"/>
<path d="M94.1553 108.153L81.4274 85.5664C80.9336 84.7559 80.5496 83.459 80.8239 82.5405L82.5246 77.7854L130.583 99.9396L128.06 103.722C127.511 104.479 126.195 105.613 125.262 105.775L99.3123 110.53C97.2275 110.909 95.1428 109.99 94.1553 108.153Z" fill="#FECD29" fill-opacity="0.6"/>
<path d="M94.6493 107.018L81.5922 84.269C81.1533 83.4585 81.0436 82.4859 81.263 81.5673L82.7443 76.488L131.297 98.8584L128.28 103.235C127.786 103.992 126.908 104.532 125.975 104.748L99.8612 109.449C97.7764 109.773 95.6917 108.855 94.6493 107.018Z" fill="#FECD29"/>
<path d="M172.828 355.037C171.402 355.614 169.994 356.208 168.604 356.821L168.549 356.604C169.939 356.064 171.365 355.542 172.828 355.037Z" fill="white"/>
<path d="M162.458 359.739L158.398 361.792L158.069 361.144L162.184 359.198L162.458 359.739Z" fill="white"/>
<path d="M152.527 365.196L148.741 367.628L148.083 366.655L151.978 364.332L152.527 365.196Z" fill="white"/>
<path d="M143.31 371.68C142.176 372.617 141.079 373.607 140.018 374.652L138.976 373.625C140.073 372.545 141.225 371.536 142.432 370.599L143.31 371.68Z" fill="white"/>
<path d="M135.849 379.785C135.081 381.028 134.423 382.325 134.039 383.675L132.338 383.135C132.832 381.622 133.6 380.217 134.423 378.92L135.849 379.785Z" fill="white"/>
<path d="M133.711 389.836C134.04 391.186 134.589 392.483 135.302 393.726L133.547 394.699C132.724 393.348 132.12 391.835 131.791 390.268L133.711 389.836Z" fill="white"/>
<path d="M139.581 398.265C140.788 398.967 142.104 399.562 143.476 400.048L142.708 402.101C141.282 401.561 139.8 400.913 138.429 400.048L139.581 398.265Z" fill="white"/>
<path d="M149.951 401.831C151.414 402.119 152.877 402.371 154.34 402.587L154.011 404.857C152.511 404.605 150.993 404.316 149.457 403.992L149.951 401.831Z" fill="white"/>
<path d="M161.084 403.29L165.582 403.561L165.472 405.938L160.919 405.614L161.084 403.29Z" fill="white"/>
<path d="M172.388 403.723L176.941 403.669L176.996 406.101H172.388V403.723Z" fill="white"/>
<path d="M183.742 403.398L188.296 403.128L188.46 405.559L183.852 405.83L183.742 403.398Z" fill="white"/>
<path d="M195.1 402.588L199.598 402.156L199.873 404.534L195.319 405.02L195.1 402.588Z" fill="white"/>
<path d="M206.346 401.346L210.899 400.697L211.228 403.021L206.675 403.669L206.346 401.346Z" fill="white"/>
<path d="M217.594 399.616L222.092 398.859L222.531 401.075L218.033 401.939L217.594 399.616Z" fill="white"/>
<path d="M228.785 397.562L233.229 396.644L233.723 398.751L229.279 399.724L228.785 397.562Z" fill="white"/>
<path d="M239.922 395.185L244.366 394.105L244.859 396.05L240.416 397.185L239.922 395.185Z" fill="white"/>
<path d="M250.949 392.483L255.338 391.295L255.832 392.97L251.443 394.266L250.949 392.483Z" fill="white"/>
<path d="M261.92 389.403L266.254 388.106L266.748 389.511L262.414 390.916L261.92 389.403Z" fill="white"/>
<path d="M272.784 385.998L277.063 384.539L277.502 385.728L273.223 387.295L272.784 385.998Z" fill="white"/>
<path d="M283.536 382.271L287.815 380.704L288.145 381.569L283.92 383.298L283.536 382.271Z" fill="white"/>
<path d="M294.182 378.271L298.406 376.542L298.625 377.028L294.456 378.866L294.182 378.271Z" fill="white"/>
<path d="M304.659 373.896L308.829 372.059L308.884 372.113L304.769 374.112L304.659 373.896Z" fill="white"/>
</svg>
