<svg width="453" height="418" viewBox="0 0 453 418" fill="none" xmlns="http://www.w3.org/2000/svg">
<g clip-path="url(#clip0_396_5720)">
<g opacity="0.25">
<g opacity="0.31">
<path d="M416.892 50.9499C427.581 48.9164 434.597 38.6032 432.564 27.9147C430.53 17.2262 420.217 10.2099 409.529 12.2434C398.84 14.2768 391.824 24.5901 393.857 35.2786C395.891 45.9671 406.204 52.9834 416.892 50.9499Z" fill="#53D0F7"/>
</g>
<g opacity="0.31">
<path d="M375.504 18.7658C379.248 18.0536 381.705 14.4413 380.993 10.6976C380.281 6.95393 376.669 4.49644 372.925 5.20868C369.181 5.92091 366.724 9.53316 367.436 13.2769C368.148 17.0205 371.761 19.478 375.504 18.7658Z" fill="#53D0F7"/>
</g>
<g opacity="0.31">
<path d="M127.3 58.6001C132.381 58.6001 136.5 54.4811 136.5 49.4001C136.5 44.3191 132.381 40.2001 127.3 40.2001C122.219 40.2001 118.1 44.3191 118.1 49.4001C118.1 54.4811 122.219 58.6001 127.3 58.6001Z" fill="#53D0F7"/>
</g>
<g opacity="0.31">
<path d="M30.9999 417.1C39.3394 417.1 46.0999 410.34 46.0999 402C46.0999 393.661 39.3394 386.9 30.9999 386.9C22.6604 386.9 15.8999 393.661 15.8999 402C15.8999 410.34 22.6604 417.1 30.9999 417.1Z" fill="#53D0F7"/>
</g>
</g>
<path opacity="0.58" d="M62.6001 35.4001C65.0854 35.4001 67.1001 33.3854 67.1001 30.9001C67.1001 28.4149 65.0854 26.4001 62.6001 26.4001C60.1148 26.4001 58.1001 28.4149 58.1001 30.9001C58.1001 33.3854 60.1148 35.4001 62.6001 35.4001Z" fill="#FFA000"/>
<path opacity="0.58" d="M1.8 261.1C2.79411 261.1 3.6 260.294 3.6 259.3C3.6 258.306 2.79411 257.5 1.8 257.5C0.805887 257.5 0 258.306 0 259.3C0 260.294 0.805887 261.1 1.8 261.1Z" fill="#FFA000"/>
<path opacity="0.58" d="M443.9 76.4002C444.894 76.4002 445.7 75.5943 445.7 74.6002C445.7 73.6061 444.894 72.8002 443.9 72.8002C442.906 72.8002 442.1 73.6061 442.1 74.6002C442.1 75.5943 442.906 76.4002 443.9 76.4002Z" fill="#FFA000"/>
<path opacity="0.58" d="M28.6999 3.60012C29.694 3.60012 30.4999 2.79423 30.4999 1.80012C30.4999 0.806009 29.694 0.00012207 28.6999 0.00012207C27.7058 0.00012207 26.8999 0.806009 26.8999 1.80012C26.8999 2.79423 27.7058 3.60012 28.6999 3.60012Z" fill="#FF522C"/>
<path opacity="0.58" d="M447.4 195.5C448.394 195.5 449.2 194.694 449.2 193.7C449.2 192.706 448.394 191.9 447.4 191.9C446.406 191.9 445.6 192.706 445.6 193.7C445.6 194.694 446.406 195.5 447.4 195.5Z" fill="#FF522C"/>
<path opacity="0.58" d="M184.4 3.60012C185.394 3.60012 186.2 2.79423 186.2 1.80012C186.2 0.806009 185.394 0.00012207 184.4 0.00012207C183.406 0.00012207 182.6 0.806009 182.6 1.80012C182.6 2.79423 183.406 3.60012 184.4 3.60012Z" fill="#FF522C"/>
<path opacity="0.58" d="M309.805 8.33423C310.428 5.4178 308.568 2.54853 305.652 1.92552C302.736 1.30251 299.866 3.16168 299.243 6.07811C298.62 8.99454 300.479 11.8638 303.396 12.4868C306.312 13.1098 309.182 11.2507 309.805 8.33423Z" fill="#FFA000"/>
<g opacity="0.25">
<g opacity="0.47">
<path d="M49.1999 61.3001C44.4999 52.5001 33.4999 49.2001 24.6999 53.9001C15.8999 58.6001 6.39993 72.9001 11.1999 81.7001C15.8999 90.5001 29.9999 83.6001 39.9999 83.7001C53.8999 83.9001 53.8999 70.1001 49.1999 61.3001Z" fill="#53D0F7"/>
</g>
<g opacity="0.47">
<path d="M445.2 329.3C451.5 319.3 453 307 451.7 295.3C450.4 283.7 446.8 271.5 441.9 260.9C437.2 250.9 430.4 242 428.4 230.8C425.8 216.1 432.6 201.9 434.1 187.5C437.2 158.7 417.8 133.4 393.7 119.7C374.1 108.6 351.2 104.4 328.6 104.7C308.3 105 288.1 108.6 268.5 113.4C249.6 118.1 231.1 124.2 211.2 122.3C194.7 120.7 179.8 113.8 164.5 108.7C127.8 96.5001 83.4001 94.8001 49.8001 113.4C28.3001 125.3 13.2001 144.7 6.50008 165.5C1.60008 180.7 0.200082 198.3 3.70008 213.7C7.70008 231 15.2001 246.3 13.2001 264.6C11.6001 279.6 6.10008 294.2 6.60008 309.4C7.00008 322.5 11.9001 335.5 19.5001 346.1C20.0001 346.8 20.5001 347.5 21.1001 348.1H423.7C432.2 343.4 440.1 337.4 445.2 329.3Z" fill="#53D0F7"/>
</g>
</g>
<path d="M420.3 352.3H24.8998C23.9998 352.3 23.2998 351.6 23.2998 350.7C23.2998 349.8 23.9998 349.1 24.8998 349.1H420.4C421.3 349.1 422 349.8 422 350.7C421.9 351.6 421.2 352.3 420.3 352.3Z" fill="#233863"/>
<path d="M358.5 257.4H281.6C278.5 257.4 276 254.9 276 251.8V205.1C276 201.4 279 198.3 282.8 198.3H338C338.6 198.3 339 198.7 339 199.3C339 199.9 338.6 200.3 338 200.3H282.8C280.2 200.3 278 202.4 278 205.1V251.8C278 253.8 279.6 255.4 281.6 255.4H358.5C360.5 255.4 362.1 253.8 362.1 251.8V206.4C362.1 203.1 359.4 200.4 356.1 200.4H345.4C344.8 200.4 344.4 200 344.4 199.4C344.4 198.8 344.8 198.4 345.4 198.4H356.1C360.5 198.4 364.1 202 364.1 206.4V251.8C364.1 254.9 361.6 257.4 358.5 257.4Z" fill="#FFA000"/>
<path d="M279.6 256C279.3 256 279.1 255.9 278.9 255.7C278.5 255.3 278.6 254.7 279 254.3L310.4 226.3C310.8 225.9 311.4 226 311.8 226.4C312.2 226.8 312.1 227.4 311.7 227.8L280.3 255.8C280.1 256 279.8 256 279.6 256Z" fill="#FFA000"/>
<path d="M360.1 256.8C359.9 256.8 359.6 256.7 359.4 256.5L328 228.7C327.6 228.3 327.5 227.7 327.9 227.3C328.3 226.9 328.9 226.8 329.3 227.2L360.7 255C361.1 255.4 361.2 256 360.8 256.4C360.7 256.7 360.4 256.8 360.1 256.8Z" fill="#FFA000"/>
<path d="M320 234C319 234 317.9 233.7 317 233L277.2 203.8C276.8 203.5 276.7 202.8 277 202.4C277.3 202 278 201.9 278.4 202.2L318.2 231.4C319.3 232.2 320.7 232.2 321.8 231.4L360.7 203C361.1 202.7 361.8 202.8 362.1 203.2C362.4 203.6 362.3 204.3 361.9 204.6L323 233.1C322.1 233.7 321.1 234 320 234Z" fill="#FFA000"/>
<path d="M359.1 192.1C359.9 192.7 361 192.7 361.9 192.1L395 168C393.7 166.4 391.8 165.4 389.6 165.4H330.3C328.5 165.4 326.8 166.3 325.8 167.6C325.8 167.6 325.9 167.6 325.9 167.7L359.1 192.1Z" fill="#FF522C"/>
<path d="M363.1 193.8C362.3 194.4 361.4 194.6 360.5 194.6C359.6 194.6 358.7 194.3 357.9 193.8L352.8 190.1L327.3 212.8C327.3 212.8 327.3 212.8 327.2 212.8C327.7 213 328.4 213.2 329 213.2H392C392.4 213.2 392.7 213.2 393 213.1L367.6 190.6L363.1 193.8Z" fill="#FF522C"/>
<path d="M351.3 188.8L324.8 169.3C324.6 169.9 324.5 170.5 324.5 171.1V208.5C324.5 209.7 325 210.8 325.8 211.7C325.9 211.5 325.9 211.4 326.1 211.2L351.3 188.8Z" fill="#FF522C"/>
<path d="M394.8 211.9C394.9 212 394.9 212 394.9 212.1C395.9 211.3 396.6 210 396.6 208.6V172.5C396.6 171.6 396.4 170.7 396.1 169.8L369.3 189.3L394.8 211.9Z" fill="#FF522C"/>
<g opacity="0.69">
<path d="M396.7 305.9H344.5C341.4 305.9 338.9 303.4 338.9 300.3V270C338.9 266.3 341.9 263.2 345.7 263.2H394.4C398.8 263.2 402.4 266.8 402.4 271.2V300.3C402.3 303.4 399.8 305.9 396.7 305.9ZM345.6 265.3C343 265.3 340.8 267.4 340.8 270.1V300.4C340.8 302.4 342.4 304 344.4 304H396.6C398.6 304 400.2 302.4 400.2 300.4V271.3C400.2 268 397.5 265.3 394.2 265.3H345.6Z" fill="white"/>
<path d="M363.517 283.264L341.11 303.211L342.44 304.705L364.847 284.758L363.517 283.264Z" fill="white"/>
<path d="M377.485 283.957L376.158 285.453L398.532 305.286L399.859 303.789L377.485 283.957Z" fill="white"/>
<path d="M370.6 289.3C369.8 289.3 369 289 368.3 288.5L339.9 267.7L341.1 266.1L369.5 286.9C370.2 287.4 371 287.4 371.7 286.9L401.1 265.5L402.3 267.1L372.9 288.5C372.2 289 371.4 289.3 370.6 289.3Z" fill="white"/>
</g>
<path d="M396.2 178.2C403.159 178.2 408.8 172.559 408.8 165.6C408.8 158.641 403.159 153 396.2 153C389.241 153 383.6 158.641 383.6 165.6C383.6 172.559 389.241 178.2 396.2 178.2Z" fill="#FFA000"/>
<path d="M393.4 170.5H392V162.2L390.6 163.1V161.7L392 160.8H393.4V170.5Z" fill="white"/>
<path d="M396.3 169.9C395.8 169.4 395.6 168.7 395.6 167.8V163.3C395.6 162.4 395.8 161.7 396.3 161.2C396.8 160.7 397.5 160.5 398.4 160.5C399.3 160.5 400 160.7 400.5 161.2C401 161.7 401.2 162.4 401.2 163.3V167.8C401.2 168.7 401 169.4 400.5 169.9C400 170.4 399.3 170.6 398.4 170.6C397.5 170.6 396.8 170.3 396.3 169.9ZM399.5 168.9C399.7 168.6 399.8 168.3 399.8 167.8V163.3C399.8 162.8 399.7 162.5 399.5 162.2C399.3 161.9 398.9 161.8 398.4 161.8C397.9 161.8 397.5 161.9 397.3 162.2C397.1 162.5 397 162.8 397 163.3V167.8C397 168.3 397.1 168.6 397.3 168.9C397.5 169.2 397.9 169.3 398.4 169.3C398.9 169.3 399.3 169.2 399.5 168.9Z" fill="white"/>
<path d="M117.4 162.1C116.7 162.1 116 161.8 115.5 161.3L107 152.5C106.4 151.9 105.7 151.6 104.8 151.6L21.6002 151.5C17.0002 151.5 13.2002 147.7 13.2002 143.1V111.6C13.2002 107 17.0002 103.2 21.6002 103.2H110.3C115.6 103.2 119.8 107.5 119.8 112.7V159.5C119.8 160.6 119.2 161.5 118.2 161.9C118.1 162.1 117.7 162.1 117.4 162.1ZM21.7002 105.2C18.2002 105.2 15.3002 108.1 15.3002 111.6V143.1C15.3002 146.6 18.2002 149.5 21.7002 149.5L104.9 149.6C106.2 149.6 107.6 150.2 108.5 151.1L117 159.9C117.2 160.2 117.5 160.1 117.6 160C117.7 160 118 159.8 118 159.5V112.7C118 108.5 114.6 105.2 110.5 105.2H21.7002Z" fill="#FF522C"/>
<path d="M96.6003 121.9H75.3003C74.7003 121.9 74.3003 121.5 74.3003 120.9C74.3003 120.3 74.7003 119.9 75.3003 119.9H96.6003C97.2003 119.9 97.6003 120.3 97.6003 120.9C97.6003 121.4 97.2003 121.9 96.6003 121.9Z" fill="#FFA000"/>
<path d="M62.4002 121.9H29.7002C29.1002 121.9 28.7002 121.5 28.7002 120.9C28.7002 120.3 29.1002 119.9 29.7002 119.9H62.3002C62.9002 119.9 63.3002 120.3 63.3002 120.9C63.4002 121.4 62.9002 121.9 62.4002 121.9Z" fill="#FFA000"/>
<path d="M96.6 129.5H43C42.4 129.5 42 129.1 42 128.5C42 127.9 42.4 127.5 43 127.5H96.7C97.3 127.5 97.7 127.9 97.7 128.5C97.6 129 97.2 129.5 96.6 129.5Z" fill="#FFA000"/>
<path d="M96.6001 137.1H61.1001C60.5001 137.1 60.1001 136.7 60.1001 136.1C60.1001 135.5 60.5001 135.1 61.1001 135.1H96.7001C97.3001 135.1 97.7001 135.5 97.7001 136.1C97.6001 136.6 97.2001 137.1 96.6001 137.1Z" fill="#FFA000"/>
<path d="M106 108.3H77.1002C76.2002 108.3 75.3002 108.7 74.7002 109.3L67.5002 116.8C66.7002 117.7 65.2002 117.1 65.2002 115.9V104.6V76.2001C65.2002 72.2001 68.4002 69.0001 72.4002 69.0001H107.1C110.4 69.0001 113 71.6001 113 74.9001V101.3C113 105.2 109.9 108.3 106 108.3Z" fill="#FFA000"/>
<path d="M77.9004 92.0001C79.2811 92.0001 80.4004 90.8808 80.4004 89.5001C80.4004 88.1194 79.2811 87.0001 77.9004 87.0001C76.5197 87.0001 75.4004 88.1194 75.4004 89.5001C75.4004 90.8808 76.5197 92.0001 77.9004 92.0001Z" fill="white"/>
<path d="M89.5 92.0001C90.8807 92.0001 92 90.8808 92 89.5001C92 88.1194 90.8807 87.0001 89.5 87.0001C88.1193 87.0001 87 88.1194 87 89.5001C87 90.8808 88.1193 92.0001 89.5 92.0001Z" fill="white"/>
<path d="M101.4 92.0001C102.781 92.0001 103.9 90.8808 103.9 89.5001C103.9 88.1194 102.781 87.0001 101.4 87.0001C100.02 87.0001 98.9004 88.1194 98.9004 89.5001C98.9004 90.8808 100.02 92.0001 101.4 92.0001Z" fill="white"/>
<path d="M77.9 225.6C95.5179 225.6 109.8 211.318 109.8 193.7C109.8 176.082 95.5179 161.8 77.9 161.8C60.2821 161.8 46 176.082 46 193.7C46 211.318 60.2821 225.6 77.9 225.6Z" fill="#FF522C"/>
<path d="M77.8999 211.2C74.3999 211.2 71.3999 208.6 70.9999 205.1L70.8999 204H84.8999L84.7999 205.1C84.2999 208.6 81.3999 211.2 77.8999 211.2ZM73.1999 205.9C73.8999 207.8 75.6999 209.1 77.7999 209.1C79.8999 209.1 81.6999 207.8 82.3999 205.9H73.1999Z" fill="white"/>
<path d="M90.2001 199.3H65.6001V188C65.6001 181.5 70.9001 176.2 77.4001 176.2H78.4001C84.9001 176.2 90.2001 181.5 90.2001 188V199.3ZM67.6001 197.3H88.2001V188C88.2001 182.6 83.8001 178.2 78.4001 178.2H77.4001C72.0001 178.2 67.6001 182.6 67.6001 188V197.3Z" fill="white"/>
<path d="M89.1999 205.9H66.5999C64.2999 205.9 62.3999 204 62.3999 201.7V201.4C62.3999 199.1 64.2999 197.2 66.5999 197.2H89.1999C91.4999 197.2 93.3999 199.1 93.3999 201.4V201.7C93.2999 204.1 91.4999 205.9 89.1999 205.9ZM66.5999 199.3C65.3999 199.3 64.3999 200.3 64.3999 201.5V201.8C64.3999 203 65.3999 204 66.5999 204H89.1999C90.3999 204 91.3999 203 91.3999 201.8V201.5C91.3999 200.3 90.3999 199.3 89.1999 199.3H66.5999Z" fill="white"/>
<path d="M125.2 54.8002C136.246 54.8002 145.2 45.8459 145.2 34.8002C145.2 23.7545 136.246 14.8002 125.2 14.8002C114.155 14.8002 105.2 23.7545 105.2 34.8002C105.2 45.8459 114.155 54.8002 125.2 54.8002Z" fill="#FF522C"/>
<path d="M124.1 26.9001H126.3V38.7001H124.1V26.9001ZM124.1 40.5001H126.3V42.7001H124.1V40.5001Z" fill="white"/>
<path d="M395.2 79.4001H290.3C284.7 79.4001 280.2 83.9001 280.2 89.5001V129V144.8C280.2 146.5 282.2 147.3 283.4 146.1L293.4 135.7C294.3 134.8 295.5 134.3 296.8 134.3L395.2 134.2C400 134.2 403.9 130.3 403.9 125.5V88.2001C403.9 83.4001 400 79.4001 395.2 79.4001Z" fill="#FFA000"/>
<path d="M331.8 100.1H306.6C306 100.1 305.6 99.7002 305.6 99.1002C305.6 98.5002 306 98.1002 306.6 98.1002H331.8C332.4 98.1002 332.8 98.5002 332.8 99.1002C332.8 99.7002 332.4 100.1 331.8 100.1Z" fill="white"/>
<path d="M385.8 100.1H347.2C346.6 100.1 346.2 99.7002 346.2 99.1002C346.2 98.5002 346.6 98.1002 347.2 98.1002H385.8C386.4 98.1002 386.8 98.5002 386.8 99.1002C386.8 99.7002 386.3 100.1 385.8 100.1Z" fill="white"/>
<path d="M370.1 109.1H306.6C306 109.1 305.6 108.7 305.6 108.1C305.6 107.5 306 107.1 306.6 107.1H370.1C370.7 107.1 371.1 107.5 371.1 108.1C371.1 108.7 370.7 109.1 370.1 109.1Z" fill="white"/>
<path d="M348.7 118.1H306.6C306 118.1 305.6 117.7 305.6 117.1C305.6 116.5 306 116.1 306.6 116.1H348.7C349.3 116.1 349.7 116.5 349.7 117.1C349.7 117.7 349.2 118.1 348.7 118.1Z" fill="white"/>
<path d="M261.8 81.5002H291C291.9 81.5002 292.8 81.9002 293.5 82.6002L300.8 90.1002C301.6 91.0002 303.1 90.4002 303.1 89.2002V77.8002V49.0002C303.1 45.0002 299.8 41.7002 295.8 41.7002H260.7C257.4 41.7002 254.7 44.4002 254.7 47.7002V74.4002C254.7 78.4002 257.9 81.5002 261.8 81.5002Z" fill="#FF522C"/>
<path d="M290.2 65.0002C291.581 65.0002 292.7 63.881 292.7 62.5002C292.7 61.1195 291.581 60.0002 290.2 60.0002C288.819 60.0002 287.7 61.1195 287.7 62.5002C287.7 63.881 288.819 65.0002 290.2 65.0002Z" fill="white"/>
<path d="M278.5 65.0002C279.881 65.0002 281 63.881 281 62.5002C281 61.1195 279.881 60.0002 278.5 60.0002C277.119 60.0002 276 61.1195 276 62.5002C276 63.881 277.119 65.0002 278.5 65.0002Z" fill="white"/>
<path d="M266.5 65.0002C267.881 65.0002 269 63.881 269 62.5002C269 61.1195 267.881 60.0002 266.5 60.0002C265.119 60.0002 264 61.1195 264 62.5002C264 63.881 265.119 65.0002 266.5 65.0002Z" fill="white"/>
<path d="M399.7 102.1C408.261 102.1 415.2 95.1606 415.2 86.6002C415.2 78.0398 408.261 71.1002 399.7 71.1002C391.14 71.1002 384.2 78.0398 384.2 86.6002C384.2 95.1606 391.14 102.1 399.7 102.1Z" fill="#FF522C"/>
<path d="M401.5 93.9002H399.4V80.9002L397.2 82.2002V80.0002L399.4 78.6002H401.5V93.9002Z" fill="white"/>
<g opacity="0.61">
<path d="M265.1 312.1H238.9C238.3 312.1 237.9 311.7 237.9 311.1C237.9 310.5 238.3 310.1 238.9 310.1H265.1C265.7 310.1 266.1 310.5 266.1 311.1C266.1 311.7 265.6 312.1 265.1 312.1Z" fill="white"/>
<path d="M321.1 312.1H281C280.4 312.1 280 311.7 280 311.1C280 310.5 280.4 310.1 281 310.1H321.1C321.7 310.1 322.1 310.5 322.1 311.1C322.1 311.7 321.6 312.1 321.1 312.1Z" fill="white"/>
<path d="M304.8 321.4H238.9C238.3 321.4 237.9 321 237.9 320.4C237.9 319.8 238.3 319.4 238.9 319.4H304.8C305.4 319.4 305.8 319.8 305.8 320.4C305.8 320.9 305.4 321.4 304.8 321.4Z" fill="white"/>
<path d="M282.6 330.7H238.9C238.3 330.7 237.9 330.3 237.9 329.7C237.9 329.1 238.3 328.7 238.9 328.7H282.6C283.2 328.7 283.6 329.1 283.6 329.7C283.6 330.3 283.1 330.7 282.6 330.7Z" fill="white"/>
<path d="M96.4002 297.3H28.7002C28.1002 297.3 27.7002 296.9 27.7002 296.3C27.7002 295.7 28.1002 295.3 28.7002 295.3H96.3002C96.9002 295.3 97.3002 295.7 97.3002 296.3C97.4002 296.9 96.9002 297.3 96.4002 297.3Z" fill="white"/>
<path d="M96.4002 276.4H28.7002C28.1002 276.4 27.7002 276 27.7002 275.4C27.7002 274.8 28.1002 274.4 28.7002 274.4H96.3002C96.9002 274.4 97.3002 274.8 97.3002 275.4C97.4002 275.9 96.9002 276.4 96.4002 276.4Z" fill="white"/>
<path d="M96.4004 286.8H59.9004C59.3004 286.8 58.9004 286.4 58.9004 285.8C58.9004 285.2 59.3004 284.8 59.9004 284.8H96.4004C97.0004 284.8 97.4004 285.2 97.4004 285.8C97.4004 286.4 96.9004 286.8 96.4004 286.8Z" fill="white"/>
<path d="M96.4004 265.3H59.9004C59.3004 265.3 58.9004 264.9 58.9004 264.3C58.9004 263.7 59.3004 263.3 59.9004 263.3H96.4004C97.0004 263.3 97.4004 263.7 97.4004 264.3C97.4004 264.9 96.9004 265.3 96.4004 265.3Z" fill="white"/>
<path d="M96.4003 255.3H71.8003C71.2003 255.3 70.8003 254.9 70.8003 254.3C70.8003 253.7 71.2003 253.3 71.8003 253.3H96.4003C97.0003 253.3 97.4003 253.7 97.4003 254.3C97.4003 254.9 96.9003 255.3 96.4003 255.3Z" fill="white"/>
</g>
<path d="M245.8 104.1C245.8 104.1 245.7 104.1 245.8 104.1C258 87.7001 242.6 66.0001 229.3 64.7001C224.7 59.0001 218.6 54.4001 211.2 51.7001C207.3 50.2001 203.2 49.4001 199.2 49.2001C199.1 39.1001 190.9 30.9001 180.8 30.9001C170.6 30.9001 162.4 39.1001 162.4 49.3001C162.4 54.0001 164.2 58.3001 167.1 61.6001C164.1 64.6001 161.6 68.1001 159.6 72.0001C159.1 72.9001 158.7 73.9001 158.3 74.8001C143.4 74.3001 130.5 85.6001 129.3 100.7C128.5 111.4 133.7 121.1 142.1 126.5C137 129.2 133.8 132.9 133.5 137.1C133.1 142.1 136.7 146.9 142.8 150.6C141.5 153.1 140.8 156 140.8 158.9C140.8 170.4 151.3 179.6 164.3 179.6C173.1 179.6 180.7 175.4 184.8 169.1C187.6 170.9 190.7 172.6 194 174.1C211.3 181.6 228.5 180.4 232.4 171.4C233.5 169 233.4 166.2 232.5 163.3C233.5 163.1 234.6 162.9 235.6 162.6C270.5 151.6 275.2 117.5 245.8 104.1Z" fill="#233863"/>
<path d="M252.4 253.2L250.1 246.6L267.6 236.6L268.2 236.3V234.6C268.2 202.4 247.5 176.3 222 176.3H194.9L195.2 176.9L147.4 177.3C135.5 177.4 125.4 186 121.4 197.9L87.6997 273.1L92.4997 273.7L120.1 277.1L120.7 353.5H239.1L243 291.1L247.5 283.8L249.6 280.3C254.6 272.4 255.6 262.2 252.4 253.2Z" fill="#FF522C"/>
<path d="M153.3 281.5L125.3 278.2C125 278.2 124.8 277.9 124.9 277.6C124.9 277.3 125.2 277.1 125.5 277.2L152.7 280.4L160.4 247.1C160.5 246.8 160.7 246.7 161 246.7C161.3 246.8 161.4 247 161.4 247.3L153.3 281.5Z" fill="#374081"/>
<path d="M182.6 209.9C166.2 209.9 152.9 196.6 152.9 180.2V176.9C152.9 176.5 153.2 176.2 153.6 176.2C154 176.2 154.3 176.5 154.3 176.9V180.2C154.3 195.8 167 208.4 182.5 208.4C198 208.4 210.7 195.7 210.7 180.2V176.9C210.7 176.5 211 176.2 211.4 176.2C211.8 176.2 212.1 176.5 212.1 176.9V180.2C212.3 196.6 199 209.9 182.6 209.9Z" fill="#233863"/>
<path d="M162.8 193.7C162.6 193.7 162.3 193.6 162.2 193.4C159.4 189.3 158 184.6 158 179.6V176.8C158 176.4 158.3 176.1 158.7 176.1C159.1 176.1 159.4 176.4 159.4 176.8V179.6C159.4 184.3 160.8 188.7 163.4 192.6C163.6 192.9 163.5 193.4 163.2 193.6C163.1 193.7 162.9 193.7 162.8 193.7Z" fill="#233863"/>
<path d="M182.6 204.3C177 204.3 171.7 202.4 167.3 198.9C167 198.7 166.9 198.2 167.2 197.9C167.5 197.6 167.9 197.5 168.2 197.8C172.3 201.1 177.3 202.8 182.6 202.8C187.9 202.8 192.9 201.1 197 197.8C197.3 197.5 197.8 197.6 198 197.9C198.3 198.2 198.2 198.7 197.9 198.9C193.5 202.4 188.2 204.3 182.6 204.3Z" fill="#233863"/>
<path d="M203.4 192.2C203.3 192.2 203.2 192.2 203 192.1C202.7 191.9 202.5 191.5 202.7 191.1C204.7 187.6 205.7 183.7 205.7 179.7V176.9C205.7 176.5 206 176.2 206.4 176.2C206.8 176.2 207.1 176.5 207.1 176.9V179.7C207.1 184 206 188.2 203.9 191.8C203.9 192 203.6 192.2 203.4 192.2Z" fill="#233863"/>
<path d="M253.1 373.7L234.4 345.6C230.1 340.1 227.7 333.5 222.7 332.2L219.4 331.3V331.2L135.6 310.4L142.5 279.7L92.3999 273.6L76.8999 324.6C75.8999 329 75.8999 333.4 76.8999 337.5C79.2999 350.4 90.4999 360.6 104.5 360.8L192.8 360.6C202 370.2 230.7 389.9 230.7 389.9C232.1 391.1 234.1 390.9 235.3 389.6C236.1 388.7 236.3 387.5 235.9 386.5C236 386.5 236.1 386.5 236.1 386.5C236.2 386.5 236.3 386.5 236.4 386.6L237.6 387.8C239 389.2 241.3 389.1 242.7 387.7L242.8 387.6C243.4 387 243.7 386.1 243.8 385.3C245.2 386.7 247.5 386.7 248.9 385.4L249 385.3C250.4 383.9 250.4 381.6 249.1 380.2L248.8 379.8C248.8 379.7 248.7 379.5 248.7 379.4C250.1 380.2 251.8 380 253 378.9L253.1 378.8C254.5 377.5 254.5 375.2 253.1 373.7Z" fill="#FFBA94"/>
<path d="M249 380C248.9 380 248.7 380 248.6 379.8L237.5 368.4C237.3 368.2 237.3 367.9 237.5 367.7C237.7 367.5 238 367.5 238.2 367.7L249.3 379.1C249.5 379.3 249.5 379.6 249.3 379.8C249.2 380 249.1 380 249 380Z" fill="#FB8E77"/>
<path d="M243.1 384.5C243 384.5 242.8 384.5 242.7 384.3L231.6 372.9C231.4 372.7 231.4 372.4 231.6 372.2C231.8 372 232.1 372 232.3 372.2L243.4 383.6C243.6 383.8 243.6 384.1 243.4 384.3C243.3 384.4 243.2 384.5 243.1 384.5Z" fill="#FB8E77"/>
<path d="M236.1 386.8C236 386.8 235.8 386.8 235.8 386.7L224.4 375.7C224.2 375.5 224.2 375.2 224.4 375C224.6 374.8 224.9 374.8 225.1 375L236.5 386C236.7 386.2 236.7 386.5 236.5 386.7C236.3 386.7 236.2 386.8 236.1 386.8Z" fill="#FB8E77"/>
<path d="M144 313.1C143.9 313.1 143.9 313.1 143.8 313.1L118 304.8C117.7 304.7 117.6 304.4 117.7 304.2C117.8 303.9 118.1 303.8 118.3 303.9L144.1 312.2C144.4 312.3 144.5 312.6 144.4 312.8C144.5 312.9 144.3 313.1 144 313.1Z" fill="#FB8E77"/>
<path d="M206.6 90.2002C201.7 90.9002 197 95.5002 193.3 100.5C192.7 101.3 192.1 102 191.4 102.6C186.4 107.3 179.1 107.8 173.5 104.7L172.1 104.5C166 103.4 160.1 107.5 159 113.6V113.8C157.9 119.9 162 125.8 168.1 126.9L170.9 127.4L170.2 131.5C169.8 134 169.6 136.4 169.8 138.8L163.4 175C161.5 185.5 168.5 195.5 179 197.4C189.5 199.3 199.5 192.3 201.4 181.8L204 167.3C218.2 167.4 230.9 157.2 233.4 142.7L233.9 139.9L240 105.5C233 104.7 208.6 101 206.6 90.2002Z" fill="#FFBA94"/>
<path opacity="0.46" d="M199.2 164.1L198.6 164C183.7 161.3 173.3 148 174 133.3C174.1 130.9 172.9 128.6 170.8 127.4L170.1 131.5C168.5 140.6 171.1 149.4 176.6 155.9L200.9 183.6L203.7 167.6L203.1 167.3C217.6 167.7 230.5 157.4 233.2 142.7L233.7 139.9C230.9 156.2 215.4 167 199.2 164.1Z" fill="#FB8E77"/>
<path d="M203.8 156.3C203.7 156.3 203.5 156.2 203.4 156.1C203.2 155.9 203.2 155.6 203.4 155.4C203.4 155.4 206.3 152.7 209.6 154.5C209.8 154.6 209.9 154.9 209.8 155.2C209.7 155.4 209.4 155.5 209.1 155.4C206.4 154 204.1 156.1 204 156.2C204.1 156.2 203.9 156.3 203.8 156.3Z" fill="#FB8E77"/>
<path d="M211.883 123.412C212.067 122.379 211.379 121.393 210.346 121.209C209.313 121.025 208.326 121.713 208.142 122.746C207.958 123.779 208.646 124.766 209.679 124.95C210.712 125.134 211.699 124.446 211.883 123.412Z" fill="#233863"/>
<path d="M234.006 127.298C234.19 126.265 233.502 125.278 232.469 125.094C231.436 124.91 230.449 125.598 230.265 126.631C230.081 127.664 230.769 128.651 231.802 128.835C232.835 129.019 233.822 128.331 234.006 127.298Z" fill="#233863"/>
<path d="M215.999 137.5C215.099 137.5 213.999 137.3 212.799 136.9C212.499 136.8 212.399 136.5 212.499 136.3C212.599 136 212.899 135.9 213.099 136C217.299 137.4 219.099 135.7 219.699 134.9C219.799 134.8 219.799 134.6 219.799 134.4L217.699 120.3C217.699 120 217.799 119.8 218.099 119.7C218.399 119.7 218.599 119.8 218.699 120.1L220.799 134.2C220.899 134.6 220.799 135.1 220.499 135.4C219.999 136.1 218.699 137.5 215.999 137.5Z" fill="#FB8E77"/>
<path d="M201.899 148.3L197.999 146C193.199 143.2 191.599 137.1 194.299 132.3L194.599 131.8L209.299 140.3L205.299 147.3C204.599 148.5 202.999 149 201.899 148.3Z" fill="white"/>
<path d="M204.2 132.3C197.8 132.3 192.5 127.1 192.5 120.6C192.5 114.2 197.7 108.9 204.2 108.9C207.3 108.9 210.2 110.1 212.4 112.3C214.6 114.5 215.8 117.4 215.8 120.6C215.8 127 210.6 132.3 204.2 132.3ZM194.5 120.6C194.5 125.9 198.8 130.3 204.2 130.3C209.5 130.3 213.9 125.9 213.9 120.6C213.9 118 212.9 115.6 211.1 113.8C209.3 112 206.8 111 204.3 111C198.8 110.9 194.5 115.3 194.5 120.6Z" fill="white"/>
<path d="M230.7 137.4C224.3 137.4 219 132.2 219 125.7C219 119.3 224.2 114 230.7 114C237.1 114 242.4 119.2 242.4 125.7C242.4 132.2 237.2 137.4 230.7 137.4ZM221 125.8C221 131.1 225.3 135.5 230.7 135.5C236 135.5 240.4 131.1 240.4 125.8C240.4 120.5 236.1 116.1 230.7 116.1C225.4 116.1 221 120.4 221 125.8Z" fill="white"/>
<path d="M219.7 124.4L215.4 124C214.9 123.9 214.4 123.5 214.5 122.9C214.6 122.4 215 121.9 215.6 122L219.8 122.4C220.3 122.5 220.8 122.9 220.7 123.5C220.7 124.1 220.2 124.4 219.7 124.4Z" fill="white"/>
<path d="M202.6 105C203.2 105.2 204 105.1 204.8 105C205.6 104.9 206.4 104.8 207.1 104.8C207.8 104.8 208.6 104.7 209.4 104.8C210.2 104.8 211 104.8 211.6 104.5C212.2 104.2 212.4 103.5 211.6 102.6C210.9 101.8 209.1 100.9 206.8 101.1C204.5 101.2 202.9 102.3 202.3 103.1C201.7 104.1 202 104.8 202.6 105Z" fill="#233863"/>
<path d="M237.1 110.9C236.4 110.9 235.7 110.5 235 110.1C234.3 109.7 233.6 109.4 233 109.1C232.4 108.8 231.6 108.5 230.9 108.2C230.2 107.9 229.4 107.6 228.9 107.1C228.5 106.6 228.5 105.9 229.5 105.4C230.5 104.9 232.4 104.7 234.5 105.7C236.6 106.6 237.8 108.2 238 109.2C238.3 110.4 237.7 110.9 237.1 110.9Z" fill="#233863"/>
<path d="M166 118.9C165.8 118.9 165.6 118.8 165.5 118.5C165.4 118.2 165.6 118 165.9 117.9L169.5 117L167.9 111C167.8 110.7 168 110.5 168.3 110.4C168.6 110.3 168.8 110.5 168.9 110.8L170.8 117.8L166.3 119C166.1 118.9 166 118.9 166 118.9Z" fill="#FB8E77"/>
<path d="M293.1 218.4H265.5C262.8 218.4 260.6 216.2 260.6 213.5V160.5C260.6 157.8 262.8 155.6 265.5 155.6H293.1C295.8 155.6 298 157.8 298 160.5V213.5C298 216.2 295.8 218.4 293.1 218.4Z" fill="#233863"/>
<path d="M316.7 264.6L313.6 209L314.3 202.3C315.3 192.9 312.5 183.4 306.6 176C306 175.3 305.5 174.6 304.9 173.9V164.8C304.9 162.8 303.3 161.2 301.3 161.2C299.4 161.2 297.8 162.7 297.8 164.7V168.1C297.8 174.6 292.5 180 286 180H275.7L260.2 178.7C258.2 178.5 256.4 180 256.2 182C256.1 183.7 257.1 185.1 258.5 185.7C258.4 185.7 258.2 185.8 258.1 185.8H257.7C255.7 185.6 253.9 187.1 253.7 189.1C253.5 191.1 255 192.9 257 193.1C256.4 193.7 255.9 194.5 255.8 195.4C255.6 197.4 257 199.2 259 199.5L260.6 199.7C260.7 199.8 260.7 199.8 260.8 199.9C260.8 199.9 260.8 200 260.9 200.1C259.9 200.5 259.1 201.4 258.9 202.6C258.6 204.4 259.8 206.1 261.6 206.4C261.6 206.4 273 210.2 277.9 211.5L273.7 233.1L272.8 237.7L267.2 236.7L249.7 246.7L252 253.3C255.2 262.3 254.2 272.5 249.3 280.5L247.2 284L255.8 287.5C266.6 291.9 282.3 296.6 293.8 293.8C297.6 292.9 300.5 291.8 302.7 290.6C311.4 286.1 317.2 276.2 316.7 264.6Z" fill="#FFBA94"/>
<path d="M274.3 187.5L258.4 186.1C258.1 186.1 257.9 185.8 257.9 185.6C257.9 185.3 258.2 185.1 258.4 185.1L274.3 186.5C274.6 186.5 274.8 186.8 274.8 187C274.8 187.3 274.6 187.5 274.3 187.5Z" fill="#FB8E77"/>
<path d="M274.6 194.9L258.7 193.5C258.4 193.5 258.2 193.2 258.2 193C258.2 192.7 258.5 192.5 258.7 192.5L274.6 193.9C274.9 193.9 275.1 194.2 275.1 194.4C275.1 194.7 274.9 194.9 274.6 194.9Z" fill="#FB8E77"/>
<path d="M277.301 202.3C277.301 202.3 277.201 202.3 277.301 202.3L261.401 200.5C261.101 200.5 260.901 200.2 261.001 199.9C261.001 199.6 261.301 199.4 261.601 199.5L277.401 201.3C277.701 201.3 277.901 201.6 277.801 201.9C277.701 202.1 277.501 202.3 277.301 202.3Z" fill="#FB8E77"/>
<path d="M266.7 264.3H266.6C266.3 264.2 266.2 264 266.2 263.7L274.1 230C274.2 229.7 274.4 229.6 274.7 229.6C275 229.7 275.1 229.9 275.1 230.2L267.2 263.9C267.1 264.1 266.9 264.3 266.7 264.3Z" fill="#FB8E77"/>
<path d="M249.8 247.3L239.7 223.9C239.6 223.6 239.7 223.4 240 223.2C240.3 223.1 240.5 223.2 240.7 223.5L250.4 245.9L268 235.9C268.2 235.8 268.5 235.8 268.7 236.1C268.8 236.3 268.8 236.6 268.5 236.8L249.8 247.3Z" fill="#374081"/>
</g>
<defs>
<clipPath id="clip0_396_5720">
<rect width="452.1" height="417.1" fill="white"/>
</clipPath>
</defs>
</svg>
