<svg width="73" height="72" viewBox="0 0 73 72" fill="none" xmlns="http://www.w3.org/2000/svg">
<path d="M30.3922 20.1053C30.3922 23.7929 27.4032 26.7819 23.7162 26.7819C20.0285 26.7819 17.0396 23.7929 17.0396 20.1053C17.0396 16.4182 20.0285 13.4292 23.7162 13.4292C27.4032 13.4292 30.3922 16.4182 30.3922 20.1053Z" fill="#FF522C"/>
<path d="M55.8842 20.1053C55.8842 23.7929 52.8952 26.7819 49.2076 26.7819C45.5205 26.7819 42.5315 23.7929 42.5315 20.1053C42.5315 16.4182 45.5205 13.4292 49.2076 13.4292C52.8952 13.4292 55.8842 16.4182 55.8842 20.1053Z" fill="#FF522C"/>
<path d="M43.1384 6.6766C43.1384 10.3637 40.1489 13.3527 36.4618 13.3527C32.7747 13.3527 29.7852 10.3637 29.7852 6.6766C29.7852 2.98896 32.7747 0 36.4618 0C40.1489 0 43.1384 2.98896 43.1384 6.6766Z" fill="#FF522C"/>
<path d="M13.4735 42.4106H8.46602C4.90018 42.4106 1.86556 45.0663 1.41048 48.7078L0.727781 54.4737C0.652103 55.2326 1.10723 55.9153 1.8656 56.0672C2.92774 56.2948 3.98993 56.4466 5.12769 56.5985L5.8866 70.1032C5.96227 71.1653 6.79686 71.9999 7.93519 71.9999H14.0804C15.1426 71.9999 16.0529 71.1653 16.129 70.1032L16.8879 56.5985C17.9501 56.4466 19.0879 56.2953 20.15 56.0672C20.9089 55.9153 21.3641 55.2326 21.2879 54.4737L20.5289 48.7078C20.15 45.0662 17.0392 42.4106 13.4734 42.4106H13.4735Z" fill="#FF522C"/>
<path d="M17.6463 33.534C17.6463 37.2217 14.6568 40.2106 10.9697 40.2106C7.2826 40.2106 4.29309 37.2217 4.29309 33.534C4.29309 29.8469 7.2826 26.8574 10.9697 26.8574C14.6568 26.8574 17.6463 29.8469 17.6463 33.534Z" fill="#FF522C"/>
<path d="M38.9656 42.4106H33.9581C30.3922 42.4106 27.3576 45.0663 26.9025 48.7078L26.2198 54.4737C26.1442 55.2326 26.5993 55.9153 27.3577 56.0672C28.4198 56.2948 29.482 56.4466 30.6198 56.5985L31.3787 70.1032C31.4543 71.1653 32.2889 71.9999 33.4273 71.9999H39.5725C40.6346 71.9999 41.545 71.1653 41.6211 70.1032L42.38 56.5985C43.4421 56.4466 44.5799 56.2953 45.6421 56.0672C46.401 55.9153 46.8561 55.2326 46.7799 54.4737L46.0972 48.7078C45.5659 45.0662 42.5314 42.4106 38.9654 42.4106H38.9656Z" fill="#FF522C"/>
<path d="M43.1384 33.534C43.1384 37.2217 40.1489 40.2106 36.4618 40.2106C32.7747 40.2106 29.7852 37.2217 29.7852 33.534C29.7852 29.8469 32.7747 26.8574 36.4618 26.8574C40.1489 26.8574 43.1384 29.8469 43.1384 33.534Z" fill="#FF522C"/>
<path d="M71.5133 48.7078C71.0582 45.1419 68.0231 42.4106 64.4578 42.4106H59.4503C55.8844 42.4106 52.8498 45.0663 52.3947 48.7078L51.712 54.4737C51.6364 55.2326 52.0915 55.9153 52.8499 56.0672C53.912 56.2948 54.9742 56.4466 56.1119 56.5985L56.8708 70.1032C56.9465 71.1653 57.7811 71.9999 58.9194 71.9999H65.0647C66.1268 71.9999 67.0372 71.1653 67.1133 70.1032L67.8722 56.5985C68.9343 56.4466 70.0721 56.2953 71.1343 56.0672C71.8932 55.9153 72.3483 55.2326 72.2721 54.4737L71.5133 48.7078Z" fill="#FF522C"/>
<path d="M68.6303 33.534C68.6303 37.2217 65.6408 40.2106 61.9537 40.2106C58.2666 40.2106 55.2771 37.2217 55.2771 33.534C55.2771 29.8469 58.2666 26.8574 61.9537 26.8574C65.6408 26.8574 68.6303 29.8469 68.6303 33.534Z" fill="#FF522C"/>
</svg>
