<svg width="459" height="308" viewBox="0 0 459 308" fill="none" xmlns="http://www.w3.org/2000/svg">
<path d="M253.808 297.607L258.161 289.201C255.609 283.648 255.009 277.494 256.81 271.19C260.712 256.932 276.172 247.326 292.682 248.676C313.395 250.478 327.353 268.038 322.1 285.749C317.898 300.008 302.138 309.464 285.628 307.813C277.223 306.912 269.868 303.31 264.615 298.207L253.808 297.607Z" fill="white"/>
<path d="M253.658 297.607C253.658 297.607 253.958 297.607 254.408 297.607C254.858 297.607 255.609 297.607 256.509 297.757C258.311 297.907 261.012 298.057 264.464 298.207L264.314 298.357V298.207H264.464C267.316 301.059 271.819 304.211 278.123 306.162C281.275 307.213 284.877 307.663 288.629 307.813C292.382 307.813 296.584 307.363 300.487 306.012C304.539 304.661 308.442 302.71 311.744 299.858C315.196 297.007 318.047 293.554 319.849 289.502C323.601 281.397 323.151 271.041 317.297 262.936L316.246 261.435L315.046 259.934C314.295 258.883 313.244 258.133 312.344 257.232C310.393 255.581 308.291 254.08 306.04 253.03C301.537 250.628 296.434 249.277 291.481 248.977C286.528 248.677 281.575 249.427 277.222 250.778C272.87 252.279 269.117 254.38 265.965 257.082C259.812 262.335 256.66 269.089 255.909 274.793C255.159 280.647 256.359 285.6 258.01 289.202C258.01 289.202 258.01 289.202 258.01 289.352C256.509 292.054 255.459 294.155 254.708 295.506C254.408 296.256 254.108 296.706 253.808 297.157C253.808 297.457 253.658 297.607 253.658 297.607C253.658 297.607 253.658 297.457 253.958 297.007C254.108 296.556 254.408 296.106 254.708 295.356C255.459 293.855 256.509 291.753 257.86 289.052V289.202C256.209 285.75 254.858 280.647 255.609 274.643C256.359 268.789 259.511 261.885 265.665 256.482C268.817 253.78 272.719 251.529 277.072 250.028C281.575 248.527 286.528 247.776 291.631 248.076C296.734 248.377 301.837 249.727 306.49 252.129C308.892 253.33 310.993 254.831 312.944 256.482C313.845 257.382 314.895 258.133 315.646 259.183L316.997 260.684L318.198 262.185C324.201 270.59 324.652 281.097 320.749 289.352C318.798 293.555 315.946 297.157 312.344 299.858C308.892 302.71 304.839 304.811 300.787 306.012C296.734 307.363 292.532 307.813 288.629 307.813C284.727 307.813 281.125 307.213 277.973 306.162C271.519 304.211 267.016 300.909 264.164 298.057L264.464 297.907V298.057C264.464 298.057 264.464 298.057 264.314 298.057C260.862 297.757 258.16 297.607 256.209 297.457C255.309 297.457 254.708 297.307 254.108 297.307C253.808 297.607 253.658 297.607 253.658 297.607Z" fill="#E0E0E0"/>
<path d="M277.673 281.997C279.828 281.997 281.575 280.452 281.575 278.545C281.575 276.639 279.828 275.093 277.673 275.093C275.518 275.093 273.771 276.639 273.771 278.545C273.771 280.452 275.518 281.997 277.673 281.997Z" fill="#E0E0E0"/>
<path d="M290.131 281.997C292.286 281.997 294.033 280.452 294.033 278.545C294.033 276.639 292.286 275.093 290.131 275.093C287.976 275.093 286.229 276.639 286.229 278.545C286.229 280.452 287.976 281.997 290.131 281.997Z" fill="#E0E0E0"/>
<path d="M302.739 281.997C304.894 281.997 306.641 280.452 306.641 278.545C306.641 276.639 304.894 275.093 302.739 275.093C300.584 275.093 298.836 276.639 298.836 278.545C298.836 280.452 300.584 281.997 302.739 281.997Z" fill="#E0E0E0"/>
<path d="M83.753 67.3652L75.1978 69.9167C72.6462 75.0199 68.4436 79.5227 62.8902 82.3744C50.4325 88.9785 34.6728 85.3763 26.2676 73.9692C15.7611 59.5603 20.564 39.4479 36.4739 31.3429C49.2317 24.889 64.9915 28.7914 73.0965 40.4986C77.299 46.5023 78.8 53.4065 78.0495 60.0106L83.753 67.3652Z" fill="white"/>
<path d="M83.7526 67.3651C83.7526 67.3651 83.6026 67.215 83.3024 66.9148C83.0022 66.6146 82.702 66.1644 82.2517 65.564C81.2011 64.3633 79.8502 62.5621 78.0491 60.1607H78.3493L78.1992 60.3108L78.0491 60.1607C78.3493 56.5584 78.1992 51.6054 75.9478 46.3521C74.8972 43.6505 73.2462 41.0989 71.1449 38.5473C69.0436 36.1459 66.3419 33.7444 63.0399 32.0933C59.8879 30.2922 56.1356 29.2416 52.2332 28.7913C48.3308 28.341 44.1282 28.7913 40.0757 30.2922C32.1208 32.9939 24.9164 39.8982 22.2147 48.9037L21.7644 50.5547L21.4642 52.2058C21.164 53.4065 21.164 54.4571 21.0139 55.6579C21.0139 57.9093 21.0139 60.3108 21.4642 62.412C22.3648 66.7647 24.1659 70.9673 26.8676 74.2694C29.4191 77.7215 32.7212 80.2731 36.3234 82.2243C39.9256 84.0254 43.6779 85.076 47.2801 85.3762C54.6347 85.9766 61.2388 83.7252 65.8916 80.4232C70.5445 77.1211 73.3963 73.0686 75.1974 69.9167C75.1974 69.9167 75.1974 69.9167 75.3475 69.9167C78.0491 69.1662 80.3005 68.5658 81.6513 68.1156C82.4018 67.9655 82.8521 67.8154 83.3024 67.6653C83.6026 67.5152 83.7526 67.3651 83.7526 67.3651C83.7526 67.3651 83.6026 67.3651 83.3024 67.5152C82.8521 67.6653 82.4018 67.8154 81.6513 67.9655C80.1504 68.4158 78.0491 69.1662 75.1974 70.0668H75.3475C73.6964 73.3688 70.8447 77.4213 66.0417 80.8734C61.3888 84.1755 54.6347 86.577 47.1301 85.9766C43.3777 85.6764 39.6254 84.6258 36.0232 82.8246C32.421 81.0235 29.1189 78.1718 26.4173 74.7196C23.7156 71.2675 21.7644 67.0649 21.0139 62.5621C20.5637 60.3108 20.4136 57.9093 20.4136 55.6579C20.5637 54.4571 20.5637 53.2564 20.8639 52.2058L21.164 50.4046L21.6143 48.7536C24.316 39.598 31.6705 32.5436 39.7755 29.6919C43.828 28.341 48.1807 27.8908 52.2332 28.1909C56.2857 28.6412 60.038 29.842 63.3401 31.6431C66.6421 33.4442 69.3438 35.6956 71.4451 38.2471C73.5464 40.7987 75.1974 43.5004 76.248 46.2021C78.4994 51.6054 78.6495 56.5584 78.1992 60.3108H77.899L78.0491 60.1607C79.8502 62.5621 81.2011 64.3633 82.2517 65.7141C82.702 66.3145 83.0022 66.7647 83.3024 67.0649C83.7526 67.215 83.9027 67.3651 83.7526 67.3651Z" fill="#E0E0E0"/>
<path d="M39.9263 60.3108C41.8328 60.3108 43.3784 58.7652 43.3784 56.8586C43.3784 54.9521 41.8328 53.4065 39.9263 53.4065C38.0197 53.4065 36.4741 54.9521 36.4741 56.8586C36.4741 58.7652 38.0197 60.3108 39.9263 60.3108Z" fill="#E0E0E0"/>
<path d="M50.582 60.3108C52.4886 60.3108 54.0341 58.7652 54.0341 56.8586C54.0341 54.9521 52.4886 53.4065 50.582 53.4065C48.6755 53.4065 47.1299 54.9521 47.1299 56.8586C47.1299 58.7652 48.6755 60.3108 50.582 60.3108Z" fill="#E0E0E0"/>
<path d="M61.2388 60.3108C63.1453 60.3108 64.6909 58.7652 64.6909 56.8586C64.6909 54.9521 63.1453 53.4065 61.2388 53.4065C59.3322 53.4065 57.7866 54.9521 57.7866 56.8586C57.7866 58.7652 59.3322 60.3108 61.2388 60.3108Z" fill="#E0E0E0"/>
<path d="M192.87 73.5187L197.673 63.0122C194.971 56.108 194.221 48.3031 196.172 40.4983C200.525 22.7874 217.485 10.6299 235.797 12.431C258.611 14.6824 274.07 36.5959 268.367 58.8096C263.714 76.6706 246.303 88.528 228.142 86.4267C218.836 85.376 210.731 80.8732 205.028 74.5693L192.87 73.5187Z" fill="white"/>
<path d="M192.72 73.5189C192.72 73.5189 193.02 73.5189 193.47 73.5189C194.071 73.5189 194.821 73.5188 195.722 73.6689C197.823 73.819 200.675 73.9691 204.577 74.1192L204.427 74.4194C204.427 74.2693 204.427 74.2693 204.427 74.1192H204.577C207.729 77.5714 212.682 81.6238 219.736 84.0253C223.189 85.2261 227.091 85.9765 231.294 85.9765C235.496 85.9765 239.999 85.3762 244.352 83.7251C248.704 82.0741 253.057 79.5226 256.809 76.0704C260.562 72.6183 263.714 68.1155 265.815 63.1625C270.017 53.1063 269.567 40.1983 263.113 29.992L261.912 28.0408L260.562 26.2397C259.661 25.0389 258.61 23.9883 257.56 22.9376C255.458 20.9864 253.057 19.0352 250.505 17.5343C245.552 14.5325 239.999 12.8814 234.445 12.4312C228.892 11.9809 223.489 12.8814 218.686 14.8326C213.883 16.6338 209.68 19.4855 206.228 22.6375C199.324 29.2415 195.872 37.4966 195.121 44.8512C194.221 52.2057 195.722 58.3595 197.373 62.8623V63.0124C195.722 66.3144 194.521 69.0161 193.77 70.6671C193.32 71.5676 193.02 72.168 192.87 72.6183C192.87 73.3688 192.72 73.5189 192.72 73.5189C192.72 73.5189 192.87 73.3688 193.02 72.9185C193.17 72.4682 193.47 71.7177 193.92 70.9673C194.671 69.1662 195.872 66.4645 197.373 63.0124V63.1625C195.571 58.8098 194.071 52.5059 194.971 45.0013C195.722 37.6467 199.174 29.0914 206.078 22.3373C209.53 19.0352 213.883 16.1835 218.686 14.2323C223.639 12.2811 229.042 11.3805 234.746 11.8308C240.299 12.2811 246.003 13.9321 251.106 16.9339C253.657 18.4349 256.059 20.236 258.31 22.3373C259.361 23.538 260.411 24.4386 261.312 25.7894L262.663 27.5905L263.864 29.5417C270.468 40.0482 270.918 53.2564 266.715 63.4626C264.614 68.5658 261.312 73.2187 257.56 76.6708C253.657 80.273 249.305 82.8246 244.802 84.4756C240.299 86.1266 235.646 86.727 231.444 86.727C227.091 86.5769 223.189 85.8264 219.586 84.6257C212.532 82.0741 207.579 78.0216 204.427 74.4194L204.727 74.2693C204.727 74.4194 204.727 74.4194 204.727 74.5695C204.727 74.5695 204.727 74.5695 204.577 74.5695C200.675 74.2693 197.673 73.9691 195.722 73.819C194.821 73.6689 194.071 73.6689 193.47 73.6689C193.02 73.6689 192.72 73.5189 192.72 73.5189Z" fill="#263238"/>
<path d="M219.286 54.0071C221.69 54.0071 223.638 52.0584 223.638 49.6544C223.638 47.2505 221.69 45.3018 219.286 45.3018C216.882 45.3018 214.933 47.2505 214.933 49.6544C214.933 52.0584 216.882 54.0071 219.286 54.0071Z" fill="#263238"/>
<path d="M233.094 54.0071C235.498 54.0071 237.447 52.0584 237.447 49.6544C237.447 47.2505 235.498 45.3018 233.094 45.3018C230.69 45.3018 228.742 47.2505 228.742 49.6544C228.742 52.0584 230.69 54.0071 233.094 54.0071Z" fill="#263238"/>
<path d="M246.903 54.0071C249.307 54.0071 251.256 52.0584 251.256 49.6544C251.256 47.2505 249.307 45.3018 246.903 45.3018C244.5 45.3018 242.551 47.2505 242.551 49.6544C242.551 52.0584 244.5 54.0071 246.903 54.0071Z" fill="#263238"/>
<path d="M145.44 82.0747C84.8026 82.0747 35.5723 131.305 35.5723 191.942C35.5723 221.511 47.2795 248.377 66.3412 268.19L54.1837 302.711C54.1837 302.711 77.7483 293.555 92.0071 288.002C107.767 296.857 125.928 301.81 145.29 301.81C205.927 301.81 255.158 252.58 255.158 191.942C255.158 131.305 206.077 82.0747 145.44 82.0747Z" fill="#E0E0E0"/>
<path d="M145.44 81.7744C145.44 81.7744 146.041 81.7744 147.392 81.7744C148.592 81.7744 150.544 81.7744 152.945 81.9244C157.748 82.2246 165.103 82.9751 174.108 85.3766C178.611 86.5773 183.564 88.2283 188.817 90.3296C194.07 92.581 199.474 95.4328 205.027 98.8849C216.134 105.939 227.541 116.296 236.997 130.104C241.65 137.008 245.702 144.813 248.854 153.369C252.006 161.924 254.258 171.23 255.158 180.986C257.109 200.498 253.807 221.961 243.601 241.623C241.049 246.576 238.198 251.379 234.896 255.882C231.594 260.385 227.991 264.887 223.939 268.94C215.834 277.045 206.228 284.249 195.571 289.653C174.258 300.609 148.292 304.512 123.377 299.409C112.27 297.157 101.613 293.105 92.0075 287.851H92.3077C79.3997 292.805 66.792 297.758 54.4844 302.561L53.7339 302.861L54.0341 302.11C58.2367 290.253 62.2892 278.696 66.1916 267.589L66.3417 268.039C53.4337 254.531 44.2781 238.321 39.6252 221.661C34.8222 205 34.372 188.19 37.0736 172.73C39.7753 157.421 45.4788 143.613 52.8334 132.205C60.1879 120.798 69.0434 111.493 78.0489 104.588C82.5517 101.136 87.0545 98.1345 91.5572 95.5829C92.6079 94.9825 93.8086 94.3821 94.8593 93.7818C95.9099 93.1814 97.1107 92.581 98.1613 92.1307C100.413 91.2302 102.364 90.1795 104.465 89.4291C112.72 86.127 120.225 84.3259 126.379 83.2753C127.129 83.1252 127.88 82.9751 128.63 82.825C129.381 82.6749 130.131 82.6749 130.731 82.5248C132.082 82.3747 133.433 82.2246 134.484 82.0745C136.885 81.9245 138.836 81.7744 140.487 81.6243C142.138 81.6243 143.339 81.6243 144.09 81.6243C144.99 81.7744 145.44 81.7744 145.44 81.7744C145.44 81.7744 144.99 81.7744 144.24 81.7744C143.339 81.7744 142.138 81.7744 140.638 81.9244C138.987 81.9244 137.035 82.2246 134.634 82.3747C133.433 82.5248 132.232 82.6749 130.882 82.825C130.131 82.9751 129.531 82.9751 128.78 83.1252C128.03 83.2753 127.279 83.4254 126.529 83.5755C120.375 84.6261 113.02 86.5773 104.765 89.8794C102.664 90.6298 100.563 91.6805 98.4615 92.581C97.4108 93.0313 96.3602 93.6317 95.1595 94.232C94.1088 94.8324 92.9081 95.4328 91.8574 96.0332C87.3546 98.4346 83.002 101.587 78.4992 105.039C69.4936 111.943 60.7883 121.099 53.4337 132.506C46.0792 143.913 40.3757 157.571 37.8241 172.881C35.1224 188.19 35.7228 204.85 40.3757 221.511C45.0285 238.021 54.0341 254.081 66.9421 267.589L67.0921 267.739L66.9421 267.889C63.0397 279.146 58.9872 290.553 54.9347 302.41L54.4844 301.96C66.792 297.157 79.3997 292.204 92.3077 287.251H92.4578L92.6079 287.401C102.214 292.654 112.72 296.707 123.677 298.958C148.442 304.061 174.258 300.159 195.421 289.352C206.078 283.949 215.534 276.895 223.639 268.79C227.691 264.737 231.293 260.385 234.595 255.882C237.898 251.379 240.749 246.576 243.301 241.773C253.357 222.261 256.659 200.798 254.858 181.436C253.957 171.68 251.706 162.524 248.704 153.969C245.552 145.564 241.5 137.759 236.847 130.855C227.541 117.046 216.134 106.84 205.177 99.7855C199.624 96.1832 194.221 93.3315 188.967 91.0801C183.714 88.8287 178.911 87.1777 174.408 85.9769C165.403 83.5755 158.198 82.825 153.395 82.3747C150.994 82.0745 149.043 82.2246 147.842 82.0745C146.041 81.7744 145.44 81.7744 145.44 81.7744Z" fill="#263238"/>
<path d="M133.583 49.054L135.084 48.9039C149.793 47.2528 163.151 57.159 166.003 71.7179C168.554 85.2263 171.406 100.085 172.007 107.44C173.508 122.599 158.648 126.652 158.648 126.652L159.549 132.806C161.05 142.862 153.845 152.318 143.789 153.668C133.733 155.019 124.577 148.115 123.076 138.059L114.671 82.0743C111.519 66.4647 117.973 51.7556 133.583 49.054Z" fill="#FFBF9D"/>
<path d="M158.799 126.502C158.799 126.502 149.193 128.153 138.386 122.9C138.386 122.9 144.24 133.256 159.249 130.254L158.799 126.502Z" fill="#FF9A6C"/>
<path d="M163.452 85.977C163.602 87.1777 162.851 88.2284 161.651 88.3785C160.45 88.5286 159.399 87.7781 159.249 86.7274C159.099 85.5267 159.849 84.4761 161.05 84.326C162.251 84.0258 163.302 84.7762 163.452 85.977Z" fill="#263238"/>
<path d="M163.601 79.3728C163.301 79.673 161.65 78.6223 159.248 78.9225C156.997 79.2227 155.346 80.5735 155.046 80.2733C154.895 80.1233 155.196 79.673 155.796 79.0726C156.396 78.4722 157.597 77.7218 159.098 77.5717C160.599 77.4216 161.8 77.8719 162.55 78.3221C163.451 78.7724 163.751 79.2227 163.601 79.3728Z" fill="#263238"/>
<path d="M142.438 88.6784C142.589 89.8792 141.838 90.9298 140.637 91.0799C139.437 91.23 138.386 90.4796 138.236 89.4289C138.086 88.2282 138.836 87.1775 140.037 87.0274C141.238 86.8773 142.288 87.6278 142.438 88.6784Z" fill="#263238"/>
<path d="M140.787 82.3745C140.487 82.6747 138.836 81.624 136.435 81.9242C134.183 82.2244 132.532 83.5752 132.232 83.2751C132.082 83.125 132.232 82.6747 132.982 82.0743C133.583 81.4739 134.784 80.7235 136.284 80.5734C137.785 80.4233 138.986 80.8736 139.737 81.3238C140.637 81.7741 140.937 82.2244 140.787 82.3745Z" fill="#263238"/>
<path d="M151.144 98.5848C151.144 98.4347 152.494 97.9844 154.896 97.5342C155.496 97.3841 156.097 97.234 156.097 96.7837C156.247 96.3334 155.796 95.733 155.496 95.1327C154.746 93.7818 153.995 92.2809 153.245 90.78C150.093 84.6262 147.691 79.523 147.992 79.373C148.292 79.2229 150.994 84.1759 154.145 90.3297C154.896 91.8306 155.646 93.3316 156.397 94.6824C156.697 95.2828 157.147 96.0332 156.997 96.9338C156.847 97.3841 156.547 97.8343 156.097 97.8343C155.796 97.9844 155.346 97.9844 155.046 98.1345C152.645 98.5848 151.144 98.7349 151.144 98.5848Z" fill="#263238"/>
<path d="M140.337 73.2191C140.187 73.8195 137.785 73.8195 135.084 74.4198C132.382 75.0202 130.281 76.0709 129.83 75.4705C129.68 75.1703 129.981 74.5699 130.731 73.8195C131.482 73.069 132.832 72.3185 134.483 72.0184C136.134 71.7182 137.635 71.7182 138.686 72.0184C139.887 72.4686 140.487 72.9189 140.337 73.2191Z" fill="#263238"/>
<path d="M161.951 72.769C161.651 73.3694 160 72.9191 158.048 73.2193C156.097 73.3694 154.596 73.9698 154.146 73.5195C153.996 73.2193 154.146 72.769 154.746 72.1687C155.347 71.5683 156.547 71.118 157.898 70.9679C159.249 70.8178 160.45 71.2681 161.2 71.7184C161.801 72.0186 162.101 72.4688 161.951 72.769Z" fill="#263238"/>
<path d="M163.751 64.8139C163.751 64.8139 158.648 55.8084 153.845 54.1573C147.992 52.056 146.341 58.3599 140.937 57.6095C135.534 56.7089 129.98 54.7577 125.027 59.4106C119.624 64.5137 122.776 67.3655 123.076 74.1197C124.577 101.437 120.525 109.692 117.673 97.0838C117.373 95.733 113.32 94.9825 112.119 89.1289C110.468 81.4742 109.118 72.1684 110.318 66.615C111.219 61.8121 113.47 58.3599 117.823 54.3074C124.577 48.0035 134.783 46.6527 141.838 46.6527C148.892 46.5026 163.151 52.9566 163.751 64.8139Z" fill="#263238"/>
<path d="M118.724 96.4837C118.424 94.2323 116.172 92.5813 113.921 93.0316C111.069 93.632 108.217 95.5832 108.968 101.437C110.469 111.793 120.525 108.041 120.525 107.741C120.375 107.44 119.324 100.686 118.724 96.4837Z" fill="#FFBF9D"/>
<path d="M117.673 104.138C117.673 104.138 117.523 104.288 117.223 104.438C116.923 104.588 116.472 104.738 115.872 104.588C114.671 104.288 113.621 102.787 113.17 100.836C113.02 99.9354 113.02 99.0348 113.32 98.1343C113.47 97.3838 113.921 96.7834 114.521 96.6333C115.121 96.4832 115.422 96.6333 115.722 96.9335C115.872 97.2337 115.872 97.3838 115.872 97.3838C115.872 97.3838 116.022 97.2337 115.872 96.7834C115.872 96.6333 115.572 96.3331 115.422 96.183C115.121 96.033 114.821 96.033 114.371 96.033C113.621 96.1831 113.02 97.0836 112.72 97.8341C112.42 98.7346 112.27 99.7853 112.57 100.836C112.87 102.937 114.221 104.738 115.872 104.888C116.622 105.039 117.223 104.738 117.523 104.438C117.673 104.438 117.673 104.138 117.673 104.138Z" fill="#FF9A6C"/>
<path d="M165.403 53.5569C163.752 52.5062 161.501 52.3561 159.85 51.3055C156.848 49.2042 156.397 44.2511 152.945 43.0504C150.844 42.45 148.743 43.5007 146.491 43.3506C143.039 43.2005 141.538 40.6489 136.285 40.9491C129.531 41.2493 127.58 46.5025 127.58 46.5025C127.58 46.5025 123.677 44.7014 119.775 47.7033C116.773 49.9546 116.773 54.1572 116.773 54.1572C116.773 54.1572 115.722 53.707 112.57 56.4086C110.619 58.2097 109.118 61.812 108.518 64.3635C107.617 68.2659 109.418 72.1683 111.22 75.6205C112.27 77.5717 113.471 79.673 115.422 80.1233C117.974 80.8737 120.525 78.7724 121.426 76.2208C122.326 73.6693 123.677 71.2678 124.728 68.8663C126.529 64.6637 128.48 60.7613 126.529 58.3598C128.78 57.4593 131.482 57.3092 133.884 57.9095C136.285 58.5099 138.386 60.0108 140.788 60.6112C143.189 61.3617 146.191 61.0615 147.692 59.1103C149.043 61.9621 153.396 62.5624 155.497 60.311C157.448 63.3129 161.951 64.3635 164.953 62.4123C167.955 60.4611 168.405 55.5081 165.403 53.5569Z" fill="#263238"/>
<path d="M110.168 73.219C110.318 73.219 110.769 74.1195 111.519 75.4704C111.969 76.2208 112.42 76.9713 113.32 77.4216C114.221 77.8719 115.421 77.8719 116.622 77.5717C117.823 77.2715 118.874 76.8212 119.624 76.0708C120.375 75.4704 120.975 74.7199 121.575 73.9695C122.626 72.6186 123.076 71.8682 123.226 71.8682C123.226 71.8682 122.926 72.7687 122.026 74.2696C121.575 75.0201 120.975 75.7706 120.074 76.521C119.174 77.2715 118.123 77.8719 116.772 78.172C115.572 78.4722 114.221 78.4722 113.17 77.8719C112.119 77.2715 111.669 76.3709 111.219 75.6205C110.318 74.2696 110.018 73.3691 110.168 73.219Z" fill="#455A64"/>
<path d="M110.919 81.174C110.919 81.0239 111.67 81.7743 113.021 82.2246C113.771 82.3747 114.522 82.5248 115.572 82.3747C116.473 82.2246 117.524 81.7743 118.424 81.174C120.225 79.8231 121.276 78.1721 122.026 76.8213C122.777 75.6205 123.227 74.72 123.377 74.72C123.377 74.72 123.077 75.6205 122.477 76.9714C121.726 78.3222 120.675 80.1233 118.724 81.6242C117.824 82.3747 116.773 82.825 115.722 82.9751C114.672 83.1252 113.771 82.9751 113.021 82.825C111.52 82.2246 110.919 81.324 110.919 81.174Z" fill="#455A64"/>
<path d="M144.839 102.787C144.389 103.988 144.539 105.039 144.389 106.239C144.239 107.44 144.839 108.341 145.74 109.241C146.641 110.142 147.841 110.592 149.192 110.592C151.594 110.442 153.545 108.641 153.695 106.239L153.995 103.688C151.444 103.237 144.99 102.937 144.839 102.787Z" fill="#FF9A6C"/>
<path d="M151.594 109.842C151.594 109.842 151.294 109.842 150.844 109.992C150.393 110.142 149.643 110.292 148.592 110.142C147.692 109.992 146.641 109.691 145.89 108.791C145.14 107.89 144.69 106.54 144.69 105.189C144.69 104.438 144.84 103.688 145.14 103.087H144.69C147.091 103.237 149.042 103.538 150.543 103.538C152.044 103.688 152.945 103.688 152.945 103.538C152.945 103.388 152.044 103.237 150.693 103.087C149.193 102.937 147.241 102.637 144.84 102.337H144.69L144.54 102.487C144.239 103.237 144.089 103.988 144.089 104.888C144.089 106.389 144.54 107.89 145.59 108.941C146.491 109.992 147.692 110.292 148.742 110.442C149.793 110.442 150.543 110.292 150.994 110.142C151.294 109.992 151.594 109.842 151.594 109.842Z" fill="#263238"/>
<path d="M87.0546 150.366C86.154 150.366 73.9965 155.32 70.6945 167.327C67.5426 179.334 58.6871 223.462 58.6871 223.462L49.3813 236.37C49.3813 236.37 52.3832 260.084 69.6438 255.581C69.6438 255.581 81.0509 257.533 84.8032 245.975C88.4054 234.268 95.6099 199.597 95.6099 199.597L87.0546 150.366Z" fill="#455A64"/>
<path d="M122.777 130.254L116.323 140.01L87.0547 150.367L95.4599 235.319L92.3079 279.896C91.8577 285.75 96.8107 290.403 98.912 290.703H192.57C194.821 290.703 197.973 285 198.423 281.848C198.724 278.996 198.423 276.144 197.673 273.442L192.87 256.482C193.62 267.139 190.468 193.293 190.318 190.591L197.373 152.618L164.052 139.11L158.949 131.155L143.94 142.562L122.777 130.254Z" fill="#455A64"/>
<path d="M197.222 152.468C197.222 152.468 203.976 158.322 205.027 162.824C206.078 167.327 230.243 219.559 230.243 219.559L242.25 222.861L245.402 229.466C249.154 237.27 247.203 246.876 240.149 252.13C239.698 252.43 239.248 252.73 238.798 253.03C232.344 256.932 220.637 256.782 213.883 248.677C207.429 241.173 188.667 213.856 188.667 213.856V180.535L197.222 152.468Z" fill="#455A64"/>
<path d="M230.993 219.559C230.993 219.709 229.492 219.559 227.391 220.31C225.29 220.91 222.438 222.561 220.186 225.263C217.935 227.964 216.584 230.816 215.684 232.917C214.783 235.019 214.183 236.37 214.033 236.37C213.883 236.37 214.333 234.869 215.083 232.767C215.834 230.666 217.185 227.514 219.586 224.812C221.988 221.961 224.989 220.31 227.241 219.859C229.642 219.109 231.143 219.409 230.993 219.559Z" fill="#263238"/>
<path d="M64.391 226.614L48.3311 213.256L39.0254 223.612L40.2261 228.715L60.3385 247.627C60.3385 247.627 64.6912 245.526 66.6424 239.972C68.5936 234.269 64.391 226.614 64.391 226.614Z" fill="#FFBF9D"/>
<path d="M48.1806 220.16C48.3307 219.859 50.432 212.805 45.4789 207.402C40.5259 201.998 35.7229 199.747 32.8712 198.096C30.0194 196.445 24.466 190.441 23.1151 191.642C21.9144 192.843 21.1639 194.644 22.5148 197.045C23.8656 199.447 30.0194 202.449 29.8693 205.601C29.7192 207.852 27.3177 207.852 27.3177 207.852C27.3177 207.852 16.361 207.252 11.8582 206.351C7.35542 205.45 3.15283 205.751 3.15283 207.402C3.15283 209.053 3.90329 209.953 7.6556 210.704C11.4079 211.454 17.5617 211.904 17.8619 212.805C18.012 213.706 16.8113 214.156 14.5599 213.706C12.3085 213.255 1.95209 212.055 1.05153 213.105C0.150975 214.156 0.601252 216.107 1.95209 216.707L4.35357 217.908C4.35357 217.908 2.70255 219.709 3.7532 220.91C4.80384 222.111 7.50551 222.111 7.50551 222.111L21.314 223.311C21.314 223.311 22.0645 224.212 21.6142 224.812C21.1639 225.263 10.3573 223.311 10.2072 224.512C10.0571 225.713 9.00644 226.163 12.1584 227.364C15.3103 228.565 23.4153 229.465 26.4172 229.015C29.419 228.565 41.7266 229.465 41.7266 229.465L48.1806 220.16Z" fill="#FFBF9D"/>
<path d="M163.152 141.361C163.302 141.511 162.101 142.562 160.3 144.363C158.499 146.164 155.947 148.716 153.245 151.567C152.645 152.168 152.195 152.768 151.594 153.368L151.294 153.819L150.994 153.368C148.893 150.667 147.092 148.415 145.891 146.614C144.69 144.963 143.94 143.913 144.09 143.763C144.24 143.763 144.99 144.663 146.341 146.314C147.692 147.965 149.643 150.217 151.594 152.768H150.994C151.594 152.168 152.045 151.567 152.645 150.967C155.347 148.115 157.898 145.564 159.85 143.913C161.801 142.262 163.002 141.361 163.152 141.361Z" fill="#263238"/>
<path d="M88.8555 172.88C88.8555 172.88 89.1557 173.481 89.3057 174.681C89.6059 175.882 89.9061 177.533 90.2063 179.634C90.9568 183.837 91.5571 189.69 92.1575 196.144C92.7579 202.598 93.2082 208.452 93.5083 212.805C93.6584 214.756 93.8085 216.407 93.8085 217.908C93.8085 219.109 93.9586 219.709 93.8085 219.709C93.8085 219.709 93.6584 219.109 93.5083 217.908C93.3583 216.707 93.0581 215.056 92.908 212.955C92.4577 208.752 91.8573 202.899 91.257 196.295C90.6566 189.841 90.0562 183.987 89.4558 179.784C89.1557 177.833 89.0056 176.182 88.8555 174.831C88.8555 173.631 88.8555 172.88 88.8555 172.88Z" fill="#263238"/>
<path d="M190.769 169.878C190.769 169.878 190.919 170.629 191.069 172.13C191.219 173.631 191.369 175.732 191.519 178.284C191.819 183.537 191.969 190.741 191.969 198.846C191.969 206.801 191.969 213.856 191.969 219.259C191.969 221.81 191.969 223.762 191.969 225.413C191.969 226.914 191.969 227.664 191.819 227.664C191.819 227.664 191.669 226.914 191.519 225.413C191.369 223.912 191.369 221.81 191.219 219.259C191.069 214.006 190.919 206.801 190.919 198.696C190.919 190.741 190.919 183.537 190.769 178.284C190.769 175.732 190.619 173.781 190.619 172.13C190.619 170.779 190.619 170.029 190.769 169.878Z" fill="#263238"/>
<path d="M75.6473 245.075C75.4972 245.075 75.3471 243.274 74.7468 240.572C74.1464 237.87 73.3959 233.968 71.2946 230.216C69.1933 226.463 66.1915 223.912 63.79 222.561C61.3885 221.21 59.5874 221.06 59.5874 220.91C59.5874 220.91 60.0377 220.91 60.7881 220.91C61.5386 221.06 62.7393 221.36 64.0902 221.961C66.7918 223.161 69.9438 225.863 72.0451 229.765C74.1464 233.668 75.0469 237.57 75.3471 240.422C75.7974 243.274 75.7974 245.075 75.6473 245.075Z" fill="#263238"/>
<path d="M79.8504 227.514C79.7003 227.664 76.9986 225.113 72.796 223.612C68.5934 222.111 64.9912 222.711 64.8411 222.411C64.691 222.261 68.5934 221.21 72.9461 222.861C77.599 224.212 80.0005 227.364 79.8504 227.514Z" fill="#263238"/>
<path d="M145.891 288.002C145.891 288.002 145.891 287.551 145.741 286.501C145.741 285.45 145.741 284.099 145.591 282.298C145.591 278.546 145.441 273.443 145.291 266.989C144.99 253.931 144.54 236.07 144.09 216.407C143.64 196.595 143.339 178.734 143.339 165.826C143.339 159.372 143.339 154.119 143.489 150.517C143.489 148.716 143.64 147.365 143.64 146.314C143.64 145.414 143.64 144.813 143.79 144.813C143.79 144.813 143.79 145.264 143.94 146.314C143.94 147.365 143.94 148.716 143.94 150.517C143.94 154.269 144.09 159.372 144.09 165.826C144.24 178.734 144.54 196.745 144.99 216.407C145.441 236.22 145.741 254.081 145.891 266.989C145.891 273.443 145.891 278.696 145.891 282.298C145.891 284.099 145.891 285.45 145.891 286.501C145.891 287.401 145.891 288.002 145.891 288.002Z" fill="#263238"/>
<path d="M63.6396 226.013C63.6396 225.863 64.8403 226.914 66.0411 229.015C66.6415 230.066 67.0917 231.416 67.3919 232.917C67.6921 234.568 67.6921 236.219 67.3919 238.021C67.0917 239.822 66.6415 241.623 65.891 242.974C65.1405 244.324 64.0899 245.375 63.0392 246.126C61.088 247.476 59.437 247.476 59.437 247.476C59.437 247.326 60.9379 247.176 62.739 245.675C63.6396 244.925 64.5402 243.874 65.2906 242.673C66.0411 241.323 66.3413 239.672 66.6415 238.021C66.9416 236.219 66.9416 234.568 66.6415 233.067C66.3413 231.567 65.891 230.216 65.4407 229.165C64.5402 227.214 63.4895 226.163 63.6396 226.013Z" fill="#263238"/>
<path d="M175.609 209.053C175.609 209.053 174.859 209.503 173.358 210.404C171.857 211.154 169.756 212.355 167.054 213.556C161.801 216.257 154.296 219.709 146.041 223.162C137.636 226.764 129.981 229.616 124.428 231.567C121.576 232.617 119.324 233.368 117.824 233.818C116.173 234.268 115.422 234.569 115.272 234.569C115.272 234.569 116.022 234.118 117.673 233.518C119.324 232.918 121.576 232.017 124.278 230.966C129.831 228.865 137.486 225.863 145.741 222.261C153.996 218.809 161.5 215.357 166.904 212.805C169.455 211.604 171.557 210.554 173.208 209.803C174.709 209.353 175.609 208.903 175.609 209.053Z" fill="#263238"/>
<path d="M23.4152 218.809C23.4152 219.109 19.0625 219.259 13.6591 218.959C8.25581 218.658 4.05322 218.058 4.05322 217.758C4.05322 217.458 8.40591 217.758 13.6591 218.058C19.0625 218.358 23.4152 218.508 23.4152 218.809Z" fill="#FF9A6C"/>
<path d="M33.3211 218.058C33.3211 218.208 32.2704 217.908 31.0697 217.008C29.8689 215.957 28.5181 214.006 28.6682 211.454C28.6682 210.254 29.1185 209.203 29.2686 208.152C29.5688 207.252 29.5688 206.351 29.5688 205.601C29.5688 204.1 28.9684 203.349 28.9684 203.349C28.9684 203.199 29.869 203.95 30.1691 205.601C30.3192 206.351 30.1691 207.402 30.019 208.302C29.869 209.353 29.5688 210.404 29.5688 211.454C29.4187 213.706 30.6194 215.507 31.52 216.557C32.4205 217.608 33.3211 217.908 33.3211 218.058Z" fill="#FF9A6C"/>
<path d="M142.889 143.012C143.039 143.012 142.289 144.963 140.938 148.115C140.638 148.866 140.187 149.766 139.887 150.667C139.437 151.568 139.137 152.468 138.536 153.519C138.236 153.969 137.486 154.569 136.735 154.419C135.985 154.269 135.535 153.819 135.084 153.519C134.034 152.768 133.133 152.168 132.082 151.417C127.88 148.566 124.128 145.864 121.426 143.913C118.724 141.962 117.073 140.761 117.223 140.611C117.223 140.461 119.024 141.661 121.876 143.463C124.728 145.264 128.48 147.815 132.683 150.817C133.733 151.568 134.784 152.318 135.685 152.918C136.135 153.219 136.585 153.669 137.036 153.669C137.486 153.819 137.786 153.519 138.086 153.068C139.137 151.267 139.887 149.316 140.638 147.815C141.838 144.813 142.739 142.862 142.889 143.012Z" fill="#263238"/>
<path d="M233.845 225.263L251.106 215.056L259.361 225.263L257.71 230.216L235.496 246.726C235.496 246.726 231.294 243.724 230.393 237.87C229.193 231.567 233.845 225.263 233.845 225.263Z" fill="#FFBF9D"/>
<path d="M250.655 220.76C250.505 220.46 249.154 213.105 254.858 208.302C260.411 203.499 265.364 201.848 268.516 200.498C271.518 199.147 277.822 193.893 278.873 195.244C279.923 196.445 280.524 198.396 278.873 200.798C277.222 203.049 268.216 206.501 269.417 209.503C269.867 210.704 272.869 210.854 272.869 210.854C272.869 210.854 283.826 211.604 288.479 211.154C293.131 210.704 297.184 211.604 297.034 213.255C296.734 214.906 295.983 215.657 292.081 216.107C288.329 216.407 282.025 216.257 281.724 217.008C281.424 217.908 282.625 218.509 284.876 218.208C287.128 218.058 297.634 218.058 298.385 219.259C299.135 220.46 298.535 222.261 297.184 222.711L294.782 223.612C294.782 223.612 296.283 225.563 295.083 226.764C293.882 227.814 291.18 227.514 291.18 227.514L277.222 227.064C277.222 227.064 276.471 227.964 276.771 228.415C277.222 229.015 288.028 228.265 288.178 229.315C288.329 230.516 289.229 231.116 285.927 231.867C282.625 232.617 274.52 232.617 271.518 231.867C268.516 231.116 256.209 230.516 256.209 230.516L250.655 220.76Z" fill="#FFBF9D"/>
<path d="M238.648 248.527C238.648 248.527 238.198 248.527 237.598 248.227C236.997 247.927 235.947 247.476 235.046 246.576C232.945 245.075 230.543 242.073 229.793 238.02C229.042 233.968 230.243 230.366 231.444 228.114C232.044 227.064 232.795 226.163 233.245 225.713C233.695 225.263 234.146 224.962 234.146 224.962C234.296 225.112 233.095 226.163 232.044 228.415C230.844 230.666 229.943 234.118 230.693 237.72C231.444 241.473 233.545 244.324 235.496 245.975C237.147 247.776 238.648 248.377 238.648 248.527Z" fill="#263238"/>
<path d="M271.668 205.601C271.819 205.751 271.068 206.351 270.017 207.702C269.567 208.302 269.117 209.203 268.967 210.103C268.817 211.154 268.817 212.355 268.667 213.555C268.366 216.257 266.715 218.208 265.365 219.109C264.014 220.16 262.963 220.31 262.813 220.16C262.813 220.009 263.714 219.709 264.914 218.659C266.115 217.608 267.466 215.807 267.766 213.405C267.916 212.205 267.916 211.004 268.216 209.953C268.517 208.903 269.117 207.852 269.567 207.252C270.768 206.051 271.668 205.45 271.668 205.601Z" fill="#FF9A6C"/>
<path d="M294.7 223.31C294.721 223.062 290.117 222.477 284.416 222.002C278.716 221.528 274.079 221.344 274.058 221.592C274.037 221.839 278.641 222.425 284.342 222.9C290.042 223.374 294.68 223.558 294.7 223.31Z" fill="#FF9A6C"/>
<path d="M98.0112 290.553C98.0112 290.553 117.523 302.411 147.542 301.36C177.56 300.309 192.419 290.553 192.419 290.553H98.0112Z" fill="#263238"/>
<path d="M427.615 202.298C446.377 182.036 457.934 155.019 457.934 125.301C457.934 62.8625 407.353 12.2812 344.914 12.2812C282.476 12.2812 231.895 62.8625 231.895 125.301C231.895 187.739 282.476 238.321 344.914 238.321C364.276 238.321 382.437 233.518 398.347 224.962C412.006 230.366 441.574 241.923 441.574 241.923L427.615 202.298Z" fill="#FAFAFA"/>
<path d="M427.615 202.299C427.615 202.299 427.916 203.199 428.516 204.85C429.116 206.651 430.017 209.053 431.218 212.505C433.619 219.259 437.071 229.015 441.574 241.773L441.724 242.073L441.424 241.923C429.717 237.42 415.008 231.717 398.197 225.113H398.347C390.843 229.165 382.287 232.617 372.832 235.019C363.376 237.42 353.17 238.771 342.513 238.471C331.856 238.321 320.599 236.52 309.493 232.917C303.939 231.116 298.386 228.865 293.132 226.013C287.729 223.312 282.476 220.009 277.523 216.257C267.467 208.753 258.311 199.447 250.956 188.64C243.602 177.683 237.898 165.076 234.596 151.717C232.945 144.963 231.895 138.059 231.595 131.005C231.294 123.95 231.595 116.746 232.495 109.691C234.446 95.4326 239.249 81.3239 246.604 68.416C259.812 45.4518 280.825 28.1912 303.939 19.3357C327.203 10.3301 352.419 9.72977 374.333 15.7335C396.396 21.7372 415.308 34.1949 428.816 49.2041C435.57 56.8588 441.274 64.9638 445.476 73.369C449.829 81.7742 452.981 90.3295 454.932 98.7347C458.985 115.545 458.685 131.455 456.283 144.963C453.882 158.472 449.379 169.578 444.876 178.134C440.373 186.689 435.72 192.693 432.568 196.595C430.917 198.546 429.717 200.047 428.816 200.948C428.066 201.848 427.615 202.299 427.615 202.299C427.615 202.299 428.066 201.848 428.816 200.798C429.717 199.747 430.917 198.396 432.568 196.445C435.72 192.543 440.223 186.539 444.726 177.984C449.229 169.428 453.581 158.472 455.983 144.963C458.384 131.605 458.535 115.695 454.482 98.8848C452.531 90.4796 449.379 82.0744 445.026 73.6692C440.824 65.264 435.12 57.3091 428.366 49.6544C414.858 34.6451 396.096 22.3375 374.182 16.4839C352.419 10.6303 327.504 11.2307 304.389 20.2362C281.275 29.0917 260.412 46.2023 247.354 69.0163C232.495 94.5321 228.743 125.001 235.347 151.717C238.499 165.076 244.202 177.533 251.557 188.49C258.911 199.297 268.067 208.602 277.973 215.957C282.926 219.709 288.179 222.861 293.433 225.563C298.836 228.265 304.239 230.666 309.793 232.467C320.75 236.069 331.856 237.871 342.513 238.021C353.17 238.321 363.376 236.97 372.682 234.568C381.987 232.167 390.543 228.715 398.047 224.662H398.197H398.347C415.158 231.266 429.717 236.97 441.574 241.623L441.274 241.773C436.771 229.015 433.469 219.109 431.068 212.355C429.867 209.053 429.116 206.501 428.516 204.7C427.916 203.199 427.615 202.299 427.615 202.299Z" fill="#263238"/>
<path d="M411.255 48.6039C413.806 46.2024 415.607 42.9004 415.307 39.4483C415.007 35.9962 412.005 32.6941 408.553 32.9943C409.603 29.8424 408.703 25.94 406.151 23.8387C403.6 21.5873 399.697 21.137 396.696 22.788C397.146 21.137 396.095 19.1858 394.144 18.1351C392.643 17.2346 386.94 17.0845 385.138 20.3865L376.733 47.7034C373.281 50.8553 371.03 55.3581 370.88 60.1611C370.579 64.8139 372.381 69.6169 375.532 73.069C373.431 75.9208 373.281 79.9733 375.082 82.9751C376.883 85.977 380.636 87.628 384.238 87.0276C384.688 91.8306 389.791 95.5829 394.444 94.5323C399.097 93.4816 402.099 87.628 400.298 83.2753C404.2 84.9263 409.003 81.9245 410.354 77.872C411.705 73.8195 410.654 69.3167 408.703 65.5644C412.155 64.6638 415.007 61.5119 415.607 58.0598C416.057 54.4575 414.256 50.5551 411.255 48.6039Z" fill="#263238"/>
<path d="M389.791 25.1895C393.544 26.6904 394.144 29.8423 394.744 32.544C396.095 38.2475 393.544 46.3525 390.092 51.1555C386.639 55.9584 383.037 58.2098 377.184 58.6601C377.634 49.8046 378.084 40.7991 378.384 31.9436L389.791 25.1895Z" fill="#225E9F"/>
<path d="M390.992 40.6489C393.844 37.3469 393.844 32.0937 390.992 28.7916C392.793 26.8404 392.493 23.5384 390.842 21.287C389.341 19.0356 386.79 17.6848 384.388 16.3339C383.488 10.0301 376.733 5.22709 370.58 6.27774C367.728 1.32468 360.824 0.123942 355.27 1.32468C353.919 1.62487 352.568 2.07515 351.068 1.92505C350.017 1.92505 349.116 1.47477 348.066 1.32468C342.512 0.123942 336.659 3.72616 334.257 8.82931C333.807 9.57977 333.507 10.4803 332.906 11.2308C332.156 12.1313 330.955 12.5816 330.055 13.182C327.953 14.5328 326.452 16.9343 326.152 19.4859C325.852 21.5872 326.452 23.9887 325.402 25.9399C324.951 26.8404 324.051 27.5909 323.601 28.6415C322.4 31.4933 325.402 34.7953 324.651 37.7972C324.501 38.3976 324.201 38.9979 323.901 39.5983C323.45 40.799 323.45 42.3 323.901 43.5007C324.351 44.4013 324.951 45.3018 324.951 46.3525C324.951 47.1029 324.501 47.8534 324.351 48.6038C323.901 50.405 327.353 57.7595 328.854 58.9602L376.433 62.7126C380.035 62.2623 383.187 59.1103 383.788 55.5081C383.938 54.9077 383.938 54.3074 384.388 53.8571C384.688 53.4068 385.289 53.2567 385.739 53.1066C388.891 51.6057 389.641 47.5532 389.491 43.951C389.491 43.5007 389.491 42.9003 389.641 42.4501C389.942 41.5495 390.542 41.0992 390.992 40.6489Z" fill="#263238"/>
<path d="M377.334 39.7483C378.084 31.3431 373.431 21.2869 365.326 16.6341C360.223 13.6322 356.171 13.332 353.319 12.8817C347.165 11.681 341.912 14.5328 341.912 14.5328C339.21 14.983 329.004 23.088 327.803 32.694C326.452 43.2004 325.402 56.2585 326.152 64.2134C327.803 80.2733 339.811 82.975 339.811 82.975L336.809 109.391L359.022 130.254L370.279 100.236L377.334 39.7483Z" fill="#AE7461"/>
<path d="M331.555 46.6524C331.405 47.7031 332.306 48.7537 333.357 48.7537C334.407 48.9038 335.458 48.1533 335.608 47.1027C335.758 46.052 334.858 45.0014 333.807 45.0014C332.606 44.7012 331.706 45.6018 331.555 46.6524Z" fill="#263238"/>
<path d="M331.255 38.8479C331.555 39.1481 333.056 38.0975 335.307 38.2476C337.559 38.3977 339.06 39.5984 339.36 39.2982C339.51 39.1481 339.21 38.6978 338.609 38.0975C338.009 37.4971 336.808 37.0468 335.457 36.8967C334.107 36.8967 332.906 37.1969 332.155 37.7973C331.405 38.2476 331.105 38.6978 331.255 38.8479Z" fill="#263238"/>
<path d="M343.113 56.8589C343.113 56.7088 341.763 56.4086 339.511 55.9584C338.911 55.8083 338.46 55.6582 338.31 55.358C338.16 54.9077 338.461 54.3073 338.761 53.707C339.361 52.3561 339.961 51.0053 340.712 49.5044C343.414 43.5007 345.365 38.6977 345.065 38.5476C344.764 38.3975 342.513 43.2005 339.811 49.2042C339.211 50.7051 338.611 52.0559 338.01 53.4068C337.71 54.0071 337.41 54.7576 337.56 55.6582C337.71 56.1084 338.01 56.4086 338.461 56.5587C338.761 56.7088 339.061 56.7088 339.361 56.7088C341.612 57.009 343.113 57.009 343.113 56.8589Z" fill="#263238"/>
<path d="M339.961 82.8248C339.961 82.8248 350.768 84.1756 361.724 78.322C361.724 78.322 355.421 89.2788 339.511 86.8773L339.961 82.8248Z" fill="#6F4439"/>
<path d="M333.207 30.1424C333.507 30.7427 335.308 30.4425 337.259 30.7427C339.21 30.8928 340.861 31.6433 341.312 31.193C341.462 31.0429 341.312 30.4425 340.711 29.8422C340.111 29.2418 338.91 28.6414 337.559 28.4913C336.209 28.3412 335.008 28.6414 334.257 28.9416C333.357 29.3919 333.057 29.8422 333.207 30.1424Z" fill="#263238"/>
<path d="M355.27 48.9039C355.27 49.9545 354.22 50.8551 353.169 50.705C351.968 50.705 351.218 49.8044 351.218 48.6037C351.218 47.553 352.268 46.6525 353.319 46.8026C354.52 46.9527 355.27 47.8532 355.27 48.9039Z" fill="#263238"/>
<path d="M361.274 41.399C360.973 41.6992 359.623 40.3483 357.371 40.1982C355.12 39.8981 353.469 40.9487 353.319 40.6485C353.169 40.4984 353.469 40.0482 354.219 39.5979C354.97 39.1476 356.171 38.8474 357.521 38.8474C358.872 38.9975 359.923 39.5979 360.673 40.1982C361.274 40.7986 361.424 41.2489 361.274 41.399Z" fill="#263238"/>
<path d="M361.874 32.8441C361.424 33.2944 359.773 32.694 357.672 32.3939C355.721 32.0937 353.919 32.3939 353.469 31.7935C353.319 31.4933 353.619 31.043 354.37 30.5927C355.12 30.1425 356.471 29.9924 357.822 30.1425C359.173 30.2926 360.373 30.8929 360.974 31.4933C361.874 32.0937 362.024 32.5439 361.874 32.8441Z" fill="#263238"/>
<path d="M373.882 54.6076C373.882 53.4069 375.533 50.7052 376.734 50.5551C379.886 50.2549 385.589 50.8553 385.139 58.8102C384.539 69.6169 373.732 66.9152 373.732 66.615C373.732 66.3148 373.582 58.8102 373.882 54.6076Z" fill="#AE7461"/>
<path d="M376.884 62.8622C376.884 62.8622 377.034 63.0123 377.334 63.1624C377.634 63.3125 378.235 63.4626 378.685 63.3125C379.886 63.0123 380.936 61.2112 381.086 59.26C381.236 58.2094 380.936 57.3088 380.636 56.5584C380.336 55.8079 379.886 55.2075 379.285 55.0574C378.685 54.9073 378.235 55.2075 378.085 55.5077C377.934 55.8079 377.934 55.958 377.934 56.1081C377.934 56.1081 377.784 55.958 377.784 55.5077C377.784 55.3576 377.934 55.0574 378.235 54.9073C378.535 54.7572 378.835 54.6071 379.285 54.7572C380.186 54.9073 380.786 55.6578 381.236 56.5584C381.687 57.4589 381.837 58.5096 381.687 59.5602C381.537 61.8116 380.336 63.7628 378.685 64.063C377.934 64.2131 377.334 63.9129 377.034 63.6127C376.884 63.0123 376.884 62.8622 376.884 62.8622Z" fill="#6F4439"/>
<path d="M325.552 32.5436C327.803 31.3429 329.304 29.5418 329.304 26.9902C330.805 27.4405 332.306 25.7894 333.206 24.4386C334.107 23.2379 335.158 22.6375 335.158 21.1366C335.158 20.8364 335.158 20.5362 335.308 20.236C335.608 19.7857 336.058 19.7857 336.509 19.6356C338.91 19.0353 340.861 17.2342 341.612 14.8327C343.863 16.0334 346.415 16.6338 348.966 16.4837C350.017 18.1347 351.968 19.3355 353.919 19.3355C355.87 19.3355 357.822 18.2848 359.022 16.6338C359.623 17.9846 360.974 19.0353 362.475 19.4856C363.975 19.9358 365.476 19.9358 366.977 19.9358C366.227 22.7876 367.878 26.2397 370.73 27.2904C371.18 27.4405 371.48 27.5906 371.78 27.8907C371.93 28.341 371.78 28.6412 371.48 29.0915C370.429 31.493 371.78 34.795 374.332 35.5455C372.531 36.7462 372.531 40.0482 374.332 41.249C374.782 41.5492 375.232 41.8493 375.082 42.2996C375.082 42.4497 374.932 42.5998 374.782 42.7499C373.882 43.8005 372.981 44.8512 372.831 46.202C372.681 47.5529 373.431 49.0538 374.782 49.2039C374.032 49.8043 373.281 50.5547 373.281 51.4553C373.281 52.3558 374.182 53.4065 375.082 53.1063C375.533 52.9562 380.936 52.2057 381.236 51.9055C384.538 47.853 380.936 43.0501 380.936 37.9469C380.936 32.6937 379.435 27.5906 377.034 22.9377C376.133 20.9865 374.932 19.0353 373.431 17.5343C371.78 15.7332 369.679 14.2323 367.728 12.7314C365.026 10.9303 362.324 8.97907 359.323 8.07851C353.469 6.4275 347.315 8.07851 341.762 10.3299C339.66 11.2305 337.559 12.131 335.608 13.4818C333.357 15.1329 331.706 17.3843 330.205 19.6356C328.103 22.9377 326.302 26.5399 325.552 30.5924" fill="#263238"/>
<path d="M323.601 28.6413C323.601 28.6413 323.751 28.1911 324.201 27.4406C324.501 27.1404 324.801 26.6901 325.102 26.2399C325.402 25.7896 325.702 25.0391 325.852 24.2887C326.002 23.5382 326.002 22.6376 326.002 21.587C326.002 20.5363 326.002 19.4857 326.302 18.435C326.602 17.2343 327.053 16.1837 327.953 15.133C328.404 14.6827 328.854 14.0824 329.454 13.6321C330.055 13.1818 330.655 12.8816 331.255 12.4313C331.856 12.1312 332.456 11.6809 333.056 11.0805C333.507 10.4801 333.807 9.87977 334.257 9.12931C335.008 7.62838 335.908 6.27755 337.109 5.07681C338.31 3.87607 339.811 2.82542 341.462 2.07495C342.362 1.62468 343.263 1.47458 344.163 1.1744C345.064 1.02431 346.114 0.874214 347.015 1.02431C347.465 1.02431 347.916 1.1744 348.516 1.1744C348.966 1.32449 349.417 1.47458 350.017 1.47458C350.917 1.77477 351.968 1.77477 352.869 1.62468C353.919 1.47458 354.82 1.1744 355.87 1.02431C356.921 0.874214 357.972 0.724121 359.022 0.724121C360.073 0.724121 361.124 0.724121 362.174 0.874214C363.225 1.02431 364.276 1.32449 365.326 1.62468C367.428 2.37514 369.379 3.72597 370.58 5.52708C370.73 5.67718 370.88 5.82727 370.88 6.12745L370.73 5.97736C374.032 5.37699 377.484 6.57773 380.035 8.37884C382.587 10.33 384.388 13.1818 384.838 16.1837L384.688 16.0336C386.039 16.784 387.24 17.3844 388.441 18.285C389.641 19.1855 390.692 20.0861 391.442 21.2868C392.193 22.4875 392.643 23.8384 392.643 25.1892C392.643 26.54 392.193 27.8909 391.442 28.7914V28.6413C392.943 30.2924 393.544 32.3937 393.544 34.3449C393.544 36.2961 393.093 38.2473 392.043 39.7482C391.743 40.1985 391.593 40.4987 391.292 40.7988C390.992 41.099 390.692 41.3992 390.542 41.6994C390.242 41.9996 390.092 42.2998 390.092 42.75C390.092 43.0502 390.092 43.5005 390.092 43.9508C390.092 45.4517 389.941 46.8026 389.791 48.0033C389.491 49.204 389.041 50.2547 388.591 51.0051C389.191 50.2547 389.491 49.204 389.791 48.0033C390.092 46.8026 390.092 45.4517 390.092 43.9508C390.092 43.6506 390.092 43.2003 390.092 42.75C390.092 42.2998 390.392 41.9996 390.542 41.5493C390.842 41.2491 391.142 40.9489 391.292 40.6488C391.593 40.3486 391.893 40.0484 392.043 39.5981C392.943 38.0972 393.544 36.2961 393.394 34.3449C393.394 32.3937 392.643 30.4425 391.292 28.7914L391.142 28.6413L391.292 28.4913C392.043 27.5907 392.493 26.39 392.493 25.0391C392.493 23.8384 392.043 22.4875 391.292 21.2868C390.542 20.2362 389.491 19.1855 388.441 18.435C387.24 17.6846 386.039 16.9341 384.838 16.1837V16.0336C384.388 13.1818 382.587 10.33 380.185 8.52894C377.784 6.72782 374.482 5.52708 371.18 6.12745H371.03V5.97736C370.88 5.82727 370.73 5.67718 370.73 5.37699C369.529 3.57588 367.578 2.37514 365.627 1.62468C364.576 1.32449 363.525 1.02431 362.475 0.874214C361.424 0.724121 360.373 0.724121 359.323 0.724121C358.272 0.724121 357.221 0.874214 356.321 1.02431C355.27 1.1744 354.37 1.47458 353.319 1.62468C352.869 1.62468 352.268 1.77477 351.818 1.62468C351.368 1.62468 350.767 1.47458 350.317 1.32449C349.867 1.1744 349.417 1.02431 348.966 1.02431C348.516 0.874214 348.066 0.874214 347.615 0.874214C346.715 0.724121 345.664 0.874214 344.764 1.02431C343.863 1.1744 342.963 1.47458 342.212 1.77477C340.561 2.52523 339.06 3.57588 337.859 4.62653C336.659 5.82727 335.758 7.1781 335.008 8.52894C334.707 9.2794 334.257 10.0299 333.807 10.6302C333.357 11.2306 332.606 11.6809 332.006 11.9811C331.405 12.2813 330.805 12.7315 330.205 13.1818C329.604 13.6321 329.154 14.0824 328.854 14.5326C328.103 15.5833 327.503 16.6339 327.203 17.8347C326.903 18.8853 326.903 20.0861 326.903 20.9866C326.903 22.0373 326.903 22.9378 326.753 23.6883C326.602 24.4388 326.302 25.1892 326.002 25.6395C325.702 26.0898 325.252 26.54 325.102 26.8402C324.801 27.1404 324.651 27.4406 324.501 27.5907C323.601 28.4913 323.601 28.6413 323.601 28.6413Z" fill="#455A64"/>
<path d="M365.626 3.5761C365.626 3.5761 365.326 3.42601 364.876 3.12582C364.426 2.82564 363.525 2.52545 362.475 2.22526C361.424 2.07517 360.223 2.07517 358.872 2.52545C357.521 2.97573 356.321 3.87628 355.42 5.22712C355.12 5.67739 354.97 5.97758 354.82 6.42786C354.67 6.87813 354.67 7.32841 354.82 7.6286L355.12 8.07888L354.67 7.92878C353.469 7.47851 352.268 7.6286 351.218 8.07888C350.317 8.52915 349.567 9.27962 349.266 10.0301C348.966 10.7805 348.816 11.3809 348.666 11.8312C348.666 12.2815 348.666 12.4316 348.666 12.5817C348.666 12.5817 348.666 12.5817 348.666 12.4316C348.666 12.2815 348.666 12.1314 348.666 11.9813C348.666 11.531 348.816 10.9306 349.116 10.1802C349.416 9.42971 350.167 8.67925 351.068 8.07888C352.118 7.6286 353.469 7.32841 354.67 7.77869L354.52 8.07888C354.219 7.6286 354.37 7.02823 354.52 6.72804C354.67 6.27776 354.97 5.82749 355.12 5.5273C356.021 4.17647 357.371 3.12582 358.722 2.67554C360.073 2.22526 361.424 2.22526 362.475 2.37536C363.525 2.52545 364.276 2.97573 364.876 3.27591C365.176 3.42601 365.326 3.5761 365.476 3.72619C365.626 3.42601 365.626 3.5761 365.626 3.5761Z" fill="#455A64"/>
<path d="M382.437 17.0842C382.437 17.0842 382.287 17.2343 381.987 17.3844C381.686 17.5345 381.236 17.8347 380.636 18.1349C380.035 18.4351 379.285 18.5852 378.384 18.5852C377.484 18.5852 376.583 18.285 375.683 17.5345H375.983C375.833 17.6846 375.683 17.8347 375.683 17.9848C375.533 18.1349 375.382 18.285 375.232 18.4351C374.332 19.1855 373.431 19.7859 372.381 19.936C371.48 20.2362 370.579 20.2362 369.829 20.0861C369.079 19.936 368.478 19.7859 368.178 19.6358C367.878 19.4857 367.578 19.3356 367.578 19.3356C367.578 19.3356 368.328 19.7859 369.829 19.936C370.579 19.936 371.48 19.936 372.381 19.6358C373.281 19.3356 374.182 18.8853 375.082 18.1349C375.232 17.9848 375.382 17.8347 375.533 17.6846C375.683 17.5345 375.683 17.3844 375.833 17.2343L375.983 17.0842L376.133 17.2343C376.883 17.8347 377.784 18.1349 378.534 18.1349C379.285 18.1349 380.035 17.9848 380.636 17.6846C381.836 17.5345 382.437 17.0842 382.437 17.0842Z" fill="#455A64"/>
<path d="M387.54 27.4407C387.54 27.4407 387.54 27.4407 387.54 27.5908C387.54 27.7409 387.39 27.891 387.24 28.0411C386.94 28.4914 386.34 28.9417 385.439 29.0917C384.539 29.2418 383.488 29.0918 382.287 28.6415C381.687 28.3413 381.237 28.1912 380.636 27.891C380.036 27.5908 379.435 27.1405 379.285 26.3901V26.24L379.586 26.3901C378.535 27.1405 377.334 27.7409 376.284 28.1912C375.233 28.4914 374.032 28.4914 373.282 28.3413C372.381 28.1912 371.781 27.7409 371.481 27.4407C371.33 27.2906 371.18 27.1405 371.18 26.9905C371.18 26.8404 371.03 26.8404 371.03 26.8404C371.03 26.8404 371.18 26.9905 371.631 27.2906C371.931 27.5908 372.531 27.891 373.432 28.1912C374.182 28.3413 375.233 28.3413 376.434 28.0411C377.484 27.7409 378.535 26.9905 379.736 26.3901L379.886 26.24V26.3901V26.5402C380.036 27.1405 380.636 27.5908 381.086 27.891C381.687 28.1912 382.137 28.4914 382.738 28.6415C383.788 29.0918 384.839 29.3919 385.589 29.2418C386.49 29.0917 387.09 28.6415 387.39 28.3413C387.54 27.7409 387.54 27.4407 387.54 27.4407Z" fill="#455A64"/>
<path d="M352.418 59.7107C350.167 60.161 347.165 61.2116 345.214 62.2623C345.064 63.3129 346.865 65.8645 347.916 66.3148C348.966 66.765 350.467 66.615 351.368 65.8645C352.268 65.2641 352.869 64.0634 353.019 62.8626C353.169 61.9621 352.719 60.9114 352.418 59.7107Z" fill="#6F4439"/>
<path d="M348.216 66.6151C348.216 66.465 349.267 66.7652 350.617 66.1648C351.368 65.8646 352.118 65.2643 352.569 64.5138C353.019 63.6132 353.169 62.5626 353.019 61.5119C352.869 61.0617 352.719 60.6114 352.419 60.1611L352.719 60.3112C348.816 61.662 345.814 62.5626 345.814 62.2624C345.814 62.1123 348.666 60.9116 352.569 59.5607L352.719 59.4106L352.869 59.5607C353.169 60.011 353.469 60.6114 353.619 61.0617C353.919 62.2624 353.769 63.6132 353.169 64.6639C352.569 65.7145 351.668 66.1648 350.918 66.465C349.116 67.0654 348.066 66.6151 348.216 66.6151Z" fill="#263238"/>
<path d="M375.983 70.6674C377.89 70.6674 379.435 69.1219 379.435 67.2153C379.435 65.3088 377.89 63.7632 375.983 63.7632C374.077 63.7632 372.531 65.3088 372.531 67.2153C372.531 69.1219 374.077 70.6674 375.983 70.6674Z" fill="#455A64"/>
<path d="M250.205 141.211C250.205 141.211 242.4 131.905 240.449 128.603C238.498 125.301 237.147 124.1 234.295 121.849C231.293 119.598 223.339 114.495 220.487 114.945C218.385 115.245 210.13 112.243 206.528 111.493C205.327 111.192 204.727 112.243 204.727 112.243C204.127 114.344 207.579 117.046 210.13 118.097L213.583 119.448L215.534 127.553C215.534 127.553 213.432 136.858 215.384 138.96C217.485 140.911 217.185 140.461 220.037 141.211C222.888 141.961 233.545 142.112 233.695 142.412C233.845 142.712 240.299 151.868 240.299 151.868L250.205 141.211Z" fill="#AE7461"/>
<path d="M199.324 112.243C199.324 112.243 201.575 111.192 203.527 114.194C205.478 117.196 206.528 119.448 206.528 119.448C206.829 119.598 208.63 119.748 208.63 119.748L211.632 123.5L210.881 126.052C210.881 126.052 205.028 125.301 203.977 123.65C202.776 121.999 199.324 114.795 199.024 113.594C198.874 112.543 199.324 112.243 199.324 112.243Z" fill="#AE7461"/>
<path d="M219.436 134.307L218.235 132.206L220.186 129.954C220.186 129.954 224.239 131.305 225.74 129.504C227.241 127.553 226.791 127.403 226.791 127.403L221.387 125.752L224.539 125.001C224.539 125.001 228.892 126.502 229.792 123.951L229.492 122.45C229.492 122.45 225.44 121.249 223.489 121.249C221.537 121.099 215.534 122 215.534 122L220.937 120.349C220.937 120.349 222.888 120.649 224.389 120.048C225.29 119.748 225.74 118.547 225.29 117.647C225.14 117.347 224.839 117.046 224.539 117.046C223.639 116.746 221.687 115.996 220.186 115.996C218.235 115.996 211.781 117.046 210.13 118.547C208.479 120.048 208.329 120.649 208.779 122.45C209.38 124.101 211.331 127.103 211.331 127.103C211.331 127.103 211.331 129.504 212.382 130.855C212.382 130.855 211.481 134.757 215.233 139.11" fill="#AE7461"/>
<path d="M215.234 138.96C215.234 138.96 215.084 138.81 214.784 138.51C214.483 138.209 214.183 137.759 213.733 137.009C213.283 136.408 212.832 135.508 212.532 134.457C212.232 133.406 211.932 132.056 212.232 130.555V130.705C211.482 129.654 211.181 128.303 211.181 126.952V127.102C210.581 126.202 209.981 125.301 209.53 124.401C209.08 123.35 208.48 122.299 208.33 121.099C208.33 120.348 208.63 119.748 209.08 119.298C209.53 118.847 209.981 118.397 210.581 117.947C211.782 117.346 213.133 116.896 214.333 116.596C215.684 116.296 217.035 115.996 218.536 115.846C219.286 115.846 220.037 115.695 220.787 115.846C221.538 115.996 222.288 116.146 223.039 116.296C223.339 116.446 223.789 116.596 224.089 116.596C224.389 116.746 224.84 116.896 225.14 117.196C225.89 117.797 226.041 118.847 225.59 119.748C225.44 120.198 224.99 120.498 224.54 120.648C224.089 120.799 223.789 120.799 223.339 120.949C222.588 121.099 221.688 121.099 220.937 120.949H221.087C220.337 121.099 219.587 121.399 218.836 121.699C217.785 121.999 216.735 122.3 215.534 122.75L215.384 122.149C217.785 121.849 220.187 121.549 222.588 121.399C223.789 121.399 224.99 121.699 226.041 121.849C227.091 122.149 228.292 122.299 229.343 122.6H229.493V122.75C229.643 123.2 229.643 123.8 229.643 124.251V124.401C229.493 125.001 229.042 125.451 228.592 125.752C228.142 126.052 227.541 126.052 227.091 126.202C226.041 126.202 225.14 126.052 224.089 125.752H224.239C223.189 126.052 221.988 126.202 220.937 126.502V126.052C222.288 126.502 223.639 126.952 224.99 127.253C225.29 127.403 225.59 127.403 225.89 127.553H226.191H226.341C226.491 127.553 226.491 127.553 226.491 127.703C226.641 128.153 226.491 128.153 226.491 128.453C226.191 129.054 225.89 129.504 225.44 129.954C224.99 130.404 224.54 130.705 223.939 130.855C223.339 131.005 222.889 131.005 222.288 131.005C221.238 131.005 220.337 130.705 219.587 130.405H219.737C218.986 131.305 218.386 131.905 217.785 132.506V132.356C218.236 132.956 218.386 133.556 218.686 134.007C218.836 134.307 218.986 134.457 218.986 134.607C218.986 134.607 218.836 134.457 218.686 134.157C218.386 133.707 218.086 133.256 217.785 132.656C218.236 132.056 218.986 131.305 219.587 130.405H219.737C220.487 130.705 221.388 130.855 222.288 130.855C223.189 130.855 224.39 130.705 224.99 129.804C225.29 129.354 225.74 128.904 225.89 128.303V128.153C225.89 128.153 225.89 128.153 226.041 128.003C226.191 127.853 225.89 128.153 225.89 128.153H225.74H225.44C225.14 128.003 224.84 128.003 224.54 127.853C223.339 127.553 221.988 127.102 220.487 126.652L219.587 126.352L220.487 126.052C221.538 125.752 222.588 125.602 223.639 125.301H223.789H223.939C224.84 125.602 225.74 125.752 226.641 125.752C227.541 125.752 228.442 125.301 228.742 124.401V124.551C228.592 124.101 228.592 123.5 228.442 123.05L228.592 123.35C227.541 123.05 226.491 122.75 225.29 122.6C224.239 122.45 223.039 122.149 221.988 122.149C219.737 122.3 217.185 122.6 214.784 122.9L214.633 122.3C215.684 121.999 216.735 121.699 217.936 121.249C218.686 120.949 219.436 120.799 220.187 120.498H220.337C221.087 120.648 221.838 120.648 222.588 120.498C222.889 120.498 223.339 120.348 223.639 120.198C223.939 120.048 224.239 119.898 224.39 119.598C224.69 118.997 224.54 118.397 224.089 117.947C223.939 117.797 223.489 117.647 223.189 117.497C222.889 117.346 222.438 117.196 222.138 117.196C221.388 117.046 220.787 116.746 220.037 116.746C219.286 116.596 218.686 116.746 217.936 116.746C216.585 116.896 215.234 117.196 213.883 117.497C212.532 117.797 211.331 118.097 210.281 118.697C209.831 118.997 209.38 119.448 208.93 119.898C208.48 120.348 208.33 120.799 208.33 121.399C208.33 122.45 208.93 123.5 209.38 124.551C209.831 125.451 210.431 126.352 211.031 127.253C211.031 128.603 211.331 129.954 211.932 130.855V131.005C211.632 132.356 211.932 133.707 212.232 134.757C212.532 135.808 212.982 136.708 213.283 137.309C214.784 138.209 215.384 138.96 215.234 138.96Z" fill="#6F4439"/>
<path d="M220.938 135.207C220.938 135.207 221.538 134.457 222.889 133.706C224.089 132.956 226.041 132.055 228.292 131.455C230.543 130.855 232.645 130.705 233.996 130.855C235.496 131.005 236.397 131.155 236.397 131.305C236.397 131.455 232.795 131.005 228.442 132.206C224.089 133.256 221.088 135.357 220.938 135.207Z" fill="#6F4439"/>
<path d="M221.688 125.902C221.688 126.052 221.088 125.752 220.037 125.752C218.986 125.752 217.636 126.052 216.435 126.952C215.234 127.853 214.334 128.903 213.583 129.654C212.833 130.404 212.382 130.855 212.382 130.855C212.382 130.855 212.682 130.254 213.283 129.354C213.883 128.453 214.784 127.403 216.135 126.352C217.485 125.301 219.136 125.151 220.187 125.301C221.238 125.451 221.688 125.752 221.688 125.902Z" fill="#6F4439"/>
<path d="M215.834 121.999C215.834 122.149 214.483 122.6 213.282 123.95C212.081 125.301 211.481 126.652 211.331 126.652C211.181 126.652 211.481 125.001 212.832 123.5C213.432 122.75 214.333 122.299 214.933 122.149C215.384 121.849 215.834 121.849 215.834 121.999Z" fill="#6F4439"/>
<path d="M397.146 108.04C397.146 108.04 407.802 110.892 408.103 124.851C408.403 137.158 414.106 171.83 414.256 184.437C414.406 196.895 413.056 206.351 397.146 209.053C384.388 211.154 370.729 182.486 370.729 182.486L383.788 171.229L378.384 148.565C378.384 148.565 374.782 140.76 383.337 124.4C391.742 108.04 397.146 108.04 397.146 108.04Z" fill="#225E9F"/>
<path d="M338.16 86.5771L332.006 94.6821L312.494 98.8847C312.494 98.8847 298.085 129.354 298.836 143.462C299.436 157.421 301.087 164.475 301.087 164.475L300.937 180.535C300.937 180.535 294.933 193.893 297.635 199.747C300.336 205.601 307.841 210.854 307.841 210.854L378.535 211.754C378.535 211.754 383.638 214.606 386.189 207.101C388.891 199.597 384.688 144.363 384.688 144.363L398.497 108.791L376.133 96.6333L372.081 85.8267L345.364 92.5808L338.16 86.5771Z" fill="#225E9F"/>
<path d="M388.891 174.381L385.889 170.029L370.58 176.633L372.081 181.586C372.081 181.586 377.334 187.439 382.437 185.488C387.54 183.537 388.441 177.833 388.441 177.833L388.891 174.381Z" fill="#AE7461"/>
<path d="M375.682 162.824C375.682 162.824 377.784 159.973 379.435 159.372C381.086 158.772 381.686 158.622 381.686 158.622C381.686 158.622 380.936 155.77 383.937 155.47C383.937 155.47 385.138 156.37 386.039 156.37C386.939 156.37 387.69 156.67 387.99 157.721C388.29 158.922 388.89 162.074 387.99 163.575C387.089 165.076 385.288 166.577 386.039 170.629C386.039 170.629 384.988 175.132 382.737 176.333C380.485 177.533 379.285 177.383 379.285 177.383C379.285 177.383 377.183 179.935 375.382 179.635C373.581 179.334 372.831 179.184 372.831 179.184C372.831 179.184 371.48 181.436 368.328 179.635C368.328 179.635 366.677 180.835 364.876 179.935C363.975 179.485 360.073 175.432 359.773 172.28C359.622 169.128 359.773 167.027 360.523 165.976C361.724 164.325 363.375 165.826 363.375 165.826C363.375 165.826 363.825 162.824 364.876 161.774C366.076 160.573 366.977 160.873 366.977 160.873C366.977 160.873 366.677 157.271 369.378 157.121C372.08 156.821 371.78 160.123 371.93 161.924C372.08 163.725 372.08 163.725 372.08 163.725C372.08 163.725 372.981 160.873 375.682 162.824Z" fill="#AE7461"/>
<path d="M375.683 162.824C375.683 162.824 375.382 162.524 374.632 162.374C374.332 162.224 373.731 162.224 373.281 162.374C372.831 162.524 372.231 162.974 371.93 163.575L371.63 164.025V163.424C371.63 162.674 371.48 161.773 371.48 160.873C371.48 159.972 371.48 158.922 371.03 158.021C370.58 156.97 369.229 156.82 368.328 157.421C367.277 158.021 366.977 159.372 367.127 160.723V161.023H366.827C366.077 161.023 365.026 161.773 364.576 162.674C364.126 163.575 363.825 164.775 363.675 165.976L363.525 166.426L363.075 166.126C362.474 165.676 361.724 165.376 361.124 165.826C360.523 166.276 360.223 167.177 360.073 167.927C359.923 168.828 359.923 169.728 359.923 170.629C359.923 171.529 359.923 172.58 360.223 173.331C360.673 175.132 361.874 176.633 363.225 178.134C363.525 178.434 363.825 178.884 364.276 179.184C364.426 179.334 364.576 179.484 364.876 179.634C365.026 179.785 365.326 179.785 365.476 179.935C366.377 180.235 367.428 180.085 368.178 179.484L368.328 179.334L368.478 179.484C369.229 179.935 370.279 180.235 371.18 179.935C371.63 179.785 372.231 179.484 372.531 179.034L372.681 178.884H372.831C373.431 179.034 374.032 179.034 374.632 179.184C374.932 179.184 375.232 179.334 375.533 179.334C375.833 179.334 375.983 179.334 376.283 179.184C377.334 178.884 378.234 177.983 378.985 177.233L379.135 177.083H379.285C380.035 177.083 380.936 176.783 381.686 176.483C382.587 176.182 383.187 175.732 383.638 175.132C384.688 173.781 385.289 172.28 385.739 170.629V170.779C385.439 168.978 385.439 167.027 386.489 165.376C386.94 164.625 387.54 164.025 387.84 163.274C388.14 162.674 388.29 161.773 388.29 161.023C388.29 160.273 388.14 159.522 387.99 158.772C387.84 158.021 387.84 157.271 387.39 156.82C387.24 156.67 386.94 156.52 386.639 156.37C386.339 156.37 386.039 156.37 385.589 156.22C384.838 156.07 384.388 155.62 383.788 155.319H383.938C383.187 155.319 382.437 155.77 382.137 156.37C381.836 156.97 381.836 157.721 381.987 158.321V158.471H381.836C381.236 158.622 380.786 158.772 380.185 159.072C379.735 159.222 379.285 159.372 378.835 159.672C378.084 160.122 377.484 160.723 377.033 161.173C376.583 161.623 376.283 161.924 375.983 162.224C375.833 162.674 375.683 162.824 375.683 162.824C375.683 162.824 375.833 162.674 375.983 162.374C376.133 162.074 376.433 161.773 376.883 161.173C377.334 160.723 377.934 160.122 378.684 159.522C379.135 159.222 379.585 159.072 380.035 158.922C380.486 158.772 381.086 158.471 381.686 158.321L381.536 158.471C381.386 157.721 381.386 156.97 381.686 156.22C382.137 155.47 383.037 155.019 383.788 155.019H383.938C384.388 155.319 384.988 155.77 385.589 155.92C386.039 156.07 387.09 155.92 387.69 156.52C387.99 156.82 388.14 157.271 388.29 157.571C388.44 157.871 388.441 158.321 388.591 158.622C388.741 159.372 388.891 160.122 388.891 160.873C388.891 161.623 388.891 162.524 388.441 163.274C387.99 164.025 387.39 164.625 387.09 165.376C386.189 166.726 386.189 168.528 386.489 170.329C386.039 171.98 385.439 173.631 384.388 174.982C384.088 175.282 383.788 175.732 383.337 175.882C382.887 176.182 382.587 176.332 382.137 176.483C381.236 176.783 380.486 177.083 379.435 177.233L379.735 177.083C378.985 177.983 378.084 178.884 376.733 179.334C376.433 179.484 376.133 179.484 375.683 179.484C375.382 179.484 375.082 179.334 374.782 179.334C374.182 179.184 373.581 179.184 372.981 179.034L373.281 178.884C372.831 179.484 372.231 179.785 371.63 180.085C370.429 180.385 369.229 179.935 368.328 179.484H368.628C367.728 180.085 366.527 180.385 365.326 179.935C365.026 179.785 364.876 179.785 364.576 179.484C364.426 179.334 364.126 179.184 363.975 179.034C363.525 178.734 363.225 178.284 362.925 177.983C361.574 176.483 360.373 174.831 359.773 172.88C359.473 171.83 359.623 170.929 359.473 170.029C359.473 169.128 359.473 168.227 359.623 167.327C359.773 166.426 360.073 165.526 360.823 164.775C361.274 164.475 361.874 164.325 362.324 164.475C362.775 164.625 363.225 164.775 363.525 165.075L363.075 165.226C363.225 164.025 363.525 162.824 364.126 161.773C364.426 161.173 364.876 160.723 365.326 160.423C365.777 160.122 366.377 159.822 366.977 159.822L366.677 160.122C366.677 159.372 366.677 158.622 366.977 158.021C367.127 157.421 367.578 156.67 368.178 156.37C368.778 156.07 369.529 155.92 370.129 156.07C370.73 156.22 371.33 156.67 371.63 157.121C372.08 158.171 372.08 159.222 372.08 160.122C372.08 161.023 372.08 161.924 372.231 162.674H371.93C372.231 161.924 372.831 161.473 373.431 161.323C374.032 161.173 374.482 161.323 374.932 161.473C375.382 162.524 375.683 162.824 375.683 162.824Z" fill="#6F4439"/>
<path d="M384.988 162.074C384.988 162.224 384.688 162.224 384.238 162.074C383.788 161.924 383.037 161.624 382.587 161.023C382.137 160.423 381.836 159.672 381.836 159.222C381.836 158.772 381.836 158.472 381.987 158.472C382.137 158.472 382.287 159.672 383.187 160.573C383.788 161.624 384.988 161.924 384.988 162.074Z" fill="#6F4439"/>
<path d="M380.936 171.079C380.786 171.079 379.885 169.128 378.535 166.877C377.034 164.625 375.533 163.125 375.683 162.974C375.833 162.824 377.634 164.175 379.135 166.577C380.636 168.828 381.086 171.079 380.936 171.079Z" fill="#6F4439"/>
<path d="M371.93 162.824C372.081 162.824 371.93 163.725 372.081 164.926C372.381 166.276 373.131 167.777 374.182 169.578C374.632 170.479 375.082 171.38 375.533 172.28C375.833 173.181 375.983 173.931 376.133 174.531C376.433 175.882 377.334 176.182 377.334 176.182C377.334 176.182 377.034 176.182 376.733 176.032C376.433 175.882 375.983 175.282 375.683 174.682C375.383 174.081 375.232 173.181 374.932 172.43C374.632 171.68 374.182 170.779 373.581 169.879C372.531 168.077 371.78 166.276 371.63 164.926C371.48 163.575 371.93 162.824 371.93 162.824Z" fill="#6F4439"/>
<path d="M370.43 174.832C370.43 174.832 369.679 174.382 368.629 173.331C368.178 172.881 367.578 172.13 367.128 171.23C366.677 170.329 366.678 169.279 366.527 168.228C366.077 163.875 366.527 160.423 366.828 160.423C366.978 160.423 366.828 163.875 367.278 168.078C367.428 169.128 367.428 170.179 367.728 170.93C368.028 171.68 368.479 172.431 368.929 173.031C369.98 174.232 370.58 174.832 370.43 174.832Z" fill="#6F4439"/>
<path d="M365.627 175.732C365.477 175.732 365.177 175.282 364.576 174.532C364.276 174.081 363.826 173.781 363.375 173.181C362.925 172.58 362.625 171.83 362.625 170.929C362.475 169.278 362.925 167.927 363.075 166.877C363.225 165.826 363.225 165.226 363.375 165.226C363.525 165.226 363.676 165.826 363.525 166.877C363.525 167.927 363.225 169.278 363.375 170.779C363.375 172.28 364.426 173.331 365.026 174.231C365.477 174.982 365.627 175.732 365.627 175.732Z" fill="#6F4439"/>
<path d="M407.502 185.788C407.351 185.788 407.051 184.587 405.55 183.237C404.8 182.486 403.749 181.886 402.548 181.285C401.348 180.685 399.847 180.235 398.346 179.785C396.845 179.334 395.344 178.884 394.143 178.284C392.792 177.683 391.742 177.083 390.841 176.482C389.941 175.882 389.49 175.132 389.04 174.681C388.74 174.231 388.59 173.931 388.59 173.931C388.74 173.931 389.34 174.982 390.991 176.182C391.892 176.783 392.943 177.383 394.143 177.833C395.344 178.284 396.845 178.734 398.346 179.184C399.847 179.634 401.348 180.085 402.548 180.835C403.749 181.436 404.8 182.186 405.55 183.087C406.301 183.837 406.751 184.587 407.051 185.188C407.501 185.488 407.502 185.788 407.502 185.788Z" fill="#263238"/>
<path d="M245.552 132.355L250.505 137.158C250.505 137.158 252.757 137.308 256.809 138.509C260.862 139.71 269.567 150.517 269.567 150.517L291.481 118.097C291.481 118.097 302.287 99.9354 312.494 98.8848L304.389 150.066C304.389 150.066 282.625 178.884 272.119 182.486C261.612 186.089 238.948 157.871 237.898 152.768L231.293 144.663L245.552 132.355Z" fill="#225E9F"/>
<path d="M393.844 209.503C393.844 209.503 393.394 209.353 392.494 209.052C391.593 208.752 390.392 208.152 389.041 207.251C386.19 205.45 382.738 202.298 379.586 198.396C377.935 196.445 376.584 194.493 375.383 192.692C374.182 190.891 372.981 189.24 372.231 187.739C371.481 186.238 371.631 184.737 371.781 183.837C371.931 183.387 372.081 183.086 372.231 182.786C372.381 182.636 372.531 182.486 372.531 182.486C372.531 182.486 372.231 182.936 372.081 183.837C371.931 184.737 371.931 186.088 372.681 187.589C373.282 189.09 374.633 190.591 375.833 192.392C377.184 194.193 378.535 196.145 380.036 198.096C383.188 201.998 386.49 205.15 389.191 206.951C391.893 208.752 393.844 209.353 393.844 209.503Z" fill="#263238"/>
<path d="M380.936 137.909C381.086 137.909 381.086 141.961 381.236 146.764C381.386 151.717 381.836 155.62 381.686 155.62C381.536 155.62 381.386 154.719 381.086 153.068C380.786 151.417 380.636 149.166 380.486 146.764C380.336 144.363 380.486 142.111 380.486 140.46C380.786 138.959 380.936 137.909 380.936 137.909Z" fill="#263238"/>
<path d="M396.996 109.541C396.996 109.691 395.496 109.541 393.244 110.592C390.993 111.492 388.291 113.744 386.19 116.746C384.088 119.748 382.738 123.05 381.987 125.301C381.237 127.702 381.087 129.203 380.937 129.203C380.937 129.203 380.937 128.753 380.937 128.153C380.937 127.853 380.937 127.402 381.087 126.952C381.237 126.502 381.237 125.901 381.387 125.301C381.987 122.899 383.188 119.597 385.439 116.446C386.49 114.945 387.841 113.444 389.042 112.393C390.392 111.342 391.593 110.592 392.794 110.142C393.094 109.992 393.394 109.992 393.694 109.841C393.995 109.841 394.295 109.691 394.445 109.691C394.895 109.541 395.345 109.541 395.646 109.541C396.546 109.541 396.996 109.541 396.996 109.541Z" fill="#263238"/>
<path d="M309.642 109.542C309.642 109.542 309.642 109.692 309.492 110.142C309.342 110.592 309.042 111.042 308.742 111.643C308.442 112.243 307.991 113.144 307.541 114.044C307.091 114.945 306.64 116.146 306.19 117.346C305.14 119.748 304.239 122.75 303.188 126.052C302.288 129.354 301.387 133.106 300.787 137.159C300.186 141.211 300.036 144.963 300.036 148.415C300.036 151.868 300.186 155.02 300.487 157.721C300.637 159.072 300.787 160.273 300.937 161.323C301.087 162.374 301.237 163.275 301.387 164.025C301.537 164.625 301.537 165.226 301.687 165.676C301.687 166.126 301.687 166.277 301.687 166.277C301.687 166.277 301.537 166.126 301.537 165.676C301.387 165.226 301.237 164.625 301.087 164.025C300.937 163.275 300.787 162.374 300.637 161.323C300.487 160.273 300.186 159.072 300.036 157.721C299.736 155.02 299.436 151.868 299.436 148.415C299.436 144.963 299.736 141.061 300.186 137.008C300.787 132.956 301.687 129.204 302.588 125.902C303.639 122.6 304.689 119.598 305.74 117.046C306.19 115.845 306.791 114.795 307.241 113.744C307.691 112.844 308.141 111.943 308.442 111.343C308.742 110.742 309.042 110.292 309.342 109.842C309.492 109.692 309.642 109.542 309.642 109.542Z" fill="#263238"/>
<path d="M376.134 96.4835C376.134 96.4835 375.984 96.6336 375.684 96.7837C375.383 96.9338 374.783 97.234 374.183 97.5342C372.832 98.1345 370.881 98.885 368.479 99.7856C363.526 101.587 356.622 103.688 348.667 105.489H348.367L348.217 105.189C348.067 104.589 347.916 103.838 347.766 103.238C346.866 99.7856 345.665 96.4835 344.915 93.3316L345.515 93.4817C342.663 96.9338 340.262 99.9356 338.01 102.187L337.86 102.337L337.71 102.187C336.66 101.136 336.059 99.9356 335.309 99.0351C334.708 98.1345 334.108 97.234 333.658 96.6336C332.757 95.2828 332.157 94.6824 332.157 94.6824C332.157 94.6824 332.307 94.8325 332.607 95.1327C332.907 95.4329 333.357 95.8831 333.808 96.6336C334.258 97.234 334.858 98.1345 335.459 99.0351C336.059 99.9356 336.81 100.986 337.86 102.037H337.56C339.661 99.6355 342.213 96.6336 344.915 93.1815L345.365 92.7312L345.515 93.3316C346.265 96.4835 347.466 99.6355 348.367 103.238C348.517 103.838 348.667 104.589 348.817 105.189L348.367 104.889C356.322 103.088 363.226 100.986 368.179 99.3353C370.731 98.4347 372.682 97.8344 374.033 97.234C375.383 96.7837 376.134 96.4835 376.134 96.4835Z" fill="#263238"/>
<path d="M336.96 214.456C336.96 214.456 336.809 214.456 336.659 214.306C336.509 214.156 336.209 214.006 335.909 213.856C335.308 213.406 334.258 212.505 333.357 211.154C332.457 209.803 331.706 208.002 331.256 205.751C330.806 203.5 330.656 200.948 330.506 198.246C330.506 186.989 330.355 171.53 331.556 154.419C332.157 145.864 333.207 137.759 334.408 130.404C335.609 123.05 337.26 116.596 338.911 111.193C342.213 100.386 345.215 94.2322 345.215 94.2322C345.215 94.2322 345.215 94.3823 345.064 94.5324C344.914 94.8325 344.914 94.9826 344.764 95.4329C344.464 96.1834 344.014 97.3841 343.413 98.735C342.813 100.236 342.213 102.037 341.462 104.138C340.712 106.24 339.961 108.641 339.211 111.343C337.71 116.746 336.059 123.2 334.858 130.555C333.657 137.909 332.757 145.864 332.006 154.419C330.806 171.53 330.956 186.989 330.806 198.096C330.806 200.948 330.956 203.349 331.406 205.601C331.856 207.702 332.457 209.503 333.357 210.854C335.308 213.706 337.11 214.306 336.96 214.456Z" fill="#263238"/>
<path d="M356.922 190.291C356.922 190.291 356.321 190.291 355.12 190.141C353.92 189.991 352.269 189.691 350.167 189.241C345.965 188.49 340.261 186.989 334.258 184.888C328.104 182.787 322.851 180.235 319.098 178.284C317.147 177.233 315.796 176.483 314.746 175.882C313.695 175.282 313.245 174.982 313.245 174.832C313.245 174.832 313.845 175.132 314.896 175.582C315.946 176.183 317.447 176.933 319.398 177.834C323.151 179.635 328.554 182.036 334.558 184.138C340.712 186.239 346.265 187.74 350.468 188.64C352.569 189.091 354.22 189.391 355.421 189.691C356.321 190.141 356.922 190.291 356.922 190.291Z" fill="#263238"/>
<g opacity="0.3">
<path d="M410.804 182.336C410.354 180.085 408.553 178.284 406.452 177.533C404.35 176.633 401.949 176.633 399.698 176.783C397.446 176.933 393.994 176.933 391.743 176.633C393.994 178.434 397.896 179.184 400.898 180.385C402.549 181.135 404.35 181.886 405.701 183.237C406.302 183.837 406.752 184.437 407.352 184.888C407.953 185.338 408.703 185.638 409.454 185.338C410.654 184.888 410.955 183.387 410.804 182.336Z" fill="black"/>
</g>
<g opacity="0.3">
<path d="M303.488 124.4C299.736 128.603 296.884 134.006 296.434 139.56C295.834 145.263 297.185 151.117 300.186 156.07V155.92C298.836 144.963 299.736 134.907 303.488 124.4Z" fill="black"/>
</g>
<path d="M299.436 229.465L307.691 210.704L384.839 209.503L395.645 228.265C395.795 228.265 351.818 248.377 299.436 229.465Z" fill="#263238"/>
</svg>
