<svg width="530" height="438" viewBox="0 0 530 438" fill="none" xmlns="http://www.w3.org/2000/svg">
<path d="M519.77 240.18C519.362 225.849 506.012 220.29 497.101 230.665C491.988 236.618 487.115 245.154 486.203 256.572C484.163 282.125 506.518 274.721 514.871 261.04C518.435 255.205 519.977 247.424 519.77 240.18Z" fill="#DCEDF9"/>
<path d="M273.775 65.3863C259.688 62.7213 251.403 74.5737 259.633 85.4975C264.356 91.7643 271.654 98.3506 282.613 101.682C307.138 109.138 304.685 85.7172 293.106 74.6319C288.167 69.9039 280.896 66.7345 273.775 65.3863Z" fill="#DCEDF9"/>
<path d="M40.937 196.7C46.5738 183.516 36.782 172.874 24.3427 178.558C17.2066 181.82 9.20347 187.528 3.5899 197.514C-8.97146 219.858 14.4277 222.505 27.7457 213.584C33.4278 209.78 38.0883 203.363 40.937 196.7Z" fill="#DCEDF9"/>
<path d="M506.891 421.323C506.891 430.102 398.783 437.22 265.427 437.22C132.069 437.22 23.9609 430.102 23.9609 421.323C23.9609 412.544 132.069 405.427 265.427 405.427C398.783 405.427 506.891 412.544 506.891 421.323Z" fill="#F1F1F1"/>
<path d="M500.384 290.912C485.6 305.691 502.092 306.944 491.244 318.105C481.356 328.278 466.765 318.377 467.736 343.223C467.949 348.659 463.993 352.691 458.444 354.757C449.313 358.154 440.379 355.012 434.878 348.765C434.429 348.262 434.005 347.735 433.606 347.187C429.43 341.489 427.908 333.766 431.002 326.112C433.512 319.901 437.958 313.792 445.836 311.356C464.322 305.642 454.062 281.16 469.685 280.087C488.526 278.789 489.203 271.88 502.574 262.562C516.749 252.687 520.421 270.886 500.384 290.912Z" fill="#FF522C"/>
<path d="M493.757 282.838C493.345 283.263 459.063 318.607 434.879 348.765C434.43 348.262 434.006 347.735 433.607 347.187C457.859 317.011 491.924 281.885 492.339 281.458C492.72 281.068 493.346 281.059 493.737 281.44C494.129 281.82 494.138 282.446 493.757 282.838Z" fill="#0059D3"/>
<path d="M504.18 340.249C481.018 353.883 501.142 360.754 484.046 371.154C468.461 380.633 453.488 363.61 446.695 394.85C445.21 401.683 438.986 405.431 431.415 406.215C418.954 407.503 408.846 400.714 404.009 391.168C403.614 390.396 403.254 389.603 402.935 388.794C399.571 380.355 400.163 370.252 406.48 361.72C411.604 354.798 419.106 348.624 429.697 348.13C454.546 346.972 449.659 313.194 469.453 316.886C493.324 321.34 496.39 312.957 516.035 305.666C536.86 297.936 535.571 321.772 504.18 340.249Z" fill="#FF522C"/>
<path d="M498.53 328.065C497.878 328.461 443.827 361.416 404.008 391.168C403.613 390.397 403.254 389.603 402.934 388.795C442.841 359.042 496.555 326.288 497.208 325.891C497.809 325.525 498.592 325.717 498.956 326.317C499.321 326.918 499.13 327.7 498.53 328.065Z" fill="#FF522C"/>
<path d="M52.4586 122.079C60.406 141.414 44.7066 136.215 50.4143 150.694C55.6187 163.892 72.8976 160.378 62.4271 182.931C60.1363 187.864 62.2318 193.111 66.5565 197.155C73.674 203.808 83.1287 204.352 90.6123 200.708C91.2201 200.415 91.8152 200.092 92.394 199.741C98.4422 196.092 102.824 189.553 102.919 181.297C102.996 174.599 101.248 167.246 94.916 161.964C80.0604 149.569 98.9629 130.931 84.9592 123.92C68.0732 115.462 70.1117 108.825 61.3625 95.0755C52.0891 80.4988 41.6871 95.8774 52.4586 122.079Z" fill="#FF522C"/>
<path d="M61.6853 117.182C61.9026 117.734 79.9148 163.558 90.6108 200.708C91.2187 200.416 91.8137 200.092 92.3925 199.741C81.6419 162.55 63.7436 117.009 63.5251 116.456C63.324 115.948 62.7499 115.699 62.242 115.899C61.7341 116.1 61.4854 116.674 61.6853 117.182Z" fill="#0059D3"/>
<path d="M29.8274 172.583C46.5879 193.594 25.3389 192.82 37.5899 208.643C48.7578 223.065 68.826 212.514 64.0062 244.121C62.9521 251.035 67.4255 256.756 74.2175 260.196C85.3959 265.851 97.2622 263.122 105.192 255.935C105.836 255.355 106.455 254.741 107.044 254.101C113.199 247.421 116.257 237.774 113.406 227.549C111.093 219.251 106.293 210.804 96.5765 206.559C73.7829 196.597 90.4178 166.795 70.61 163.173C46.7239 158.802 46.8564 149.876 31.1128 136.046C14.4255 121.386 7.11163 144.109 29.8274 172.583Z" fill="#FF522C"/>
<path d="M39.4577 163.22C39.9237 163.824 78.6318 213.918 105.191 255.934C105.835 255.354 106.454 254.741 107.041 254.1C80.4018 212.053 41.9367 162.266 41.4672 161.662C41.0372 161.107 40.2387 161.006 39.6832 161.436C39.1288 161.866 39.0277 162.665 39.4577 163.22Z" fill="#FF522C"/>
<path d="M142.874 154.292C149.627 149.668 166.537 161.073 175.38 174.922L167.536 152.945C164.696 150.483 159.727 147.028 151.958 144.275C139.878 139.993 127.771 133.287 134.537 128.654C140.875 124.314 156.168 134.101 165.332 146.775L155.258 118.554C153.384 117.111 150.532 115.361 146.456 113.916C138.844 111.218 131.213 106.992 135.477 104.072C139.176 101.539 147.715 106.641 153.545 113.752L150.279 104.606C148.785 101.948 146.662 98.1506 143.315 94.6872C135.559 86.6632 129.696 77.6361 135.677 76.3286C141.663 75.0188 151.462 90.7438 153.003 104.95L154.684 109.657C153.38 99.3233 157.094 86.8131 162.274 86.3703C167.423 85.9298 164.194 94.0329 160.01 100.942C156.826 106.201 155.947 110.374 155.711 112.533L163.647 134.764C161.628 118.396 167.511 98.655 175.709 97.9542C183.877 97.2557 178.754 110.113 172.116 121.076C167.1 129.36 165.687 135.95 165.301 139.398L174.817 166.057C173.13 149.881 178.915 130.249 186.986 130.186C193.207 130.136 191.302 138.922 183.871 151.321C178.821 159.75 177.207 167.317 176.689 171.302L181.172 183.859C180.421 184.39 179.64 184.669 178.864 184.683L177.081 179.687C174.561 177.25 169.314 173.107 160.296 169.911C148.217 165.631 136.11 158.924 142.874 154.292Z" fill="#FF522C"/>
<path d="M83.4631 340.536C76.5362 344.893 80.2798 364.944 89.4707 378.563L72.4243 362.629C71.2934 359.046 70.0987 353.11 70.6612 344.888C71.534 332.103 70.194 318.328 63.2543 322.692C56.7505 326.784 59.6526 344.707 67.6371 358.154L45.7465 337.692C45.1689 335.399 44.697 332.085 44.991 327.772C45.5419 319.713 44.697 311.032 40.3235 313.783C36.5277 316.171 37.8155 326.034 42.0227 334.211L34.9273 327.578C33.0829 325.153 30.4423 321.693 28.5955 317.245C24.315 306.939 18.3644 297.97 14.7859 302.938C11.2051 307.912 21.7383 323.154 34.1614 330.215L37.812 333.629C28.8489 328.323 15.8923 326.759 13.4273 331.337C10.9761 335.885 19.6951 336.144 27.6983 335.051C33.7895 334.219 37.9677 335.072 40.0434 335.715L57.2886 351.834C43.071 343.473 22.6182 341.025 18.7166 348.268C14.8277 355.486 28.6629 355.896 41.3602 354.163C50.9568 352.854 57.564 354.176 60.881 355.193L81.5606 374.522C67.3884 366.544 47.0749 364.049 43.8079 371.429C41.2905 377.118 50.1083 378.863 64.4409 376.974C74.1816 375.69 81.7674 377.217 85.6295 378.327L95.3702 387.432C96.1558 386.953 96.7218 386.346 97.0438 385.642L93.1677 382.017C91.9334 378.737 90.218 372.276 90.8712 362.731C91.744 349.945 90.4028 336.169 83.4631 340.536Z" fill="#FF522C"/>
<path d="M433.042 416.246H63.3442V160.87H433.042V416.246Z" fill="#FFAA01"/>
<path d="M433.032 160.881V177.252L248.194 341.08L63.3464 177.252V160.881L248.183 325.27L433.032 160.881Z" fill="#F88800"/>
<path d="M212.578 293.032L74.0531 416.246H63.3455V409.735L204.614 284.084L212.578 293.032Z" fill="#F88800"/>
<path d="M433.042 410.601V416.246H421.365L282.841 293.033L290.803 284.085L433.042 410.601Z" fill="#F88800"/>
<path d="M63.3342 160.87L248.183 325.271L433.032 160.87H63.3342Z" fill="#FDCC50"/>
<path d="M331.047 137.87L335.764 147.965L325.792 148.119L321.944 138.933L331.047 137.87Z" fill="#F9AF8B"/>
<path d="M332.624 147.334C332.624 147.334 334.672 144.583 336.299 144.7C337.926 144.818 350.474 154.794 354.774 155.618C359.073 156.442 358.674 160.821 356.874 160.821C351.693 160.821 323.1 160.87 323.1 160.87C323.1 160.87 322.236 150.641 323.33 147.592C324.423 144.541 329.262 148.056 332.624 147.334Z" fill="#FF522C"/>
<path d="M339.56 154.295C339.408 154.341 339.238 154.327 339.089 154.242C338.801 154.077 338.7 153.709 338.864 153.421C338.919 153.324 340.232 151.043 342 150.153C344.35 148.965 346.184 150.295 346.261 150.352C346.528 150.549 346.583 150.927 346.385 151.194C346.187 151.462 345.809 151.518 345.542 151.318C345.492 151.283 344.216 150.387 342.541 151.228C341.101 151.955 339.923 153.997 339.911 154.017C339.83 154.157 339.703 154.252 339.56 154.295Z" fill="white"/>
<path d="M337.766 152.599C337.614 152.645 337.444 152.631 337.295 152.546C337.006 152.381 336.905 152.014 337.068 151.724C337.124 151.628 338.438 149.348 340.205 148.457C342.558 147.268 344.388 148.598 344.466 148.655C344.733 148.854 344.789 149.231 344.59 149.499C344.392 149.765 344.015 149.821 343.747 149.622C343.698 149.586 342.42 148.69 340.746 149.532C339.3 150.261 338.128 152.3 338.117 152.321C338.035 152.46 337.909 152.556 337.766 152.599Z" fill="white"/>
<path d="M341.994 155.672C341.842 155.717 341.673 155.702 341.524 155.619C341.236 155.454 341.134 155.086 341.297 154.797C341.353 154.701 342.666 152.42 344.434 151.53C346.786 150.341 348.618 151.671 348.696 151.728C348.962 151.926 349.018 152.304 348.819 152.57C348.622 152.837 348.244 152.893 347.976 152.695C347.927 152.658 346.649 151.762 344.976 152.605C343.529 153.334 342.357 155.372 342.345 155.393C342.264 155.533 342.137 155.629 341.994 155.672Z" fill="white"/>
<path d="M333.888 141.16L329.47 142.601L327.014 142.748L322.793 142.994C317.216 138.583 302.171 125.308 299.24 117.482C299.24 117.482 279.88 162.499 253.116 162.499C251.38 162.499 255.97 140.098 260.333 135.44C260.333 135.44 285.001 89.463 300.994 94.3432C308.156 96.5294 315.401 106.956 333.888 141.16Z" fill="#181E40"/>
<path d="M329.471 142.602L327.015 142.747C310.598 130.316 302.992 119.79 299.49 113.046C299.37 112.812 299.174 112.735 299.04 112.739C298.926 112.742 298.843 112.805 298.79 112.939C290.928 131.445 281.494 142.551 274.964 148.613C267.847 155.217 262.64 157.394 262.424 157.486L262.123 156.751L261.822 156.019C261.872 155.997 267.038 153.826 273.962 147.38C280.356 141.43 289.603 130.516 297.333 112.317C297.627 111.617 298.245 111.183 298.981 111.155C299.771 111.123 300.514 111.579 300.898 112.315C304.427 119.115 312.248 129.861 329.471 142.602Z" fill="#1C2348"/>
<path d="M318.366 139.985C319.068 141.299 320.276 143.155 321.43 144.052C321.43 144.052 330.883 143.616 335.481 141.306L333.417 136.5C333.417 136.5 325.893 139.246 318.366 139.985Z" fill="#524E84"/>
<path d="M330.74 75.4518C317.297 80.927 306.552 83.6803 297.408 84.8135C297.408 84.8135 297.401 84.81 297.39 84.81C297.272 84.8135 295.12 84.9878 294.293 84.9553C291.83 84.8705 288.493 84.3114 285.116 82.7343C282.71 81.6092 279.272 78.706 275.675 75.2426C271.221 70.947 266.526 65.7913 263.278 62.1082C260.752 59.2468 259.098 57.2733 259.098 57.2733C261.341 53.9378 266.306 50.9032 270.626 49.2807C270.626 49.2807 279.643 64.2955 293.304 71.6687C294.048 72.0732 294.806 72.4486 295.576 72.7961C298.689 72.2905 307.11 71.907 310.762 71.6478C320.657 70.9435 328.737 69.2269 328.737 69.2269L330.74 75.4518Z" fill="#FF522C"/>
<path d="M328.397 68.7324C328.397 68.7324 330.268 64.0045 332.816 62.654C335.361 61.3046 342.61 56.5534 344.158 57.976C345.705 59.3974 345.384 66.2243 338.886 71.9309C334.747 75.5663 330.577 75.4129 330.577 75.4129L328.397 68.7324Z" fill="#F9AF8B"/>
<path d="M344.62 62.3186L333.921 72.3126C333.519 72.6915 332.793 72.7995 332.297 72.559L325.741 69.3884C325.537 69.2896 325.404 69.1467 325.347 68.9863L325.331 68.934L325.01 67.838L326.748 67.179L343.581 60.7856L344.494 60.4416L344.836 61.5991L344.862 61.6793C344.867 61.6886 344.869 61.6968 344.865 61.7084C344.903 61.9106 344.822 62.1314 344.62 62.3186Z" fill="#1C2348"/>
<path d="M343.581 60.785L326.749 67.1785L336.268 58.2828C336.669 57.9085 337.397 57.797 337.89 58.0352L343.581 60.785Z" fill="#1F2232"/>
<path d="M331.972 71.4475L325.411 68.2758C324.917 68.0364 324.84 67.5389 325.242 67.1647L335.941 57.1695C336.343 56.7953 337.068 56.6849 337.563 56.9243L344.123 60.096C344.617 60.3355 344.692 60.8329 344.293 61.2071L333.593 71.2023C333.192 71.5765 332.466 71.6869 331.972 71.4475Z" fill="#181E40"/>
<path d="M332.767 69.6571L327.685 67.2001C327.19 66.9607 327.115 66.4633 327.515 66.089L335.837 58.3149C336.238 57.9406 336.963 57.8302 337.458 58.0696L342.539 60.5278C343.034 60.7672 343.11 61.2634 342.709 61.6388L334.388 69.4118C333.987 69.7861 333.261 69.8965 332.767 69.6571Z" fill="#181E40"/>
<path d="M344.87 61.7051L344.865 61.7074C344.869 61.6971 344.868 61.6891 344.862 61.6799L344.87 61.7051Z" fill="#1F2232"/>
<path d="M332.633 60.2612C332.633 60.2612 334.157 60.4994 334.311 61.8092C334.467 63.1191 333.049 62.5984 332.138 62.3102C331.226 62.0219 330.405 62.3113 330.281 62.4589C329.882 62.9285 329.95 59.8741 332.633 60.2612Z" fill="#F9AF8B"/>
<path d="M339.445 67.377C339.445 67.377 341.837 63.4463 343.67 61.2997C344.891 59.8701 345.514 61.9447 344.679 63.3905C343.842 64.8363 342.194 67.7838 339.445 67.377Z" fill="#F9AF8B"/>
<path d="M228.029 138.232L222.73 104.066L222.415 102.042L222.452 100.516L223.633 52.1146L237.061 47.5761L237.78 47.3309L240.796 46.3093L243.187 45.5027L257.364 47.4552L259.673 47.7725L260.486 47.8841L270.628 49.2799C270.723 81.3667 267.644 88.2994 273.572 114.401C276.558 124.245 265.608 159.113 228.029 138.232Z" fill="#FF522C"/>
<path d="M235.579 129.492C235.579 129.492 235.58 129.492 235.581 129.492C246.198 126.527 253.945 119.199 258.573 113.573C263.578 107.489 266.122 102.018 266.148 101.963C266.27 101.697 266.154 101.382 265.888 101.26C265.621 101.138 265.306 101.254 265.183 101.521C265.159 101.574 262.66 106.941 257.735 112.922C253.207 118.422 245.637 125.582 235.295 128.47C235.014 128.548 234.849 128.841 234.927 129.123C235.006 129.405 235.298 129.569 235.579 129.492Z" fill="#FF522C"/>
<path d="M247.649 130.063C256.873 127.53 264.629 119.749 264.981 119.393C265.187 119.183 265.184 118.849 264.976 118.642C264.767 118.437 264.431 118.439 264.225 118.648C264.135 118.739 255.008 127.892 245.138 129.533C244.844 129.579 244.653 129.855 244.701 130.143C244.749 130.433 245.023 130.628 245.311 130.58C246.099 130.45 246.879 130.274 247.649 130.063Z" fill="#FF522C"/>
<path d="M241.121 61.8133C250.339 59.2587 258.075 51.4566 258.426 51.0998C258.631 50.8906 258.627 50.5536 258.419 50.349C258.21 50.1433 257.874 50.148 257.668 50.356C257.578 50.449 248.474 59.6248 238.608 61.2903C238.315 61.3367 238.124 61.6134 238.173 61.9016C238.222 62.191 238.496 62.3851 238.784 62.3363C239.571 62.2038 240.351 62.0271 241.121 61.8133Z" fill="#FF522C"/>
<path d="M322.013 226.659L325.725 234.923L318.114 238.198L313.685 229.663L322.013 226.659Z" fill="#F9AF8B"/>
<path d="M324.063 234.748C324.063 234.748 324.843 231.408 326.38 230.865C327.918 230.323 343.408 234.458 347.678 233.497C351.949 232.536 352.448 235.771 352.371 237.569C352.295 239.367 320.687 250.705 320.687 250.705C320.687 250.705 315.86 241.929 315.645 238.695C315.43 235.461 321.27 236.753 324.063 234.748Z" fill="#FF522C"/>
<path d="M333.203 238.36C333.082 238.464 332.921 238.518 332.75 238.5C332.418 238.464 332.18 238.167 332.215 237.837C332.227 237.727 332.52 235.112 333.785 233.59C335.466 231.561 337.678 232.048 337.772 232.07C338.095 232.145 338.297 232.469 338.221 232.792C338.147 233.116 337.823 233.318 337.499 233.243C337.439 233.23 335.91 232.917 334.712 234.36C333.681 235.6 333.416 237.943 333.413 237.966C333.396 238.127 333.317 238.265 333.203 238.36Z" fill="white"/>
<path d="M330.88 237.523C330.759 237.626 330.597 237.68 330.426 237.662C330.096 237.627 329.857 237.329 329.892 236.999C329.903 236.888 330.197 234.273 331.462 232.751C333.144 230.721 335.354 231.209 335.448 231.231C335.772 231.306 335.974 231.63 335.897 231.954C335.824 232.277 335.5 232.479 335.175 232.404C335.115 232.391 333.585 232.078 332.388 233.521C331.353 234.767 331.092 237.104 331.09 237.127C331.073 237.288 330.995 237.426 330.88 237.523Z" fill="white"/>
<path d="M335.982 238.65C335.861 238.754 335.701 238.808 335.529 238.79C335.199 238.754 334.959 238.457 334.994 238.127C335.007 238.016 335.3 235.401 336.565 233.879C338.246 231.849 340.458 232.336 340.551 232.359C340.875 232.433 341.076 232.758 341.001 233.081C340.926 233.404 340.603 233.607 340.278 233.532C340.219 233.519 338.688 233.206 337.491 234.649C336.456 235.893 336.196 238.232 336.194 238.255C336.175 238.415 336.097 238.554 335.982 238.65Z" fill="white"/>
<path d="M323.931 228.262C323.142 229.158 320.706 230.518 318.049 231.707C317.568 231.924 317.075 232.134 316.587 232.337C315.723 232.692 314.868 233.015 314.064 233.291C314.064 233.291 296.005 200.006 289.074 175.867C289.074 175.867 227.947 168.32 225.831 146.912C225.757 146.196 225.754 145.464 225.82 144.712C226.001 142.671 226.708 140.516 228.03 138.236C229.424 135.833 250.344 138.175 261.648 141.347C261.648 141.347 292.29 153.284 303.619 165.582C309.354 171.805 323.931 228.262 323.931 228.262Z" fill="#181E40"/>
<path d="M318.049 231.706C317.568 231.924 317.074 232.134 316.586 232.336C307.453 217.221 294.772 181.907 291.945 173.431C291.755 172.858 291.263 172.43 290.663 172.315C260.963 166.732 243.852 158.944 234.726 153.392C230.704 150.945 227.833 148.714 225.83 146.911C225.757 146.195 225.754 145.463 225.821 144.711C227.763 146.61 230.901 149.228 235.73 152.146C244.738 157.593 261.632 165.245 290.955 170.76C292.122 170.979 293.077 171.812 293.45 172.93C296.277 181.413 309.01 216.886 318.049 231.706Z" fill="#1C2348"/>
<path d="M310.802 229.804L313.685 234.416C313.685 234.416 320.867 233.174 325.727 228.263L323.931 224.143C323.931 224.143 315.196 228.449 310.802 229.804Z" fill="#524E84"/>
<path d="M213.514 150.869C213.514 150.869 217.675 156.51 217.331 159.429C216.988 162.347 213.221 167.847 210.21 168.112C207.198 168.377 213.67 161.045 212.142 161.282C210.293 161.568 197.818 171.804 195.185 171.804C192.552 171.804 198.283 167.046 200.515 165.845C200.515 165.845 194.612 168.484 193.239 169.858C191.866 171.231 190.868 168.285 197.735 164.107C197.735 164.107 191.436 167.683 191.007 167.74C189.606 167.927 193.604 163.24 197.046 161.545C197.046 161.545 191.996 164.004 191.483 164.015C190.772 164.03 192.296 162.376 196.043 160.3C199.416 158.431 204.94 149.85 204.94 149.85L213.514 150.869Z" fill="#F9AF8B"/>
<path d="M223.632 52.1162C223.632 52.1162 209.631 79.009 206.442 107.137L204.94 149.85C204.94 149.85 206.379 152.894 213.514 150.87L220.415 108.163L225.703 88.6218C225.703 88.6218 228.107 64.5741 223.632 52.1162Z" fill="#FF522C"/>
<path d="M266.635 23.0385C265.148 31.4519 257.121 37.0678 248.707 35.5801C240.293 34.0925 234.678 26.0661 236.166 17.6527C237.653 9.2382 245.68 3.62347 254.093 5.11113C262.508 6.59762 268.122 14.6251 266.635 23.0385Z" fill="#181E40"/>
<path d="M266.869 20.2626C266.869 20.2626 271.394 19.8337 271.565 15.5463C271.71 11.8969 267.116 13.4671 267.976 10.7474C268.836 8.02666 270.102 5.63945 266.622 4.30637C263.578 3.13949 263.144 5.29078 259.559 1.42521C255.324 -3.14119 250.052 4.76661 245.644 4.25407C239.14 3.49513 237.685 6.99228 236.537 9.79209C235.39 12.5919 237.505 15.0721 237.505 15.0721L266.869 20.2626Z" fill="#181E40"/>
<path d="M243.22 38.4642L241.839 46.2791C241.839 46.2791 244.443 50.2911 247.547 51.1197C250.646 51.9507 253.223 48.5489 253.223 48.5489L254.552 41.0339L243.22 38.4642Z" fill="#F9AF8B"/>
<path d="M243.219 38.4644L242.606 41.9313C244.306 44.6533 247.959 45.9027 253.662 46.0654L254.551 41.0341L243.219 38.4644Z" fill="#FC8664"/>
<path d="M238.528 16.9378C238.137 20.0002 237.754 23.8495 237.797 26.9876C237.808 27.7709 237.845 28.5124 237.915 29.1842C238.541 35.2324 240.909 45.8354 253.153 43.7574C258.559 42.8415 261.918 37.5917 263.988 32.0165C265.392 28.2288 266.199 24.2947 266.646 21.46C267.101 18.5649 265.992 15.6512 263.734 13.7858C257.617 8.73011 250.19 8.89864 245.147 9.87956C241.647 10.5595 238.98 13.4069 238.528 16.9378Z" fill="#F9AF8B"/>
<path d="M263.266 29.3928C263.817 27.9121 264.443 25.9839 264.421 24.9356C264.377 23.0795 263.078 21.7627 263.878 20.1217C264.68 18.4736 263.181 16.2933 261.889 15.747C260.601 15.1985 257.339 15.3124 254.504 13.2959C251.798 11.3701 246.487 11.4665 245.315 13.2145C243.896 15.3298 245.236 15.79 242.034 17.7833C240.759 18.5782 241.611 21.378 241.502 23.0819C241.45 23.8664 241.396 24.2429 241.22 25.0635L241.135 25.4807L237.827 24.8961C237.921 22.2404 238.218 19.3464 238.527 16.936C238.978 13.4051 241.647 10.56 245.147 9.8801C250.191 8.89918 257.615 8.72833 263.734 13.7852C265.991 15.6529 267.101 18.5654 266.645 21.4594C266.291 23.7071 265.71 26.6487 264.782 29.6601L263.266 29.3928Z" fill="#181E40"/>
<path d="M164.212 340.169H72.2041C73.7255 330.939 81.0463 324.232 89.5806 324.26L118.207 324.344L146.837 324.26C155.37 324.232 162.692 330.939 164.212 340.169Z" fill="white"/>
<path d="M84.4541 424.632H79.4414V338.848H84.4541V424.632Z" fill="white"/>
<path d="M156.975 424.632H151.962V338.848H156.975V424.632Z" fill="white"/>
<path d="M151.962 367.719H84.4553V362.885H151.962V367.719Z" fill="#DCEDF9"/>
<path d="M95.682 224.691C95.682 224.691 80.3162 245.184 78.2718 263.056C76.8272 275.678 95.682 294.541 95.682 294.541L102.177 291.307L95.7029 276.71C93.3982 269.6 90.5624 266.79 92.6567 259.616L97.3463 249.505L95.682 224.691Z" fill="#FF522C"/>
<path d="M144.104 224.382C144.104 224.382 159.271 246.233 160.526 264.178C161.611 279.649 143.043 294.54 143.043 294.54L137.681 291.87L145.107 277.121C147.41 270.012 148.506 265.724 145.365 257.989L141.38 249.504L144.104 224.382Z" fill="#FF522C"/>
<path d="M98.8122 271.36L88.6265 303.762C88.6265 303.762 132.725 309.387 146.211 305.747L139.361 270.457L144.103 224.381C137.504 221.6 130.507 219.823 123.363 219.308C112.934 218.553 106.347 220.275 95.6824 224.69L98.8122 271.36Z" fill="#FF522C"/>
<path d="M109.837 234.46C119.566 233.32 128.617 226.639 129.029 226.331C129.268 226.152 129.318 225.811 129.138 225.572C128.959 225.331 128.618 225.282 128.379 225.46C128.272 225.539 117.62 233.397 107.376 233.536C107.072 233.538 106.836 233.787 106.84 234.087C106.844 234.387 107.091 234.628 107.391 234.623C108.208 234.611 109.024 234.555 109.837 234.46Z" fill="#FF522C"/>
<path d="M117.675 408.057L118.47 415.21L126.079 415.385L126.717 409.448L117.675 408.057Z" fill="#F9AF8B"/>
<path d="M116.482 294.627C116.482 294.627 96.7771 293.544 90.1036 299.006C83.4301 304.466 84.7713 320.135 91.5703 324.414C98.3705 328.692 109.959 337.099 109.959 337.099L117.331 410.39L127.073 410.72C127.073 410.72 136.049 337.099 131.498 322.839C126.947 308.582 116.482 294.627 116.482 294.627Z" fill="#1C2348"/>
<path d="M127.971 407.084C128.501 408.796 128.249 410.455 127.72 412.103L116.511 411.854C116.116 410.221 116.057 408.582 116.294 406.938L127.971 407.084Z" fill="#181E40"/>
<path d="M144.365 294.073H92.6576L87.8785 266.129C87.4647 263.709 89.329 261.5 91.7847 261.5H145.238C147.693 261.5 149.557 263.709 149.143 266.129L144.365 294.073Z" fill="white"/>
<path d="M140.208 300.15H96.8659C94.5414 300.15 92.6575 298.266 92.6575 295.941V294.072H144.416V295.941C144.416 298.266 142.532 300.15 140.208 300.15Z" fill="#DCEDF9"/>
<path d="M123.118 278.938C123.118 281.42 121.107 283.429 118.627 283.429C116.147 283.429 114.135 281.42 114.135 278.938C114.135 276.458 116.147 274.447 118.627 274.447C121.107 274.447 123.118 276.458 123.118 278.938Z" fill="#DCEDF9"/>
<path d="M85.3563 387.934L83.6699 395.016L90.498 396.364L93.2792 390.042L85.3563 387.934Z" fill="#F9AF8B"/>
<path d="M126.492 293.414C126.492 293.414 113.296 288.863 105.56 298.42C97.8234 307.974 84.8704 388.642 84.8704 388.642L93.7509 392.307L122.298 320.666C122.298 320.666 145.544 333.933 148.359 315.073C150.589 300.15 126.492 293.414 126.492 293.414Z" fill="#181E40"/>
<path d="M95.7632 388.609C95.7307 390.459 94.9485 392.005 93.8978 393.452L82.9822 389.593C83.1216 387.863 83.5912 386.237 84.3548 384.7L95.7632 388.609Z" fill="#524E84"/>
<path d="M88.8798 393.85C88.8798 393.85 84.7411 391.75 83.5231 391.51C82.3039 391.27 72.2436 398.408 69.3927 398.338C64.2243 398.213 62.5693 405.802 65.5074 406.835C74.0044 409.822 89.7317 409.453 89.7317 409.453C89.7317 409.453 93.2242 400.011 93.2904 396.824C93.3567 393.637 91.1252 395.278 88.8798 393.85Z" fill="#FF522C"/>
<path d="M79.8416 400.596C79.9892 400.663 80.1647 400.672 80.3274 400.611C80.6447 400.487 80.7981 400.135 80.6714 399.824C80.6295 399.719 79.6103 397.253 77.9355 396.109C75.7087 394.582 73.6585 395.642 73.5713 395.689C73.2726 395.847 73.1634 396.215 73.3284 396.51C73.4923 396.806 73.8677 396.916 74.1676 396.757C74.2245 396.729 75.6482 396.019 77.2347 397.103C78.5991 398.036 79.515 400.245 79.5231 400.267C79.5859 400.418 79.7021 400.532 79.8416 400.596Z" fill="white"/>
<path d="M81.9048 399.164C82.0524 399.231 82.2279 399.24 82.3906 399.179C82.7079 399.056 82.8625 398.703 82.7346 398.392C82.6928 398.287 81.6735 395.821 79.9999 394.676C77.7707 393.149 75.7217 394.209 75.6346 394.256C75.3359 394.415 75.2266 394.782 75.3917 395.078C75.5555 395.374 75.9321 395.484 76.232 395.324C76.2877 395.296 77.7126 394.587 79.2979 395.67C80.6682 396.608 81.577 398.811 81.5863 398.835C81.6479 398.986 81.7653 399.1 81.9048 399.164Z" fill="white"/>
<path d="M77.1738 401.615C77.3226 401.683 77.4969 401.693 77.6596 401.631C77.9769 401.508 78.1315 401.156 78.0037 400.843C77.9618 400.738 76.9425 398.273 75.2678 397.128C73.0398 395.6 70.9908 396.661 70.9036 396.708C70.6049 396.867 70.4957 397.234 70.6607 397.529C70.8246 397.825 71.2011 397.936 71.501 397.776C71.5568 397.748 72.9817 397.038 74.567 398.122C75.9372 399.06 76.8472 401.264 76.8554 401.286C76.917 401.438 77.0344 401.551 77.1738 401.615Z" fill="white"/>
<path d="M121.405 414.912C121.405 414.912 125.641 413.628 126.825 413.603C128.009 413.58 136.273 421.955 138.963 422.362C143.839 423.102 144.133 430.505 141.202 430.988C132.725 432.384 118.015 429.425 118.015 429.425C118.015 429.425 116.302 419.977 116.769 416.972C117.236 413.968 119.059 415.881 121.405 414.912Z" fill="#FF522C"/>
<path d="M128.775 422.746C128.625 422.784 128.459 422.766 128.315 422.68C128.038 422.512 127.952 422.156 128.123 421.884C128.181 421.793 129.547 419.646 131.31 418.848C133.654 417.784 135.406 419.121 135.479 419.179C135.733 419.378 135.774 419.742 135.571 419.992C135.368 420.241 134.996 420.282 134.741 420.083C134.693 420.047 133.474 419.144 131.803 419.9C130.367 420.548 129.14 422.472 129.128 422.49C129.045 422.623 128.917 422.71 128.775 422.746Z" fill="white"/>
<path d="M127.075 421.059C126.925 421.097 126.759 421.08 126.615 420.993C126.338 420.825 126.252 420.469 126.423 420.197C126.48 420.106 127.847 417.958 129.609 417.161C131.956 416.096 133.704 417.433 133.779 417.491C134.033 417.69 134.074 418.053 133.871 418.303C133.667 418.554 133.295 418.595 133.041 418.395C132.993 418.36 131.773 417.456 130.103 418.212C128.66 418.864 127.44 420.784 127.428 420.802C127.345 420.936 127.217 421.023 127.075 421.059Z" fill="white"/>
<path d="M131.111 424.148C130.961 424.186 130.795 424.168 130.652 424.08C130.374 423.913 130.288 423.556 130.459 423.284C130.517 423.194 131.883 421.047 133.646 420.25C135.992 419.184 137.742 420.522 137.815 420.579C138.069 420.779 138.11 421.142 137.907 421.392C137.704 421.642 137.333 421.683 137.077 421.483C137.029 421.448 135.809 420.545 134.139 421.299C132.696 421.952 131.476 423.872 131.464 423.891C131.381 424.024 131.253 424.111 131.111 424.148Z" fill="white"/>
<path d="M132.909 178.475C132.909 178.475 139.18 188.188 138.492 198.305C137.805 208.422 139.417 220.102 130.363 219.589C121.311 219.074 105.163 223.219 100.03 215.338C94.8979 207.458 132.909 178.475 132.909 178.475Z" fill="#181E40"/>
<path d="M135.232 196.334C135.232 196.334 136.859 210.999 129.901 215.037C122.943 219.075 117.906 214.568 117.906 214.568C117.906 214.568 132.574 194.126 135.232 196.334Z" fill="#000B29"/>
<path d="M106.326 196.266C106.326 196.266 103.828 192.935 101.969 195.689C100.112 198.445 102.739 206.581 107.288 204.595L106.326 196.266Z" fill="#FC8664"/>
<path d="M106.295 202.081C106.127 202.081 105.972 201.97 105.926 201.8C105.22 199.289 102.617 198.27 102.591 198.26C102.394 198.184 102.294 197.962 102.369 197.765C102.444 197.566 102.666 197.466 102.863 197.542C102.985 197.587 105.854 198.7 106.665 201.593C106.723 201.798 106.603 202.009 106.399 202.067C106.364 202.077 106.329 202.081 106.295 202.081Z" fill="#FD664D"/>
<path d="M103.667 200.816C103.597 200.816 103.524 200.796 103.459 200.754C103.282 200.639 103.23 200.402 103.344 200.223C103.364 200.194 103.824 199.491 104.788 199.061C104.981 198.973 105.209 199.061 105.296 199.254C105.382 199.448 105.296 199.675 105.102 199.761C104.357 200.095 103.994 200.634 103.991 200.639C103.917 200.754 103.794 200.816 103.667 200.816Z" fill="#FD664D"/>
<path d="M132.078 196.266C132.078 196.266 134.576 192.935 136.435 195.689C138.292 198.445 135.665 206.581 131.116 204.595L132.078 196.266Z" fill="#FC8664"/>
<path d="M132.11 202.081C132.279 202.081 132.433 201.97 132.48 201.8C133.185 199.289 135.789 198.27 135.814 198.26C136.012 198.184 136.112 197.962 136.036 197.765C135.962 197.566 135.74 197.466 135.542 197.542C135.42 197.587 132.552 198.7 131.741 201.593C131.682 201.798 131.802 202.009 132.007 202.067C132.042 202.077 132.076 202.081 132.11 202.081Z" fill="#FD664D"/>
<path d="M134.737 200.816C134.808 200.816 134.881 200.796 134.945 200.754C135.124 200.639 135.174 200.402 135.06 200.223C135.04 200.194 134.58 199.491 133.616 199.061C133.423 198.973 133.196 199.061 133.109 199.254C133.023 199.448 133.109 199.675 133.303 199.761C134.048 200.095 134.41 200.634 134.414 200.639C134.487 200.754 134.61 200.816 134.737 200.816Z" fill="#FD664D"/>
<path d="M125.353 211.496V219.588C125.353 219.588 122.94 223.709 119.677 223.99C116.416 224.275 113.519 220.442 113.519 220.442V212.066L125.353 211.496Z" fill="#F9AF8B"/>
<path d="M125.353 211.497V215.087C123.163 217.517 119.276 218.378 113.52 217.529L113.519 212.067L125.353 211.497Z" fill="#FC8664"/>
<path d="M133.884 190.716C133.734 193.861 133.434 197.792 132.834 200.936C132.684 201.721 132.516 202.459 132.328 203.12C130.624 209.082 126.365 219.309 114.441 215.049C109.174 213.169 106.733 207.303 105.645 201.337C104.907 197.285 104.796 193.191 104.85 190.266C104.907 187.279 106.538 184.55 109.137 183.077C116.175 179.088 123.602 180.575 128.491 182.455C131.885 183.757 134.057 187.091 133.884 190.716Z" fill="#F9AF8B"/>
<path d="M135.433 190.09C135.31 190.439 134.967 190.664 134.508 190.799C134.54 191.646 134.452 192.666 134.368 193.644C133.894 199.199 132.493 200.175 132.175 198.802C131.967 197.888 131.979 192.656 132.08 190.951C130.982 190.878 130.044 190.695 130.044 190.695L128.755 185.301L128.304 190.628C126.371 191.301 121.862 190.223 121.862 190.223L120.348 184.907L119.413 190.022C116.513 191.434 112.89 190.494 112.89 190.494L112.057 184.977L110.135 190.494C110.135 190.494 103.949 192.713 103.883 190.494C103.841 189.203 104.787 185.566 105.586 182.75C106.458 179.677 108.475 177.082 111.204 175.619C118.877 171.5 126.989 173.691 129.773 175.353C135.675 178.876 135.433 190.09 135.433 190.09Z" fill="#181E40"/>
<path d="M107.288 178.885C107.288 178.885 102.197 184.941 100.521 195.758C98.846 206.575 96.5262 214.566 103.044 218.138C110.099 222.004 109.489 214.075 109.386 211.921C109.284 209.766 103.283 203.876 107.288 187.288C108.581 181.933 107.288 178.885 107.288 178.885Z" fill="#181E40"/>
<path d="M106.099 201.237V201.25C106.101 201.33 106.106 201.76 106.137 202.433C106.153 202.85 106.178 203.358 106.218 203.936C106.457 207.579 107.166 213.873 109.248 216.056C110.07 216.919 111.656 217.353 113.521 217.528V214.664C111.555 213.731 110.022 212.198 108.834 210.312C108.099 208.721 106.834 206.231 106.241 202.317L106.099 201.237Z" fill="#000B29"/>
<path d="M133.976 204.778C133.976 205.275 133.573 205.678 133.076 205.678C132.578 205.678 132.175 205.275 132.175 204.778C132.175 204.28 132.578 203.877 133.076 203.877C133.573 203.877 133.976 204.28 133.976 204.778Z" fill="white"/>
<path d="M502.401 147.144C504.786 147.144 506.727 145.205 506.727 142.819C506.727 140.434 504.786 138.494 502.401 138.494C500.017 138.494 498.076 140.434 498.076 142.819C498.076 145.205 500.017 147.144 502.401 147.144ZM502.401 136.517C505.876 136.517 508.704 139.344 508.704 142.819C508.704 146.295 505.876 149.121 502.401 149.121C498.926 149.121 496.099 146.295 496.099 142.819C496.099 139.344 498.926 136.517 502.401 136.517Z" fill="#FF522C"/>
<path d="M479.714 125.033C482.099 125.033 484.039 123.094 484.039 120.708C484.039 118.324 482.099 116.383 479.714 116.383C477.328 116.383 475.388 118.324 475.388 120.708C475.388 123.094 477.328 125.033 479.714 125.033ZM479.714 114.406C483.188 114.406 486.016 117.234 486.016 120.708C486.016 124.184 483.188 127.01 479.714 127.01C476.239 127.01 473.411 124.184 473.411 120.708C473.411 117.234 476.239 114.406 479.714 114.406Z" fill="#FFAA01"/>
<path d="M471.928 93.9274C472.475 93.9274 472.917 94.3702 472.917 94.9164V99.276C472.917 99.8222 472.475 100.265 471.928 100.265C471.382 100.265 470.939 99.8222 470.939 99.276V94.9164C470.939 94.3702 471.382 93.9274 471.928 93.9274Z" fill="#FF522C"/>
<path d="M471.928 86.2973C472.475 86.2973 472.917 86.7402 472.917 87.2864V91.6459C472.917 92.191 472.475 92.6338 471.928 92.6338C471.382 92.6338 470.939 92.191 470.939 91.6459V87.2864C470.939 86.7402 471.382 86.2973 471.928 86.2973Z" fill="#FF522C"/>
<path d="M465.809 92.2923H469.724C470.27 92.2923 470.713 92.7339 470.713 93.2813C470.713 93.8264 470.27 94.2692 469.724 94.2692H465.809C465.262 94.2692 464.82 93.8264 464.82 93.2813C464.82 92.7339 465.262 92.2923 465.809 92.2923Z" fill="#FF522C"/>
<path d="M474.131 92.2923H478.047C478.594 92.2923 479.036 92.7339 479.036 93.2813C479.036 93.8264 478.594 94.2692 478.047 94.2692H474.131C473.584 94.2692 473.142 93.8264 473.142 93.2813C473.142 92.7339 473.584 92.2923 474.131 92.2923Z" fill="#FF522C"/>
<path d="M506.728 118.356C507.274 118.356 507.717 118.799 507.717 119.345V123.704C507.717 124.249 507.274 124.692 506.728 124.692C506.182 124.692 505.739 124.249 505.739 123.704V119.345C505.739 118.799 506.182 118.356 506.728 118.356Z" fill="#FFAA01"/>
<path d="M506.728 110.727C507.274 110.727 507.717 111.169 507.717 111.716V116.075C507.717 116.62 507.274 117.063 506.728 117.063C506.182 117.063 505.739 116.62 505.739 116.075V111.716C505.739 111.169 506.182 110.727 506.728 110.727Z" fill="#FFAA01"/>
<path d="M500.608 116.72H504.525C505.071 116.72 505.514 117.163 505.514 117.71C505.514 118.255 505.071 118.697 504.525 118.697H500.608C500.062 118.697 499.619 118.255 499.619 117.71C499.619 117.163 500.062 116.72 500.608 116.72Z" fill="#FFAA01"/>
<path d="M508.93 116.72H512.846C513.392 116.72 513.835 117.163 513.835 117.71C513.835 118.255 513.392 118.697 512.846 118.697H508.93C508.384 118.697 507.941 118.255 507.941 117.71C507.941 117.163 508.384 116.72 508.93 116.72Z" fill="#FFAA01"/>
<path d="M112.115 58.0193C109.73 58.0193 107.79 59.959 107.79 62.3451C107.79 64.7288 109.73 66.6697 112.115 66.6697C114.5 66.6697 116.44 64.7288 116.44 62.3451C116.44 59.959 114.5 58.0193 112.115 58.0193ZM112.115 56.0423C115.59 56.0423 118.417 58.8689 118.417 62.3451C118.417 65.819 115.59 68.6467 112.115 68.6467C108.64 68.6467 105.812 65.819 105.812 62.3451C105.812 58.8689 108.64 56.0423 112.115 56.0423Z" fill="#FF522C"/>
<path d="M89.1621 37.2012C86.7772 37.2012 84.8363 39.141 84.8363 41.5259C84.8363 43.9108 86.7772 45.8517 89.1621 45.8517C91.547 45.8517 93.4868 43.9108 93.4868 41.5259C93.4868 39.141 91.547 37.2012 89.1621 37.2012ZM89.1621 35.2243C92.6372 35.2243 95.4637 38.0508 95.4637 41.5259C95.4637 45.0009 92.6372 47.8286 89.1621 47.8286C85.6871 47.8286 82.8594 45.0009 82.8594 41.5259C82.8594 38.0508 85.6871 35.2243 89.1621 35.2243Z" fill="#FFAA01"/>
<path d="M80.8474 71.2498C80.8474 71.7949 81.2891 72.2377 81.8365 72.2377H86.196C86.7411 72.2377 87.1839 71.7949 87.1839 71.2498C87.1839 70.7036 86.7411 70.2608 86.196 70.2608H81.8365C81.2891 70.2608 80.8474 70.7036 80.8474 71.2498Z" fill="#FF522C"/>
<path d="M73.2192 71.2498C73.2192 71.7949 73.662 72.2377 74.2083 72.2377H78.5678C79.1129 72.2377 79.5557 71.7949 79.5557 71.2498C79.5557 70.7036 79.1129 70.2608 78.5678 70.2608H74.2083C73.662 70.2608 73.2192 70.7036 73.2192 71.2498Z" fill="#FF522C"/>
<path d="M79.2129 65.1288V69.0455C79.2129 69.5905 79.6545 70.0334 80.2019 70.0334C80.747 70.0334 81.1898 69.5905 81.1898 69.0455V65.1288C81.1898 64.5837 80.747 64.1397 80.2019 64.1397C79.6545 64.1397 79.2129 64.5837 79.2129 65.1288Z" fill="#FF522C"/>
<path d="M79.2129 73.4528V77.3695C79.2129 77.9146 79.6545 78.3574 80.2019 78.3574C80.747 78.3574 81.1898 77.9146 81.1898 77.3695V73.4528C81.1898 72.9065 80.747 72.4637 80.2019 72.4637C79.6545 72.4637 79.2129 72.9065 79.2129 73.4528Z" fill="#FF522C"/>
<path d="M127.013 37.2014C127.013 37.7477 127.456 38.1905 128.002 38.1905H132.362C132.907 38.1905 133.349 37.7477 133.349 37.2014C133.349 36.6552 132.907 36.2124 132.362 36.2124H128.002C127.456 36.2124 127.013 36.6552 127.013 37.2014Z" fill="#FFAA01"/>
<path d="M119.384 37.2014C119.384 37.7477 119.827 38.1905 120.373 38.1905H124.732C125.277 38.1905 125.72 37.7477 125.72 37.2014C125.72 36.6552 125.277 36.2124 124.732 36.2124H120.373C119.827 36.2124 119.384 36.6552 119.384 37.2014Z" fill="#FFAA01"/>
<path d="M125.377 31.0825V34.9993C125.377 35.5443 125.82 35.9872 126.366 35.9872C126.912 35.9872 127.354 35.5443 127.354 34.9993V31.0825C127.354 30.5363 126.912 30.0935 126.366 30.0935C125.82 30.0935 125.377 30.5363 125.377 31.0825Z" fill="#FFAA01"/>
<path d="M125.377 39.4045V43.3212C125.377 43.8663 125.82 44.3091 126.366 44.3091C126.912 44.3091 127.354 43.8663 127.354 43.3212V39.4045C127.354 38.8583 126.912 38.4155 126.366 38.4155C125.82 38.4155 125.377 38.8583 125.377 39.4045Z" fill="#FFAA01"/>
<path d="M389.804 67.6269C389.937 67.6583 390.078 67.6595 390.219 67.6258C391.717 67.2573 392.584 67.1086 392.591 67.1063C393.045 67.0295 393.345 66.6228 393.264 66.1974C393.181 65.772 392.748 65.4896 392.296 65.5663C392.257 65.5721 391.364 65.7255 389.797 66.1102C389.351 66.2206 389.085 66.6483 389.201 67.0667C389.282 67.3526 389.519 67.5595 389.804 67.6269Z" fill="#DCEDF9"/>
<path d="M341.366 103.502C340.589 104.832 339.841 106.21 339.142 107.6C338.968 107.944 338.563 108.115 338.184 108.026C338.133 108.013 338.081 107.995 338.031 107.973C337.615 107.789 337.438 107.323 337.634 106.932C338.346 105.513 339.111 104.107 339.904 102.749C340.125 102.37 340.629 102.232 341.036 102.439C341.439 102.647 341.587 103.123 341.366 103.502Z" fill="#DCEDF9"/>
<path d="M337.181 111.816C336.579 113.22 336.007 114.673 335.482 116.132C335.341 116.523 334.907 116.74 334.488 116.642C334.467 116.636 334.445 116.631 334.424 116.624C333.988 116.486 333.755 116.041 333.902 115.632C334.438 114.144 335.022 112.663 335.634 111.233C335.805 110.83 336.292 110.636 336.72 110.798C337.146 110.959 337.352 111.415 337.181 111.816Z" fill="#DCEDF9"/>
<path d="M330.111 134.746C329.707 134.649 329.436 134.284 329.489 133.887C329.702 132.329 329.953 130.771 330.236 129.255C330.316 128.83 330.748 128.545 331.201 128.619C331.662 128.696 331.959 129.099 331.879 129.525C331.601 131.017 331.354 132.552 331.144 134.087C331.085 134.515 330.668 134.818 330.211 134.763C330.177 134.76 330.144 134.753 330.111 134.746Z" fill="#DCEDF9"/>
<path d="M333.459 119.568C333.903 119.684 334.161 120.117 334.038 120.533C333.834 121.22 333.636 121.916 333.453 122.6C333.24 123.391 333.033 124.198 332.841 125.003C332.74 125.425 332.294 125.69 331.844 125.594C331.837 125.593 331.83 125.591 331.822 125.59C331.386 125.485 331.114 125.074 331.213 124.659C331.409 123.842 331.619 123.02 331.836 122.217C332.024 121.519 332.224 120.812 332.432 120.112C332.554 119.702 333.002 119.459 333.439 119.563C333.446 119.565 333.453 119.567 333.459 119.568Z" fill="#DCEDF9"/>
<path d="M343.852 99.541C343.654 99.8339 343.283 99.9629 342.943 99.8815C342.859 99.8618 342.778 99.8304 342.702 99.7839C342.313 99.5526 342.196 99.0691 342.442 98.7042C343.332 97.3839 344.275 96.0752 345.248 94.8154C345.518 94.4656 346.039 94.3865 346.412 94.6411C346.785 94.8944 346.869 95.3837 346.598 95.7347C345.646 96.9678 344.722 98.2486 343.852 99.541Z" fill="#DCEDF9"/>
<path d="M385.54 68.9581C384.019 69.4462 382.474 69.9936 380.952 70.584C380.778 70.6514 380.597 70.6596 380.43 70.6189C380.182 70.5608 379.967 70.3969 379.863 70.1587C379.687 69.7589 379.889 69.3009 380.315 69.1371C381.87 68.5339 383.447 67.9748 385.001 67.4762C385.437 67.3368 385.911 67.5553 386.06 67.9644C386.208 68.3735 385.977 68.8174 385.54 68.9581Z" fill="#DCEDF9"/>
<path d="M372.121 74.5917C371.927 74.6928 371.709 74.7138 371.51 74.6673C371.296 74.6161 371.103 74.486 370.985 74.2896C370.762 73.9118 370.905 73.4353 371.308 73.225C372.759 72.4649 374.252 71.735 375.747 71.0562C376.162 70.8691 376.659 71.0318 376.86 71.42C377.061 71.8094 376.887 72.2777 376.472 72.466C375.007 73.132 373.543 73.8467 372.121 74.5917Z" fill="#DCEDF9"/>
<path d="M356.306 85.4034C356.09 85.5929 355.797 85.6545 355.531 85.5906C355.381 85.5557 355.24 85.4801 355.127 85.3674C354.813 85.0513 354.829 84.5562 355.167 84.261C356.377 83.1964 357.64 82.1527 358.923 81.159C359.279 80.8824 359.804 80.93 360.098 81.2636C360.391 81.5971 360.341 82.0899 359.986 82.3654C358.729 83.3393 357.491 84.3621 356.306 85.4034Z" fill="#DCEDF9"/>
<path d="M363.86 79.5466C363.652 79.6896 363.396 79.7279 363.164 79.6722C362.982 79.6292 362.815 79.528 362.695 79.3746C362.425 79.0248 362.507 78.5343 362.879 78.281C364.218 77.3675 365.608 76.476 367.014 75.6346C367.402 75.401 367.917 75.5079 368.165 75.8728C368.414 76.2366 368.3 76.7213 367.911 76.9537C366.534 77.7789 365.171 78.6517 363.86 79.5466Z" fill="#DCEDF9"/>
<path d="M349.597 92.0998C349.384 92.3404 349.05 92.4322 348.749 92.3602C348.633 92.3323 348.52 92.28 348.422 92.2044C348.068 91.929 348.018 91.435 348.312 91.1026C349.37 89.8997 350.485 88.7154 351.621 87.5788C351.937 87.2638 352.465 87.2487 352.801 87.5451C353.137 87.8414 353.153 88.3365 352.837 88.6515C351.724 89.7637 350.633 90.9237 349.597 92.0998Z" fill="#DCEDF9"/>
<path d="M390.633 62.3287L388.948 49.2803L433.152 55.6215L390.633 62.3287Z" fill="#FF522C"/>
<path d="M433.152 55.6191L392.316 65.6503L392.208 65.6782L390.156 68.0294L390.633 62.3287L433.152 55.6191Z" fill="#FF522C"/>
<path d="M390.156 68.0294L393.827 67.9829L392.209 65.6782L390.156 68.0294Z" fill="#0059D3"/>
<path d="M397.347 64.4144L392.208 65.6766L400.568 77.5789L433.153 55.6198L397.347 64.4144Z" fill="#FF522C"/>
</svg>
