<svg width="363" height="245" viewBox="0 0 363 245" fill="none" xmlns="http://www.w3.org/2000/svg">
<path d="M111.34 2.55298C111.34 2.55298 86.9185 -6.56309 71.6977 11.326C62.9372 21.5693 6.99702 128.316 7.68221 137.628C8.36739 146.989 13.702 151.645 13.702 151.645C13.702 151.645 11.3528 143.46 13.1147 139.196C13.1147 139.196 11.9891 153.605 20.8475 159.732C25.448 162.917 140.558 156.693 150.591 142.725C172.322 112.387 124.848 96.6544 126.023 63.8659C126.659 44.8496 145.355 4.46442 111.34 2.55298Z" fill="#2C3A64"/>
<path d="M134.588 70.5317L132.972 70.8748C125.68 72.3451 118.535 67.591 117.067 60.2884L115.354 51.7114C113.885 44.4088 118.633 37.2532 125.925 35.7828L127.54 35.4397C134.832 33.9694 141.978 38.7235 143.446 46.0261L145.159 54.6031C146.627 61.9058 141.88 69.0614 134.588 70.5317Z" fill="#ED7D2B"/>
<path d="M239.029 244.766H162.68C149.711 224.181 138.356 196.343 135.664 174.729C134.392 164.437 135.126 155.566 138.552 149.488C149.221 130.619 132.287 108.466 132.287 108.466C132.287 108.466 155.584 115.082 161.016 134.295C166.546 153.899 181.327 219.084 181.327 219.084L238.05 230.749C240.693 237.463 239.029 244.766 239.029 244.766Z" fill="#F99746"/>
<path d="M239.029 244.766H162.68C149.711 224.181 138.356 196.343 135.664 174.729L146.97 171.249C146.97 171.249 161.31 236.777 169.63 237.757C177.999 238.786 239.029 244.766 239.029 244.766Z" fill="#ED7D2B"/>
<path d="M143.544 139.49C137.671 144.636 130.134 149.145 120.395 152.625C83.8841 165.564 65.9226 135.422 58.0919 114.249C62.8882 110.721 67.6356 109.544 70.3763 108.907C73.0681 108.27 75.8577 107.731 78.2069 107.339C82.0733 103.614 86.8206 89.6949 85.8907 69.0122L87.7016 69.3063L118.143 74.0604C118.143 74.0604 117.85 83.6175 118.192 92.5866C118.486 99.5952 119.122 106.261 120.639 107.731C122.988 107.976 124.408 108.123 124.408 108.123C124.408 108.123 124.408 108.123 124.408 108.172C124.946 108.809 135.126 121.944 143.544 139.49Z" fill="#FFB27D"/>
<path d="M118.192 74.0602C118.192 74.0602 117.899 83.6174 118.241 92.5864C101.307 92.7825 91.7638 77.7361 87.7505 69.3062L118.192 74.0602Z" fill="#ED985F"/>
<path d="M158.08 171.249C157.982 171.886 149.857 198.401 149.759 199.087C146.921 221.29 141.831 244.962 141.831 244.962H130.623L56.8195 244.815C56.8195 244.815 65.7268 217.908 42.2349 176.64C41.4519 175.268 40.6688 173.945 39.8368 172.523C36.5088 167.034 57.6026 108.221 57.6026 108.221C57.6026 108.221 66.8525 106.603 79.822 105.525C81.0455 106.652 90.0508 139.637 106.348 140.617C127.638 141.94 119.563 105.182 119.563 105.182C128.225 106.947 131.357 107.584 142.467 112.877C142.467 112.926 158.52 167.622 158.08 171.249Z" fill="#F99746"/>
<path d="M123.772 82.8329C123.772 82.8329 83.7373 84.4993 83.1011 59.5526C82.4159 34.606 76.8366 17.9912 102.335 15.8347C127.834 13.7272 133.07 23.0883 135.322 31.3712C137.524 39.6541 134.147 81.7547 123.772 82.8329Z" fill="#FFB27D"/>
<path d="M115.06 69.4531C115.06 69.4531 115.5 72.4427 122.059 72.4918C122.059 72.4918 127.589 72.5408 127.638 69.306C127.638 69.306 122.45 66.6104 115.06 69.4531Z" fill="white"/>
<path d="M117.85 79.4027C94.7002 73.6193 87.7995 52.4465 87.7505 52.2015L90.1487 51.4663L88.9741 51.8584L90.1487 51.4663C90.1976 51.6624 96.7068 71.5119 118.486 76.9521C118.633 77.0011 118.779 77.0011 118.926 77.0501L118.339 79.5007C118.143 79.4517 117.996 79.4027 117.85 79.4027Z" fill="#122544"/>
<path d="M120.492 80.9217L118.29 80.3826C117.164 80.0885 116.479 78.9613 116.773 77.834C117.066 76.7068 118.192 76.0206 119.318 76.3147L121.52 76.8538C122.646 77.1479 123.331 78.2751 123.037 79.4024C122.744 80.4806 121.618 81.1668 120.492 80.9217Z" fill="#2C3A64"/>
<path d="M101.063 0.298266C101.063 0.298266 126.806 -3.72065 137.475 17.7462C145.599 34.116 138.845 44.3103 135.664 47.447C135.664 47.447 131.455 23.9706 123.576 21.9612C123.576 21.9612 118.486 20.3928 115.06 24.4608C111.585 28.4797 106.593 46.4668 100.818 49.2114C100.818 49.2114 82.9542 53.6224 82.0733 47.398C81.1924 41.1736 81.6818 21.7161 86.1844 18.6284C90.7359 15.4427 101.063 0.298266 101.063 0.298266Z" fill="#2C3A64"/>
<path d="M92.9383 70.5317L91.3233 70.8748C84.031 72.3451 76.8855 67.591 75.4173 60.2884L73.7043 51.7114C72.2361 44.4088 76.9834 37.2532 84.2757 35.7828L85.8908 35.4397C93.1831 33.9694 100.329 38.7235 101.797 46.0261L103.51 54.6031C104.978 61.9058 100.231 69.0614 92.9383 70.5317Z" fill="#ED7D2B"/>
<path d="M80.2136 39.7035C79.1369 37.9391 77.5218 23.5788 81.8776 12.2082C83.9821 6.71898 87.408 3.53326 91.7148 1.42578C93.281 0.641601 94.9939 0.249512 96.7558 0.249512L101.063 0.298523C86.8696 5.68975 83.5906 34.6553 84.6673 37.743C84.6183 37.645 84.5694 37.596 84.5694 37.547L80.2136 39.7035Z" fill="#ED7D2B"/>
<path d="M89.072 62.15L88.24 62.297C84.6183 63.0322 81.0456 60.6796 80.3114 57.0038L79.4305 52.7398C78.6964 49.113 81.0456 45.5352 84.7162 44.8L85.5482 44.653C89.1699 43.9178 92.7426 46.2703 93.4767 49.9462L94.3577 54.2101C95.0918 57.837 92.7426 61.4148 89.072 62.15Z" fill="#F99746"/>
<path d="M56.8195 244.766C56.8195 244.766 65.7268 217.859 42.2349 176.592L50.9954 165.662C50.9954 165.662 66.461 209.576 85.8418 222.417C105.174 235.209 127.883 232.513 130.623 244.913L56.8195 244.766Z" fill="#ED7D2B"/>
<path d="M57.6026 108.221C57.6026 108.221 41.6966 109.593 31.0273 128.462C20.358 147.332 0.0962524 217.859 0.0962524 244.766H85.3524C85.3524 244.766 87.0164 237.414 84.3736 230.749L31.5657 220.554C31.5657 220.554 63.3287 173.357 63.6713 152.968C64.0139 132.628 57.6026 108.221 57.6026 108.221Z" fill="#F99746"/>
<path d="M85.8418 236.091C85.8418 236.091 102.433 234.474 105.223 235.209C107.963 235.944 115.843 239.228 117.605 240.355C119.367 241.483 122.744 244.766 122.744 244.766C122.744 244.766 120.639 245.158 119.367 244.864C118.094 244.57 114.375 244.325 113.347 244.227C112.368 244.129 108.746 244.864 108.746 244.864H83.0032L85.8418 236.091Z" fill="#FFB27D"/>
<path d="M236.239 244.961H154.409C154.409 241.335 157.345 238.443 160.918 238.443H236.239V244.961Z" fill="#233862"/>
<path d="M362.606 155.663L332.213 244.961H204.819L236.043 155.663H362.606Z" fill="#233862"/>
<path d="M362.606 155.663L332.507 244.128L332.213 244.961H206.678L237.903 155.663H362.606Z" fill="#2B478B"/>
<path d="M296.241 199.479C295.458 202.91 292.032 205.655 288.655 205.655C285.23 205.655 283.125 202.91 283.908 199.479C284.691 196.048 288.117 193.304 291.494 193.304C294.871 193.304 297.024 196.048 296.241 199.479Z" fill="#F99746"/>
<path d="M362.606 155.663L332.507 244.128H274.854L345.183 155.663H362.606Z" fill="#233862"/>
</svg>
