<svg width="56" height="52" viewBox="0 0 56 52" fill="none" xmlns="http://www.w3.org/2000/svg">
<path d="M27.9258 14.6748C29.3073 14.6748 30.4585 13.5411 30.4585 12.1803V3.67645C30.4585 2.31574 29.3074 1.1819 27.9258 1.1819C26.5442 1.1819 25.3931 2.31563 25.3931 3.67645V12.1803C25.3931 13.541 26.5442 14.6748 27.9258 14.6748Z" fill="#225E9F"/>
<path d="M27.9269 15.1675C29.5844 15.1675 30.9593 13.8134 30.9593 12.1808H29.96C29.96 13.2698 29.0325 14.1832 27.9269 14.1832V15.1675ZM30.9593 12.1808V3.677H29.96V12.1808H30.9593ZM30.9593 3.677C30.9593 2.04451 29.5845 0.690331 27.9269 0.690331V1.67457C29.0326 1.67457 29.96 2.58807 29.96 3.677H30.9593ZM27.9269 0.690331C26.2693 0.690331 24.8945 2.0444 24.8945 3.677H25.8938C25.8938 2.58798 26.8212 1.67457 27.9269 1.67457V0.690331ZM24.8945 3.677V12.1808H25.8938V3.677H24.8945ZM24.8945 12.1808C24.8945 13.8133 26.2693 15.1675 27.9269 15.1675V14.1832C26.8212 14.1832 25.8938 13.2697 25.8938 12.1808H24.8945Z" fill="#FAFAFA"/>
<path d="M41.8562 17.3961C42.1441 17.5096 42.4894 17.5662 42.8347 17.5662C43.8132 17.5662 44.7342 16.9991 45.1369 16.0354L48.418 8.15559C48.9359 6.90836 48.3606 5.43447 47.0365 4.92394C45.7702 4.4138 44.2737 4.98049 43.7554 6.28465L40.4742 14.1648C39.9567 15.4121 40.5325 16.8294 41.8562 17.3961Z" fill="#225E9F"/>
<path d="M41.8567 17.3957L41.5919 17.813L41.6297 17.8363L41.671 17.8526L41.8567 17.3957ZM47.0369 4.92352L46.8478 5.37906L46.8548 5.38178L47.0369 4.92352ZM43.7558 6.28423L44.2182 6.47098L44.2211 6.46362L43.7558 6.28423ZM41.8567 17.3957L42.1215 16.9783L42.0899 16.9589L42.0558 16.9443L41.8567 17.3957ZM41.671 17.8526C42.0289 17.9937 42.4393 18.0579 42.8352 18.0579V17.0736C42.5405 17.0736 42.2602 17.0247 42.0424 16.9388L41.671 17.8526ZM42.8352 18.0579C44.0111 18.0579 45.1177 17.3749 45.5994 16.2223L44.6753 15.8477C44.3516 16.6224 43.6162 17.0736 42.8352 17.0736V18.0579ZM45.5994 16.2223L48.8808 8.3419L47.9562 7.96843L44.6753 15.8477L45.5994 16.2223ZM48.8808 8.3419C49.4985 6.85433 48.8169 5.08132 47.2191 4.46526L46.8548 5.38178C47.9052 5.78678 48.3743 6.96155 47.9562 7.96843L48.8808 8.3419ZM47.2261 4.46803C45.7158 3.85958 43.916 4.5311 43.2905 6.10484L44.2211 6.46362C44.6323 5.42904 45.8255 4.96723 46.8478 5.37906L47.2261 4.46803ZM43.2935 6.0975L40.0124 13.9777L40.937 14.3511L44.2182 6.47098L43.2935 6.0975ZM40.0124 13.9777C39.3897 15.4784 40.0904 17.1761 41.6575 17.847L42.0558 16.9443C40.9754 16.4818 40.5246 15.3449 40.937 14.3511L40.0124 13.9777Z" fill="#FAFAFA"/>
<path d="M10.7167 16.0354C11.1198 16.9991 12.0404 17.5662 13.0188 17.5662C13.3641 17.5662 13.652 17.5096 13.9973 17.3961C15.2636 16.886 15.8968 15.4117 15.3788 14.1645L12.0977 6.28427C11.5798 5.03705 10.0829 4.41344 8.81662 4.92356C7.55031 5.4337 6.91715 6.90799 7.43509 8.15521L10.7167 16.0354Z" fill="#225E9F"/>
<path d="M13.9967 17.3957L14.1548 17.8625L14.1705 17.8574L14.1858 17.8512L13.9967 17.3957ZM10.2537 16.2217C10.7358 17.3741 11.8422 18.0579 13.0182 18.0579V17.0736C12.2374 17.0736 11.5022 16.6225 11.178 15.8475L10.2537 16.2217ZM13.0182 18.0579C13.4291 18.0579 13.7712 17.9886 14.1548 17.8625L13.8385 16.9289C13.5316 17.0298 13.2979 17.0736 13.0182 17.0736V18.0579ZM14.1858 17.8512C15.7059 17.2388 16.4637 15.4782 15.8407 13.9777L14.9157 14.3503C15.3285 15.3444 14.8201 16.5323 13.8075 16.9402L14.1858 17.8512ZM15.8407 13.9777L12.5594 6.09713L11.6346 6.47016L14.9157 14.3503L15.8407 13.9777ZM12.5594 6.09713C11.9376 4.59997 10.1502 3.85397 8.62682 4.46765L9.00513 5.37864C10.0144 4.97207 11.2205 5.47286 11.6346 6.47016L12.5594 6.09713ZM8.62682 4.46765C7.10675 5.08001 6.3489 6.84068 6.97197 8.34109L7.8969 7.96849C7.48411 6.97445 7.99257 5.78655 9.00513 5.37864L8.62682 4.46765ZM6.97197 8.34109L10.2537 16.2217L11.178 15.8475L7.8969 7.96849L6.97197 8.34109Z" fill="#FAFAFA"/>
<path d="M54.6918 34.5174C54.1738 33.9503 42.6617 20.8545 27.9264 20.8545C13.191 20.8545 1.67905 33.9504 1.16101 34.5174C0.355186 35.4245 0.355186 36.8419 1.16101 37.749C1.62154 38.3161 13.191 51.4119 27.9264 51.4119C42.6042 51.4119 54.1737 38.316 54.6918 37.749C55.4402 36.7853 55.4402 35.4245 54.6918 34.5174ZM14.5149 42.2275C11.0038 40.13 8.18312 37.692 6.57154 36.1047C8.18322 34.5174 11.0038 32.0794 14.5149 29.982C13.5939 31.8528 13.1334 33.9503 13.1334 36.1047C13.1334 38.3157 13.6517 40.3567 14.5149 42.2275ZM27.9264 45.7423C22.5157 45.7423 18.1413 41.4338 18.1413 36.1047C18.1413 30.7757 22.5158 26.4672 27.9264 26.4672C33.2793 26.4672 37.6541 30.7757 37.6541 36.1047C37.6541 41.4338 33.2794 45.7423 27.9264 45.7423ZM41.3379 42.2275C42.2011 40.3567 42.7194 38.3156 42.7194 36.1047C42.7194 33.8939 42.2015 31.8528 41.3379 29.982C44.849 32.0795 47.6118 34.5175 49.2812 36.1047C47.6118 37.6921 44.849 40.1301 41.3379 42.2275Z" fill="#225E9F"/>
<path d="M1.16212 34.5167L0.790697 34.1875L0.786075 34.1927L1.16212 34.5167ZM1.16212 37.7484L1.55231 37.441L1.54543 37.4325L1.53817 37.4243L1.16212 37.7484ZM54.6929 37.7484L55.0643 38.0776L55.0776 38.063L55.0898 38.0473L54.6929 37.7484ZM14.516 42.2268L14.2569 42.6476L15.6403 43.474L14.9709 42.0232L14.516 42.2268ZM6.57266 36.1041L6.21935 35.7561L5.86604 36.1041L6.21935 36.4521L6.57266 36.1041ZM14.516 29.9813L14.9656 30.196L15.7041 28.6961L14.2569 29.5605L14.516 29.9813ZM41.339 29.9813L41.5981 29.5605L40.2143 28.7339L40.8841 30.185L41.339 29.9813ZM49.2824 36.1041L49.6294 36.4581L50.0018 36.1041L49.6294 35.75L49.2824 36.1041ZM55.0644 34.1876C54.8004 33.8985 51.7627 30.449 46.9309 27.0713C42.1057 23.6982 35.4421 20.3617 27.9275 20.3617V21.346C35.1482 21.346 41.6084 24.5574 46.3525 27.8739C51.0902 31.1859 54.0675 34.5678 54.3214 34.8458L55.0644 34.1876ZM27.9275 20.3617C20.4129 20.3617 13.7493 23.6982 8.92412 27.0714C4.0924 30.4491 1.05466 33.8986 0.790697 34.1875L1.53351 34.8459C1.78759 34.5679 4.76489 31.1859 9.50252 27.874C14.2467 24.5575 20.7068 21.346 27.9275 21.346V20.3617ZM0.786075 34.1927C-0.184552 35.2854 -0.18455 36.9797 0.786073 38.0724L1.53817 37.4243C0.897156 36.7027 0.897158 35.5624 1.53817 34.8407L0.786075 34.1927ZM0.771933 38.0558C1.02708 38.3699 4.06774 41.8189 8.90285 45.1939C13.7352 48.5671 20.4131 51.9033 27.9275 51.9033V50.9191C20.7066 50.9191 14.232 47.7075 9.48067 44.3909C4.73205 41.0763 1.7577 37.6939 1.55231 37.441L0.771933 38.0558ZM27.9275 51.9033C35.4136 51.9033 42.0772 48.5666 46.909 45.1939C51.7476 41.8164 54.7995 38.3674 55.0643 38.0776L54.3215 37.4192C54.0683 37.6963 51.0764 41.0786 46.3312 44.3909C41.5793 47.7078 35.1192 50.9191 27.9275 50.9191V51.9033ZM55.0898 38.0473C55.9709 36.9127 55.9826 35.2996 55.0807 34.2064L54.3051 34.827C54.9 35.5482 54.9117 36.6566 54.296 37.4494L55.0898 38.0473ZM14.7752 41.8061C11.3058 39.7335 8.51624 37.3224 6.92596 35.7561L6.21935 36.4521C7.85223 38.0603 10.704 40.5251 14.2569 42.6476L14.7752 41.8061ZM6.92596 36.4521C8.51635 34.8857 11.3058 32.4745 14.7751 30.4021L14.2569 29.5605C10.704 31.6829 7.85232 34.1477 6.21935 35.7561L6.92596 36.4521ZM14.0664 29.7666C13.11 31.7094 12.6348 33.8811 12.6348 36.1041H13.6341C13.6341 34.0182 14.08 31.9949 14.9656 30.196L14.0664 29.7666ZM12.6348 36.1041C12.6348 38.3932 13.1719 40.5032 14.0611 42.4304L14.9709 42.0232C14.1337 40.2088 13.6341 38.237 13.6341 36.1041H12.6348ZM27.9275 45.2495C22.7927 45.2495 18.6421 41.1614 18.6421 36.1041H17.6428C17.6428 41.7049 22.2408 46.2338 27.9275 46.2338V45.2495ZM18.6421 36.1041C18.6421 31.0468 22.7928 26.9586 27.9275 26.9586V25.9744C22.2409 25.9744 17.6428 30.5032 17.6428 36.1041H18.6421ZM27.9275 26.9586C33.0025 26.9586 37.1556 31.0449 37.1556 36.1041H38.1549C38.1549 30.5051 33.5582 25.9744 27.9275 25.9744V26.9586ZM37.1556 36.1041C37.1556 41.1632 33.0026 45.2495 27.9275 45.2495V46.2338C33.5583 46.2338 38.1549 41.7031 38.1549 36.1041H37.1556ZM41.7939 42.4305C42.6831 40.5032 43.2202 38.3931 43.2202 36.1041H42.2209C42.2209 38.2369 41.7213 40.2088 40.8841 42.0232L41.7939 42.4305ZM43.2202 36.1041C43.2202 33.8151 42.6835 31.705 41.7938 29.7776L40.8841 30.185C41.7217 31.9994 42.2209 33.9712 42.2209 36.1041H43.2202ZM41.0799 30.4021C44.5464 32.4729 47.2789 34.8833 48.9353 36.4581L49.6294 35.75C47.9469 34.1503 45.1539 31.6847 41.5981 29.5605L41.0799 30.4021ZM48.9353 35.75C47.2789 37.325 44.5464 39.7353 41.0799 41.8061L41.5981 42.6476C45.1539 40.5235 47.9469 38.0579 49.6294 36.4581L48.9353 35.75Z" fill="#FAFAFA"/>
<path d="M27.9265 30.4914C27.2934 30.4914 26.7176 30.6049 26.1423 30.7749C26.4302 31.172 26.5454 31.6821 26.5454 32.1356C26.5454 33.5529 25.3364 34.7437 23.8974 34.7437C23.3795 34.7437 22.919 34.6302 22.5159 34.3466C22.3433 34.9137 22.228 35.4804 22.228 36.104C22.228 39.2222 24.8181 41.7732 27.984 41.7732C31.1499 41.7732 33.74 39.2222 33.74 36.104C33.6826 33.0424 31.0924 30.4914 27.9265 30.4914Z" fill="#225E9F"/>
<path d="M27.9277 30.4922V30.9843H28.1346L28.281 30.8402L27.9277 30.4922ZM26.1434 30.7757L25.9998 30.3044L25.331 30.5021L25.7368 31.0617L26.1434 30.7757ZM22.517 34.3474L22.8074 33.947L22.239 33.5471L22.0384 34.2061L22.517 34.3474ZM33.7411 36.1048H34.2408L34.2407 36.0957L33.7411 36.1048ZM27.9277 30.4922L27.9277 30.0001H27.7207L27.5744 30.1442L27.9277 30.4922ZM27.9277 30.0001C27.2313 30.0001 26.6054 30.1254 25.9998 30.3044L26.287 31.2471C26.832 31.086 27.3576 30.9843 27.9277 30.9843L27.9277 30.0001ZM25.7368 31.0617C25.9476 31.3525 26.0469 31.7533 26.0469 32.1364H27.0462C27.0462 31.6125 26.9149 30.993 26.55 30.4897L25.7368 31.0617ZM26.0469 32.1364C26.0469 33.2819 25.0616 34.2524 23.8986 34.2524V35.2366C25.6135 35.2366 27.0462 33.8255 27.0462 32.1364H26.0469ZM23.8986 34.2524C23.4583 34.2524 23.1065 34.1574 22.8074 33.947L22.2266 34.7479C22.7337 35.1046 23.3029 35.2366 23.8986 35.2366V34.2524ZM22.0384 34.2061C21.8567 34.8029 21.7295 35.4189 21.7295 36.1048H22.7288C22.7288 35.5434 22.832 35.0262 22.9956 34.4888L22.0384 34.2061ZM21.7295 36.1048C21.7295 39.4947 24.5433 42.2661 27.9851 42.2661V41.2819C25.0952 41.2819 22.7288 38.9512 22.7288 36.1048H21.7295ZM27.9851 42.2661C31.427 42.2661 34.2408 39.4947 34.2408 36.1048H33.2414C33.2414 38.9512 30.8751 41.2819 27.9851 41.2819V42.2661ZM34.2407 36.0957C34.1783 32.7681 31.3681 30.0001 27.9277 30.0001L27.9277 30.9843C30.819 30.9843 33.1891 33.3183 33.2415 36.1139L34.2407 36.0957Z" fill="#FAFAFA"/>
</svg>
