<svg width="55" height="54" viewBox="0 0 55 54" fill="none" xmlns="http://www.w3.org/2000/svg">
<path d="M26.6627 0.380791C15.6708 0.749352 6.72949 9.71548 6.72949 20.3689V21.1424C6.72949 27.546 9.82951 35.0917 14.4669 40.0209L14.7728 42.5234C13.7301 43.1438 13.0251 44.2602 13.0251 45.5455C13.0251 47.4994 14.6387 49.0887 16.6226 49.0887V49.9745C16.6226 51.9285 18.2362 53.5178 20.2201 53.5178H34.6101C36.5939 53.5178 38.2076 51.9285 38.2076 49.9745V49.0887C40.1914 49.0887 41.8051 47.4994 41.8051 45.5455C41.8051 44.2603 41.1 43.1438 40.0577 42.5222L40.3637 40.0198C45.0006 35.0901 48.1007 27.5455 48.1007 21.1423V19.9227C48.1007 14.7256 45.9674 9.83307 42.0938 6.14544C38.0438 2.28936 32.4094 0.19067 26.6627 0.380791ZM8.52824 21.1413V20.3678C8.52824 10.7274 16.5792 2.61096 26.5157 2.16856V6.56879H25.6164C23.6325 6.56879 22.0189 8.1581 22.0189 10.1121C22.0189 12.066 23.6325 13.6553 25.6164 13.6553H26.5157V23.3993H21.1195C20.622 23.3993 20.2201 23.7964 20.2201 24.2851V25.6139C20.2201 26.8347 19.2119 27.8284 17.9717 27.8284C16.7314 27.8284 15.7232 26.8346 15.7232 25.6139V24.2851C15.7232 23.7964 15.3213 23.3993 14.8239 23.3993H8.66474C8.57601 22.6314 8.52824 21.8757 8.52824 21.1413ZM8.94821 25.171H13.9245V25.6139C13.9245 27.8115 15.7405 29.6001 17.9717 29.6001C20.2028 29.6001 22.0189 27.8115 22.0189 25.6139V25.171H26.5157V29.6001C26.5157 30.0889 26.9176 30.4859 27.4151 30.4859H29.2139C30.206 30.4859 31.0126 31.2804 31.0126 32.2575C31.0126 33.2347 30.206 34.0292 29.2139 34.0292H27.4151C26.9176 34.0292 26.5157 34.4262 26.5157 34.915V42.0015H16.6226C16.5885 42.0015 16.556 42.0102 16.5218 42.0114L16.2171 39.5189C16.1938 39.3295 16.1091 39.1523 15.975 39.0147C12.5384 35.4528 9.92221 30.1691 8.94821 25.171ZM36.4084 49.9739C36.4084 50.951 35.6018 51.7455 34.6097 51.7455H20.2197C19.2276 51.7455 18.4209 50.951 18.4209 49.9739V49.0881H36.4084V49.9739ZM38.8548 39.0147C38.7215 39.1527 38.6372 39.329 38.6127 39.5189L38.308 42.0114C38.2738 42.0102 38.2413 42.0015 38.2072 42.0015H28.3141V35.8008H29.2134C31.1973 35.8008 32.8109 34.2115 32.8109 32.2575C32.8109 30.3036 31.1973 28.7143 29.2134 28.7143H28.3141V25.171H34.6097C35.1072 25.171 35.5091 24.774 35.5091 24.2852V23.3994C35.5091 22.4222 36.3157 21.6277 37.3078 21.6277C38.2999 21.6277 39.1066 22.4222 39.1066 23.3994V24.2852C39.1066 24.774 39.5085 25.171 40.0059 25.171H45.8816C44.9075 30.1687 42.2913 35.4522 38.8548 39.0147ZM46.3015 21.1414C46.3015 21.8758 46.2538 22.6315 46.165 23.3995H40.9053C40.9053 21.4455 39.2917 19.8562 37.3078 19.8562C35.3239 19.8562 33.7103 21.4455 33.7103 23.3995H28.314V12.7697C28.314 12.2809 27.9121 11.8839 27.4147 11.8839H25.6159C24.6238 11.8839 23.8172 11.0894 23.8172 10.1122C23.8172 9.13506 24.6238 8.34059 25.6159 8.34059H27.4147C27.9121 8.34059 28.314 7.94355 28.314 7.45477V2.17429C33.0582 2.37992 37.4624 4.20023 40.8446 7.41762C44.3638 10.7687 46.3019 15.2085 46.3019 19.9213L46.3015 21.1414Z" fill="#225E9F"/>
<path d="M14.4667 40.0207L14.7148 39.9913L14.7051 39.912L14.65 39.8535L14.4667 40.0207ZM14.7727 42.5232L14.9019 42.7338L15.04 42.6516L15.0207 42.4937L14.7727 42.5232ZM16.6224 49.0885H16.8722V48.8425H16.6224V49.0885ZM38.2074 49.0885V48.8425H37.9576V49.0885H38.2074ZM40.0575 42.522L39.8095 42.4926L39.7902 42.6503L39.9281 42.7325L40.0575 42.522ZM40.3635 40.0196L40.1802 39.8524L40.1251 39.9109L40.1155 39.9902L40.3635 40.0196ZM26.5156 2.16835H26.7654V1.91092L26.5043 1.92255L26.5156 2.16835ZM26.5156 6.56859V6.81465H26.7654V6.56859H26.5156ZM26.5156 13.6551H26.7654V13.4091H26.5156V13.6551ZM26.5156 23.3991V23.6452H26.7654V23.3991H26.5156ZM8.66457 23.3991L8.41634 23.4269L8.44156 23.6452H8.66457V23.3991ZM8.94804 25.1708V24.9247H8.6457L8.70269 25.2172L8.94804 25.1708ZM13.9243 25.1708H14.1741V24.9247H13.9243V25.1708ZM22.0187 25.1708V24.9247H21.7689V25.1708H22.0187ZM26.5156 25.1708H26.7654V24.9247H26.5156V25.1708ZM26.5156 42.0013V42.2474H26.7654V42.0013H26.5156ZM16.5217 42.0112L16.2736 42.0406L16.3011 42.2651L16.5305 42.2571L16.5217 42.0112ZM15.9748 39.0145L15.7937 39.184L15.7946 39.1848L15.9748 39.0145ZM18.4208 49.0879V48.8418H18.1709V49.0879H18.4208ZM36.4083 49.0879H36.6581V48.8418H36.4083V49.0879ZM38.6125 39.5187L38.3647 39.4876L38.3645 39.4892L38.6125 39.5187ZM38.3078 42.0112L38.299 42.2571L38.5284 42.2651L38.5558 42.0406L38.3078 42.0112ZM28.3139 42.0013H28.0641V42.2474H28.3139V42.0013ZM28.3139 35.8006V35.5545H28.0641V35.8006H28.3139ZM28.3139 28.7141H28.0641V28.9601H28.3139V28.7141ZM28.3139 25.1708V24.9247H28.0641V25.1708H28.3139ZM45.8814 25.1708L46.1268 25.2172L46.1838 24.9247H45.8814V25.1708ZM46.1649 23.3993V23.6453H46.3879L46.4131 23.4271L46.1649 23.3993ZM40.9051 23.3993H40.6553V23.6453H40.9051V23.3993ZM33.7101 23.3993V23.6453H33.9599V23.3993H33.7101ZM28.3139 23.3993H28.064V23.6453H28.3139V23.3993ZM28.3139 2.17408L28.3248 1.92826L28.064 1.91696V2.17408H28.3139ZM26.6542 0.134663C15.5314 0.50761 6.47949 9.57898 6.47949 20.3687H6.97914C6.97914 9.85156 15.81 0.990673 26.671 0.626503L26.6542 0.134663ZM6.47949 20.3687V21.1422H6.97914V20.3687H6.47949ZM6.47949 21.1422C6.47949 27.6113 9.60581 35.2159 14.2835 40.1879L14.65 39.8535C10.0529 34.9671 6.97914 27.4802 6.97914 21.1422H6.47949ZM14.2187 40.0501L14.5246 42.5526L15.0207 42.4937L14.7148 39.9913L14.2187 40.0501ZM14.6435 42.3125C13.5307 42.9747 12.7751 44.1683 12.7751 45.5453H13.2747C13.2747 44.3516 13.9291 43.3126 14.9019 42.7338L14.6435 42.3125ZM12.7751 45.5453C12.7751 47.6351 14.5006 49.3346 16.6224 49.3346V48.8425C14.7765 48.8425 13.2747 47.3633 13.2747 45.5453H12.7751ZM16.3726 49.0885V49.9743H16.8722V49.0885H16.3726ZM16.3726 49.9743C16.3726 52.0642 18.0981 53.7637 20.2199 53.7637V53.2716C18.374 53.2716 16.8722 51.7924 16.8722 49.9743H16.3726ZM20.2199 53.7637H34.6099V53.2716H20.2199V53.7637ZM34.6099 53.7637C36.7317 53.7637 38.4572 52.0642 38.4572 49.9743H37.9576C37.9576 51.7924 36.4558 53.2716 34.6099 53.2716V53.7637ZM38.4572 49.9743V49.0885H37.9576V49.9743H38.4572ZM38.2074 49.3346C40.3292 49.3346 42.0547 47.6351 42.0547 45.5453H41.5551C41.5551 47.3633 40.0533 48.8425 38.2074 48.8425V49.3346ZM42.0547 45.5453C42.0547 44.1684 41.299 42.9748 40.1869 42.3116L39.9281 42.7325C40.9007 43.3125 41.5551 44.3517 41.5551 45.5453H42.0547ZM40.3056 42.5515L40.6115 40.049L40.1155 39.9902L39.8095 42.4926L40.3056 42.5515ZM40.5468 40.1868C45.224 35.2143 48.3503 27.6109 48.3503 21.1421H47.8507C47.8507 27.4797 44.7769 34.9654 40.1802 39.8524L40.5468 40.1868ZM48.3503 21.1421V19.9225H47.8507V21.1421H48.3503ZM48.3503 19.9225C48.3503 14.6571 46.1884 9.70121 42.2672 5.96831L41.9199 6.32215C45.7461 9.96451 47.8507 14.7937 47.8507 19.9225H48.3503ZM42.2672 5.96831C38.1672 2.0646 32.4666 -0.0576363 26.6542 0.134663L26.671 0.626503C32.3519 0.438557 37.92 2.51368 41.9199 6.32215L42.2672 5.96831ZM8.77789 21.1411V20.3676H8.27824V21.1411H8.77789ZM8.77789 20.3676C8.77789 10.8631 16.7193 2.85083 26.5268 2.41416L26.5043 1.92255C16.4388 2.37069 8.27824 10.5912 8.27824 20.3676H8.77789ZM26.2657 2.16835V6.56859H26.7654V2.16835H26.2657ZM26.5156 6.32253H25.6162V6.81465H26.5156V6.32253ZM25.6162 6.32253C23.4943 6.32253 21.7689 8.022 21.7689 10.1119H22.2685C22.2685 8.29379 23.7703 6.81465 25.6162 6.81465V6.32253ZM21.7689 10.1119C21.7689 12.2017 23.4943 13.9012 25.6162 13.9012V13.4091C23.7703 13.4091 22.2685 11.9299 22.2685 10.1119H21.7689ZM25.6162 13.9012H26.5156V13.4091H25.6162V13.9012ZM26.2657 13.6551V23.3991H26.7654V13.6551H26.2657ZM26.5156 23.153H21.1193V23.6452H26.5156V23.153ZM21.1193 23.153C20.4837 23.153 19.9701 23.6605 19.9701 24.2849H20.4698C20.4698 23.9318 20.76 23.6452 21.1193 23.6452V23.153ZM19.9701 24.2849V25.6136H20.4698V24.2849H19.9701ZM19.9701 25.6136C19.9701 26.6986 19.0737 27.5821 17.9715 27.5821V28.0743C19.3498 28.0743 20.4698 26.9703 20.4698 25.6136H19.9701ZM17.9715 27.5821C16.8693 27.5821 15.9729 26.6986 15.9729 25.6136H15.4732C15.4732 26.9703 16.5932 28.0743 17.9715 28.0743V27.5821ZM15.9729 25.6136V24.2849H15.4732V25.6136H15.9729ZM15.9729 24.2849C15.9729 23.6605 15.4593 23.153 14.8237 23.153V23.6452C15.183 23.6452 15.4732 23.9318 15.4732 24.2849H15.9729ZM14.8237 23.153H8.66457V23.6452H14.8237V23.153ZM8.91279 23.3713C8.82499 22.6114 8.77789 21.8651 8.77789 21.1411H8.27824C8.27824 21.8859 8.32668 22.6509 8.41634 23.4269L8.91279 23.3713ZM8.94804 25.4169H13.9243V24.9247H8.94804V25.4169ZM13.6745 25.1708V25.6137H14.1741V25.1708H13.6745ZM13.6745 25.6137C13.6745 27.9471 15.6024 29.8459 17.9715 29.8459V29.3538C15.8783 29.3538 14.1741 27.6754 14.1741 25.6137H13.6745ZM17.9715 29.8459C20.3406 29.8459 22.2685 27.9471 22.2685 25.6137H21.7689C21.7689 27.6754 20.0647 29.3538 17.9715 29.3538V29.8459ZM22.2685 25.6137V25.1708H21.7689V25.6137H22.2685ZM22.0187 25.4169H26.5156V24.9247H22.0187V25.4169ZM26.2657 25.1708V29.5999H26.7654V25.1708H26.2657ZM26.2657 29.5999C26.2657 30.2243 26.7793 30.7318 27.4149 30.7318V30.2396C27.0557 30.2396 26.7654 29.953 26.7654 29.5999H26.2657ZM27.4149 30.7318H29.2137V30.2396H27.4149V30.7318ZM29.2137 30.7318C30.0678 30.7318 30.7626 31.4161 30.7626 32.2573H31.2623C31.2623 31.1443 30.3438 30.2396 29.2137 30.2396V30.7318ZM30.7626 32.2573C30.7626 33.0986 30.0678 33.7829 29.2137 33.7829V34.275C30.3438 34.275 31.2623 33.3704 31.2623 32.2573H30.7626ZM29.2137 33.7829H27.4149V34.275H29.2137V33.7829ZM27.4149 33.7829C26.7793 33.7829 26.2657 34.2903 26.2657 34.9148H26.7654C26.7654 34.5617 27.0557 34.275 27.4149 34.275V33.7829ZM26.2657 34.9148V42.0013H26.7654V34.9148H26.2657ZM26.5156 41.7553H16.6224V42.2474H26.5156V41.7553ZM16.6224 41.7553C16.5857 41.7553 16.5531 41.76 16.537 41.7622C16.5271 41.7636 16.5224 41.7643 16.5175 41.7648C16.5133 41.7653 16.5122 41.7653 16.5128 41.7653L16.5305 42.2571C16.5635 42.256 16.5947 42.2512 16.6071 42.2494C16.6243 42.247 16.625 42.2474 16.6224 42.2474V41.7553ZM16.7697 41.9818L16.4649 39.4893L15.9689 39.5481L16.2736 42.0406L16.7697 41.9818ZM16.4649 39.4893C16.4352 39.2474 16.327 39.0205 16.155 38.8441L15.7946 39.1848C15.8909 39.2837 15.952 39.4111 15.9689 39.5481L16.4649 39.4893ZM16.1559 38.845C12.7555 35.3206 10.1593 30.0811 9.19339 25.1244L8.70269 25.2172C9.68477 30.2568 12.321 35.5846 15.7937 39.184L16.1559 38.845ZM36.1584 49.9737C36.1584 50.8149 35.4637 51.4992 34.6095 51.4992V51.9914C35.7396 51.9914 36.6581 51.0867 36.6581 49.9737H36.1584ZM34.6095 51.4992H20.2195V51.9914H34.6095V51.4992ZM20.2195 51.4992C19.3654 51.4992 18.6706 50.8149 18.6706 49.9737H18.1709C18.1709 51.0867 19.0894 51.9914 20.2195 51.9914V51.4992ZM18.6706 49.9737V49.0879H18.1709V49.9737H18.6706ZM18.4208 49.3339H36.4083V48.8418H18.4208V49.3339ZM36.1584 49.0879V49.9737H36.6581V49.0879H36.1584ZM15.0731 45.5446C15.0731 44.7033 15.7679 44.019 16.622 44.019V43.5269C15.4919 43.5269 14.5734 44.4315 14.5734 45.5446H15.0731ZM16.622 44.019H38.207V43.5269H16.622V44.019ZM38.207 44.019C39.0612 44.019 39.7559 44.7033 39.7559 45.5446H40.2556C40.2556 44.4315 39.3371 43.5269 38.207 43.5269V44.019ZM39.7559 45.5446C39.7559 46.3859 39.0612 47.0702 38.207 47.0702V47.5623C39.3371 47.5623 40.2556 46.6576 40.2556 45.5446H39.7559ZM38.6736 38.8449C38.5031 39.0214 38.3958 39.2465 38.3647 39.4876L38.8604 39.5497C38.8782 39.4112 38.9396 39.2835 39.0357 39.184L38.6736 38.8449ZM38.3645 39.4892L38.0598 41.9818L38.5558 42.0406L38.8606 39.5481L38.3645 39.4892ZM38.3166 41.7653C38.3173 41.7653 38.3162 41.7653 38.312 41.7648C38.3071 41.7642 38.3024 41.7636 38.2924 41.7622C38.2764 41.7599 38.2438 41.7552 38.207 41.7552V42.2474C38.2044 42.2474 38.2051 42.247 38.2224 42.2494C38.2348 42.2512 38.2659 42.2559 38.299 42.2571L38.3166 41.7653ZM38.207 41.7552H28.3139V42.2474H38.207V41.7552ZM28.5637 42.0013V35.8006H28.0641V42.0013H28.5637ZM28.3139 36.0466H29.2133V35.5545H28.3139V36.0466ZM29.2133 36.0466C31.3351 36.0466 33.0606 34.3472 33.0606 32.2573H32.5609C32.5609 34.0754 31.0592 35.5545 29.2133 35.5545V36.0466ZM33.0606 32.2573C33.0606 30.1675 31.3351 28.468 29.2133 28.468V28.9601C31.0592 28.9601 32.5609 30.4393 32.5609 32.2573H33.0606ZM29.2133 28.468H28.3139V28.9601H29.2133V28.468ZM28.5637 28.7141V25.1708H28.0641V28.7141H28.5637ZM28.3139 25.4168H34.6095V24.9247H28.3139V25.4168ZM34.6095 25.4168C35.2452 25.4168 35.7587 24.9094 35.7587 24.285H35.2591C35.2591 24.6381 34.9688 24.9247 34.6095 24.9247V25.4168ZM35.7587 24.285V23.3992H35.2591V24.285H35.7587ZM35.7587 23.3992C35.7587 22.5579 36.4535 21.8736 37.3076 21.8736V21.3815C36.1776 21.3815 35.2591 22.2861 35.2591 23.3992H35.7587ZM37.3076 21.8736C38.1618 21.8736 38.8566 22.5579 38.8566 23.3992H39.3562C39.3562 22.2861 38.4377 21.3815 37.3076 21.3815V21.8736ZM38.8566 23.3992V24.285H39.3562V23.3992H38.8566ZM38.8566 24.285C38.8566 24.9094 39.3701 25.4168 40.0058 25.4168V24.9247C39.6465 24.9247 39.3562 24.6381 39.3562 24.285H38.8566ZM40.0058 25.4168H45.8814V24.9247H40.0058V25.4168ZM45.6361 25.1244C44.6701 30.0806 42.0739 35.3198 38.6736 38.8449L39.0357 39.184C42.5082 35.5841 45.1446 30.2564 46.1268 25.2172L45.6361 25.1244ZM46.0515 21.1411C46.0515 21.8651 46.0044 22.6115 45.9166 23.3714L46.4131 23.4271C46.5027 22.6511 46.5512 21.886 46.5512 21.1412L46.0515 21.1411ZM46.1649 23.1532H40.9051V23.6453H46.1649V23.1532ZM41.1549 23.3993C41.1549 21.3094 39.4295 19.6099 37.3076 19.6099V20.1021C39.1535 20.1021 40.6553 21.5812 40.6553 23.3993H41.1549ZM37.3076 19.6099C35.1858 19.6099 33.4603 21.3094 33.4603 23.3993H33.9599C33.9599 21.5812 35.4617 20.1021 37.3076 20.1021V19.6099ZM33.7101 23.1532H28.3139V23.6453H33.7101V23.1532ZM28.5637 23.3993V12.7695H28.064V23.3993H28.5637ZM28.5637 12.7695C28.5637 12.145 28.0501 11.6376 27.4145 11.6376V12.1297C27.7738 12.1297 28.064 12.4164 28.064 12.7695H28.5637ZM27.4145 11.6376H25.6157V12.1297H27.4145V11.6376ZM25.6157 11.6376C24.7616 11.6376 24.0668 10.9533 24.0668 10.112H23.5672C23.5672 11.2251 24.4856 12.1297 25.6157 12.1297V11.6376ZM24.0668 10.112C24.0668 9.27075 24.7616 8.58644 25.6157 8.58644V8.09432C24.4856 8.09432 23.5672 8.99896 23.5672 10.112H24.0668ZM25.6157 8.58644H27.4145V8.09432H25.6157V8.58644ZM27.4145 8.58644C28.0501 8.58644 28.5637 8.07903 28.5637 7.45456H28.064C28.064 7.80766 27.7738 8.09432 27.4145 8.09432V8.58644ZM28.5637 7.45456V2.17408H28.064V7.45456H28.5637ZM28.3029 2.41991C32.9881 2.62298 37.3339 4.42003 40.6709 7.5944L41.0181 7.24051C37.5906 3.98011 33.128 2.13645 28.3248 1.92826L28.3029 2.41991ZM40.6709 7.5944C44.1427 10.9004 46.0519 15.2767 46.0519 19.9211L46.5516 19.9212C46.5516 15.1399 44.5847 10.6368 41.0181 7.24051L40.6709 7.5944ZM46.0519 19.9211L46.0515 21.1411L46.5512 21.1412L46.5516 19.9212L46.0519 19.9211Z" fill="#225E9F"/>
<path d="M18.0495 37.5725L20.4843 39.9706C20.6557 40.1398 20.8862 40.23 21.1198 40.23C21.2359 40.23 21.3527 40.2078 21.4643 40.1628C21.8008 40.0255 22.0192 39.7021 22.0192 39.3442V37.5405C23.5429 37.3254 24.7173 36.0311 24.7173 34.4722C24.7173 32.7626 23.3053 31.3718 21.5695 31.3718H17.972C16.2363 31.3718 14.8242 32.7626 14.8242 34.4722C14.8242 36.1818 16.2363 37.5725 17.972 37.5725L18.0495 37.5725ZM16.6229 34.4721C16.6229 33.7397 17.2284 33.1434 17.972 33.1434H21.5695C22.3131 33.1434 22.9185 33.7397 22.9185 34.4721C22.9185 35.2045 22.3131 35.8008 21.5695 35.8008H21.1198C20.6223 35.8008 20.2204 36.1979 20.2204 36.6867V37.2059L19.0577 36.0607C18.8895 35.8938 18.661 35.8009 18.4217 35.8009H17.972C17.2284 35.8009 16.6229 35.2045 16.6229 34.4721Z" fill="#225E9F"/>
<path d="M18.0483 37.5728L18.225 37.3988L18.1517 37.3266L18.0481 37.3267L18.0483 37.5728ZM22.0181 37.5408L21.9826 37.2973L21.7682 37.3275V37.5408H22.0181ZM16.6218 34.4724H16.3719V34.5745L16.4453 34.6466L16.6218 34.4724ZM20.2193 37.2062L20.0426 37.3802L20.4691 37.8002V37.2062H20.2193ZM16.6218 34.4724L16.8716 34.4724V34.3704L16.7982 34.2983L16.6218 34.4724ZM17.8717 37.7467L20.3065 40.1448L20.66 39.7971L18.225 37.3988L17.8717 37.7467ZM20.3065 40.1448C20.5259 40.3614 20.8202 40.4763 21.1187 40.4763V39.9842C20.9498 39.9842 20.7834 39.919 20.66 39.7971L20.3065 40.1448ZM21.1187 40.4763C21.2671 40.4763 21.4162 40.448 21.558 40.3907L21.3684 39.9354C21.287 39.9683 21.2023 39.9842 21.1187 39.9842V40.4763ZM21.558 40.3907C21.9881 40.2153 22.2679 39.8015 22.2679 39.3444H21.7682C21.7682 39.6032 21.6112 39.8364 21.3684 39.9354L21.558 40.3907ZM22.2679 39.3444V37.5408H21.7682V39.3444H22.2679ZM22.0535 37.7844C23.6984 37.5522 24.966 36.1556 24.966 34.4725H24.4664C24.4664 35.9072 23.3851 37.0992 21.9826 37.2973L22.0535 37.7844ZM24.966 34.4725C24.966 32.627 23.4421 31.126 21.5684 31.126V31.6182C23.1661 31.6182 24.4664 32.8988 24.4664 34.4725H24.966ZM21.5684 31.126H17.9709V31.6182H21.5684V31.126ZM17.9709 31.126C16.0972 31.126 14.5732 32.627 14.5732 34.4725H15.0729C15.0729 32.8988 16.3731 31.6182 17.9709 31.6182V31.126ZM14.5732 34.4725C14.5732 36.3179 16.0972 37.8189 17.9709 37.8189V37.3268C16.3731 37.3268 15.0729 36.0461 15.0729 34.4725H14.5732ZM17.9709 37.8189L18.0485 37.8188L18.0481 37.3267L17.9709 37.3268V37.8189ZM16.8716 34.4724C16.8716 33.876 17.3652 33.3897 17.9708 33.3897V32.8976C17.0893 32.8976 16.3719 33.6041 16.3719 34.4724L16.8716 34.4724ZM17.9708 33.3897H21.5683V32.8976H17.9708V33.3897ZM21.5683 33.3897C22.1739 33.3897 22.6676 33.8759 22.6676 34.4724H23.1672C23.1672 33.6041 22.4499 32.8976 21.5683 32.8976V33.3897ZM22.6676 34.4724C22.6676 35.0689 22.1739 35.5551 21.5683 35.5551V36.0472C22.4499 36.0472 23.1672 35.3407 23.1672 34.4724H22.6676ZM21.5683 35.5551H21.1186V36.0472H21.5683V35.5551ZM21.1186 35.5551C20.483 35.5551 19.9694 36.0625 19.9694 36.6869H20.4691C20.4691 36.3338 20.7594 36.0472 21.1186 36.0472V35.5551ZM19.9694 36.6869V37.2062H20.4691V36.6869H19.9694ZM20.3959 37.0322L19.2332 35.887L18.8793 36.2344L20.0426 37.3802L20.3959 37.0322ZM19.2332 35.887C19.0176 35.6732 18.7258 35.5551 18.4206 35.5551V36.0472C18.5939 36.0472 18.7584 36.1144 18.8793 36.2344L19.2332 35.887ZM18.4206 35.5551H17.9709V36.0472H18.4206V35.5551ZM17.9709 35.5551C17.3653 35.5551 16.8716 35.0689 16.8716 34.4724L16.3719 34.4724C16.3719 35.3407 17.0893 36.0472 17.9709 36.0472V35.5551Z" fill="#225E9F"/>
<path d="M33.6374 15.625L36.0721 18.0231C36.2436 18.1923 36.4741 18.2825 36.7077 18.2825C36.8238 18.2825 36.9406 18.2603 37.0522 18.2152C37.3887 18.078 37.6071 17.7545 37.6071 17.3967V15.593C39.1308 15.3779 40.3052 14.0836 40.3052 12.5247C40.3052 10.8151 38.8932 9.42431 37.1574 9.42431H33.5599C31.8242 9.42431 30.4121 10.8151 30.4121 12.5247C30.4121 14.2342 31.8242 15.625 33.5599 15.625L33.6374 15.625Z" fill="#225E9F"/>
<path d="M33.6382 15.6248L33.8148 15.4508L33.7416 15.3786L33.638 15.3787L33.6382 15.6248ZM37.6079 15.5928L37.5725 15.3493L37.3581 15.3795V15.5928H37.6079ZM35.8091 15.2582L35.6324 15.4322L36.0589 15.8522V15.2582H35.8091ZM33.4615 15.7988L35.8963 18.1968L36.2498 17.8491L33.8148 15.4508L33.4615 15.7988ZM35.8963 18.1968C36.1157 18.4134 36.4101 18.5283 36.7085 18.5283V18.0362C36.5396 18.0362 36.3733 17.971 36.2498 17.8491L35.8963 18.1968ZM36.7085 18.5283C36.857 18.5283 37.006 18.5 37.1478 18.4427L36.9583 17.9874C36.8768 18.0203 36.7922 18.0362 36.7085 18.0362V18.5283ZM37.1478 18.4427C37.578 18.2673 37.8577 17.8535 37.8577 17.3964H37.3581C37.3581 17.6552 37.201 17.8884 36.9583 17.9874L37.1478 18.4427ZM37.8577 17.3964V15.5928H37.3581V17.3964H37.8577ZM37.6434 15.8364C39.2882 15.6042 40.5559 14.2076 40.5559 12.5245H40.0562C40.0562 13.9592 38.975 15.1512 37.5725 15.3493L37.6434 15.8364ZM40.5559 12.5245C40.5559 10.679 39.0319 9.17804 37.1582 9.17804V9.67016C38.756 9.67016 40.0562 10.9508 40.0562 12.5245H40.5559ZM37.1582 9.17804H33.5607V9.67016H37.1582V9.17804ZM33.5607 9.17804C31.687 9.17804 30.1631 10.679 30.1631 12.5245H30.6627C30.6627 10.9508 31.963 9.67016 33.5607 9.67016V9.17804ZM30.1631 12.5245C30.1631 14.3699 31.687 15.8709 33.5607 15.8709V15.3788C31.963 15.3788 30.6627 14.0981 30.6627 12.5245H30.1631ZM33.5607 15.8709L33.6383 15.8708L33.638 15.3787L33.5607 15.3788V15.8709ZM32.4614 12.5244C32.4614 11.9279 32.955 11.4417 33.5607 11.4417V10.9496C32.6791 10.9496 31.9618 11.6561 31.9618 12.5244H32.4614ZM33.5607 11.4417H37.1582V10.9496H33.5607V11.4417ZM37.1582 11.4417C37.7638 11.4417 38.2574 11.9279 38.2574 12.5244H38.757C38.757 11.6561 38.0397 10.9496 37.1582 10.9496V11.4417ZM38.2574 12.5244C38.2574 13.1209 37.7638 13.6071 37.1582 13.6071V14.0992C38.0397 14.0992 38.757 13.3927 38.757 12.5244H38.2574ZM37.1582 13.6071H36.7085V14.0992H37.1582V13.6071ZM36.7085 13.6071C36.0728 13.6071 35.5593 14.1145 35.5593 14.7389H36.0589C36.0589 14.3858 36.3492 14.0992 36.7085 14.0992V13.6071ZM35.5593 14.7389V15.2582H36.0589V14.7389H35.5593ZM35.9858 15.0842L34.823 13.939L34.4691 14.2864L35.6324 15.4322L35.9858 15.0842ZM34.823 13.939C34.6075 13.7252 34.3156 13.6071 34.0104 13.6071V14.0992C34.1837 14.0992 34.3482 14.1664 34.4691 14.2864L34.823 13.939Z" fill="#225E9F"/>
<path d="M17.5229 19.7649L19.7553 21.4452C19.9163 21.5666 20.1094 21.6279 20.3021 21.6279C20.482 21.6279 20.6611 21.5749 20.8165 21.4685C21.1365 21.2479 21.277 20.8485 21.161 20.4807L20.2849 17.6868L22.5658 15.9709C22.8726 15.7408 22.9958 15.3437 22.8718 14.9831C22.7473 14.6228 22.4056 14.382 22.0198 14.382H19.2477L18.3817 11.6225C18.2656 11.2516 17.9167 10.9981 17.5229 10.9981C17.129 10.9981 16.7801 11.2516 16.664 11.6225L15.798 14.382H13.0259C12.6401 14.382 12.2976 14.624 12.1743 14.9843C12.0511 15.3449 12.1735 15.7408 12.4803 15.9721L14.7612 17.688L13.8851 20.4819C13.7691 20.8504 13.9084 21.2491 14.2296 21.4697C14.5508 21.6904 14.9796 21.6813 15.2908 21.4468L17.5229 19.7649ZM16.4609 16.1536C16.8548 16.1536 17.2037 15.9001 17.3197 15.5292L17.5229 14.8834L17.7261 15.5292C17.8421 15.9005 18.191 16.1536 18.5849 16.1536H19.361L18.6945 16.655C18.395 16.88 18.2701 17.2652 18.3813 17.6195L18.6114 18.3555L18.0681 17.947C17.9063 17.8256 17.7136 17.7646 17.5221 17.7646C17.3306 17.7646 17.1371 17.8248 16.976 17.947L16.4328 18.3555L16.6629 17.6195C16.7745 17.2652 16.6492 16.88 16.3497 16.655L15.6832 16.1536H16.4609Z" fill="#225E9F"/>
<path d="M17.5208 19.7656L17.6725 19.5701L17.5207 19.4559L17.369 19.5702L17.5208 19.7656ZM20.2828 17.6875L20.1311 17.492L19.9927 17.5962L20.0441 17.7602L20.2828 17.6875ZM19.2456 14.3828L19.0069 14.4554L19.0613 14.6288H19.2456V14.3828ZM15.7959 14.3828V14.6288H15.9801L16.0345 14.4554L15.7959 14.3828ZM14.7591 17.6887L14.9978 17.7613L15.0492 17.5974L14.9107 17.4932L14.7591 17.6887ZM17.5208 14.8841L17.7594 14.8113L17.5208 14.0528L17.2822 14.8113L17.5208 14.8841ZM19.3589 16.1543L19.5105 16.3499L20.0975 15.9083H19.3589V16.1543ZM18.6093 18.3562L18.4577 18.5518L19.0775 19.0179L18.848 18.2838L18.6093 18.3562ZM16.9739 17.9477L17.1255 18.1433L17.1264 18.1426L16.9739 17.9477ZM16.4307 18.3562L16.1919 18.2838L15.9624 19.0179L16.5823 18.5518L16.4307 18.3562ZM15.6811 16.1543V15.9083H14.9425L15.5294 16.3499L15.6811 16.1543ZM17.3691 19.9612L19.6015 21.6415L19.905 21.2506L17.6725 19.5701L17.3691 19.9612ZM19.6015 21.6415C19.8071 21.7965 20.0537 21.8747 20.3 21.8747V21.3826C20.1609 21.3826 20.0214 21.3384 19.905 21.2506L19.6015 21.6415ZM20.3 21.8747C20.5301 21.8747 20.7591 21.8068 20.957 21.6713L20.6718 21.2673C20.5589 21.3445 20.4297 21.3826 20.3 21.3826V21.8747ZM20.957 21.6713C21.3652 21.3898 21.546 20.8793 21.3974 20.4084L20.9202 20.5541C21.0037 20.8188 20.9035 21.1074 20.6718 21.2673L20.957 21.6713ZM21.3974 20.4084L20.5215 17.6149L20.0441 17.7602L20.9202 20.5541L21.3974 20.4084ZM20.4344 17.8831L22.7153 16.1672L22.4123 15.776L20.1311 17.492L20.4344 17.8831ZM22.7153 16.1672C23.1075 15.873 23.2647 15.3655 23.1063 14.9049L22.633 15.0628C22.7227 15.3235 22.6336 15.6099 22.4123 15.776L22.7153 16.1672ZM23.1063 14.9049C22.9473 14.4449 22.5105 14.1367 22.0176 14.1367V14.6288C22.2965 14.6288 22.543 14.8023 22.633 15.0628L23.1063 14.9049ZM22.0176 14.1367H19.2456V14.6288H22.0176V14.1367ZM19.4843 14.3101L18.6182 11.5506L18.1408 11.6957L19.0069 14.4554L19.4843 14.3101ZM18.6182 11.5506C18.4699 11.0764 18.0242 10.7528 17.5207 10.7528V11.2449C17.805 11.2449 18.0571 11.428 18.1408 11.6957L18.6182 11.5506ZM17.5207 10.7528C17.0173 10.7528 16.5715 11.0766 16.4232 11.5508L16.9006 11.6959C16.9843 11.4283 17.2364 11.2449 17.5207 11.2449V10.7528ZM16.4232 11.5508L15.5572 14.3101L16.0345 14.4554L16.9006 11.6959L16.4232 11.5508ZM15.7959 14.1367H13.0238V14.6288H15.7959V14.1367ZM13.0238 14.1367C12.5309 14.1367 12.093 14.446 11.9355 14.9064L12.409 15.0636C12.498 14.8035 12.7451 14.6288 13.0238 14.6288V14.1367ZM11.9355 14.9064C11.7782 15.3668 11.9346 15.8728 12.3263 16.1682L12.6301 15.7775C12.4083 15.6103 12.3198 15.3246 12.409 15.0636L11.9355 14.9064ZM12.3263 16.1682L14.6075 17.8843L14.9107 17.4932L12.6301 15.7775L12.3263 16.1682ZM14.5204 17.6161L13.6443 20.41L14.1216 20.5555L14.9978 17.7613L14.5204 17.6161ZM13.6443 20.41C13.496 20.8811 13.6743 21.3905 14.0846 21.6723L14.3704 21.2687C14.1383 21.1092 14.0379 20.8216 14.1216 20.5555L13.6443 20.41ZM14.0846 21.6723C14.4949 21.9542 15.0429 21.9426 15.4405 21.643L15.1369 21.2521C14.9122 21.4215 14.6025 21.4281 14.3704 21.2687L14.0846 21.6723ZM15.4405 21.643L17.6726 19.9611L17.369 19.5702L15.1369 21.2521L15.4405 21.643ZM16.4588 16.4004C16.9622 16.4004 17.408 16.0766 17.5564 15.6024L17.079 15.4571C16.9953 15.7248 16.7431 15.9083 16.4588 15.9083V16.4004ZM17.5564 15.6024L17.7594 14.957L17.2822 14.8113L17.079 15.4571L17.5564 15.6024ZM17.2822 14.957L17.4853 15.6028L17.9627 15.4575L17.7594 14.8113L17.2822 14.957ZM17.4853 15.6028C17.6337 16.0775 18.0794 16.4004 18.5828 16.4004V15.9083C18.2983 15.9083 18.0464 15.7254 17.9627 15.4575L17.4853 15.6028ZM18.5828 16.4004H19.3589V15.9083H18.5828V16.4004ZM19.2072 15.9588L18.5407 16.4602L18.8439 16.8514L19.5105 16.3499L19.2072 15.9588ZM18.5407 16.4602C18.1578 16.7479 17.9984 17.2402 18.1405 17.693L18.618 17.5479C18.5377 17.292 18.6278 17.0138 18.8439 16.8514L18.5407 16.4602ZM18.1405 17.693L18.3705 18.4286L18.848 18.2838L18.618 17.5479L18.1405 17.693ZM18.7609 18.1607L18.2176 17.7521L17.9144 18.1433L18.4577 18.5518L18.7609 18.1607ZM18.2176 17.7521C18.0115 17.5975 17.7652 17.5194 17.52 17.5194V18.0115C17.6578 18.0115 17.797 18.0551 17.9144 18.1433L18.2176 17.7521ZM17.52 17.5194C17.2758 17.5194 17.0281 17.596 16.8214 17.7528L17.1264 18.1426C17.2418 18.0551 17.3811 18.0115 17.52 18.0115V17.5194ZM16.8223 17.7521L16.2791 18.1607L16.5823 18.5518L17.1255 18.1433L16.8223 17.7521ZM16.6695 18.4286L16.8995 17.6927L16.4222 17.5474L16.1919 18.2838L16.6695 18.4286ZM16.8995 17.6927C17.0423 17.2395 16.8818 16.7477 16.4991 16.4601L16.1959 16.8513C16.4122 17.0138 16.5026 17.2919 16.4222 17.5474L16.8995 17.6927ZM16.4991 16.4601L15.8327 15.9588L15.5294 16.3499L16.1959 16.8513L16.4991 16.4601ZM15.6811 16.4004H16.4588V15.9083H15.6811V16.4004Z" fill="#225E9F"/>
<path d="M39.1062 26.9433H37.3075V29.6007H34.6094V31.3723H37.3075V34.0298H39.1062V31.3723H41.8044V29.6007H39.1062V26.9433Z" fill="#225E9F"/>
<path d="M39.1071 26.9428H39.3569V26.6967H39.1071V26.9428ZM37.3083 26.9428V26.6967H37.0585V26.9428H37.3083ZM37.3083 29.6002V29.8463H37.5581V29.6002H37.3083ZM34.6102 29.6002V29.3542H34.3604V29.6002H34.6102ZM34.6102 31.3719H34.3604V31.6179H34.6102V31.3719ZM37.3083 31.3719H37.5581V31.1258H37.3083V31.3719ZM37.3083 34.0293H37.0585V34.2754H37.3083V34.0293ZM39.1071 34.0293V34.2754H39.3569V34.0293H39.1071ZM39.1071 31.3719V31.1258H38.8572V31.3719H39.1071ZM41.8052 31.3719V31.6179H42.055V31.3719H41.8052ZM41.8052 29.6002H42.055V29.3542H41.8052V29.6002ZM39.1071 29.6002H38.8572V29.8463H39.1071V29.6002ZM39.1071 26.6967H37.3083V27.1889H39.1071V26.6967ZM37.0585 26.9428V29.6002H37.5581V26.9428H37.0585ZM37.3083 29.3542H34.6102V29.8463H37.3083V29.3542ZM34.3604 29.6002V31.3719H34.86V29.6002H34.3604ZM34.6102 31.6179H37.3083V31.1258H34.6102V31.6179ZM37.0585 31.3719V34.0293H37.5581V31.3719H37.0585ZM37.3083 34.2754H39.1071V33.7833H37.3083V34.2754ZM39.3569 34.0293V31.3719H38.8572V34.0293H39.3569ZM39.1071 31.6179H41.8052V31.1258H39.1071V31.6179ZM42.055 31.3719V29.6002H41.5553V31.3719H42.055ZM41.8052 29.3542H39.1071V29.8463H41.8052V29.3542ZM39.3569 29.6002V26.9428H38.8572V29.6002H39.3569Z" fill="#225E9F"/>
<path d="M2.2334 0.368503H4.03215V2.14014H2.2334V0.368503Z" fill="#225E9F"/>
<path d="M2.23127 0.369513V0.123453H1.98145V0.369513H2.23127ZM4.03002 0.369513H4.27985V0.123453H4.03002V0.369513ZM4.03002 2.14115V2.38721H4.27985V2.14115H4.03002ZM2.23127 2.14115H1.98145V2.38721H2.23127V2.14115ZM2.23127 0.615574H4.03002V0.123453H2.23127V0.615574ZM3.78019 0.369513V2.14115H4.27985V0.369513H3.78019ZM4.03002 1.89509H2.23127V2.38721H4.03002V1.89509ZM2.4811 2.14115V0.369513H1.98145V2.14115H2.4811Z" fill="#225E9F"/>
<path d="M2.2334 3.9122H4.03215V5.68384H2.2334V3.9122Z" fill="#225E9F"/>
<path d="M2.23127 3.91224V3.66618H1.98145V3.91224H2.23127ZM4.03002 3.91224H4.27985V3.66618H4.03002V3.91224ZM4.03002 5.68387V5.92993H4.27985V5.68387H4.03002ZM2.23127 5.68387H1.98145V5.92993H2.23127V5.68387ZM2.23127 4.1583H4.03002V3.66618H2.23127V4.1583ZM3.78019 3.91224V5.68387H4.27985V3.91224H3.78019ZM4.03002 5.43781H2.23127V5.92993H4.03002V5.43781ZM2.4811 5.68387V3.91224H1.98145V5.68387H2.4811Z" fill="#225E9F"/>
<path d="M4.03125 2.14048H5.83V3.91211H4.03125V2.14048Z" fill="#225E9F"/>
<path d="M4.03205 2.141V1.89494H3.78223V2.141H4.03205ZM5.8308 2.141H6.08063V1.89494H5.8308V2.141ZM5.8308 3.91263V4.15869H6.08063V3.91263H5.8308ZM4.03205 3.91263H3.78223V4.15869H4.03205V3.91263ZM4.03205 2.38706H5.8308V1.89494H4.03205V2.38706ZM5.58098 2.141V3.91263H6.08063V2.141H5.58098ZM5.8308 3.66657H4.03205V4.15869H5.8308V3.66657ZM4.28188 3.91263V2.141H3.78223V3.91263H4.28188Z" fill="#225E9F"/>
<path d="M0.433594 2.14048H2.23234V3.91211H0.433594V2.14048Z" fill="#225E9F"/>
<path d="M0.434397 2.141V1.89494H0.18457V2.141H0.434397ZM2.23315 2.141H2.48297V1.89494H2.23315V2.141ZM2.23315 3.91263V4.15869H2.48297V3.91263H2.23315ZM0.434397 3.91263H0.18457V4.15869H0.434397V3.91263ZM0.434397 2.38706H2.23315V1.89494H0.434397V2.38706ZM1.98332 2.141V3.91263H2.48297V2.141H1.98332ZM2.23315 3.66657H0.434397V4.15869H2.23315V3.66657ZM0.684223 3.91263V2.141H0.18457V3.91263H0.684223Z" fill="#225E9F"/>
<path d="M50.7979 0.368503H52.5966V2.14014H50.7979V0.368503Z" fill="#225E9F"/>
<path d="M50.7996 0.369513V0.123453H50.5498V0.369513H50.7996ZM52.5984 0.369513H52.8482V0.123453H52.5984V0.369513ZM52.5984 2.14115V2.38721H52.8482V2.14115H52.5984ZM50.7996 2.14115H50.5498V2.38721H50.7996V2.14115ZM50.7996 0.615574H52.5984V0.123453H50.7996V0.615574ZM52.3486 0.369513V2.14115H52.8482V0.369513H52.3486ZM52.5984 1.89509H50.7996V2.38721H52.5984V1.89509ZM51.0495 2.14115V0.369513H50.5498V2.14115H51.0495Z" fill="#225E9F"/>
<path d="M50.7979 3.9122H52.5966V5.68384H50.7979V3.9122Z" fill="#225E9F"/>
<path d="M50.7996 3.91224V3.66618H50.5498V3.91224H50.7996ZM52.5984 3.91224H52.8482V3.66618H52.5984V3.91224ZM52.5984 5.68387V5.92993H52.8482V5.68387H52.5984ZM50.7996 5.68387H50.5498V5.92993H50.7996V5.68387ZM50.7996 4.1583H52.5984V3.66618H50.7996V4.1583ZM52.3486 3.91224V5.68387H52.8482V3.91224H52.3486ZM52.5984 5.43781H50.7996V5.92993H52.5984V5.43781ZM51.0495 5.68387V3.91224H50.5498V5.68387H51.0495Z" fill="#225E9F"/>
<path d="M52.5986 2.14048H54.3974V3.91211H52.5986V2.14048Z" fill="#225E9F"/>
<path d="M52.5985 2.141V1.89494H52.3486V2.141H52.5985ZM54.3972 2.141H54.647V1.89494H54.3972V2.141ZM54.3972 3.91263V4.15869H54.647V3.91263H54.3972ZM52.5985 3.91263H52.3486V4.15869H52.5985V3.91263ZM52.5985 2.38706H54.3972V1.89494H52.5985V2.38706ZM54.1474 2.141V3.91263H54.647V2.141H54.1474ZM54.3972 3.66657H52.5985V4.15869H54.3972V3.66657ZM52.8483 3.91263V2.141H52.3486V3.91263H52.8483Z" fill="#225E9F"/>
<path d="M48.999 2.14048H50.7978V3.91211H48.999V2.14048Z" fill="#225E9F"/>
<path d="M48.9988 2.141V1.89494H48.749V2.141H48.9988ZM50.7976 2.141H51.0474V1.89494H50.7976V2.141ZM50.7976 3.91263V4.15869H51.0474V3.91263H50.7976ZM48.9988 3.91263H48.749V4.15869H48.9988V3.91263ZM48.9988 2.38706H50.7976V1.89494H48.9988V2.38706ZM50.5478 2.141V3.91263H51.0474V2.141H50.5478ZM50.7976 3.66657H48.9988V4.15869H50.7976V3.66657ZM49.2487 3.91263V2.141H48.749V3.91263H49.2487Z" fill="#225E9F"/>
</svg>
