<svg width="112" height="107" viewBox="0 0 112 107" fill="none" xmlns="http://www.w3.org/2000/svg">
<path d="M47.2803 94.0596L43.9313 106.083L42.0894 105.585L43.6887 99.8438L43.5397 99.8035L36.8201 104.162L34.5014 103.535L40.9327 99.4526L37.8325 91.5068L40.0499 92.1059L42.4997 98.544L44.3968 97.3017L45.4384 93.5619L47.2803 94.0596Z" fill="black"/>
<path d="M19.1166 94.5118L26.2479 84.2107L27.6982 85.1848L27.7843 96.3098L27.8813 96.3749L33.1114 88.8201L34.6895 89.8799L27.5581 100.181L26.0976 99.2001L26.0133 88.0616L25.9163 87.9964L20.6792 95.5613L19.1166 94.5118Z" fill="black"/>
<path d="M12.3706 76.9343C13.4534 76.1376 14.5323 75.6476 15.6073 75.4645C16.679 75.2838 17.6822 75.379 18.6169 75.75C19.5458 76.1202 20.3371 76.7361 20.9907 77.5977C21.6467 78.4625 22.0245 79.3878 22.124 80.3733C22.2178 81.3581 22.0231 82.3322 21.54 83.2957C21.0569 84.2591 20.2756 85.138 19.1962 85.9323C18.1134 86.7291 17.0362 87.2178 15.9645 87.3985C14.8895 87.5816 13.8875 87.4881 12.9586 87.1179C12.0239 86.7468 11.2285 86.1289 10.5725 85.2641C9.9189 84.4025 9.54523 83.4793 9.45147 82.4945C9.35195 81.5089 9.54373 80.5344 10.0268 79.571C10.5066 78.6099 11.2879 77.7311 12.3706 76.9343ZM13.5027 78.4267C12.6774 79.0339 12.0824 79.677 11.7177 80.3557C11.3472 81.0336 11.1894 81.707 11.2442 82.376C11.2932 83.0441 11.5348 83.6643 11.9688 84.2365C12.4054 84.812 12.9419 85.2176 13.5786 85.4534C14.2119 85.6915 14.9123 85.7334 15.6799 85.5789C16.4416 85.4236 17.2352 85.0424 18.0604 84.4351C18.8857 83.8278 19.4836 83.1852 19.8541 82.5073C20.2188 81.8285 20.3766 81.1551 20.3276 80.487C20.2753 79.8213 20.0308 79.2007 19.5943 78.6252C19.1602 78.053 18.6265 77.6478 17.9932 77.4096C17.3541 77.1706 16.6537 77.1288 15.8919 77.284C15.1244 77.4385 14.328 77.8194 13.5027 78.4267Z" fill="black"/>
<path d="M16.4863 70.8296L5.50902 77.9365L4.89437 76.0528L13.4726 70.786L13.4367 70.6759L3.31896 71.2249L2.70997 69.3587L11.2639 63.9972L11.2279 63.8871L1.13645 64.5365L0.519904 62.6471L13.6475 62.13L14.2357 63.9325L6.02398 69.288L6.05424 69.3807L15.8962 69.0213L16.4863 70.8296Z" fill="black"/>
<path d="M2.8078 45.4625L3.3768 43.2495L13.9051 41.7809L13.9415 41.6392L5.39183 35.4122L5.96083 33.1992L18.2321 36.2598L17.786 37.9949L8.90612 35.7801L8.87729 35.8922L16.8228 41.667L16.4525 43.107L6.66812 44.4597L6.63929 44.5719L15.5252 46.7881L15.0791 48.5232L2.8078 45.4625Z" fill="black"/>
<path d="M20.1219 22.0299C21.2534 22.758 22.091 23.5878 22.6346 24.5194C23.1749 25.4488 23.4285 26.4095 23.3956 27.4015C23.3614 28.3879 23.0457 29.3313 22.4485 30.2317C21.849 31.1355 21.0964 31.8026 20.1907 32.233C19.2838 32.6578 18.288 32.8121 17.2035 32.696C16.1189 32.5798 15.0126 32.1588 13.8845 31.4329C12.753 30.7048 11.9172 29.8761 11.377 28.9467C10.8333 28.0151 10.5785 27.0561 10.6127 26.0697C10.6456 25.0777 10.9618 24.1298 11.5613 23.226C12.1586 22.3256 12.9106 21.663 13.8175 21.2382C14.7232 20.8078 15.7184 20.6507 16.803 20.7668C17.8841 20.8808 18.9904 21.3018 20.1219 22.0299ZM19.0874 23.5894C18.225 23.0345 17.4076 22.7048 16.6351 22.6004C15.8615 22.4904 15.1651 22.5756 14.546 22.8559C13.9257 23.1306 13.4172 23.567 13.0205 24.165C12.6216 24.7664 12.419 25.402 12.4128 26.0718C12.4031 26.7394 12.6036 27.4018 13.0144 28.0588C13.424 28.7102 14.06 29.3134 14.9224 29.8683C15.7848 30.4233 16.6029 30.7557 17.3765 30.8657C18.149 30.9701 18.8453 30.8849 19.4656 30.6102C20.0825 30.3333 20.5904 29.8941 20.9893 29.2927C21.3859 28.6947 21.5891 28.0619 21.5988 27.3943C21.6073 26.7211 21.4068 26.0588 20.9972 25.4074C20.5864 24.7503 19.9498 24.1444 19.0874 23.5894Z" fill="black"/>
<path d="M27.9414 23.2903L20.1663 13.4514L23.727 10.7218C24.5009 10.1285 25.2469 9.76748 25.965 9.63873C26.6863 9.5075 27.3573 9.57686 27.9779 9.84682C28.596 10.1136 29.1442 10.5496 29.6226 11.1549C30.0984 11.7571 30.3888 12.3856 30.4939 13.0405C30.5996 13.6897 30.4956 14.3378 30.1817 14.9847C29.8712 15.6291 29.3289 16.2479 28.555 16.8412L25.8576 18.909L24.8478 17.6311L27.4086 15.668C27.8963 15.2941 28.2386 14.9211 28.4355 14.549C28.6355 14.1745 28.7034 13.8011 28.6389 13.4288C28.5744 13.0565 28.3967 12.6862 28.1056 12.3178C27.812 11.9463 27.4845 11.6805 27.123 11.5205C26.7648 11.3579 26.3743 11.323 25.9515 11.4157C25.5294 11.5027 25.0696 11.7369 24.5721 12.1183L22.6796 13.5691L29.4486 22.1349L27.9414 23.2903ZM29.3648 15.0709L35.3408 17.6179L33.6239 18.9341L27.6967 16.3497L29.3648 15.0709Z" fill="black"/>
<path d="M39.6094 15.6687L35.4991 3.87641L43.0055 1.33833L43.5393 2.86994L37.8394 4.79723L39.0918 8.39019L44.4 6.59534L44.9318 8.1212L39.6236 9.91605L40.882 13.5263L46.652 11.5753L47.1859 13.1069L39.6094 15.6687Z" fill="black"/>
<path d="M63.9131 11.9412L68.0233 0.148878L69.8298 0.75968L67.867 6.39096L68.0131 6.44037L74.9977 2.50709L77.2718 3.27603L70.5926 6.9521L73.1791 15.0742L71.0044 14.3389L68.9706 7.7618L66.998 8.88415L65.7195 12.552L63.9131 11.9412Z" fill="black"/>
<path d="M92.5629 12.8322L85.2861 23.0341L83.8497 22.0402L83.9215 10.9151L83.8254 10.8486L78.4886 18.3306L76.9258 17.2493L84.2026 7.04735L85.6491 8.04823L85.5752 19.1868L85.6713 19.2533L91.0153 11.7613L92.5629 12.8322Z" fill="black"/>
<path d="M99.6663 30.5108C98.5348 31.2389 97.4268 31.661 96.3422 31.7772C95.2611 31.8911 94.2659 31.734 93.3568 31.3058C92.4533 30.8788 91.703 30.2151 91.1057 29.3147C90.5062 28.4109 90.1883 27.4641 90.1519 26.4743C90.1212 25.4857 90.3777 24.5255 90.9214 23.5939C91.465 22.6624 92.3009 21.8336 93.4289 21.1077C94.5604 20.3796 95.6667 19.9586 96.7479 19.8447C97.8324 19.7285 98.8265 19.884 99.7299 20.311C100.639 20.7392 101.393 21.4052 101.993 22.309C102.59 23.2093 102.904 24.1538 102.935 25.1425C102.971 26.1323 102.718 27.093 102.174 28.0246C101.634 28.954 100.798 29.7827 99.6663 30.5108ZM98.6318 28.9513C99.4942 28.3963 100.129 27.7914 100.536 27.1366C100.949 26.483 101.15 25.8207 101.138 25.1497C101.132 24.4798 100.93 23.8459 100.534 23.2479C100.135 22.6465 99.6251 22.2085 99.0048 21.9338C98.388 21.6568 97.6916 21.5717 96.9157 21.6783C96.1455 21.786 95.3292 22.1174 94.4668 22.6724C93.6044 23.2273 92.9667 23.8316 92.5536 24.4852C92.1463 25.14 91.9457 25.8023 91.952 26.4722C91.9617 27.1398 92.166 27.7743 92.5649 28.3757C92.9616 28.9737 93.4684 29.4111 94.0852 29.6881C94.7077 29.9662 95.4041 30.0514 96.1743 29.9436C96.9502 29.837 97.7694 29.5062 98.6318 28.9513Z" fill="black"/>
<path d="M96.0201 39.3005L107.43 32.8878L107.923 34.8058L99.025 39.5307L99.0538 39.6429L109.187 39.7218L109.675 41.6221L100.796 46.4429L100.825 46.555L110.938 46.5321L111.432 48.456L98.2976 48.1587L97.8257 46.3234L106.363 41.4873L106.339 41.3929L96.4935 41.1418L96.0201 39.3005Z" fill="black"/>
<path d="M110.419 66.9896L109.576 69.1161L98.9443 69.288L98.8904 69.4241L106.59 76.6469L105.747 78.7734L93.9558 74.2382L94.6169 72.571L103.15 75.8528L103.192 75.7451L96.0349 69.0447L96.5835 67.6611L106.463 67.5133L106.505 67.4056L97.9669 64.1215L98.6279 62.4543L110.419 66.9896Z" fill="black"/>
<path d="M90.2912 88.1299C89.2601 87.2693 88.5334 86.3436 88.1112 85.3528C87.6921 84.3646 87.5613 83.3804 87.7188 82.4C87.8769 81.4254 88.3088 80.5278 89.0148 79.7073C89.7234 78.8836 90.5542 78.3136 91.5071 77.997C92.4604 77.6862 93.4679 77.6547 94.5295 77.9023C95.5911 78.15 96.6359 78.7028 97.6639 79.5608C98.695 80.4215 99.4201 81.3459 99.8392 82.334C100.261 83.3248 100.394 84.3075 100.236 85.2822C100.078 86.2625 99.645 87.1645 98.9363 87.9881C98.2304 88.8086 97.4007 89.3743 96.4473 89.6851C95.4945 90.0016 94.4872 90.0361 93.4256 89.7884C92.3672 89.5433 91.3224 88.9905 90.2912 88.1299ZM91.514 86.7087C92.2999 87.3646 93.0696 87.7916 93.8229 87.9894C94.5768 88.193 95.2785 88.1935 95.9281 87.991C96.5782 87.7941 97.1377 87.4232 97.6065 86.8782C98.0781 86.3302 98.3591 85.7242 98.4496 85.0603C98.5432 84.399 98.4276 83.7173 98.1027 83.0152C97.7782 82.3188 97.223 81.6427 96.4371 80.9867C95.6512 80.3307 94.8813 79.901 94.1275 79.6974C93.3741 79.4995 92.6724 79.499 92.0223 79.6958C91.3754 79.8953 90.8161 80.2691 90.3446 80.8171C89.8757 81.3621 89.5945 81.9652 89.5008 82.6265C89.4076 83.2935 89.5233 83.9752 89.8477 84.6716C90.1727 85.3737 90.7281 86.0527 91.514 86.7087Z" fill="black"/>
<path d="M82.6904 85.9224L89.1673 96.6346L85.2906 98.9084C84.448 99.4027 83.6623 99.6698 82.9335 99.7099C82.2013 99.7521 81.5442 99.6013 80.9623 99.2577C80.3826 98.9175 79.8935 98.4179 79.495 97.7589C79.0986 97.1033 78.8895 96.4442 78.8677 95.7815C78.8445 95.1243 79.0293 94.494 79.4221 93.8904C79.8114 93.2889 80.4273 92.741 81.27 92.2468L84.2067 90.5243L85.048 91.9156L82.2599 93.5509C81.7288 93.8624 81.3422 94.1907 81.1001 94.5359C80.8544 94.8831 80.7401 95.2453 80.7572 95.6227C80.7743 96 80.9041 96.3891 81.1466 96.7901C81.3912 97.1946 81.6827 97.4984 82.0212 97.7013C82.3562 97.9063 82.7393 97.9887 83.1705 97.9483C83.6003 97.9135 84.0861 97.7373 84.6277 97.4196L86.6883 96.211L81.0494 86.8849L82.6904 85.9224ZM80.2436 93.9046L74.6342 90.6476L76.5035 89.5512L82.0598 92.8393L80.2436 93.9046Z" fill="black"/>
<path d="M70.1494 92.061L72.7439 104.264L64.976 105.866L64.639 104.281L70.5375 103.065L69.747 99.3466L64.2538 100.48L63.9181 98.9005L69.4113 97.7676L68.617 94.0316L62.6459 95.2631L62.3089 93.6781L70.1494 92.061Z" fill="black"/>
<path d="M54.2494 44.1989L62.6686 52.4665C62.7685 52.565 62.8391 52.6716 62.8804 52.7864C62.9224 52.9013 62.9434 53.0243 62.9434 53.1555C62.9434 53.2867 62.9224 53.4098 62.8804 53.5246C62.8391 53.6394 62.7685 53.7461 62.6686 53.8445L54.2494 62.1367C54.0162 62.3664 53.7248 62.4812 53.375 62.4812C53.0253 62.4812 52.7255 62.3582 52.4756 62.1121C52.2258 61.866 52.1009 61.579 52.1009 61.2509C52.1009 60.9228 52.2258 60.6357 52.4756 60.3897L59.8205 53.1555L52.4756 45.9213C52.2425 45.6917 52.1259 45.4089 52.1259 45.0729C52.1259 44.7363 52.2508 44.445 52.5006 44.1989C52.7504 43.9529 53.0419 43.8298 53.375 43.8298C53.7081 43.8298 53.9996 43.9529 54.2494 44.1989Z" fill="#212121"/>
</svg>
