<svg width="73" height="73" viewBox="0 0 73 73" fill="none" xmlns="http://www.w3.org/2000/svg">
<path d="M55.5259 28.1594C57.3451 31.7216 58.4062 35.663 58.4062 39.9075C58.4062 54.1566 46.8098 65.7529 32.6365 65.7529C18.4631 65.7524 6.79097 54.156 6.79097 39.9075C6.79097 25.6583 18.3873 14.062 32.6365 14.062C36.8807 14.062 40.8978 15.123 44.4601 16.9422L49.0835 12.3189C44.2327 9.43858 38.6239 7.771 32.6363 7.771C14.9007 7.771 0.5 22.1717 0.5 39.9073C0.5 57.6429 14.9007 72.0436 32.6363 72.0436C50.3719 72.0436 64.6969 57.6429 64.6969 39.9073C64.6969 33.9199 63.0294 28.311 60.149 23.4602L55.5259 28.1594Z" fill="#FF522C"/>
<path d="M32.6364 26.1887C33.3945 26.1887 34.2283 26.2643 34.9858 26.4161L40.064 21.3379C37.79 20.4286 35.2889 19.8977 32.6364 19.8977C21.5703 19.8977 12.627 28.841 12.627 39.9071C12.627 50.9732 21.5703 59.9165 32.6364 59.9165C43.6262 59.9165 52.6458 50.9732 52.6458 39.9071C52.6458 37.3303 52.115 34.829 51.2056 32.4795L46.1274 37.5577C46.2791 38.3158 46.3548 39.0734 46.3548 39.9071C46.3548 47.4864 40.2156 53.6257 32.6362 53.6257C25.0567 53.6257 18.9176 47.4866 18.9176 39.9071C18.9171 32.3278 25.0567 26.1885 32.6362 26.1885L32.6364 26.1887Z" fill="#FF522C"/>
<path d="M71.2149 8.90798L66.8944 6.63405C66.4397 6.40671 66.1363 6.10324 65.909 5.64858L63.5595 1.25257C62.8013 -0.187637 60.9065 -0.414881 59.7698 0.72176L57.4204 3.07121C56.9657 3.52589 56.7384 4.13229 56.7384 4.73867V9.96853C56.7384 10.8023 56.4354 11.636 55.829 12.2425L35.5164 32.555C33.9245 31.9486 32.1059 31.7213 30.211 32.4033C27.4068 33.3127 25.2085 35.8139 24.8294 38.6941C24.0713 43.9995 28.6191 48.5474 33.9245 47.7137C36.8048 47.259 39.3061 45.0606 40.1398 42.2566C40.7462 40.3617 40.5189 38.6186 39.9125 37.0267L60.2251 16.7141C60.8315 16.1077 61.6653 15.8048 62.499 15.8048H67.7289C68.3353 15.8048 68.9417 15.5774 69.3963 15.1227L71.7458 12.7733C72.9586 11.5605 72.6556 9.66563 71.2155 8.90756L71.2149 8.90798Z" fill="#FF522C"/>
</svg>
