<svg width="52" height="51" viewBox="0 0 52 51" fill="none" xmlns="http://www.w3.org/2000/svg">
<path d="M35.5407 29.0947C36.5467 27.5094 37.3011 25.7755 37.7539 24.1406C39.1119 19.0875 37.7539 14.728 36.7982 12.5476C36.4461 11.755 33.1767 4.62118 25.0784 2.09468C24.2736 1.84697 22.1108 1.25249 19.4953 1.25249C9.18399 1.25249 0.78418 9.52567 0.78418 19.7313C0.78418 29.7385 9.38518 38.1603 19.5458 38.2102H19.5961C23.3685 38.2102 26.7385 37.0212 29.5553 35.1882L43.4377 48.8613C44.2928 49.7035 45.3993 50.0999 46.4556 50.0999C47.5622 50.0999 48.6687 49.7035 49.4735 48.8613C51.1334 47.2264 51.1334 44.5513 49.4735 42.8668L35.5407 29.0947ZM19.5464 36.7239C10.1908 36.6744 2.29423 28.8965 2.29423 19.7318C2.29423 10.3687 10.0402 2.73978 19.5464 2.73978C21.9607 2.73978 23.9223 3.28472 24.6768 3.48288C32.2216 5.86082 35.2898 12.8461 35.4407 13.0937C36.2958 15.0753 37.5533 19.0882 36.2958 23.7448C34.6359 30.0364 28.1977 36.7238 19.5967 36.7238L19.5464 36.7239Z" fill="#225E9F"/>
<path d="M35.5388 29.0943L35.2846 28.9378L35.1584 29.1367L35.3264 29.3027L35.5388 29.0943ZM37.7519 24.1403L38.0412 24.218L38.0417 24.2159L37.7519 24.1403ZM36.7962 12.5473L37.0715 12.4303L37.0709 12.4289L36.7962 12.5473ZM25.0764 2.09432L25.1669 1.81283L25.1658 1.81249L25.0764 2.09432ZM19.5439 38.2098L19.5424 38.5051H19.5439V38.2098ZM29.5533 35.1878L29.7653 34.979L29.5922 34.8086L29.388 34.9414L29.5533 35.1878ZM49.4716 48.8609L49.2595 48.6521L49.2532 48.6586L49.4716 48.8609ZM49.4716 42.8665L49.6867 42.6608L49.6839 42.6581L49.4716 42.8665ZM19.5444 36.7235L19.5428 37.0188L19.5447 37.0188L19.5444 36.7235ZM24.6749 3.48253L24.7662 3.2013L24.7592 3.19909L24.7521 3.19722L24.6749 3.48253ZM35.4388 13.0934L35.7147 12.9779L35.7065 12.959L35.6958 12.9414L35.4388 13.0934ZM36.2938 23.7445L36.0041 23.6686L36.0037 23.6702L36.2938 23.7445ZM48.4658 47.8206L48.6778 48.0294L48.6828 48.0244L48.6876 48.0192L48.4658 47.8206ZM34.6839 30.3326L34.8959 30.1238L34.6432 29.8749L34.4383 30.1632L34.6839 30.3326ZM35.793 29.2508C36.8146 27.641 37.5808 25.8805 38.0412 24.218L37.4627 24.0626C37.0176 25.6698 36.2749 27.3771 35.2846 28.9378L35.793 29.2508ZM38.0417 24.2159C39.4235 19.0742 38.0414 14.6431 37.0715 12.4303L36.521 12.6643C37.4625 14.8122 38.7963 19.1001 37.4621 24.0647L38.0417 24.2159ZM37.0709 12.4289C36.7125 11.6221 33.397 4.38042 25.1669 1.81283L24.9859 2.37581C32.9525 4.86122 36.1758 11.8872 36.5216 12.6656L37.0709 12.4289ZM25.1658 1.81249C24.347 1.56047 22.1516 0.956863 19.4933 0.956863V1.54741C22.0661 1.54741 24.1962 2.13277 24.987 2.37615L25.1658 1.81249ZM19.4933 0.956863C9.01592 0.956863 0.482422 9.36277 0.482422 19.731H1.08201C1.08201 9.68787 9.34812 1.54741 19.4933 1.54741V0.956863ZM0.482422 19.731C0.482422 29.9025 9.21866 38.4545 19.5424 38.5051L19.5454 37.9145C9.54777 37.8655 1.08201 29.5737 1.08201 19.731H0.482422ZM19.5439 38.5051H19.5942V37.9145H19.5439V38.5051ZM19.5942 38.5051C23.4327 38.5051 26.8594 37.2948 29.7186 35.4342L29.388 34.9414C26.6137 36.7469 23.3003 37.9145 19.5942 37.9145V38.5051ZM29.3413 35.3966L43.2237 49.0697L43.6477 48.6522L29.7653 34.979L29.3413 35.3966ZM43.2237 49.0697C44.1381 49.9703 45.3222 50.3948 46.4536 50.3948V49.8042C45.4724 49.8042 44.4435 49.436 43.6477 48.6522L43.2237 49.0697ZM46.4536 50.3948C47.6316 50.3948 48.8211 49.9725 49.6899 49.0633L49.2532 48.6586C48.5124 49.4339 47.4889 49.8042 46.4536 49.8042V50.3948ZM49.6835 49.0697C51.4622 47.3178 51.4578 44.4581 49.6867 42.6608L49.2564 43.0721C50.8052 44.6438 50.8006 47.1342 49.2595 48.6521L49.6835 49.0697ZM49.6839 42.6581L35.7511 28.8859L35.3264 29.3027L49.2592 43.0749L49.6839 42.6581ZM19.546 36.4283C10.3539 36.3796 2.59206 28.7322 2.59206 19.7315H1.99247C1.99247 29.0601 10.0238 36.9684 19.5428 37.0188L19.546 36.4283ZM2.59206 19.7315C2.59206 10.5314 10.2038 3.03469 19.5444 3.03469V2.44415C9.87268 2.44415 1.99247 10.2052 1.99247 19.7315H2.59206ZM19.5444 3.03469C21.9158 3.03469 23.844 3.5699 24.5976 3.76783L24.7521 3.19722C23.9967 2.99883 22.0016 2.44415 19.5444 2.44415V3.03469ZM24.5835 3.76375C31.9973 6.1004 35.0084 12.961 35.1817 13.2453L35.6958 12.9414C35.698 12.945 35.6955 12.941 35.684 12.9184C35.6742 12.8992 35.6615 12.8737 35.6449 12.8405C35.6123 12.775 35.5672 12.6846 35.5097 12.5731C35.3947 12.35 35.2304 12.0427 35.0137 11.6738C34.5806 10.9361 33.9382 9.95163 33.0612 8.89945C31.3083 6.79621 28.61 4.41275 24.7662 3.2013L24.5835 3.76375ZM35.1629 13.2089C36.0046 15.1595 37.2376 19.1007 36.0041 23.6686L36.5836 23.8204C37.865 19.0749 36.5831 14.9905 35.7147 12.9779L35.1629 13.2089ZM36.0037 23.6702C34.3711 29.8584 28.033 36.4282 19.5947 36.4282V37.0188C28.3584 37.0188 34.8968 30.2137 36.584 23.8187L36.0037 23.6702ZM19.5947 36.4282L19.5441 36.4283L19.5447 37.0188L19.5947 37.0188V36.4282ZM48.2538 47.6118C47.8068 48.0521 47.1788 48.318 46.5042 48.318V48.9085C47.3385 48.9085 48.1188 48.5799 48.6778 48.0294L48.2538 47.6118ZM30.9932 34.5301C32.5257 33.373 33.855 32.0137 34.9295 30.5019L34.4383 30.1632C33.4001 31.6239 32.1139 32.9398 30.6284 34.0615L30.9932 34.5301ZM34.4719 30.5413L48.2543 44.116L48.6783 43.6984L34.8959 30.1238L34.4719 30.5413ZM48.2543 44.116C48.7013 44.5562 48.9713 45.1748 48.9713 45.8392H49.5708C49.5708 45.0175 49.2372 44.2489 48.6783 43.6984L48.2543 44.116ZM48.9713 45.8392C48.9713 46.5013 48.7022 47.1256 48.244 47.622L48.6876 48.0192C49.2354 47.4258 49.5708 46.6632 49.5708 45.8392H48.9713Z" fill="#225E9F"/>
<path d="M19.5957 6.05752C11.9 6.05752 5.61328 12.2501 5.61328 19.8292C5.61328 27.4082 11.9007 33.6008 19.5957 33.6008C27.2908 33.6008 33.5782 27.4082 33.5782 19.8292C33.5782 12.2501 27.2908 6.05752 19.5957 6.05752ZM32.0192 18.7897H25.6313C25.4804 13.9842 24.3236 10.0706 22.6134 7.8908C27.6936 9.12936 31.5666 13.4889 32.0192 18.7897ZM19.4945 32.0665C17.3318 32.0665 14.9677 27.261 14.8671 20.2765H24.122C24.0214 27.2617 21.6573 32.0665 19.4945 32.0665ZM14.8671 18.7897C15.1186 12.1513 17.382 7.64304 19.4945 7.64304C21.6071 7.64304 23.8705 12.1512 24.122 18.7897H14.8671ZM16.376 7.98988C14.6659 10.1697 13.509 14.0833 13.3581 18.8392H7.17144C7.57383 13.5879 11.3462 9.27781 16.376 7.98988ZM7.12109 20.2759H13.3581C13.4084 25.2795 14.5653 29.4409 16.3257 31.7194C11.145 30.3323 7.32228 25.7746 7.12109 20.2759ZM22.6131 31.7693C24.4238 29.5399 25.5806 25.329 25.631 20.2759H32.0692C31.868 25.8244 27.8945 30.4812 22.6131 31.7693Z" fill="#225E9F"/>
<path d="M32.0192 18.7898V19.0851H32.3452L32.3179 18.7651L32.0192 18.7898ZM25.6313 18.7898L25.3317 18.7989L25.3406 19.0851H25.6313V18.7898ZM22.6134 7.89093L22.6854 7.60431L21.8498 7.40059L22.3762 8.07148L22.6134 7.89093ZM14.8671 20.2766V19.9813H14.563L14.5673 20.2808L14.8671 20.2766ZM24.122 20.2766L24.4218 20.2808L24.4261 19.9813H24.122V20.2766ZM14.8671 18.7898L14.5675 18.7788L14.5559 19.0851H14.8671V18.7898ZM24.122 18.7898V19.0851H24.4332L24.4216 18.7788L24.122 18.7898ZM13.3581 18.8393V19.1346H13.6487L13.6577 18.8485L13.3581 18.8393ZM7.17143 18.8393L6.87249 18.8171L6.84816 19.1346H7.17143V18.8393ZM7.12108 20.276V19.9808H6.81029L6.82148 20.2867L7.12108 20.276ZM13.3581 20.276L13.6579 20.2731L13.6549 19.9808H13.3581V20.276ZM16.3257 31.7196L16.247 32.0045L17.0987 32.2325L16.5642 31.5408L16.3257 31.7196ZM22.613 31.7694L22.3789 31.5849L21.8262 32.2655L22.6851 32.056L22.613 31.7694ZM25.631 20.276V19.9808H25.3341L25.3312 20.2731L25.631 20.276ZM32.0692 20.276L32.3688 20.2866L32.3799 19.9808H32.0692V20.276ZM19.5957 5.76238C11.7344 5.76238 5.31348 12.0872 5.31348 19.8293H5.91306C5.91306 12.4133 12.0655 6.35293 19.5957 6.35293V5.76238ZM5.31348 19.8293C5.31348 27.5714 11.7351 33.8962 19.5957 33.8962V33.3057C12.0662 33.3057 5.91306 27.2453 5.91306 19.8293H5.31348ZM19.5957 33.8962C27.4563 33.8962 33.8779 27.5714 33.8779 19.8293H33.2784C33.2784 27.2453 27.1252 33.3057 19.5957 33.3057V33.8962ZM33.8779 19.8293C33.8779 12.0872 27.4563 5.76238 19.5957 5.76238V6.35293C27.1252 6.35293 33.2784 12.4133 33.2784 19.8293H33.8779ZM32.0192 18.4945H25.6313V19.0851H32.0192V18.4945ZM25.931 18.7807C25.7792 13.9469 24.6161 9.96075 22.8506 7.71039L22.3762 8.07148C24.0309 10.1807 25.1817 14.0218 25.3317 18.7989L25.931 18.7807ZM22.5414 8.17755C27.4981 9.38601 31.2787 13.6412 31.7204 18.8146L32.3179 18.7651C31.8544 13.3369 27.8891 8.87299 22.6854 7.60431L22.5414 8.17755ZM19.4945 31.7714C19.0707 31.7714 18.5913 31.5346 18.093 31.0058C17.5976 30.4801 17.113 29.695 16.6844 28.6777C15.828 26.645 15.2167 23.7359 15.1668 20.2724L14.5673 20.2808C14.618 23.8018 15.239 26.7878 16.1306 28.904C16.5759 29.9611 17.0941 30.8139 17.6535 31.4075C18.2099 31.998 18.837 32.3619 19.4945 32.3619V31.7714ZM14.8671 20.5719H24.122V19.9813H14.8671V20.5719ZM23.8222 20.2724C23.7724 23.7363 23.161 26.6453 22.3047 28.6779C21.8761 29.6952 21.3914 30.4803 20.8961 31.0059C20.3978 31.5346 19.9184 31.7714 19.4945 31.7714V32.3619C20.1521 32.3619 20.7792 31.998 21.3356 31.4076C21.895 30.814 22.4131 29.9613 22.8585 28.9042C23.75 26.7881 24.3711 23.8022 24.4218 20.2808L23.8222 20.2724ZM15.1666 18.8008C15.2914 15.5089 15.9148 12.7601 16.758 10.8445C17.1799 9.88588 17.6514 9.14862 18.1319 8.65583C18.6145 8.16084 19.0791 7.93844 19.4945 7.93844V7.3479C18.8537 7.3479 18.2432 7.68903 17.6994 8.24679C17.1535 8.80674 16.6472 9.61144 16.2079 10.6096C15.3283 12.6078 14.6943 15.4323 14.5675 18.7788L15.1666 18.8008ZM19.4945 7.93844C19.91 7.93844 20.3746 8.16084 20.8572 8.65581C21.3377 9.1486 21.8091 9.88585 22.2311 10.8445C23.0742 12.76 23.6977 15.5088 23.8224 18.8008L24.4216 18.7788C24.2948 15.4323 23.6607 12.6078 22.7812 10.6096C22.3418 9.61141 21.8356 8.80672 21.2897 8.24677C20.7459 7.68902 20.1354 7.3479 19.4945 7.3479V7.93844ZM24.122 18.4945H14.8671V19.0851H24.122V18.4945ZM16.1388 7.80947C14.3734 10.0596 13.2102 14.0456 13.0585 18.8301L13.6577 18.8485C13.8077 14.1213 14.9583 10.28 16.6132 8.17056L16.1388 7.80947ZM13.3581 18.544H7.17143V19.1346H13.3581V18.544ZM7.47037 18.8615C7.86295 13.7383 11.5434 9.53252 16.4515 8.27579L16.3006 7.70424C11.1489 9.02338 7.28469 13.4377 6.87249 18.8171L7.47037 18.8615ZM7.12108 20.5713H13.3581V19.9808H7.12108V20.5713ZM13.0583 20.2789C13.1089 25.3113 14.2705 29.5472 16.0871 31.8984L16.5642 31.5408C14.86 29.3349 13.7079 25.248 13.6579 20.2731L13.0583 20.2789ZM16.4043 31.4346C11.3478 30.0808 7.61705 25.6323 7.42067 20.2654L6.82148 20.2867C7.02749 25.9171 10.9421 30.5841 16.247 32.0045L16.4043 31.4346ZM22.8471 31.9538C24.7197 29.6484 25.8801 25.3578 25.9307 20.2789L25.3312 20.2731C25.2811 25.3005 24.1279 29.4316 22.3789 31.5849L22.8471 31.9538ZM25.631 20.5713H32.0692V19.9808H25.631V20.5713ZM31.7696 20.2655C31.5732 25.6801 27.6946 30.2259 22.541 31.4828L22.6851 32.056C28.0943 30.7368 32.1627 25.969 32.3688 20.2866L31.7696 20.2655Z" fill="#225E9F"/>
</svg>
