<svg width="488" height="416" viewBox="0 0 488 416" fill="none" xmlns="http://www.w3.org/2000/svg">
<g clip-path="url(#clip0_396_6759)">
<path d="M316.5 224.5C315.7 220.5 314.1 216.7 311.9 213.4L315.9 208.6L307.4 200.1L302.6 204.1C299.3 201.9 295.5 200.3 291.5 199.5L290.9 193.3H278.9L278.3 199.5C274.3 200.3 270.5 201.9 267.2 204.1L262.4 200.1L253.9 208.6L257.9 213.4C255.7 216.7 254.1 220.5 253.3 224.5L247.1 225.1V237.1L253.3 237.7C254.1 241.7 255.7 245.5 257.9 248.8L253.9 253.6L262.4 262.1L267.2 258.1C270.5 260.3 274.3 261.9 278.3 262.7L278.9 268.9H290.9L291.5 262.7C295.5 261.9 299.3 260.3 302.6 258.1L307.4 262.1L315.9 253.6L311.9 248.8C314.1 245.5 315.7 241.7 316.5 237.7L322.7 237.1V225.1L316.5 224.5ZM301.2 231.1C301.2 240.1 293.9 247.3 285 247.3C276 247.3 268.8 240 268.8 231.1C268.8 222.1 276.1 214.9 285 214.9C293.9 214.9 301.2 222.1 301.2 231.1Z" fill="#F0F0F0"/>
<path d="M345.1 47.3C344 42 341.9 37 339 32.7L344.2 26.4L333 15.1L326.7 20.3C322.3 17.4 317.4 15.3 312.1 14.2L311.3 6H295.4L294.6 14.2C289.3 15.3 284.3 17.4 280 20.3L273.7 15.1L262.5 26.3L267.7 32.6C264.8 37 262.7 41.9 261.6 47.2L253.4 48V63.9L261.6 64.7C262.7 70 264.8 75 267.7 79.3L262.5 85.6L273.7 96.8L280 91.6C284.4 94.5 289.3 96.6 294.6 97.7L295.4 105.9H311.3L312.1 97.7C317.4 96.6 322.4 94.5 326.7 91.6L333 96.8L344.2 85.6L339 79.3C341.9 74.9 344 70 345.1 64.7L353.3 63.9V48.1L345.1 47.3ZM324.8 56C324.8 67.9 315.2 77.5 303.3 77.5C291.4 77.5 281.8 67.9 281.8 56C281.8 44.1 291.4 34.5 303.3 34.5C315.2 34.5 324.8 44.2 324.8 56Z" fill="#F0F0F0"/>
<path d="M150.2 26C149.6 23 148.4 20.3 146.8 17.9L149.7 14.4L143.5 8.19995L140 11.1C137.6 9.49995 134.8 8.29995 131.9 7.69995L131.5 3.19995H122.7L122.3 7.69995C119.3 8.29995 116.6 9.49995 114.2 11.1L110.7 8.19995L104.5 14.4L107.4 17.9C105.8 20.3 104.6 23.1 104 26L99.5 26.4V35.2L104 35.5999C104.6 38.5999 105.8 41.2999 107.4 43.7L104.5 47.2L110.7 53.4L114.2 50.5C116.6 52.0999 119.4 53.3 122.3 53.9L122.7 58.4H131.5L131.9 53.9C134.9 53.3 137.6 52.0999 140 50.5L143.5 53.4L149.7 47.2L146.8 43.7C148.4 41.2999 149.6 38.5 150.2 35.5999L154.7 35.2V26.4L150.2 26ZM139 30.9C139 37.5 133.7 42.7999 127.1 42.7999C120.5 42.7999 115.2 37.5 115.2 30.9C115.2 24.2999 120.5 19 127.1 19C133.6 18.9 139 24.2999 139 30.9Z" fill="#F0F0F0"/>
<path d="M133.8 265.5C133.5 264.1 133 262.9 132.3 261.8L133.6 260.2L130.7 257.3L129.1 258.6C128 257.9 126.7 257.3 125.4 257.1L125.2 255H121.2L121 257.1C119.6 257.4 118.4 257.9 117.3 258.6L115.7 257.3L112.8 260.2L114.1 261.8C113.4 262.9 112.8 264.2 112.6 265.5L110.5 265.7V269.7L112.6 269.9C112.9 271.3 113.4 272.5 114.1 273.6L112.8 275.2L115.7 278.1L117.3 276.8C118.4 277.5 119.7 278.1 121 278.3L121.2 280.4H125.2L125.4 278.3C126.8 278 128 277.5 129.1 276.8L130.7 278.1L133.6 275.2L132.3 273.6C133 272.5 133.6 271.2 133.8 269.9L135.9 269.7V265.7L133.8 265.5ZM128.6 267.8C128.6 270.8 126.2 273.3 123.1 273.3C120 273.3 117.6 270.9 117.6 267.8C117.6 264.8 120 262.3 123.1 262.3C126.2 262.3 128.6 264.7 128.6 267.8Z" fill="#F0F0F0"/>
<path d="M48.9001 106.6C48.6001 105.2 48.1001 104 47.4001 102.9L48.7001 101.3L45.8001 98.4L44.2001 99.7C43.1001 99 41.8001 98.4 40.5001 98.2L40.3001 96.1H36.3001L36.1001 98.2C34.7001 98.5 33.5001 99 32.4001 99.7L30.8001 98.4L27.9001 101.3L29.2001 102.9C28.5001 104 27.9001 105.3 27.7001 106.6L25.6001 106.8V110.8L27.7001 111C28.0001 112.4 28.5001 113.6 29.2001 114.7L27.9001 116.3L30.8001 119.2L32.4001 117.9C33.5001 118.6 34.8001 119.2 36.1001 119.4L36.3001 121.5H40.3001L40.5001 119.4C41.9001 119.1 43.1001 118.6 44.2001 117.9L45.8001 119.2L48.7001 116.3L47.4001 114.7C48.1001 113.6 48.7001 112.3 48.9001 111L51.0001 110.8V106.8L48.9001 106.6ZM43.8001 108.8C43.8001 111.8 41.4001 114.3 38.3001 114.3C35.3001 114.3 32.8001 111.9 32.8001 108.8C32.8001 105.8 35.2001 103.3 38.3001 103.3C41.3001 103.4 43.8001 105.8 43.8001 108.8Z" fill="#F0F0F0"/>
<path d="M433 47.8C432.6 45.7 431.7 43.7 430.6 42L432.7 39.5L428.3 35.1L425.8 37.2C424.1 36.1 422.1 35.2 420 34.8L419.7 31.6H413.4L413.1 34.8C411 35.2 409 36.1 407.3 37.2L404.8 35.1L400.4 39.5L402.5 42C401.4 43.7 400.5 45.7 400.1 47.8L396.9 48.1V54.4L400.1 54.7C400.5 56.8 401.4 58.8 402.5 60.5L400.4 63L404.8 67.4L407.3 65.3C409 66.4 411 67.3 413.1 67.7L413.4 70.9H419.7L420 67.7C422.1 67.3 424.1 66.4 425.8 65.3L428.3 67.4L432.7 63L430.6 60.5C431.7 58.8 432.6 56.8 433 54.7L436.2 54.4V48.1L433 47.8ZM424.9 51.2C424.9 55.9 421.1 59.7 416.4 59.7C411.7 59.7 407.9 55.9 407.9 51.2C407.9 46.5 411.7 42.7 416.4 42.7C421.1 42.7 424.9 46.5 424.9 51.2Z" fill="#F0F0F0"/>
<path d="M384.2 16.9C383.9 15.5 383.4 14.3 382.7 13.2L384 11.6L381.2 8.8L379.6 10.1C378.5 9.4 377.2 8.8 375.9 8.6L375.7 6.5H371.7L371.5 8.6C370.1 8.9 368.9 9.4 367.8 10.1L366.2 8.8L363.4 11.6L364.7 13.2C364 14.3 363.4 15.6 363.2 16.9L361.1 17.1V21.1L363.2 21.3C363.5 22.7 364 23.9 364.7 25L363.4 26.6L366.2 29.4L367.8 28.1C368.9 28.8 370.2 29.4 371.5 29.6L371.7 31.7H375.7L375.9 29.6C377.3 29.3 378.5 28.8 379.6 28.1L381.2 29.4L384 26.6L382.7 25C383.4 23.9 384 22.6 384.2 21.3L386.3 21.1V17.1L384.2 16.9ZM379.1 19.1C379.1 22.1 376.7 24.6 373.6 24.6C370.6 24.6 368.1 22.2 368.1 19.1C368.1 16.1 370.5 13.6 373.6 13.6C376.6 13.6 379.1 16.1 379.1 19.1Z" fill="#F0F0F0"/>
<path d="M431.9 275H251.2C248 275 245.3 272.4 245.3 269.1V5.9C245.3 2.7 247.9 0 251.2 0H431.9C435.1 0 437.8 2.6 437.8 5.9V269.2C437.8 272.4 435.2 275 431.9 275ZM251.2 0.3C248.1 0.3 245.6 2.8 245.6 5.9V269.2C245.6 272.3 248.1 274.8 251.2 274.8H431.9C435 274.8 437.5 272.3 437.5 269.2V5.9C437.5 2.8 435 0.3 431.9 0.3H251.2Z" fill="#E0E0E0"/>
<path d="M223.5 275H42.6998C39.4998 275 36.7998 272.4 36.7998 269.1V5.9C36.7998 2.7 39.3998 0 42.6998 0H223.4C226.6 0 229.3 2.6 229.3 5.9V269.2C229.4 272.4 226.7 275 223.5 275ZM42.6998 0.3C39.5998 0.3 37.0998 2.8 37.0998 5.9V269.2C37.0998 272.3 39.5998 274.8 42.6998 274.8H223.4C226.5 274.8 229 272.3 229 269.2V5.9C229 2.8 226.5 0.3 223.4 0.3H42.6998Z" fill="#E0E0E0"/>
<path d="M488 336.1H-12V336.4H488V336.1Z" fill="#E0E0E0"/>
<path d="M55.8002 350.3H39.7002V350.6H55.8002V350.3Z" fill="#E0E0E0"/>
<path d="M211.9 347.6H158.4V347.9H211.9V347.6Z" fill="#E0E0E0"/>
<path d="M92.9002 359.6H56.7002V359.9H92.9002V359.6Z" fill="#E0E0E0"/>
<path d="M409.6 347.5H366.4V347.8H409.6V347.5Z" fill="#E0E0E0"/>
<path d="M424.8 347.5H418.5V347.8H424.8V347.5Z" fill="#E0E0E0"/>
<path d="M358.1 353.7H304.2V354H358.1V353.7Z" fill="#E0E0E0"/>
<path d="M271.9 371.7C272.7 361.2 278.5 350.5 287.8 343.3C290.1 341.5 295 337.9 291 336C286.5 333.8 277.8 343.9 276.6 345.8C279.2 337.8 286.9 332 295.4 328.6C299.6 327 303.5 325.4 299.1 322.9C294.7 320.4 285 326.4 282.8 328.9C288.1 323 294.7 317.1 301.5 313.6C309 309.7 305.6 303.2 297.9 308.3C293.1 311.4 285.2 319.2 285.2 319.2C285.2 319.2 297.6 299.3 293.9 297.5C289 295.2 280.5 322.3 278.2 327.7C278.8 323.3 279.4 312.5 275.3 312C271.5 311.6 272.4 338.3 271.6 343.1C271 345.2 270.8 346.2 270.4 348.3C270 344.7 267.5 335.3 263.7 336.4C260.5 337.3 262.5 344.3 263.3 347.7C265.3 355.8 267.3 363.6 267.3 371.9L271.9 371.7Z" fill="#F0F0F0"/>
<path d="M265 376.3C264.1 362.5 258.1 348.6 248.4 339.2C246 336.8 240.9 332.2 245 329.7C249.7 326.9 258.8 340 260 342.5C257.3 332 249.2 324.4 240.4 320.1C236 317.9 231.9 315.9 236.5 312.7C241.1 309.5 251.2 317.3 253.5 320.6C248 312.9 241.1 305.2 234 300.7C226.1 295.6 229.7 287.2 237.8 293.7C242.9 297.8 251.1 307.9 251.1 307.9C251.1 307.9 238.1 281.9 242.1 279.5C247.1 276.4 256 312 258.5 318.9C257.9 313.1 257.2 299.1 261.6 298.5C265.5 298 264.6 332.9 265.5 339C266.1 341.7 266.4 343 266.8 345.8C267.2 341.2 269.8 328.9 273.8 330.3C277.1 331.5 275.1 340.7 274.2 345C272.1 355.5 270 365.8 270 376.6L265 376.3Z" fill="#E6E6E6"/>
<path d="M250 369.4L254.4 393.8H280.7L285.4 369.4H250Z" fill="#E0E0E0"/>
<path d="M289 362.4H246.8V370.5H289V362.4Z" fill="#E0E0E0"/>
<path d="M238 405.3C353.372 405.3 446.9 402.569 446.9 399.2C446.9 395.831 353.372 393.1 238 393.1C122.628 393.1 29.1001 395.831 29.1001 399.2C29.1001 402.569 122.628 405.3 238 405.3Z" fill="#EBEBEB"/>
<path d="M86.7998 50.4999V235.2C86.7998 240.6 91.1998 245 96.5998 245H385.5C387.5 245 389.2 243.3 389.2 241.3V49.2999C389.2 46.5999 387 44.3999 384.3 44.3999H92.9998C89.5998 44.2999 86.7998 47.0999 86.7998 50.4999Z" fill="#225E9F"/>
<path opacity="0.7" d="M86.7998 50.4999V235.2C86.7998 240.6 91.1998 245 97.6998 244.9H386.6C387.5 244.9 389.1 243.3 389.1 241.2V49.1999C389.1 46.4999 386.9 44.2999 384.2 44.2999H92.9998C89.5998 44.2999 86.7998 47.0999 86.7998 50.4999Z" fill="white"/>
<path d="M389.2 60.4H86.7998V49.0999C86.7998 46.3999 88.9998 44.2 91.6998 44.2H385.3C387.4 44.2 389.2 45.8999 389.2 48.0999V60.4Z" fill="#225E9F"/>
<path opacity="0.3" d="M381.7 55.7C383.578 55.7 385.1 54.1778 385.1 52.3C385.1 50.4223 383.578 48.9 381.7 48.9C379.822 48.9 378.3 50.4223 378.3 52.3C378.3 54.1778 379.822 55.7 381.7 55.7Z" fill="white"/>
<path opacity="0.3" d="M372 55.7C373.877 55.7 375.4 54.1778 375.4 52.3C375.4 50.4223 373.877 48.9 372 48.9C370.122 48.9 368.6 50.4223 368.6 52.3C368.6 54.1778 370.122 55.7 372 55.7Z" fill="white"/>
<path opacity="0.3" d="M362.3 55.7C364.178 55.7 365.7 54.1778 365.7 52.3C365.7 50.4223 364.178 48.9 362.3 48.9C360.422 48.9 358.9 50.4223 358.9 52.3C358.9 54.1778 360.422 55.7 362.3 55.7Z" fill="white"/>
<path d="M140.3 37.1C149.3 37.1 158.2 37.1 167.2 37.1" stroke="#225E9F" stroke-miterlimit="10" stroke-linecap="round" stroke-linejoin="round"/>
<path d="M174.5 37.1C176.4 37.1 178.2 37.1 180.1 37.1" stroke="#225E9F" stroke-miterlimit="10" stroke-linecap="round" stroke-linejoin="round"/>
<path d="M352.5 93.3H123.5C118.1 93.3 113.7 88.9 113.7 83.5C113.7 78.1 118.1 73.7 123.5 73.7H352.5C357.9 73.7 362.3 78.1 362.3 83.5C362.2 88.9 357.9 93.3 352.5 93.3Z" fill="white"/>
<path d="M351.6 83C351.6 83.9 351.3 84.7 350.8 85.4C350 86.5 348.7 87.3 347.2 87.3C344.8 87.3 342.9 85.4 342.9 83C342.9 80.6 344.8 78.7 347.2 78.7C349.7 78.7 351.6 80.6 351.6 83Z" stroke="#225E9F" stroke-miterlimit="10"/>
<path d="M353.6 88.3L350.6 86" stroke="#225E9F" stroke-miterlimit="10" stroke-linecap="round" stroke-linejoin="round"/>
<g opacity="0.4">
<path d="M342 222C341.9 222.7 341.4 223.5 340.8 224C340.4 224.4 339 225.1 338.9 224.1C338.9 223.8 339.2 222.5 339.3 222.2C339.6 221.4 340 221.9 340.5 222C341.1 222.1 341.6 221.6 342 222Z" fill="white"/>
<path d="M338.4 139.6C338.6 140.3 338.7 140.9 338.9 141.6C338.4 142.4 337.4 142.1 336.6 142.5C336.2 142.7 336.1 143.4 335.8 143.5C335.5 143.6 335.3 143.2 335 143.2C334.3 143.2 334 144.6 333.2 144.2C332.7 144.5 333.2 145.8 332.6 146C332.2 146.1 332 145.4 331.7 145C331.4 144.5 331 144.3 330.9 143.9C330.9 143.5 331.6 142.8 331.8 142.5C332.1 142.2 332.6 141.5 332.9 141.4C333.5 141.2 334.2 141.5 334.6 141.2C335 141 335 140.2 335.3 140C335.5 139.8 335.7 139.9 335.9 139.8C336.3 139.5 336.8 138.5 336.6 137.5C336.4 136.9 335.6 136.2 336.1 135.4C336.9 135.5 338 136.5 338.2 137.5C338.3 137.9 338.1 138.3 338.1 138.7C338.1 139.1 338.3 139.3 338.4 139.6Z" fill="white"/>
<path d="M338.6 133.4C338.5 133.7 338.3 133.6 338.1 133.8C337.9 134 337.7 134.5 337.4 134.5C337 134.6 336.6 134.1 336.2 134.2C335.8 134.3 336 134.7 335.9 135.2C335.5 135.1 334.9 134.6 334.9 134.1C334.9 133.8 335.2 133.6 335.3 133.2C335.4 132.6 335.1 132.2 334.9 131.6C334.9 131.5 334.9 131.5 334.9 131.4C335.4 131.3 336.3 132.3 337.3 132.5C338 132.7 338.5 132.7 338.6 133.4Z" fill="white"/>
<path d="M336.8 190.9C336.8 191.4 336.2 191.3 336.1 191C336.1 190.7 336.7 190.6 336.8 190.9Z" fill="white"/>
<path d="M333.5 128.7C334 129 335.1 129.7 334.3 130.3C333.8 130.1 333.3 129.3 333.5 128.7Z" fill="white"/>
<path d="M331.3 188.4C331.8 188 332.4 187.3 333.4 187.7C333.2 188.4 332.5 188.4 332 188.7C331.5 189 331.2 189.6 330.6 189.7C330.6 189.6 330.5 189.5 330.4 189.5C330.4 188.8 331 188.7 331.3 188.4Z" fill="white"/>
<path d="M330.1 177.8C330.7 177.8 331.2 177.6 331.6 177.9C331.5 179.3 329.7 178.2 328.5 178.5C328.2 178.5 328.2 178.8 327.9 178.7C327.9 178.2 328.3 177.7 328.8 177.7C329 177.5 329.6 177.8 330.1 177.8Z" fill="white"/>
<path d="M330.5 179.5C330.6 180.3 329.7 180.4 329.4 181C329.8 181.7 329.9 182.7 330.4 183.4C330.4 183.8 330.5 184.4 330.3 184.6C329.4 184.8 328.8 182.8 328.5 182.1C327.8 182.3 328.4 185.1 327.5 184.7C327 184.5 327.5 183.7 327.4 183.1C327.3 182.6 326.9 182.4 326.8 182C326.8 181.7 327.1 181.3 327.2 180.9C327.3 180.4 327.3 179.4 327.8 179.4C328.1 179.4 328.4 180 328.6 180.1C329.1 180.2 329.7 179.4 330.5 179.5Z" fill="white"/>
<path d="M328.8 188C328.6 188.4 327.7 188.2 327.6 187.8C327.7 187.4 328.7 187.5 328.8 188Z" fill="white"/>
<path d="M327.9 189.3C327.8 189.4 327.8 189.5 327.7 189.5C327.3 189.4 327 189.3 326.9 188.8C327.1 188.4 327.9 188.8 327.9 189.3Z" fill="white"/>
<path d="M326.6 187.9C326.4 188.3 325.5 187.9 325.2 188.3C324.7 188.3 324.2 188.3 324.1 187.8C324.2 187.4 324.7 187.7 325 187.6C325.7 187.6 326.5 187.1 326.6 187.9Z" fill="white"/>
<path d="M320 209.6C320 209.1 319.7 208.7 319.7 208.1C319.7 207.9 319.7 207.7 319.7 207.4C319.7 207 319.5 206.8 319.6 206.6C319.7 206.2 320 206.2 320.1 205.9C320.2 205.4 319.9 205.3 319.9 204.7C319.9 204.3 320.2 204 320.4 203.5C320.5 203.2 320.5 202.7 320.6 202.5C320.7 202.3 321.2 202.1 321.4 201.9C322.1 201.5 322.7 200.7 323.4 200.5C323.6 200.5 323.8 200.5 324 200.5C324.4 200.4 325 200 325.6 199.8C326.2 199.6 326.7 199.7 327.1 199.4C327.6 199.1 328.2 198.2 328.4 197.7C328.6 197.1 328.6 196.6 329 196.3C329.2 196.2 329.4 196.3 329.6 196.2C329.8 196.1 330.3 195.9 330.4 195.7C330.7 195.3 330.8 194.8 331.2 194.4C331.5 194.1 331.9 193.8 332.3 193.6C332.5 193.5 332.9 193.4 333.1 193.4C333.8 193.5 334.1 194.6 334.8 194.4C335.1 194.3 335.3 193.7 335.6 193.3C335.9 192.7 336.2 191.9 336.8 191.8C337.3 191.7 337.8 192 338.1 191.5C338.2 191.1 337.9 190.9 338.1 190.7C338.6 190.7 339.6 191.6 340.4 191.7C340.8 191.7 341.7 191.1 341.8 191.9C341.8 192.3 341.5 192.6 341.4 192.9C341.3 193.2 341.5 193.3 341.4 193.6C341 193.8 340.6 193.9 340.6 194.4C340.6 195 341.4 195.3 341.8 195.7C342.1 195.9 342.4 196.3 342.6 196.4C342.7 196.5 343 196.6 343.1 196.6C343.4 196.8 343.6 197.4 344 197.4C344.5 197.4 345 196.7 345.2 196C345.5 195.2 345.5 194.2 345.7 193.3C345.7 193 345.9 192.7 346 192.5C346.2 191.7 346.4 190.7 347 190.4C347.6 191.1 347.8 192.5 347.7 193.7C348.1 194 348.7 193.9 348.8 194.7C348.8 195 348.7 195.3 348.7 195.6C348.7 196.1 349 196.5 349.1 196.9C349.2 197.7 349 198.3 349.3 198.8C349.7 199.5 350.4 199.5 350.9 200.2C350.9 200.7 351 200.9 351.1 201.2C351.1 201.4 351.1 201.7 351.1 201.8C351.3 202.2 351.7 202.2 351.8 202.5C351.9 202.7 351.9 203 351.9 203.2C352 203.6 352.3 203.9 352.6 204.3C352.8 204.7 353.2 205.1 353.2 205.4C353.3 206 353 206.4 352.9 206.8C352.8 207.4 352.9 208.1 352.7 208.7C352.5 209.4 351.9 210.1 351.5 210.9C351.2 211.6 350.7 212.4 350.2 212.9C349.9 213.2 349.5 213.4 349.3 213.6C348.8 214 348.5 214.6 348.1 215.1C347.7 215.6 347.2 216.1 346.8 216.5C346.3 217.2 346.1 218.3 345.2 218.4C344.7 218.5 344.3 218.4 343.8 218.6C343.1 218.9 342.6 219.5 342.3 219.6C341.9 219.6 341.6 219.1 341.3 219C340.9 218.9 340.6 219.3 340.1 219.3C339.9 219.3 339.8 219.1 339.4 219C338.7 218.7 338 218.8 337.9 217.9C337.8 217.4 338.2 217.2 338.1 216.8C338.1 216.4 337.7 216.3 337.6 215.9C337.7 215.5 337.7 215 337.4 214.8C337.4 214.4 337.5 214.2 337.6 214C337.3 214.1 337 214.2 336.7 214.5C336.4 214.7 336.1 215.3 335.7 215.2C335.3 215 335.6 214.6 335.6 214.2C335.6 213.9 335 212.8 334.8 212.6C334.5 212.4 333.5 211.9 333.2 211.9C331.7 211.6 330.8 212.6 329.7 212.7C329.4 212.7 329.1 212.6 328.8 212.7C327.9 212.9 326.8 213.8 326.2 214.4C325.2 214.5 324.2 214.2 323.2 214.5C322.2 214.9 321.6 215.8 320.1 215.6C319.8 215.3 319.3 215.1 319.3 214.6C319.3 214.2 319.8 213.9 320 213.6C320.2 213.3 320.5 212.5 320.5 212C320.5 211.6 320.3 211.2 320.3 210.7C319.8 210.4 320 210 320 209.6Z" fill="white"/>
<path d="M319.2 186C319.5 186 319.6 185.7 319.9 185.7C320.4 185.7 321 186.2 321.6 186.1C321.7 186.3 321.6 186.4 321.6 186.7C322.2 187.1 323.1 187 323.3 187.7C322.9 188.2 322.3 187.8 321.7 187.8C321.2 187.7 320.7 187.8 320.2 187.7C319.5 187.6 318.9 187.2 318.3 187.1C317.9 187 317.5 187.2 317.2 187.1C316.8 187 315.2 186.3 315.2 185.8C315.2 185.3 315.9 185.1 316.6 185.2C317.5 185.3 318.1 186.2 319.2 186Z" fill="white"/>
<path d="M320.5 182.1C320.1 182 319.8 182 319.7 181.9C319.4 181.7 319.4 181 319.3 180.6C319.2 180.2 318.8 180 318.6 179.5C318.3 178.7 318.2 177 319 176.8C319.3 176.7 319.7 177 319.9 177C320.4 176.9 320.3 176.2 320.7 175.9C320.9 175.7 321.3 175.8 321.6 175.7C321.9 175.6 322.1 175.2 322.4 174.9C322.6 174.6 322.8 174.1 323 173.9C323.3 173.7 323.6 173.7 323.8 173.4C324.4 172.8 324.4 172 324.9 171.4C325.3 170.8 326 172 326 172.4C326.2 172.8 326.7 172.8 326.9 173.2C326.6 174.2 325.8 174.3 326 175.7C326 175.9 326.2 176.4 326.3 176.7C326.4 177 326.8 177.4 326.8 177.6C326.8 178 326.1 178 325.9 178.4C325.8 178.8 325.9 178.8 325.9 179.5C325.7 180 325.2 180.1 325 180.6C324.8 181.3 325 182.1 324.6 182.6C324.3 182.6 323.9 182.9 323.6 182.9C323.2 182.9 322.8 182.2 322.1 182.2C321.9 182.2 321.6 182.4 321.3 182.4C320.9 182.4 320.8 182.2 320.5 182.1Z" fill="white"/>
<path d="M317.4 180.8C318.6 180.8 318.6 183 317.4 183C316.2 183.1 316.2 180.8 317.4 180.8Z" fill="white"/>
<path d="M315.6 180.6C315.7 180.6 316.3 181.5 316.3 181.7C316.3 182.1 315.8 182.1 315.6 182.6C315.4 183.4 315.7 184.3 315.3 184.8C315.1 185 314.7 184.9 314.4 184.9C313.5 184.2 312.9 183.3 312.1 182.4C311.8 182 311.5 181.7 311.3 181.4C311.1 180.9 311 180.3 310.7 179.8C310.5 179.4 310 179 309.8 178.6C309.6 178.2 309.6 177.7 309.4 177.3C309.2 176.9 308.9 176.8 308.6 176.5C308.5 176.3 308.4 176 308.2 175.8C307.6 174.9 306.5 174.5 306.4 173.3C306.6 173 306.9 173.4 307.3 173.5C307.6 173.6 307.9 173.5 308.1 173.6C308.5 173.8 308.8 174.6 309.3 175C309.6 175.2 309.9 175.4 310.1 175.7C310.4 176 310.6 176.4 310.8 176.5C311.1 176.7 311.5 176.9 311.9 177.2C312.4 177.6 313.4 178 313.6 178.9C313.6 179.1 313.5 179.5 313.6 179.6C313.7 179.9 314 180 314.2 180.3C314.4 180.6 314.5 181.1 314.8 181.2C315.3 181.1 315.3 180.5 315.6 180.6Z" fill="white"/>
<path d="M293.4 168.7C293.8 168.9 295.2 170.8 294.8 171.9C294.7 172.2 294.2 172.6 293.8 172.5C292.9 172.3 293 169.8 293.3 168.8C293.3 168.8 293.3 168.7 293.4 168.7Z" fill="white"/>
<path d="M262.1 197.3C262.1 196.8 262.4 196.1 262.7 195.8C263.1 195.4 263.7 195.5 264.2 195.2C264.6 195 265.1 194.6 265.3 194.2C265.5 193.8 265.5 193.4 265.7 193.2C265.8 193 266.1 193 266.3 192.7C266.4 192.5 266.4 192.1 266.6 191.9C267.3 191.6 267.4 193 267.5 194C267.5 194.3 267.7 194.6 267.6 194.8C267.5 195.3 267.1 195.3 267 195.7C267 196.9 266.6 198 266.2 199C265.9 199.9 265.7 200.8 265.4 201.6C265.3 201.9 265.1 202.1 265 202.3C264.7 203.3 264.5 204.8 263.9 205.2C263.7 205.3 262.8 205.6 262.6 205.6C262 205.6 261.5 205.1 261.4 204.5C261.3 204.2 261.4 203.8 261.4 203.5C261.3 203 261.1 202.7 261.2 202.1C261.3 200.9 262.2 200.4 262.3 199.4C262.3 198.8 262 198.1 262.1 197.3Z" fill="white"/>
<path d="M239.3 116.7C239.4 117.6 238.1 117.5 237.9 118.3C237.8 118.7 238 119.2 238 119.5C237.9 120.1 237.4 119.9 236.8 120.2C236.5 120.4 236.2 120.9 235.9 121C235.6 121 235.4 120.8 235.2 120.8C234.9 120.9 235 121.3 234.5 121.4C234.1 121.5 233.5 121 233.5 121.6C233.5 122 234.1 122.2 234.4 122.1C234.7 122.1 234.9 121.8 235.2 121.8C235.8 121.8 236.1 122.3 236.5 122.3C237.3 122.3 238.1 121.4 239 121.5C239.4 121.5 239.6 121.9 239.9 121.8C240.4 121.7 240.7 121.1 241.1 120.9C241 119.9 241.1 118.7 241.9 118.6C242.4 118.6 243.2 119.6 243.3 118.6C243.3 118.1 242.9 117.7 242.6 117.8C242.3 117.8 242 118.4 241.8 117.9C241.8 117.4 242.3 117.5 242.6 117.4C242.8 117.3 242.9 117 243.2 116.9C244.3 116.4 245.9 117.4 246.3 116.2C245.3 115.2 243.6 116.6 242.5 116.5C242 116.5 241.4 116 241.2 115.5C241.2 115.3 241.2 115.1 241.2 114.8C241.2 114.4 241 114.1 241 113.8C241 112.8 243.2 112.6 243.2 111.3C242.8 110.8 241.6 110.9 241.2 111.4C241.1 111.6 241.1 111.9 240.9 112.3C240.5 113.1 239.1 113.2 238.7 114.1C238.6 114.3 238.4 114.9 238.5 115.2C238.3 116 239.3 116.2 239.3 116.7ZM228.1 172.1C226.7 171.9 225.4 172.5 224.4 173C223.9 173.3 223.3 173.7 222.8 173.7C222.4 173.7 221.9 173.4 221.5 173.4C220.9 173.3 220.2 173.4 219.7 173.5C219.2 173.6 218.7 174.1 218.2 174.1C217.3 174.2 216.4 173.1 215.8 172.6C215.4 172.3 215.1 172 214.8 171.7C214.4 171.4 214 171.2 213.7 170.9C213.3 170.5 213.3 169.7 213.1 169.1C212.9 168.4 212.2 167.9 211.6 167.3C211.2 166.8 210.3 166.1 210.2 165.5C210.1 165.2 210.3 164.8 210.3 164.5C210.3 164 210 163.7 210 163.4C210 162.9 210.5 162.5 210.6 162.1C210.7 161.9 210.6 161.6 210.7 161.3C210.8 160.7 211.1 160.4 211.1 159.5C211.1 159.2 210.8 158.9 210.8 158.4C210.8 158.1 211 157.9 210.9 157.7C210.9 157.2 210.3 157.1 210.3 156.6C210.2 156 210.8 155.6 211.1 154.9C211.2 154.6 211.3 154.2 211.4 153.9C211.7 153.4 212.1 153.2 212.3 152.7C212.4 152.3 212.5 151.8 212.6 151.6C212.8 151.3 213.1 151.1 213.4 150.6C213.7 150.2 213.8 149.8 214 149.6C214.2 149.4 214.6 149.3 214.8 149.2C215.7 148.7 216.3 148.1 216.7 147.1C216.6 146.2 216.8 145.8 217.1 145.2C217.4 144.6 217.6 144.1 218.1 143.7C218.7 143.3 219.2 143.3 219.7 142.5C219.9 142.1 220.2 141.5 220.2 141.1C220.2 140.5 219.7 139.8 219.3 139.7C218.9 139.6 218.2 140.1 218 139.5C217.9 139.3 218 138.9 218 138.7C217.9 138.3 217.7 138.1 217.7 137.8C217.7 137.3 218.1 136.7 218.3 136.1C218.5 135.3 218.3 134.6 218.3 133.7C219 132.5 220.4 133.1 221.9 133.2C222.1 133.2 222.4 133.1 222.6 133.1C223.5 133.1 224.1 133.4 224.4 132.5C224.5 132.2 224.6 130.9 224.5 130.6C224.4 130.2 223.8 129.2 223.5 129C223 128.6 222.4 128.8 222.1 128.2C222.3 127.1 223.4 128 224 127.7C224.3 127.6 224.3 126.9 224.6 126.8C224.8 126.7 225 127 225.3 127C225.5 127 226.4 126.5 226.6 126.3C226.9 126.1 227 125.5 227.3 125.3C227.5 125.2 227.7 125.2 227.9 125.1C228.3 124.9 228.8 124.5 229.1 124.1C229.5 123.5 229.7 122.8 230.1 122.7C230.7 122.6 232.2 122.9 232.3 122C232.4 121.2 231.7 120.6 232 119.7C232.2 119 232.7 119.1 233.4 118.7C233.7 119 233.6 119.8 233.7 120.3C234.1 120.3 235 120.1 235.1 119.7C235.2 119.1 234.5 118.5 234.3 118.2C234.1 117.8 234.1 117.1 233.7 117.1C233 116.9 232.3 118.3 231.4 118.3C230.8 118.3 230.2 117.8 230 117.2C229.9 116.9 230 116.6 230 116.3C229.9 115.8 229.7 115.4 229.8 114.7C230.2 114 231 113.8 231.6 113.5C231.8 113.4 232 113 232.3 112.9C232.7 112.7 233.3 112.9 233.8 112.6C234.1 112.4 234 112.1 234.2 111.8C234.3 111.6 234.6 111.4 234.8 111.2C234.9 111 234.9 110.7 235 110.6C235.4 110 236.2 109.8 236.5 109.1C236.6 108.8 236.3 108.7 236.4 108.3C236.6 107.9 237.1 108.2 237.5 108.1C238 108 238.4 107.3 238.9 107.2C239.4 107.1 240 107.1 240.5 106.9C240.8 106.8 241.1 106.4 241.3 106.4C241.4 106.4 241.7 106.5 241.8 106.5C242 106.5 242.2 106.4 242.4 106.3C242.7 106.3 243.2 106.4 243.6 106.4C244.3 106.4 245.1 106.1 245.7 106.5C246 106.7 246 107.1 246.4 107.3C246.6 107.4 246.9 107.3 247.2 107.3C247.7 107.4 248.1 107.7 248.8 107.8C249 107.8 249.2 107.8 249.5 107.8C250.2 107.9 250.9 108.3 251.6 108.6C252.2 108.8 253.3 109.1 253.3 109.7C253.3 110.4 252.3 110.7 251.8 110.7C251.1 110.7 250.1 110.2 249.3 110.5C249.3 111.8 250.5 112.8 251.5 112.6C251.6 112 250.9 112.3 251 111.8C251.5 111.4 252 112.1 252.7 112C253 111.9 252.9 111.5 253 111.2C253.6 110.8 254.3 110.2 255.1 110.6C255.1 110.5 255.2 110.4 255.3 110.4C255.4 109.8 254.7 109.5 255.1 108.9C255.3 108.5 256.1 108.6 256.3 109C256.4 109.4 256.1 109.3 256.1 109.7C256.3 110.2 256.7 110.2 256.9 110.2C257.4 110.2 257.5 109.7 257.9 109.4C258.1 109.3 258.3 109.3 258.6 109.2C258.9 109.1 259.1 108.8 259.3 108.7C259.5 108.7 259.7 108.7 259.9 108.6C260.2 108.5 260.5 108.3 260.7 108.3C261 108.3 261.2 108.7 261.5 108.8C261.7 108.8 261.9 108.7 262.2 108.6C262.4 108.6 262.7 108.6 262.9 108.6C263.4 108.5 263.7 108.2 264 108.3C264.3 108.3 264.7 108.7 264.9 108.5C265.2 108.1 264.5 107.9 264.7 107.5C265.4 107.6 266.2 107.5 266.9 107.7C268 107.9 269 108.5 270 108.5C269.9 107.7 269.2 107.9 268.8 107.6C268.7 107.5 268.3 106.7 268.3 106.4C268.3 106.3 268.8 105.2 269 105C269.4 104.5 270.8 104.5 271.2 105.2C271.5 105.6 271.4 106.3 271.8 106.3C272.1 106.3 272.3 105.3 272.7 105.3C273 105.3 273.2 105.9 273.5 105.9C273.9 105.9 274.2 105 274.7 105C275 105 275.1 105.2 275.5 105.2C275.8 105 275.4 104.7 275.5 104.4C276 103.9 277.2 104.3 277.9 104C278.1 103.7 277.7 103.5 277.9 103.3C278.5 102.8 279.5 102.8 280.4 102.6C281 102.5 281.6 102 282 101.9C282.5 101.8 283 102.2 283.4 102.2C283.7 102.2 284 102.1 284.2 102C284.5 101.9 284.6 101.6 284.9 101.5C285.3 101.4 285.8 101.6 286.3 101.5C286.8 101.4 287.3 101.2 287.6 101.3C287.9 101.4 288.2 101.8 288.5 101.9C289.5 102.1 290.5 101.7 291.4 102C291.6 102.1 291.7 102.3 291.9 102.3C292.5 102.6 292.9 102.5 293 103.4C293.5 103.6 293.8 104.1 294.3 104.3C294.7 104.4 295.1 104.2 295.5 104.2C296.1 104.2 296.8 104.2 297.2 104.3C297.5 104.4 297.7 104.6 298 104.6C298.2 104.6 298.4 104.6 298.7 104.6C299 104.6 299.3 104.8 299.5 104.8C300 104.8 300.4 104.3 300.8 104.2C301 104.2 301.3 104.3 301.5 104.3C302.3 104.4 303.2 104.2 303.9 104.4C304.2 104.5 304.8 105 305.2 105.3C305.5 105.6 305.6 106 305.9 106.1C306.1 106.3 306.8 106.6 307 106.6C307.3 106.5 307.3 106.1 307.6 106C308.5 105.7 310.2 106.4 310.9 105.9C311.2 105.7 311.1 105.4 311.4 105.2C312.8 105.1 314.2 105.3 315.5 105.3C316 105.3 316.4 105.2 316.9 105.2C317.4 105.3 317.7 105.9 318.2 106C318.5 106.1 319.1 106.1 319.5 106.2C319.8 106.3 320.1 106.5 320.3 106.5C320.8 106.6 321.3 106.4 321.8 106.4C322.9 106.3 324.3 106.2 325.3 106.7C325.9 107 326.1 107.5 326.7 107.6C327.6 107.7 328.9 107.5 329.8 107.6C330 107.6 330.2 107.7 330.4 107.7C330.7 107.7 330.9 107.4 331.2 107.4C331.7 107.4 332.4 108.3 333.1 108.1C333.4 107.9 332.9 107.5 333.1 107.3C333.4 107 333.7 107.3 334.1 107.3C334.3 107.3 334.6 107.2 334.8 107.2C335.3 107.3 335.8 107.8 336.4 108C336.9 108.1 337.6 108.2 338.2 108.1C338.7 108 339 107.9 339.5 107.9C339.7 107.9 339.9 108.1 340.1 108.2C340.3 108.3 340.5 108.2 340.7 108.3C340.9 108.4 341 108.5 341.2 108.6C342.1 108.9 343.2 109.1 344.2 109.4C344.7 109.6 345.3 110 345.8 110C346 110 346.2 109.9 346.5 109.9C347.9 109.9 349.6 110.6 349.5 112.2C347.8 112.6 346.4 110.8 344.7 111.4C344.4 111.5 344.1 111.9 344.1 112.2C344.2 113.2 346.2 113.1 346.4 114.1C346.1 114.4 345.7 114.1 345.4 114.2C345 114.3 344.3 114.8 344 115.1C343.7 115.5 343.4 116.4 343.1 116.5C342.7 116.6 342 116 341.4 116.2C341.2 116.3 340.9 116.6 340.7 116.7C340.2 116.8 339.5 116.4 339.2 117.1C339.4 117.6 339.3 118.3 339.6 118.6C339.8 118.8 340.1 118.6 340.4 118.8C340.7 118.9 340.9 119.4 341.2 119.7C341.4 119.9 341.7 119.9 341.8 120.2C341.8 120.6 341.7 120.7 341.7 120.9C341.8 121.4 342.4 121.5 342.4 121.8C342.4 122.2 342 122.1 341.9 122.5C341.9 122.8 342.2 122.8 342.2 123.2C342.2 123.4 342 123.7 342.1 123.9C342.1 124.3 342.4 124.5 342.3 124.9C342.3 125.2 342.1 125.4 341.9 125.5C341 124.8 340.2 123.8 339.2 123C338.2 122.1 336.6 121 336.5 119C336.5 118.7 337 118.5 337.1 118C337.1 117.8 337 117.6 337.1 117.3C337.1 116.6 337.6 116 337.6 115.6C337.6 115.2 336.9 114.4 336.6 114.2C336.3 114.4 336.6 114.7 336.6 115C336.5 115.3 336.2 115.8 335.9 115.8C335 115.9 334.9 114.4 333.5 114.8C333.1 114.9 332.6 115.6 332.7 116.4C332.7 116.6 333.3 116.9 333.3 117.2C333.3 117.5 332 117.6 331.7 117.6C330.9 117.5 330.5 116.8 329.9 116.9C329.6 116.9 329.3 117.2 329 117.3C327.5 117.6 325.3 116.4 324.8 118C324.7 118.2 324.8 118.5 324.7 118.7C324.6 119 324.4 119.3 324.3 119.5C324.2 119.7 324.3 120 324.2 120.3C324.1 120.5 323.2 121.5 324 121.8C324.2 121.9 324.3 121.7 324.5 121.7C324.9 121.8 325.6 122.5 326.1 122.5C326.4 122.5 326.8 122.1 327 122.1C327.4 122.1 327.8 122.4 328.1 122.6C328.4 122.8 328.9 123.2 329.1 123.2C329.5 123.2 329.3 122.8 329.8 122.6C330.6 122.9 331 123.9 331.8 124.8C332.1 125.1 332.5 125.4 332.9 125.8C333.1 126 333.8 126.6 333.8 126.9C333.8 127.2 333.6 127.3 333.6 127.5C333.5 127.8 333.7 128.1 333.5 128.3C332.7 128 332.6 127.1 332 126.3C331.8 126 331.6 125.7 331.3 125.3C331.2 125.1 330.7 124.5 330.4 124.6C329.8 124.9 330.7 125.9 330.9 126.2C331.2 126.7 331.6 127.4 331.7 127.9C331.7 128.2 331.5 128.9 331.5 129.4C331.5 129.8 331.6 130.1 331.5 130.5C331.5 130.8 331.3 131.2 331.2 131.6C331.1 132 331.1 132.5 331 132.8C330.8 133.3 330.2 133.9 329.8 133.9C329.4 133.9 329.2 133.5 328.9 133.6C328.3 133.6 328.2 134.3 327.9 134.8C327.9 135.4 328.1 135.5 328 135.9C327.9 136.5 327.2 136.6 327.2 137.2C327.2 137.8 327.8 137.9 328.1 138.1C328.5 138.4 329.3 139.2 329.7 139.8C330 140.2 330.3 141 330.3 141.4C330.3 142 328.9 142.7 328.4 142.5C327.9 142.3 328.1 141.7 327.9 141.1C327.8 140.7 327.5 140.5 327.4 140.1C327.3 139.9 327.4 139.6 327.3 139.4C327 138.8 326.5 139.1 325.9 138.8C325.5 138.6 325.6 138.1 325.5 137.6C325.3 137 324.4 136.7 323.8 136.9C323.3 137 323.1 137.5 322.7 137.6C322 137.1 322.8 135.9 322 135.8C321.4 135.7 320.9 136.9 320.5 137.3C320.2 137.5 319.8 137.6 319.7 137.9C319.6 138.5 320.2 138.4 320.7 138.6C321.1 138.8 321.2 139.4 321.6 139.4C321.9 139.4 322.2 139 322.5 138.9C323.1 138.8 323.5 139.2 323.9 139.4C323.7 140.1 322.4 140.6 322.4 141.5C322.4 142 322.9 142.1 323.3 142.5C323.6 142.8 324.1 143.6 324.5 144.2C324.7 144.4 325 144.6 325.1 144.8C325.3 145.2 325.3 145.6 325.5 145.9C325.5 146.2 325.4 146.3 325.4 146.6C325.5 147 326 146.9 326.2 147.3C326.1 148.3 326.4 149.2 325.8 149.6C325.5 151.4 325.1 152.7 324.2 153.7C323.3 154.6 322.1 154.8 321 155.2C320.7 155.3 320.5 155.7 320.2 155.8C319.6 156.1 318.5 155.9 318.4 156.8C318.4 157.3 318.9 157.5 318.9 158C319 158.7 318.4 159.4 318.1 159.5C317.8 159.5 317.2 159.3 317.2 158.7C317.2 158 317.9 157.7 318 157.3C318.1 156.6 317.5 155.9 316.8 155.9C316.2 156 314.8 157.5 314.7 158.3C314.7 158.9 315.7 160.2 316.1 160.6C317.4 162 318.8 162.8 318.6 166.3C318.3 167.2 317.4 167.4 316.8 167.8C316.3 168.2 316 169.3 315.2 169.4C314.9 169.3 315.1 168.6 315 168.3C314.9 167.9 314.2 167.7 313.8 167.3C313.5 167 313.3 166.4 313 166.1C312.7 165.7 312.2 165.6 311.8 165.4C311.5 165.2 311.3 164.7 311.1 164.7C310.7 164.7 310.8 165.2 310.7 166C310.6 166.8 310.1 167.4 310.3 168.3C310.4 168.7 310.8 169 311 169.4C311.3 170 311.4 170.8 311.7 171.2C311.9 171.4 312.3 171.5 312.5 171.7C313 172.1 313.9 173.1 314.1 173.6C314.3 174.2 314.1 174.9 314.2 175.5C314.4 176.2 315.1 176.7 314.7 177.5C314.2 177.4 313.9 177 313.5 176.8C312.9 176.3 312.6 175.9 312.1 175.1C312 174.9 311.8 174.6 311.7 174.4C311.5 173.9 311.6 173.3 311.4 172.7C311.3 172.2 310.8 171.3 310.4 170.9C310.1 170.5 309.5 170.3 309.5 169.8C309.5 169 309.7 168.1 309.7 167.3C309.7 167.1 309.6 166.9 309.6 166.7C309.5 166.3 309.6 165.7 309.6 165.3C309.5 164.9 309.3 164.6 309.2 164.3C309.1 164 308.9 163.6 308.8 163.2C308.6 162.5 308.4 161.3 308 161.2C307.5 161.1 307.1 162.3 306.4 162.3C306.1 162.3 305.7 162 305.6 161.6C305.5 161.3 305.7 160.9 305.7 160.5C305.7 159.7 305.2 159.4 304.9 158.9C304.8 158.7 304.7 158.4 304.6 158.2C304.4 157.9 304 157.7 303.7 157.4C303.4 157.1 303.2 156.7 303 156.4C302.8 156 302.8 155.4 302.5 155.3C302.2 155.2 301.9 155.7 301.7 155.8C301.4 155.9 300.7 156.1 300.4 156.1C299.5 156.2 298.7 155.9 298.8 157.2C298.7 157.8 298.1 157.8 297.8 158.1C297.3 158.5 297 159.2 296.5 159.8C296.3 160.1 295.9 160.3 295.7 160.5C295.5 160.7 295.5 161.1 295.3 161.3C294.8 161.9 294 161.9 293.7 162.7C293.7 163.6 294.1 164.4 294 165.2C294 165.6 293.7 166 293.7 166.4C293.7 166.8 293.8 167.1 293.7 167.5C293.7 167.7 293.5 167.8 293.3 168.1C293.2 168.3 293.1 168.6 293 168.8C292.8 169 292.6 169.2 292.4 169.4C292.2 169.7 292.1 170 291.9 170C290.9 170.2 290.6 167.8 290.2 166.8C290 166.3 289.6 165.9 289.4 165.4C289.2 164.8 289.1 164 288.7 163.2C288.4 162.6 288 162 287.8 161.3C287.6 160.8 287.5 160.1 287.3 159.5C287.1 158.9 286.9 158.1 286.9 157.6C286.9 156.9 287 156.4 286.5 156.1C286 156.2 285.8 156.8 285.3 156.8C284.8 156.8 283.4 155.8 283.8 154.8C283.5 154.2 282.6 153.9 282 153.3C281.6 152.9 281.3 152 280.7 151.9C280.5 151.9 280.3 152 280.1 152C279.7 152 279 152 278.5 152C277.9 152.1 277.2 152.2 276.5 152.1C276 152 275.5 151.9 275 151.9C274.4 151.8 273.6 151.7 273.3 151.3C273.1 151.1 273 150.3 272.6 150.2C272.2 150.1 271.9 150.5 271.5 150.6C270.6 150.8 269.9 150.4 269.3 149.9C268.9 149.6 268.5 149.4 268.2 149.2C267.5 148.6 267.4 146.9 266.3 146.9C265.9 146.9 265.3 147.2 265.3 147.7C265.3 148.1 265.7 148.7 265.8 149C266.3 149.9 267.3 150.2 267.6 151.4C267.8 151.5 268.2 151.2 268.4 151.5C268.6 152 268.4 153 268.8 153.2C270.8 153.6 271.3 152.3 272.2 151.4C272.7 151.8 272.5 152.1 272.7 152.6C272.9 153.1 273.2 153.4 273.5 153.6C273.7 153.7 274 153.6 274.4 153.8C274.6 153.9 275.6 155 275.6 155.3C275.6 155.6 275 156.8 274.8 157.1C274.6 157.4 274.3 157.5 274.2 157.8C274.1 158 274.2 158.4 274.1 158.5C274 158.7 273.6 159 273.3 159.3C273 159.6 272.7 159.8 272.5 160C272.2 160.3 272 160.7 271.7 160.8C271.1 161.1 270.5 161 270 161.4C269.7 161.7 269.7 162.3 269.2 162.6C268.8 162.9 268 162.9 267.4 163.3C267 163.5 266.8 163.9 266.4 164.1C266.3 164.2 266.1 164.1 265.9 164.2C265.6 164.3 265.3 164.6 265 164.7C264.8 164.8 264.5 164.7 264.3 164.8C263.6 165.1 262.9 165.9 262.2 165.4C261.9 164.4 261.8 163.2 261.4 162.4C261.2 162 260.8 161.8 260.6 161.4C260.6 161 260.9 161.1 261 160.8C260.9 160.2 260.4 159.9 260.1 159.4C260 159.1 259.9 158.8 259.7 158.5C259.1 157.5 258 157 257.8 155.8C257.7 155.5 257.8 155.2 257.8 155C257.7 154.6 257.5 154.1 257.2 153.8C257 153.5 256.7 153.4 256.4 153C256.3 152.8 256.2 152.4 256.1 152.2C255.6 151.1 255 150.2 254.2 149.5C253.8 149.6 253.4 149.6 253.2 149.9C253.4 150.6 253.7 151.3 254 151.9C254.3 152.5 254.7 153.1 254.9 153.7C255 153.9 255 154.2 255 154.5C255.3 155.4 256.2 155.7 256.4 156.7C256.5 157.4 256.4 157.9 256.5 158.6C256.7 159.3 257.5 159.7 257.8 160.3C258.1 160.8 258.1 161.6 258.3 162.1C258.6 162.8 259.4 163.1 259.9 163.6C260.4 164 260.8 164.7 261.2 165.2C261.5 165.5 261.8 165.5 261.9 165.8C262 166.2 261.8 166.3 261.7 166.6C262.1 167.1 262.4 167.9 263 168C263.2 168 263.6 167.7 263.9 167.7C264.1 167.7 264.3 167.7 264.5 167.7C264.8 167.6 265 167.4 265.3 167.3C265.8 167.2 266.3 167.2 266.9 167.1C267.5 167 267.9 166.4 268.3 166.6C268.8 167.2 268.4 168 268.3 168.6C268.3 168.8 268.3 169 268.2 169.2C267.9 170.2 267.3 171 267 171.9C266.9 172.2 266.9 172.5 266.8 172.8C266.4 173.7 265.7 174.6 265.1 175.3C264.8 175.7 264.5 176.1 264.2 176.4C263.9 176.7 263.4 176.9 263.1 177.2C262.3 177.9 261.6 178.8 261 179.7C260.8 180 260.7 180.4 260.5 180.7C260.2 181.1 259.7 181.3 259.5 181.7C259.3 182 259.2 182.6 258.9 183.2C258.6 183.8 258.1 184.3 258.2 185.2C258.2 185.5 258.5 185.8 258.6 186.1C258.7 186.7 258.6 187.2 258.6 187.9C258.9 188.7 259.1 189.5 259.5 190.1C259.6 191.2 259.4 192.4 259.5 193.3C259.5 193.9 259.7 194.4 259.5 194.9C259.3 195.4 258.6 196.3 258.2 196.6C257.8 196.9 257.1 197 256.6 197.5C256.3 197.8 256 198.3 255.7 198.6C255.1 199.2 254.4 199.7 254.3 200.2C254.3 200.5 254.5 201 254.6 201.3C254.8 202.1 255 203.3 254.6 204.2C254.3 205.2 252.5 205 252.3 206C252.2 206.3 252.4 206.6 252.4 206.9C252.4 207.2 252.1 208.2 251.9 208.5C251.7 209 251.2 209.2 250.9 209.6C250.5 210.1 250.3 210.8 249.9 211.4C249.3 212.1 248.6 212.9 247.9 213.5C247.3 214 246.1 214.6 245.2 214.7C244.6 214.7 244 214.5 243.4 214.6C243.2 214.6 242.9 214.9 242.6 214.9C242.4 214.9 242.3 214.9 242.1 214.9C241.8 215 241.5 215.2 241.3 215.2C240.7 215.2 239.9 214.3 239.9 213.4C239.9 213.1 240.1 212.7 240.1 212.4C240.1 212 239.7 211.6 239.4 210.9C239.1 210.3 239 209.6 238.7 209C238.4 208.4 238 208.2 237.8 207.8C237.4 206.9 237.3 205.9 237.2 204.9C237.2 204.6 237 204.2 236.9 203.8C236.8 203.3 237 202.7 236.9 202.3C236.8 202 236.5 201.6 236.3 201.2C236 200.5 235.7 199.5 235.5 198.9C235.2 198.4 234.7 197.8 234.7 197.2C234.7 196.8 234.7 196 234.8 195.6C234.9 195.2 235.1 194.9 235.2 194.5C235.3 194.2 235.2 193.9 235.2 193.6C235.4 192.3 236.6 191.8 236.5 190.3C236.4 189.6 236 189.3 236 188.5C236 188.1 236.1 187.8 236.1 187.5C236.1 187 235.8 186.3 235.6 185.9C235.1 184.7 234.8 183.5 234.1 182.6C233.7 182.1 233.2 181.7 232.9 181.2C232.6 180.8 232.3 180.1 232.3 179.8C232.3 179.5 232.5 179.3 232.6 178.9C232.7 178.5 232.7 177.7 232.8 177C232.9 176.7 233.1 176 233.1 175.5C233.1 175 232.5 174.1 232 174C231.3 173.8 230.7 174.3 229.8 174.2C229.1 173.7 229.2 172.3 228.1 172.1ZM254.2 192.4C254.4 192 254.7 190.8 254.2 190.5H254.1C253.9 191 253.7 192.1 254.2 192.4ZM253.5 180.6C253.7 180.2 254 179.8 254 179.3C253.9 178.2 252.2 178.7 252 179.5C251.9 180 252.1 180.4 251.9 181C252.1 181.4 252.6 181.5 253.1 181.5C253.4 181.2 253.4 180.9 253.5 180.6ZM250.6 186.4C250.8 186 250.3 185.7 250.2 185.3C250.1 184.8 250.3 184.2 249.9 183.9H249.8C249.5 184.8 250 186.3 250.6 186.4ZM282.8 130.2C282.6 129.8 282.1 130.3 282.3 130.7C282.6 130.7 282.8 130.5 282.8 130.2ZM271.8 132.5C272.6 132.3 271.8 130.9 271.2 131C270.5 131.2 271.3 132.6 271.8 132.5ZM268.3 139.8C268.5 137.8 267.3 137.7 267 136.3C267.1 136.3 267.1 136.1 267.1 136.1C267.4 135.9 267.9 136.4 268 135.9C268 135.2 267.3 134.7 266.6 135.1C266.4 134.9 266.4 134.5 266.3 134.2C265.8 133.8 264.4 133 264.5 132.2C264.5 131.6 265.2 131.2 266 131.2C266.3 130.9 266.1 130 265.8 129.8C264.6 129.5 263.9 129.7 263.2 130.4C262.8 130.7 262.4 130.9 262.2 131.1C262 131.3 261.8 131.8 261.8 132C261.8 132.4 262.2 132.6 262.4 133C262.5 133.2 262.5 133.5 262.5 133.7C262.7 134.2 263.2 134.6 263.6 135.1C263.9 135.4 264.7 136.1 264.7 136.5C264.7 136.8 264.5 136.9 264.4 137.2C264.3 137.5 264.2 138.3 264.3 138.6C264.4 139.2 264.9 139.2 265.4 139.5C265.9 139.8 266.4 140.2 266.9 140.2C267.4 140.4 268 140.2 268.3 139.8ZM257.2 135.7C258.5 135.4 257.9 134.1 257.2 133.7C256.7 133.3 256.1 133 255.6 132.6C255.3 132.4 254 131.9 254 131.4C254 130.9 254.9 130.7 254.6 129.8C254 129.6 252.4 129.9 252.5 130.8C252.6 131.3 253 131 253.2 131.5C252.7 131.7 252.2 132.2 251.7 132.1C251.1 132 251 131.1 250.7 130.6C250.3 130.6 250 130.1 249.4 130.1C248.8 130.2 248.6 131.1 248.3 131.6C248.1 131.9 247.9 132 247.8 132.2C247.8 132.3 247.8 132.6 247.8 132.8C247.6 133.4 247.2 133.7 247.2 134.2C247.2 134.7 247.7 134.9 247.7 135.3C247.7 135.7 247.1 135.5 247.1 136C247.9 136.8 248 135.6 248.4 135.4C248.7 135.3 249.4 135.5 249.9 135.4C250.3 135.3 250.5 134.9 250.9 134.7C251.1 134.6 251.5 134.5 251.8 134.5C253.3 134.4 254.3 135.6 255.6 135.6C256 135.8 256.8 135.8 257.2 135.7ZM254.2 142.4C254.2 141.8 254 141.3 254 140.5C253.1 139.9 252.5 141.1 251.6 141C251.1 140.9 250.7 140.2 250.1 140.3C249.8 140.4 249.6 140.9 249.3 140.9C248.6 141 248.3 140.3 247.6 140.6C246.6 139.7 246.1 138.2 245.9 136.5C245.4 135.6 244.5 136.3 244.1 136.9C243.9 136.9 243.5 136.7 243.5 137.1C243.3 138.1 244.7 138.3 244.7 139C244.7 139.5 244.1 139.4 243.9 139.7C243.6 140 243.8 140.3 243.5 140.5C242.6 140.6 242.3 140 242.3 139C241.9 138.3 241.4 137.7 241 137.1C240.9 136.9 240.7 136.5 240.6 136.2C240.6 135.9 240.7 135.6 240.6 135.3C240.5 134.8 239.7 134.4 239.1 134.1C238.5 133.8 237.8 133.5 237.5 133.1C237.2 132.8 237.1 132.3 236.8 132.1C236.6 131.9 236.3 132 236.1 131.8C235.8 131.6 235.9 131.2 235.5 131.1C235.3 131 235 131.3 234.9 131.5C234.7 132.7 235.5 132.8 235.9 133.4C236.2 133.8 236.3 134.3 236.6 134.6C236.9 134.9 237.3 134.8 237.6 135C237.9 135.1 238 135.5 238.3 135.7C238.7 136 239.5 136.1 239.5 136.7C239.2 136.9 238.6 136.4 238.4 136.9C238.3 137.3 238.6 137.5 238.6 137.8C238.6 138.4 238.1 139 237.6 138.9C237.6 138.6 237.8 138.3 237.8 137.9C237.8 137.2 236.6 136.1 236 135.7C235.7 135.5 235.4 135.5 235.1 135.4C234.6 135.1 233.8 134.3 233.5 133.9C233.2 133.4 232.9 132.4 232.1 132.4C231.8 132.4 231.5 132.8 231.3 132.9C231.1 133 230.8 133.2 230.6 133.4C230.3 133.6 230.1 133.8 229.8 133.9C229.2 133.9 228.7 133.4 228.2 133.5C228 133.5 227.9 133.7 227.7 134C227.7 134.3 227.8 134.5 227.7 134.9C227.5 135.2 227.1 135.2 226.8 135.4C226.3 135.7 225.9 136.3 225.5 136.8C225.2 137.1 225 137.4 225 137.6C225 137.8 225.1 138.1 225.1 138.4C225.1 138.7 224.6 139.2 224.3 139.5C224.1 139.6 223.9 139.7 223.7 139.8C223.3 140.1 223.2 140.4 222.9 140.5C222.1 140.7 220.6 140.3 220.6 141.3C220.6 142 221.4 142 221.9 142C222.6 142 223.1 142.2 223.5 142.1C223.8 142 224 141.7 224.3 141.5C224.5 141.4 224.6 141.4 224.8 141.3C225.1 141.1 225.2 140.9 225.5 140.7C225.9 140.5 226.7 140.3 227.2 140.2C227.8 140.2 228.5 140.3 229.3 140.2C229.6 140.2 229.9 139.9 230.2 139.9C230.7 139.9 231.4 140.1 231.8 140.1C232.1 140.1 232.4 139.8 232.7 139.8C233.1 139.8 233.5 140.1 233.5 140.4C233.5 140.6 233.4 140.8 233.5 141.1C233.6 141.5 233.8 141.7 233.8 141.9C233.8 142.3 233 142.7 233.1 143.1C233.2 143.4 233.7 143.6 233.9 143.8C234.2 144 234.6 144.3 234.9 144.3C235.2 144.3 235.4 144.2 235.7 144.2C236.1 144.3 236.8 144.5 237 144.8C237.4 145.2 237.4 145.8 237.9 146C238.1 146.1 238.5 146 238.8 146.1C239.5 146.3 240 147 240.5 146.9C241.3 146.8 240.9 145.9 241 145.3C241.2 143.9 243.6 143.9 244 144.9C244.3 145 244.6 144.9 245 145.1C245.2 145.2 245.4 145.5 245.6 145.6C245.8 145.6 246 145.6 246.2 145.6C247.1 145.7 247.9 146.5 248.7 146.4C249.2 146.3 249.5 145.8 250 145.7C250.9 145.6 251.5 146.5 252.5 146.1C253.2 145.8 253.1 144.9 253.3 144C253.9 143.3 254.2 142.9 254.2 142.4ZM305 123.1C305.2 122.4 304.9 121.7 304.5 121.2C304 121.3 304.3 122 304.3 122.4C304.2 123 303.8 123.4 303.8 123.9C303.6 124.2 303.3 124.3 303.3 124.7C303.6 124.9 303.7 124.5 304 124.2C304.4 123.8 304.9 123.6 305 123.1ZM292.7 103.4C292.2 103.4 292 103.6 291.7 103.9C291.5 104 291.2 104.1 291.3 104.4C291.7 104.3 292.6 104.1 292.7 103.4ZM272.8 110.4C273.9 110.7 274.4 109.2 273.7 108.4C273.5 108.2 273 108.1 272.7 107.7C272.4 107.1 272.5 106.4 271.8 106.6C271.8 106.7 271.8 106.8 271.8 106.8C271.7 108 273.2 108.4 273.2 109.3C273.1 109.7 272.7 109.8 272.8 110.4Z" fill="white"/>
<path d="M257.3 108.2C257.2 107.6 258.1 107.7 258 108.3C257.8 108.5 257.4 108.5 257.3 108.2Z" fill="white"/>
<path d="M251.5 142.1C251.5 141.6 252.4 141.5 252.6 141.9C252.5 142.3 251.7 142.7 251.5 142.1Z" fill="white"/>
<path d="M235.3 139.1C235.8 138.6 236.9 138.9 237.6 138.9C237.5 139.3 237.5 139.9 237.2 140.1C236.4 140 235.7 139.7 235.3 139.1Z" fill="white"/>
<path d="M231.9 136.1C232.5 135.3 233.2 135.7 233 137.3C232.8 137.8 232.2 138.4 231.9 137.7C231.9 137.1 231.9 136.7 231.9 136.1Z" fill="white"/>
<path d="M232.8 134.2C232.9 134.7 232.7 134.9 232.5 135C231.9 135 232.4 133.6 232.8 134.2Z" fill="white"/>
<path d="M223.7 122.7C223.8 122.4 223.5 122 223.3 121.8C223.1 121.7 222.9 121.7 222.7 121.6C222.2 121.3 222.1 120.7 221.8 120.5C221.8 119.9 221.7 119.4 221.8 119C221.9 118.8 222.5 118.1 222.8 117.9C223.2 117.7 223.6 117.9 223.9 117.5C224 117.5 224.1 117.5 224.1 117.6C224.1 118 223.8 118 223.8 118.3C223.9 118.8 224.6 118.5 224.7 119C224.6 119.5 224.2 119.6 224.2 120C224.2 120.3 224.8 121 225 121.4C225.2 121.7 225.6 122 225.8 122.3C226 122.6 226 122.9 226.1 123.1C226.3 123.4 226.9 123.4 226.9 123.8C227 124.3 226.3 124.6 226.4 125.2C225.8 125.8 224.7 125.5 223.6 125.7C223.1 125.8 222.6 126.3 222.1 125.9C222 125.5 222.5 125.5 222.6 125.1C222.6 124.8 222.2 124.8 222.1 124.5C222.2 124.1 222.7 124 222.6 123.3C223.1 123.1 223.6 123.2 223.7 122.7Z" fill="white"/>
<path d="M220.2 121.4C220.8 120.9 221.9 121.3 222 121.9C222 122.3 221.7 122.4 221.5 122.9C221.4 123.3 221.5 123.8 221.4 124.1C221.3 124.4 220.9 124.3 220.6 124.4C220 124.6 218.9 125.4 218.4 124.5C218.5 124 218.9 123.9 219 123.5C219 123.2 218.7 123 218.8 122.7C218.9 122.3 219.1 122.4 219.5 122.2C219.7 122 219.8 121.6 220.2 121.4Z" fill="white"/>
<path d="M188 109.1C188.1 109.6 186.8 110.3 186.6 109.6C186.5 109.1 187.6 108.4 188 109.1Z" fill="white"/>
<path d="M184.3 105.1C184.4 105 184.5 105 184.6 105.1C184.6 105.2 184.5 105.4 184.3 105.3C184.3 105.2 184.3 105.1 184.3 105.1Z" fill="white"/>
<path d="M180.1 114.1C180.1 114.4 179.2 114.9 179.1 114.3C179.1 114.2 179.1 114 179.3 113.8C179.5 113.7 180.1 113.8 180.1 114.1Z" fill="white"/>
<path d="M160.5 166.7C160.5 166.8 160.4 166.8 160.4 166.9C159.9 166.9 160.3 166.1 160.5 166.7Z" fill="white"/>
<path d="M141.3 127.1C141.6 126.9 141.9 127.4 141.7 127.7C141.4 127.8 141.3 127.3 141.3 127.1Z" fill="white"/>
<path d="M192.7 129.2C192.5 129.1 192.2 129.1 191.9 129.1C191.7 129 191.4 129 191.1 128.9C190.5 128.8 189.9 129 189.5 128.6C190.1 127.7 190.8 126.8 191.5 126.1C191.7 125.9 192.2 125.7 192.1 125.3C191.7 124.9 191.2 125.3 190.8 125.6C190.4 125.9 189.9 126.3 189.5 126.3C188.7 126.4 187.7 126 187 126.5C186.9 126.9 187.7 126.8 187.6 127.4C187.3 127.5 187 127.5 186.8 127.2C186.6 127 186.7 126.6 186.6 126.5C186.4 126.3 185.5 126.2 185 126.3C184.5 126.4 184.1 126.8 184 127.3C184.6 127.6 185.6 127 185.8 127.8C185.5 128.5 184.7 128.9 184.8 129.8C184.8 130.2 185.2 130.7 185.5 130.7C185.8 130.8 185.9 130.4 186.2 130.5C186.5 130.5 186.4 130.9 186.7 130.8C187.2 130.6 187.4 129.8 187.9 129.8C188.5 130.7 187.3 131.2 186.7 131.4C185.9 131.7 185 131.9 184.4 132.2C184.1 132.4 183 133.7 182.8 132.7C182.7 132 183.4 132.2 183.5 131.6C182.8 131.4 182.1 132 181.4 132.3C180.5 132.7 178.8 133 178.6 134.3C178.6 134.6 178.7 135 178.6 135.2C178.5 135.3 177.8 135.4 177.5 135.5C177 135.7 176.6 136.1 176.4 136.2C176.2 136.3 175.9 136.2 175.7 136.3C175.3 136.5 175.2 137.1 174.8 137.5C174.6 137.7 174.2 137.8 174.1 138C173.9 138.3 173.8 139 173.4 139.1C173.1 139.1 172.9 138.9 172.6 139C172.6 139.7 172.8 140.7 172.6 141.4C172 141.9 171.4 142.3 170.7 142.8C170.3 143.1 170 143.1 169.5 143.4C169.2 143.6 168.9 144.1 168.5 144.4C167.6 145 166.5 145.8 166.5 147.4C166.5 147.7 166.7 148.1 166.7 148.5C166.7 148.7 166.7 149 166.7 149.2C166.8 149.8 167.1 150.5 166.7 151C166.1 150.7 165.3 150.6 164.8 150C164.7 149.4 165 149 165 148.5C165 148.1 164.5 147.4 164.2 147.3C163.9 147.2 163.6 147.6 163.4 147.6C163 147.6 162.7 147 162.3 146.9C161.6 146.8 161.1 147.1 160.4 147C159.7 147.5 159.5 148.3 158.6 148.2C158.3 148.2 158 147.9 157.7 147.8C157.3 147.7 156.7 147.5 156.3 147.6C155.5 147.7 154.9 148.4 154.2 148.8C153.6 149.2 152.7 149.7 152.6 150.4C152.5 150.8 152.6 151.4 152.5 151.8C152.4 152.1 152.2 152.3 152.1 152.5C151.6 153.7 151.1 155.2 151.5 156.9C151.6 157.1 152.1 158.5 152.3 158.8C152.5 159.1 153.3 159.6 153.7 159.6C154 159.6 154.5 159.4 154.8 159.3C155.2 159.2 155.7 159.2 156 159.1C157 158.7 156.8 157.1 157.8 156.5C158.2 156.3 158.8 156.2 159.5 156.2C159.7 156.5 159.9 156.9 159.8 157.3C159.8 157.6 159.5 157.9 159.4 158.3C159.3 158.7 159.3 159.1 159.2 159.4C159.1 159.8 158.7 160.1 158.6 160.4C158.5 160.6 158.6 160.9 158.5 161.1C158.4 161.5 158 161.7 158.2 162.1C159.2 162.6 160.4 162 161.3 162.2C161.7 162.3 162.4 162.8 162.4 163.5C162.4 164 162.1 164.4 162 164.9C161.9 165.6 161.7 166.5 161.7 167.1C161.7 168 162.8 169.7 163.7 169.6C164.6 169.6 165.1 168.5 166.2 169.1C166.6 169.3 166.9 170 167.3 169.9C167.6 169.9 168.1 169.2 168.3 168.7C168.6 168.1 168.6 167.6 169.1 167.3C169.6 167 170 167.1 170.7 166.8C171 166.7 171.2 166.4 171.5 166.2C171.7 166 172 165.5 172.3 165.9C172.7 166.4 171.8 166.6 172.2 167.1C172.9 167.5 173.2 166.3 173.7 166.3C173.9 166.3 174.4 166.7 174.6 166.9C175 167.2 175.1 167.6 175.5 167.7C175.8 167.8 176.2 167.6 176.5 167.6C177 167.7 177.3 168.2 177.6 168.2C178 168.2 178.3 167.6 178.6 167.5C179.4 167.3 179.7 167.6 180.1 168.2C180.5 168.3 180.5 167.6 180.9 167.9C180.7 168.4 181 168.6 181.1 169C181.2 169.3 181.2 169.5 181.3 169.6C181.5 169.9 182 169.9 182.3 170.1C182.6 170.4 182.8 170.9 183.2 171.4C183.6 172 184.3 172.5 184.8 172.6C185.3 172.6 185.7 172.4 186.2 172.5C187.2 172.6 187.8 173.2 188.5 173.9C188.9 174.3 189.2 174.5 189.3 174.9C189.4 175.2 189.3 175.6 189.4 175.9C189.6 176.6 190.5 176.9 190.2 178.2C190.3 178.6 190.7 178.7 191 178.9C191.3 179.1 191.5 179.5 191.8 179.6C192 179.6 192.2 179.5 192.4 179.5C192.9 179.5 193.3 179.8 193.8 180C194.1 180.1 194.5 180.2 194.6 180.3C194.8 180.5 194.9 181.1 195.2 181.3C195.4 181.4 195.8 181.3 196.1 181.3C196.6 181.4 197.3 181.7 197.7 181.8C198 181.8 198.2 181.7 198.5 181.7C199.7 181.8 200.3 183.5 201.4 184C201.7 184.2 202.3 184 202.5 184.2C202.9 184.4 203.3 186 203.3 186.6C203.4 188.7 202.1 189.3 201.3 190.7C201.1 191 201.1 191.4 200.8 191.8C200.3 192.6 199.8 192.8 199.9 194.2C199.9 194.6 200.1 195 200.1 195.4C200.1 195.9 200.1 196.7 200 197.2C199.9 197.6 199.7 197.9 199.6 198.2C199.6 198.5 199.7 198.8 199.6 199.1C199.6 199.4 199.3 199.9 199.1 200.3C198.7 201.3 198.6 202.4 197.7 202.8C197.2 203 196.5 202.9 195.9 203.1C195.7 203.2 195.4 203.5 195.1 203.6C194.3 204.1 193.1 204.7 192.9 205.7C192.7 206.6 193.2 207.3 193 208.4C192.9 208.7 192.7 209 192.4 209.4C192.2 209.7 192.1 210.1 191.9 210.4C191.6 210.8 191.2 211 191 211.6C190.9 211.8 191 212 190.9 212.3C190.9 212.4 190.7 212.6 190.6 212.8C190.5 213 190.5 213.3 190.5 213.4C190.3 213.9 189.6 215.1 189.2 215.3C188.2 215.6 187.2 214.8 186.5 215C186.6 215.6 186.9 215.5 187.2 215.9C187.3 216.1 187.4 216.4 187.6 216.7C187.8 217 188 217.1 188 217.4C188.1 218.1 187.6 218.8 187.3 219C187 219.2 186.4 219.4 185.9 219.5C185.6 219.6 184.7 219.6 184.5 219.8C184.3 220.2 184.6 221.2 184.5 221.6C184.1 222.4 183.2 221.6 182.7 221.8C182.7 222.2 182.8 222.7 183.1 222.9C183.4 223.1 183.8 222.8 184 223.2C183.9 223.8 183.4 223.8 183.3 224.4C183.3 224.9 183.5 225.1 183.4 225.4C183.3 226.1 182.3 226.1 182.4 226.9C182.4 228.1 184.3 227.6 184.3 228.7C184.3 229.4 183.8 229.4 183.6 230.1C183.5 230.5 183.7 230.5 183.6 230.8C183.5 231.2 183.1 231.3 183.1 231.8C183.1 232.3 183.8 232.9 184.1 233.4C184.4 233.8 184.8 234.5 185.3 234.8C186 235.2 186.9 235.1 187.2 235.9C187.1 236.4 186.7 236.5 186.4 236.6H186.3C186.2 236.5 185.7 236.5 185.6 236.6C185.4 236.6 185.2 236.6 184.9 236.6C184.3 236.3 183.5 236 182.7 235.7C182.4 235.6 182.1 235.3 181.8 235.1C181.6 235 181.3 234.9 181.1 234.8C180.7 234.5 180.2 233.7 179.8 233.4C179.6 233.2 179.2 233.1 179 232.9C178.8 232.7 178.8 232.3 178.6 232.1C178.4 231.8 178.2 231.6 178 231.4C177.6 230.8 177.1 229.9 177.1 229.5C177.1 229 177.5 228.7 177.3 228.3C177.2 227.9 176.5 228 176.4 227.5C176.3 227.2 176.6 226.7 176.6 226.3C176.6 226.1 176.2 225.7 176.4 225.4C176.6 225 176.9 225.4 177.2 225.2C177 224.4 177.2 223.1 176.5 222.8C176.2 223.2 176.9 223.9 176.3 224.2C175.7 223.9 175.9 223 175.7 222.3C175.6 221.9 175.4 221.5 175.4 221C175.4 220.8 175.5 220.5 175.4 220.2C175.3 219.4 174.6 218.8 174.6 218C174.6 217.6 174.8 217.3 174.8 216.9C174.8 216.6 174.8 216.3 174.8 216.1C174.8 215.7 175 215.4 175 215.1C175.1 214.5 175 213.4 174.9 212.9C174.8 212.2 174.4 211.7 174.3 211C174.3 210.7 174.4 210.3 174.3 210C174.3 209.7 174.1 209.4 174.1 209C174.1 208.7 174.2 208.4 174.2 208C174.3 207.3 174.1 206.5 174.1 205.8C174.1 205.6 174.2 205.4 174.2 205.2C174.2 204.6 174 204 174 203.4C174 202.3 174.1 201.6 174 200.6C173.9 199.8 173.8 198.7 173.5 198.2C173.2 197.7 172.3 196.8 171.8 196.4C171.5 196.2 171.1 196.1 170.7 195.9C169.9 195.4 168.4 194.5 168.1 193.6C168 193.3 168 193 167.9 192.7C167.7 192.1 167.3 191.6 167 191.1C166.4 190 165.9 188.7 165.4 187.6C165.1 187 164.8 186.4 164.5 186C164.3 185.7 163.7 185.5 163.6 185.1C163.5 184.6 163.2 183.9 163.2 183.5C163.3 183 164.1 182.5 164.1 182C164.1 181.6 163.6 181.3 163.5 181C163.3 180.1 163.6 179.6 163.9 178.9C164 178.7 164.1 178.3 164.2 178.1C164.4 177.8 164.7 177.7 165 177.4C165.1 177.2 165.2 176.8 165.4 176.6C165.8 176 166.3 175.8 166.5 175.3C166.6 174.9 166.7 172.8 166.5 172.1C166.4 171.7 166.1 171.4 166 171C165.8 170.3 165.7 169.6 165.2 169.6C164.8 169.6 164.6 170.1 164.4 170.4C164.3 170.8 164.4 171.2 164 171.4C163.5 171.6 163.3 170.7 162.6 170.5C162.4 170.4 162 170.4 161.8 170.3C161.3 170.1 161.2 169.3 160.7 168.9C160.3 168.6 160 168.7 159.7 168.3C159.6 168 159.7 167.5 159.7 167.2C159.2 166.8 158.7 165.5 158.1 165.2C157.7 165 157.1 165 156.6 164.8C156.4 164.7 156.2 164.6 155.9 164.5C155.6 164.4 155.3 164.4 155.1 164.3C154.2 163.7 153.7 161.9 152.5 162C152 162 151.5 162.6 151.1 162.6C150.7 162.6 149.9 162.2 149.4 161.9C148.8 161.6 148.2 161.4 147.7 161.1C147.3 160.9 147 160.4 146.7 160.2C146.4 160.1 146.1 160 145.9 159.9C145.6 159.7 145.3 159.4 144.9 159C144.5 158.7 144.2 158.3 144.1 157.9C144.1 157.5 144.4 157.1 144.5 156.7C144.6 155.4 143.8 154.4 143.3 153.6C142.9 153 142.5 152.5 142.1 152C142.1 151.6 142.1 151.6 142.1 151.2C141.8 150.9 141.6 150.4 141.3 149.8C141 149.3 140.5 148.8 140.4 148.3C140.3 147.7 140.6 147.1 140.4 146.5C140.1 145.5 138.9 145.9 139 147.3C139 147.7 139.5 148.2 139.6 148.5C139.7 148.9 139.7 149.3 139.8 149.8C139.9 150.2 140.3 150.6 140.4 151.1C140.6 151.9 140.6 152.7 140.8 153.2C141 153.6 141.6 154 141.2 154.6C140.8 154.7 140.6 154.2 140.3 153.9C140.1 153.7 139.6 153.4 139.5 153C139.4 152.7 139.7 152.2 139.6 151.8C139.4 151 138.1 151 138.1 150.2C138.1 149.7 138.7 149.6 138.7 149.1C138.7 148.6 138.1 148.1 137.9 147.6C137.8 147.2 137.8 146.5 137.7 145.9C137.7 145.3 137.7 144.7 137.6 144.3C137.5 143.9 137 143.4 136.7 143.2C136.3 142.9 136 143 135.8 142.6C135.6 142.2 135.5 141.5 135.5 141.1C135.4 140.4 135.5 139.7 135.5 138.9C135.5 138.2 135.4 137.5 135.5 136.7C135.7 136.2 136.2 135.9 136.4 135.3C136.6 134.9 136.6 134.5 136.8 134.1C137.1 133.4 137.9 132.7 138.4 131.9C138.9 131.1 139.4 130.4 139.8 129.5C139.9 129.2 140.2 128.5 140.2 128.1C140.1 127.6 139.3 127.1 139.4 126.5C139.4 126.1 139.9 126.1 140.1 125.7C140.2 125.5 140.2 124.9 140.2 124.7C140.2 124.2 140 123.6 140.1 123C140.2 122.5 140.8 122.3 140.5 121.8C140.2 121.3 139.6 122.1 139.3 121.7C139 121.4 139.4 121 139.4 120.4C139.4 120.2 139.3 119.9 139.3 119.7C139.3 119.4 139.7 119 139.6 118.8C139.3 118.4 139.1 117.4 138.5 117.1C137.8 116.7 137.1 117 136.1 116.8C135.5 116.7 135.2 116 134.7 116.1C134.4 116.1 134.2 116.6 133.7 116.8C133.2 117 132.6 117 132.2 117.1C131.8 117.2 131.5 117.6 131.1 117.6C130.7 117.6 130.7 117.1 130.3 117.1C130.1 117.1 129.8 117.2 129.5 117.3C128.8 117.4 127.5 117.4 126.7 117.2C126 117 125.6 116.8 124.9 116.4C124.3 116.1 123.3 115.7 123.3 115.2C123.3 114.9 124.3 114.5 124.7 114.4C125.3 114.2 125.7 113.8 126.2 113.8C126.4 113.8 126.6 113.9 126.9 113.9C127.1 113.9 127.4 113.6 127.7 113.6C128.4 113.5 129.3 113.6 129.2 112.9C128.7 112.4 126.7 113.3 126.6 112.2C126.6 111.6 127.4 111.4 128 111.2C128.5 111.1 129.4 110.8 129.8 110.9C130.3 110.9 131 111.7 131.4 110.8C131.5 110.2 131.2 109.7 131.1 109.3C131.5 108.6 132.2 108.7 132.8 108.6C133.4 108.5 134 108.3 134.6 108C135.2 107.7 135.7 107.5 136.4 107.4C137 107.3 137.7 107 138.2 106.9C138.7 106.8 139.1 106.9 139.6 106.8C140 106.7 140.4 106.4 140.9 106.5C141.2 106.5 141.5 106.8 141.7 106.8C142 106.9 142.3 106.8 142.6 106.9C142.8 107 143 107.1 143.3 107.2C143.7 107.3 144 107.1 144.4 107.2C144.7 107.3 145 107.5 145.3 107.5C146 107.6 146.9 107.5 147.6 107.6C147.9 107.7 148.1 107.8 148.4 107.9C148.7 108 149 107.9 149.2 108C149.6 108.1 149.9 108.5 150.3 108.6C151 108.7 151.8 108.2 152.6 108.1C153.2 108 153.7 108.1 154.3 108C154.8 107.9 155.3 107.6 155.8 107.6C156.1 107.6 156.3 107.7 156.5 107.7C156.7 107.7 157 107.3 157.3 107.4C157.7 107.5 157.6 108 158 108.1C158.4 107.8 158.8 108.1 159.3 108.1C159.7 108.1 160.1 107.8 160.6 107.9C161.5 108.1 162.7 109.1 163.3 108.5C163.5 108.4 163.4 108.1 163.6 107.8C163.8 107.3 164.2 106.7 164.1 106C163.2 106 162.3 106.6 161.2 106.6C160.1 105.8 161.5 105.3 162.3 104.9C163 104.6 163.5 103.9 164.3 103.8C165 103.7 165.7 104 166.5 104.1C167 104.2 167.4 104.1 167.7 104.2C168.2 104.4 168.4 104.9 168.8 105C169 105.1 169.2 105.1 169.5 105.1C169.9 105.2 170.3 105.5 170.7 105.1C171 105.2 171.1 105.6 171.4 105.7C171.7 105.5 172 105 172.4 104.9C172.6 104.8 172.8 104.9 173.1 104.9C173.5 104.8 174 104.2 174.2 104.8C174.1 105.2 173.6 105.3 173.3 105.6C173 105.9 172.7 106.5 172.7 106.8C172.8 107.3 173.4 107.1 173.5 107.8C173.4 108.2 173 108 172.7 108.2C172.4 108.4 172.3 108.7 172 108.8C171.1 109 170.4 108.5 169.7 108.6C169.7 109 170.1 109.2 170.3 109.3C171 109.7 171.5 109.7 172.5 109.6C173 109.6 173.5 109.8 174 109.4C174.3 109.2 174.2 108.7 174.5 108.4C174.8 108.1 175.4 107.8 175.8 107.8C176 107.8 176.3 108.1 176.3 108.4C176.3 108.9 175.7 108.8 175.7 109.3C176.1 109.6 177.2 109 177.2 108.5C177.2 108.2 176.9 107.9 176.9 107.6C176.9 107 177.6 107 177.5 106.4C177.2 106.1 176.8 106.5 176.5 106.4C176 106.3 175.6 105.6 175.4 105.2C175.6 104.9 176 105.1 176.3 105.1C176.6 104.5 177.3 104.3 178.2 104.2C178.5 104.2 178.9 104 179.1 104.4C179.2 104.9 178.4 105.3 178.6 105.9C179.2 106.1 179.4 105.1 180 104.7C180.2 104.5 180.6 104.4 180.9 104.2C181.2 104.1 181.5 103.7 181.7 103.7C182 103.7 182 104 182.3 104.1C182.5 104.2 182.8 104 182.9 104.4C182.4 105.5 180.3 104.9 179.8 106C179.9 106.8 179.5 107.5 179.8 108C180.1 108.4 180.7 108.1 180.8 108.5C181 109 180.2 109 180.4 109.6C180.9 110 181.5 109.3 182 109C182.5 108.7 183.1 108.3 183.2 107.6C183 107 182 107.5 181.9 106.9C181.8 106.6 182.2 105.8 182.3 105.7C182.8 105 184.5 104.1 185.7 104.2C185.9 104.2 186.2 104.4 186.4 104.4C187.2 104.5 188.2 104 188.8 104.4C189.3 104 189.9 104.4 190.6 104.3C191.1 104.7 191 105.5 191.8 105.9C192 106 192.3 105.9 192.6 106C192.8 106.1 193.1 106.4 193.3 106.5C193.7 106.7 193.9 106.6 194 107C194.1 107.3 193.7 107.5 193.8 107.8C194 108 193.8 108.3 193.9 108.6C194.1 109.1 194.6 109.1 195.1 109.3C195.5 109.5 196.2 110 196.2 110.4C196.2 110.7 195.5 111.2 195.3 111.3C195.1 111.4 194.3 111.9 194.1 111.8C193.7 111.7 193.5 110.6 192.9 110.7C192.6 110.7 192.4 110.9 192.4 111.3C192.4 112 193.1 112.1 193.1 112.7C193.1 113.5 192.8 113.5 192.2 114C191.8 113.8 191.5 113.5 191 113.5C190.7 113.9 191.5 114.1 191.2 114.6C190.4 114.8 189.9 114.3 189.2 114.1C189 114 188.7 114.1 188.5 113.9C188.2 113.7 188.2 113.2 187.9 112.9C187.6 112.6 187.1 112.1 186.7 112.1C186.1 112.1 185.3 113 184.8 112.2C185.1 110.9 186.6 111.9 187.6 111.4C188 111.2 188.1 110.8 188.4 110.6C189 110.2 190 110.1 189.9 109.3C189.9 108.9 189.4 108.9 189.1 108.7C188.7 108.4 188.4 107.4 187.9 107.3C187.6 107.3 187.4 107.6 187.1 107.6C186.5 107.7 185.8 107.3 185.3 107.6C185 107.8 185.2 108.1 185 108.4C184.8 108.7 184.4 108.8 184.3 109C184.1 109.3 184.2 109.7 183.9 110C183.5 110.4 182.7 110.5 182.2 110.7C182 110.8 181.7 111.1 181.5 111.1C181.1 111.1 180.9 110.5 180.5 110.7C180.5 111.3 181 111.6 181.4 111.8C181.8 112.1 182.2 112.4 182.3 112.9C181.9 113.9 181.3 112.8 180.7 112.8C180 112.8 179.1 114.3 178.5 113.1C178.6 112.4 179.2 112.3 179.4 111.7C178.7 111.8 178.2 112.5 177.4 112.7C177.1 112.8 176.8 112.8 176.5 112.9C175.9 113.1 175.5 113.6 174.9 113.9C174.7 114 174.4 114 174.1 114.1C173.5 114.3 172.8 114.7 172.3 115.1C171.7 115.5 171 115.9 170.7 116.3C170.5 116.5 170 117.3 170 117.5C170 117.8 170.6 117.9 170.6 118.3C170.6 118.5 170.3 119 170.5 119.3C170.7 119.6 171.1 119.4 171.5 119.4C172.2 119.5 172.7 120.2 173.2 120.6C173.6 120.9 174.2 121.2 174.7 121.3C175.3 121.4 176.1 121.1 176.2 121.7C176.3 122.3 175.6 122.5 175.5 122.9C175.8 123.5 175.3 123.7 175.3 124.2C175.3 124.6 175.7 125.2 176.1 125.2C176.6 125.2 177.3 124.6 177.5 124.1C177.7 123.4 177.6 122.5 178.1 122C180.3 122.1 182.2 120.8 182 118.1C182 117.8 181.9 117.5 181.9 117.2C182 116.8 182.6 116.4 182.5 115.8C183.1 115.6 183.1 114.4 183.7 114.2C184.2 114.1 184.8 114.7 185.5 114.6C185.7 114.6 186 114.3 186.3 114.4C186.8 114.5 187 115.2 187.4 115.5C187.7 115.8 188 115.7 188.1 116.1C188 116.7 187.6 116.8 187.7 117.3C187.7 117.8 188.2 118.2 188.4 118.3C188.7 118.4 189.2 118.2 189.6 118C190.2 117.6 190.8 116.6 191.3 116.7C191.7 116.8 192 118.4 192.1 119C192.2 119.6 192 120.1 192.1 120.6C192.2 121.6 193.2 121.5 193.7 122C193.8 122.2 193.9 122.5 194 122.7C194.2 123.1 194.5 123.1 194.6 123.5C194.7 124.5 193.9 124.6 193.9 125.7C193.7 126.1 193.3 126.1 193.3 126.7C193.4 127.6 194.4 126.9 194.7 127.6C194.9 128 194.7 128.3 194.6 128.8C195 129.3 195 130.2 194.3 130.2C193.2 129.8 193.1 129.3 192.7 129.2ZM141.8 127.7C142 127.4 141.7 126.8 141.4 127.1C141.3 127.3 141.4 127.8 141.8 127.7ZM174.7 132.9C174.5 132.7 173.9 132.7 173.4 132.8C173.1 132.8 172.7 132.9 172.7 133.2C173.2 133.4 174.5 133.6 174.7 132.9ZM172.2 131.9C172.6 131.5 172.4 130.8 172 130.7C171.8 130.7 171.6 130.8 171.4 130.8C171.1 130.8 170.9 130.5 170.6 130.5C170.2 130.5 169.8 130.7 169.7 130.9C169.7 131.2 169.9 131.3 169.9 131.6C169.4 132 169.7 133.3 170.1 133.4C170.6 133.5 170.8 131.9 171.5 131.8C171.8 131.8 171.9 132 172.2 131.9ZM171.6 134.2C170.9 133.9 170.3 134.4 169.8 134.5C169.5 134.6 168.9 134.4 169 135C169.1 135.5 169.7 135.3 170 135.2C170.7 134.9 171.1 134.6 171.6 134.2ZM169.5 129.9C170.4 129.4 169.3 127.9 168.9 127.8C168.1 127.6 167 128.5 166.2 128.8C165.7 129 165.2 129 165.1 129.5C165.5 130.4 166.4 129.3 167.1 129.4C167.4 129.5 167.6 130 167.9 130.1C168.1 130.1 169.4 129.9 169.5 129.9ZM168.8 130.8C168.6 130.5 167.5 130.8 167.2 131.1C167 131.3 166.9 131.7 166.6 132C166.4 132.3 166.1 132.6 165.9 132.8C165.7 133.1 164.8 134.7 165.5 134.9C165.8 135 166.5 134.2 166.5 133.9C166.7 132.9 167.1 132.1 167.8 131.6C168.4 131.4 168.8 131.4 168.8 130.8ZM162.9 124.4C163.4 124.4 163.8 122.5 162.9 122.8C162.3 123 162.2 124.5 162.9 124.4ZM160.4 166.9C160.4 166.8 160.5 166.8 160.5 166.7C160.3 166.1 159.9 166.9 160.4 166.9ZM140.4 119.5C140.4 119.4 140.3 119.4 140.4 119.3C140.3 119.3 140.1 119.3 140.1 119.5C140.2 119.6 140.4 119.6 140.4 119.5ZM190 110.6C190.2 110.6 190.4 110.5 190.3 110.3C190.1 110.1 189.8 110.3 190 110.6ZM184.6 105.1C184.5 105 184.4 105 184.3 105.1C184.3 105.2 184.3 105.3 184.3 105.3C184.5 105.3 184.5 105.2 184.6 105.1ZM166.7 109.4C166.9 109.3 167.1 109.1 167 108.8C166.5 108.5 165.6 108.7 164.8 108.6C164.4 107.9 163.6 107.7 163.6 108.9C164.4 109.9 165.7 108.6 166.7 109.4ZM158.2 115.3C158.5 115.2 158.8 115.2 158.9 114.9C158.7 114.7 158.5 114.4 158.2 114.4C157.9 114.4 157.7 114.7 157.4 115C157 115.3 156.4 115.3 156.4 115.7C157.1 115.8 157.8 115.5 158.2 115.3ZM158 111.2C158.3 111.1 158.6 111.3 158.8 111C158.6 109.8 157.1 110.5 156.3 110.6C156.1 111 155.9 111.2 155.8 111.7C156.5 111.9 157.2 111.3 158 111.2ZM172.1 169.1C172.5 169 172.4 168 171.9 168.2C171.6 168.4 171.8 169.1 172.1 169.1Z" fill="white"/>
<path d="M140.4 119.3C140.4 119.4 140.5 119.4 140.4 119.5C140.3 119.6 140.1 119.6 140.1 119.4C140.1 119.3 140.3 119.3 140.4 119.3Z" fill="white"/>
<path d="M139 122.6C138.9 123 138.6 123.1 138.3 123.3C138.2 123.2 138.1 123.1 138.1 123C138.1 122.5 138.7 122.1 139 122.6Z" fill="white"/>
</g>
<path d="M147 202.4C141.5 201 137.1 199.1 133.7 196.7L140.3 181.8C143.5 183.9 147.2 185.6 151.4 186.9C155.6 188.2 159.8 188.8 163.9 188.8C171.7 188.8 175.6 186.9 175.6 183C175.6 181 174.5 179.4 172.3 178.4C170.1 177.4 166.5 176.4 161.6 175.3C156.2 174.1 151.7 172.9 148.1 171.6C144.5 170.3 141.4 168.1 138.8 165.2C136.2 162.3 134.9 158.3 134.9 153.3C134.9 148.9 136.1 145 138.5 141.5C140.9 138 144.4 135.2 149.2 133.2C153.9 131.2 159.7 130.1 166.6 130.1C171.3 130.1 175.9 130.6 180.5 131.7C185.1 132.8 189.1 134.3 192.6 136.4L186.4 151.4C179.6 147.7 173 145.9 166.6 145.9C162.6 145.9 159.6 146.5 157.8 147.7C156 148.9 155 150.4 155 152.4C155 154.3 156.1 155.7 158.3 156.7C160.5 157.7 164 158.6 168.8 159.7C174.3 160.9 178.8 162.1 182.3 163.4C185.9 164.7 189 166.8 191.6 169.7C194.2 172.6 195.5 176.5 195.5 181.5C195.5 185.8 194.3 189.7 191.9 193.2C189.5 196.7 185.9 199.5 181.2 201.5C176.4 203.6 170.6 204.6 163.8 204.6C158.1 204.6 152.4 203.9 147 202.4Z" fill="#225E9F"/>
<path d="M262.3 187.5V203.1H204.8V131.5H261V147.1H224.9V159.2H256.7V174.3H224.9V187.4H262.3V187.5Z" fill="#225E9F"/>
<path d="M337.5 147.4C334.3 141.7 329.899 137.3 324.299 134.1C318.7 130.9 312.4 129.3 305.4 129.3C298.4 129.3 292.1 130.9 286.5 134.1C280.9 137.3 276.499 141.7 273.299 147.4C270.099 153.1 268.5 159.4 268.5 166.5C268.5 173.6 270.099 180 273.299 185.6C276.499 191.3 280.9 195.7 286.5 198.9C292.1 202.1 298.4 203.7 305.4 203.7C312.4 203.7 318.7 202.1 324.299 198.9C329.899 195.7 334.3 191.3 337.5 185.6C340.7 179.9 342.299 173.6 342.299 166.5C342.299 159.4 340.7 153.1 337.5 147.4Z" fill="#225E9F"/>
<path opacity="0.3" d="M282.2 137.1C278.6 139.9 275.7 143.4 273.4 147.5C272.4 149.3 271.6 151.1 270.9 153L269.7 157.1C269 160.1 268.6 163.3 268.6 166.6C268.6 173.7 270.2 180.1 273.4 185.7C276.6 191.4 281 195.8 286.6 199L305.5 166.6L282.2 137.1Z" fill="black"/>
<path opacity="0.2" d="M282.2 137.1L305.4 166.6L306.9 129.4C306.9 129.3 293.8 127.8 282.2 137.1Z" fill="white"/>
<path d="M162.3 244.9V265.2" stroke="#225E9F" stroke-miterlimit="10"/>
<path d="M61.6001 80.8V103.5H87.2001" stroke="#225E9F" stroke-miterlimit="10"/>
<path d="M387.7 83.8H411.4V100.4" stroke="#225E9F" stroke-miterlimit="10"/>
<path d="M123 85.6H19.1C16.8 85.6 15 83.8 15 81.5V23.2C15 20.9 16.8 19.1 19.1 19.1H123C125.3 19.1 127.1 20.9 127.1 23.2V81.5C127.1 83.8 125.2 85.6 123 85.6Z" fill="#225E9F"/>
<path opacity="0.5" d="M123 85.6H19.1C16.8 85.6 15 83.8 15 81.5V23.2C15 20.9 16.8 19.1 19.1 19.1H123C125.3 19.1 127.1 20.9 127.1 23.2V81.5C127.1 83.8 125.2 85.6 123 85.6Z" fill="white"/>
<path d="M31.7998 56C32.2998 55.6 45.3998 42.6 45.3998 42.6L58.3998 49L70.9998 34.1L83.8998 52.7L96.4998 44.5" stroke="#263238" stroke-width="0.5" stroke-miterlimit="10"/>
<path d="M35.8998 61.7999H29.7998V75.1999H35.8998V61.7999Z" fill="#225E9F"/>
<path d="M48.3998 53H42.2998V75.3H48.3998V53Z" fill="#225E9F"/>
<path d="M61.1 55.2H55V75.3H61.1V55.2Z" fill="#225E9F"/>
<path d="M74.1 42.6H68V75.3H74.1V42.6Z" fill="#225E9F"/>
<path d="M87.2001 59.9H81.1001V75.2H87.2001V59.9Z" fill="#225E9F"/>
<path d="M32.8 57.7999C34.6225 57.7999 36.1 56.3225 36.1 54.5C36.1 52.6774 34.6225 51.2 32.8 51.2C30.9775 51.2 29.5 52.6774 29.5 54.5C29.5 56.3225 30.9775 57.7999 32.8 57.7999Z" fill="#225E9F"/>
<path d="M45.3 45.8999C47.1225 45.8999 48.6 44.4225 48.6 42.5999C48.6 40.7774 47.1225 39.2999 45.3 39.2999C43.4775 39.2999 42 40.7774 42 42.5999C42 44.4225 43.4775 45.8999 45.3 45.8999Z" fill="#225E9F"/>
<path d="M58.4001 51.2999C60.2226 51.2999 61.7001 49.8225 61.7001 48C61.7001 46.1774 60.2226 44.7 58.4001 44.7C56.5776 44.7 55.1001 46.1774 55.1001 48C55.1001 49.8225 56.5776 51.2999 58.4001 51.2999Z" fill="#225E9F"/>
<path d="M71.0002 37.3999C72.8227 37.3999 74.3002 35.9225 74.3002 34.0999C74.3002 32.2774 72.8227 30.7999 71.0002 30.7999C69.1777 30.7999 67.7002 32.2774 67.7002 34.0999C67.7002 35.9225 69.1777 37.3999 71.0002 37.3999Z" fill="#225E9F"/>
<path d="M83.9001 56.1C85.7226 56.1 87.2001 54.6225 87.2001 52.8C87.2001 50.9775 85.7226 49.5 83.9001 49.5C82.0776 49.5 80.6001 50.9775 80.6001 52.8C80.6001 54.6225 82.0776 56.1 83.9001 56.1Z" fill="#225E9F"/>
<path d="M100.1 52.2999H94V75.2999H100.1V52.2999Z" fill="#225E9F"/>
<path opacity="0.3" d="M48.3998 53H42.2998V75.3H48.3998V53Z" fill="black"/>
<path opacity="0.3" d="M74.1 42.6H68V75.3H74.1V42.6Z" fill="black"/>
<path opacity="0.3" d="M100.1 52.2999H94V75.2999H100.1V52.2999Z" fill="black"/>
<path d="M113.6 59.9H107.5V75.2H113.6V59.9Z" fill="#225E9F"/>
<path d="M96.6001 44.5L110.5 52.3" stroke="#263238" stroke-width="0.5" stroke-miterlimit="10"/>
<path d="M97.3 47.7999C99.1225 47.7999 100.6 46.3225 100.6 44.5C100.6 42.6774 99.1225 41.2 97.3 41.2C95.4775 41.2 94 42.6774 94 44.5C94 46.3225 95.4775 47.7999 97.3 47.7999Z" fill="#225E9F"/>
<path d="M110.5 55.6C112.323 55.6 113.8 54.1225 113.8 52.3C113.8 50.4775 112.323 49 110.5 49C108.678 49 107.2 50.4775 107.2 52.3C107.2 54.1225 108.678 55.6 110.5 55.6Z" fill="#225E9F"/>
<path d="M449.5 202.3H369.2C366.5 202.3 364.3 200.1 364.3 197.4V105.9C364.3 103.2 366.5 101 369.2 101H449.5C452.2 101 454.4 103.2 454.4 105.9V197.4C454.4 200.1 452.2 202.3 449.5 202.3Z" fill="#225E9F"/>
<path opacity="0.5" d="M449.5 202.3H369.2C366.5 202.3 364.3 200.1 364.3 197.4V105.9C364.3 103.2 366.5 101 369.2 101H449.5C452.2 101 454.4 103.2 454.4 105.9V197.4C454.4 200.1 452.2 202.3 449.5 202.3Z" fill="white"/>
<path d="M454.4 116.5H364.2V105.6C364.2 103 366.3 101 368.8 101H449.8C452.3 101 454.3 103 454.3 105.5V116.5H454.4Z" fill="#225E9F"/>
<path opacity="0.5" d="M447.6 113.2C449.478 113.2 451 111.678 451 109.8C451 107.922 449.478 106.4 447.6 106.4C445.722 106.4 444.2 107.922 444.2 109.8C444.2 111.678 445.722 113.2 447.6 113.2Z" fill="white"/>
<path opacity="0.5" d="M438 113.2C439.878 113.2 441.4 111.678 441.4 109.8C441.4 107.922 439.878 106.4 438 106.4C436.122 106.4 434.6 107.922 434.6 109.8C434.6 111.678 436.122 113.2 438 113.2Z" fill="white"/>
<path opacity="0.5" d="M428.4 113.2C430.278 113.2 431.8 111.678 431.8 109.8C431.8 107.922 430.278 106.4 428.4 106.4C426.522 106.4 425 107.922 425 109.8C425 111.678 426.522 113.2 428.4 113.2Z" fill="white"/>
<path opacity="0.6" d="M442.2 129.4H388V132.6H442.2V129.4Z" fill="white"/>
<path opacity="0.6" d="M427.7 136.3H388.9V139.5H427.7V136.3Z" fill="#263238"/>
<path d="M384.3 129.4H373.6V132.6H384.3V129.4Z" fill="#225E9F"/>
<path d="M442.2 143.8H388V147H442.2V143.8Z" fill="#225E9F"/>
<path d="M384.3 143.8H373.6V147H384.3V143.8Z" fill="#225E9F"/>
<path d="M442.2 173.9H388V177.1H442.2V173.9Z" fill="#225E9F"/>
<path opacity="0.6" d="M398.7 183.3H388V186.5H398.7V183.3Z" fill="white"/>
<path d="M442.2 151.4H388V154.6H442.2V151.4Z" fill="#225E9F"/>
<path opacity="0.6" d="M384.3 151.4H373.6V154.6H384.3V151.4Z" fill="#263238"/>
<path opacity="0.6" d="M426.8 158.1H388V161.3H426.8V158.1Z" fill="white"/>
<path opacity="0.6" d="M407.4 164.9H388V168.1H407.4V164.9Z" fill="#263238"/>
<path d="M215.6 329.3H147.4C144.7 329.3 142.5 327.1 142.5 324.4V268.6C142.5 265.9 144.7 263.7 147.4 263.7H215.6C218.3 263.7 220.5 265.9 220.5 268.6V324.4C220.5 327.1 218.3 329.3 215.6 329.3Z" fill="#225E9F"/>
<path opacity="0.5" d="M215.6 329.3H147.4C144.7 329.3 142.5 327.1 142.5 324.4V268.6C142.5 265.9 144.7 263.7 147.4 263.7H215.6C218.3 263.7 220.5 265.9 220.5 268.6V324.4C220.5 327.1 218.3 329.3 215.6 329.3Z" fill="white"/>
<path d="M220.5 275.1H142.4V268.3C142.4 265.7 144.5 263.7 147 263.7H215.9C218.4 263.7 220.4 265.7 220.4 268.2V275.1H220.5Z" fill="#225E9F"/>
<path opacity="0.5" d="M213.6 272.8C214.981 272.8 216.1 271.681 216.1 270.3C216.1 268.919 214.981 267.8 213.6 267.8C212.219 267.8 211.1 268.919 211.1 270.3C211.1 271.681 212.219 272.8 213.6 272.8Z" fill="white"/>
<path opacity="0.5" d="M206.5 272.8C207.881 272.8 209 271.681 209 270.3C209 268.919 207.881 267.8 206.5 267.8C205.119 267.8 204 268.919 204 270.3C204 271.681 205.119 272.8 206.5 272.8Z" fill="white"/>
<path opacity="0.5" d="M199.4 272.8C200.781 272.8 201.9 271.681 201.9 270.3C201.9 268.919 200.781 267.8 199.4 267.8C198.019 267.8 196.9 268.919 196.9 270.3C196.9 271.681 198.019 272.8 199.4 272.8Z" fill="white"/>
<path d="M180.2 302.1L187 283.5C189.5 284.4 191.8 285.8 193.8 287.7C195.8 289.5 197.3 291.8 198.4 294.2L180.2 302.1Z" fill="#F5F5F5"/>
<path d="M180.2 302.1L186 321C184.1 321.6 182.2 321.9 180.2 321.9C169.3 321.9 160.4 313 160.4 302.1C160.4 291.2 169.3 282.3 180.2 282.3C182.5 282.3 184.7 282.7 186.9 283.5L180.2 302.1Z" fill="#225E9F"/>
<path d="M180.2 302.1L198.4 294.3C199.5 296.8 200 299.4 200 302.1C200 310.8 194.3 318.5 186.1 321L180.2 302.1Z" fill="#225E9F"/>
<path opacity="0.3" d="M180.2 302.1L198.4 294.3C199.5 296.8 200 299.4 200 302.1C200 310.8 194.3 318.5 186.1 321L180.2 302.1Z" fill="black"/>
<path d="M370.9 322.5L368.8 401.5H371.8L375.3 322.5H370.9Z" fill="#263238"/>
<path opacity="0.2" d="M370.9 322.5L368.8 401.5H371.8L375.3 322.5H370.9Z" fill="white"/>
<path d="M387.2 324.3H414L422.4 401.5H425.9L418.1 318.8L387.2 319.7V324.3Z" fill="#263238"/>
<path opacity="0.2" d="M387.2 324.3H414L422.4 401.5H425.9L418.1 318.8L387.2 319.7V324.3Z" fill="white"/>
<path d="M385.3 319.7H347.4H345.5L337.2 401.5H339.1L339.4 398.5L339.1 401.5H341L350.6 324.5H381.7L381.9 401.5H383.9H384H386L387.2 319.7H385.3Z" fill="#263238"/>
<path opacity="0.2" d="M385.3 319.7H347.4H345.5L337.2 401.5H339.1L339.4 398.5L339.1 401.5H341L350.6 324.5H381.7L381.9 401.5H383.9H384H386L387.2 319.7H385.3Z" fill="white"/>
<path d="M371.6 311.2L380 252.7C380.5 248.4 383.6 245.2 387.4 245.2H426.4C427.4 245.2 428.2 246.1 428.2 247.2V309C428.2 317.6 422.1 324.5 414.6 324.5H371H336.5C336 324.5 335.6 324.1 335.6 323.5C335.6 319.7 338.3 316.5 341.7 316.5H366.2C369 316.6 371.2 314.3 371.6 311.2Z" fill="#263238"/>
<path opacity="0.5" d="M428.1 247.3V309C428.1 317.6 422 324.5 414.5 324.5H336.5C336 324.5 335.6 324.1 335.6 323.5C335.6 321.6 336.3 319.8 337.4 318.6C338.5 317.3 340 316.6 341.7 316.6H366.2C366.7 316.6 367.3 316.5 367.8 316.3C369.8 315.6 371.3 313.7 371.5 311.2L379.9 252.7C380.3 248.4 383.5 245.2 387.3 245.2H426.3C427 245.2 427.5 245.6 427.8 246.2C428 246.6 428.1 246.9 428.1 247.3Z" fill="white"/>
<path opacity="0.3" d="M420.9 245.3V300.8C420.9 309.4 414.8 316.3 407.3 316.3H367.9C369.9 315.6 371.4 313.7 371.6 311.2L380 252.7C380.4 248.4 383.6 245.2 387.4 245.2H420.9V245.3Z" fill="white"/>
<path d="M373.8 372.7L377.4 393.4L368.9 396.9L361.8 375.1L373.8 372.7Z" fill="#225E9F"/>
<path d="M374.8 391.7C374.2 393.3 372.8 394 371.4 393.7L370.4 392.3C369.5 391.1 368.4 390.7 367.1 391.5C366.5 391.9 365.9 393.2 366 394.7C366.1 397.4 365 399.2 365 399.2C365 399.2 360.3 405.5 358.5 407.3C357.4 408.4 355.9 409.9 355.7 411.8C355.6 412.3 355.6 413 355.7 413.6C355.8 414.2 356.3 415.2 356.3 415.2L372.1 407.2C372.1 407.2 373.2 405.4 373.9 405.1C375.1 404.5 376.2 405.3 376.2 405.3L382 402.4C382 402.4 381.7 401.5 381.2 400.1C381 399.5 380.7 398.8 380.5 398C379.3 394.8 378 390.7 377.7 389.8C376.9 388.5 374.8 391.7 374.8 391.7Z" fill="#263238"/>
<path d="M362.3 402.5C362.3 402.4 362.4 402.3 362.6 402.3C363.1 402.3 363.6 402.5 364 402.8C364.2 403 364 403.3 363.8 403.2C363.4 402.9 363 402.8 362.6 402.7C362.4 402.8 362.3 402.7 362.3 402.5Z" fill="#225E9F"/>
<path d="M363.2 401.3C363.2 401.2 363.3 401.1 363.5 401.1C364 401.1 364.5 401.3 364.9 401.6C365.1 401.8 364.9 402.1 364.7 402C364.3 401.7 363.9 401.6 363.5 401.5C363.2 401.5 363.2 401.4 363.2 401.3Z" fill="#225E9F"/>
<path d="M364.2 400C364.2 399.9 364.3 399.8 364.5 399.8C365 399.8 365.5 400 365.9 400.3C366.1 400.5 365.9 400.8 365.7 400.7C365.3 400.4 364.9 400.3 364.5 400.2C364.2 400.3 364.1 400.1 364.2 400Z" fill="#225E9F"/>
<path opacity="0.2" d="M355.5 412.9C355.5 413.2 355.5 413.5 355.6 413.8C355.7 414.4 356.2 415.4 356.2 415.4L372 407.4C372 407.4 373.1 405.6 373.8 405.3C375 404.7 376.1 405.5 376.1 405.5L381.9 402.6C381.9 402.6 381.6 401.7 381.1 400.3C381.1 400.2 381 400.1 381 400L355.5 412.9Z" fill="white"/>
<path d="M364.4 400.1C364.2 399.5 363.9 399 363.6 398.4C363.3 397.9 362.8 397.4 362.3 397.1C362 397 361.7 396.9 361.5 397C361.2 397.2 361.2 397.5 361.2 397.8C361.3 398.4 361.6 398.9 362.1 399.2C362.5 399.7 363.8 400 364.4 400.1Z" stroke="#225E9F" stroke-width="0.25" stroke-miterlimit="10"/>
<path d="M364.5 400.1C364.5 399.5 364.4 398.9 364.5 398.3C364.6 397.7 364.7 397.1 365.1 396.6C365.3 396.4 365.5 396.2 365.8 396.2C366.1 396.2 366.3 396.5 366.4 396.8C366.6 397.3 366.5 398 366.2 398.5C365.9 398.9 364.9 399.7 364.5 400.1Z" stroke="#225E9F" stroke-width="0.25" stroke-miterlimit="10"/>
<path d="M346.5 368.3L350.1 389L341.5 392.4L334.5 370.7L346.5 368.3Z" fill="#225E9F"/>
<path d="M347.4 387.3C346.8 388.9 345.4 389.6 344 389.3L343 387.9C342.1 386.7 341 386.3 339.7 387.1C339.1 387.5 338.5 388.8 338.6 390.3C338.7 393 337.6 394.8 337.6 394.8C337.6 394.8 332.9 401.1 331.1 402.9C330 404 328.5 405.5 328.3 407.4C328.2 407.9 328.2 408.6 328.3 409.2C328.4 409.8 328.9 410.8 328.9 410.8L344.7 402.8C344.7 402.8 345.8 401 346.5 400.7C347.7 400.1 348.8 400.9 348.8 400.9L354.6 398C354.6 398 354.3 397.1 353.8 395.7C353.6 395.1 353.3 394.4 353.1 393.6C351.9 390.4 350.6 386.3 350.3 385.4C349.5 384.1 347.4 387.3 347.4 387.3Z" fill="#263238"/>
<path d="M335 398.1C335 398 335.1 397.9 335.3 397.9C335.8 397.9 336.3 398.1 336.7 398.4C336.9 398.6 336.7 398.9 336.5 398.8C336.1 398.5 335.7 398.4 335.3 398.3C335 398.4 334.9 398.2 335 398.1Z" fill="#225E9F"/>
<path d="M335.9 396.8C335.9 396.7 336 396.6 336.2 396.6C336.7 396.6 337.2 396.8 337.6 397.1C337.8 397.3 337.6 397.6 337.4 397.5C337 397.2 336.6 397.1 336.2 397C335.9 397.1 335.8 397 335.9 396.8Z" fill="#225E9F"/>
<path d="M336.8 395.6C336.8 395.5 336.9 395.4 337.1 395.4C337.6 395.4 338.1 395.6 338.5 395.9C338.7 396.1 338.5 396.4 338.3 396.3C337.9 396 337.5 395.9 337.1 395.8C336.8 395.8 336.7 395.7 336.8 395.6Z" fill="#225E9F"/>
<path opacity="0.2" d="M328.2 408.5C328.2 408.8 328.2 409.1 328.3 409.4C328.4 410 328.9 411 328.9 411L344.7 403C344.7 403 345.8 401.2 346.5 400.9C347.7 400.3 348.8 401.1 348.8 401.1L354.6 398.2C354.6 398.2 354.3 397.3 353.8 395.9C353.8 395.8 353.7 395.7 353.7 395.6L328.2 408.5Z" fill="white"/>
<path d="M337 395.7C336.8 395.1 336.5 394.6 336.2 394C335.9 393.5 335.4 393 334.9 392.7C334.6 392.6 334.3 392.5 334.1 392.6C333.8 392.8 333.8 393.1 333.8 393.4C333.9 394 334.2 394.5 334.7 394.8C335.2 395.2 336.5 395.6 337 395.7Z" stroke="#225E9F" stroke-width="0.25" stroke-miterlimit="10"/>
<path d="M337.1 395.7C337.1 395.1 337 394.5 337.1 393.9C337.2 393.3 337.3 392.7 337.7 392.2C337.9 392 338.1 391.8 338.4 391.8C338.7 391.8 338.9 392.1 339 392.4C339.2 392.9 339.1 393.6 338.8 394.1C338.6 394.4 337.6 395.3 337.1 395.7Z" stroke="#225E9F" stroke-width="0.25" stroke-miterlimit="10"/>
<path d="M415.1 279.4C415.1 279.4 394.6 299.5 383.9 309.4C373.2 319.4 339.7 317.9 339.7 317.9L352.4 382.6L335 384.7C335 384.7 318.6 336.7 312.2 311.1C311.3 307.4 313 301.8 314.7 299.4C321.7 289.5 373.9 287.8 373.9 287.8L375 280.8L415.1 279.4Z" fill="#263238"/>
<path opacity="0.2" d="M342.2 331C342.2 331 333 314.8 331 308.3C329 301.8 329.6 299.4 334.5 297.4C339.3 295.4 373.5 291.3 373.5 291.3L374 288.5L381 296.2C381 296.2 340.6 298.9 341.1 305.5C341.6 312.2 342.2 331 342.2 331Z" fill="black"/>
<path d="M415.1 279.4C415.1 279.4 419.3 304.3 410.7 310.7C402.5 316.8 367.7 320.4 367.7 320.4L378.4 385.4L361.4 388.4C361.4 388.4 344.8 338.8 338.5 313.2C337.6 309.5 338.4 304.7 340.1 302.3C347.1 292.4 398.9 289.4 398.9 289.4L415.1 279.4Z" fill="#263238"/>
<path opacity="0.2" d="M367.8 320.5C367.8 320.5 365.1 316.5 363 314.9C363 314.9 368.9 316.9 370 320.3L367.8 320.5Z" fill="black"/>
<path d="M333.3 280L337 285.6C337 285.6 360.5 277.7 363.3 275C366.1 272.3 369.5 248.4 369.5 248.4V231.4L369.8 219.1C369.8 219.1 360.1 221.5 359.3 229.3C359.1 231.6 354.9 266 354.9 266L333.3 280Z" fill="#E9B376"/>
<path d="M341 293.9H357.6H375.2C375.2 295.2 373.7 296.3 371.9 296.3H354.3H344.2H316.2C314.4 296.3 313 295.2 313 293.9H341Z" fill="#263238"/>
<path d="M315.7 296.1H347C347.5 296.1 348 295.7 348 295.3C348 295.2 348 295.1 348 295.1L334 263.2C333.6 262.3 332.6 261.7 331.4 261.7H300.1C299.6 261.7 299.1 262 299.1 262.5C299.1 262.6 299.1 262.7 299.2 262.8L313.1 294.7C313.5 295.5 314.5 296.1 315.7 296.1Z" fill="#263238"/>
<path d="M300.1 261.7H331.4C332.6 261.7 333.6 262.3 334 263.2L347.4 293.9H357.6H375.2C375.2 295.2 373.7 296.3 371.9 296.3H354.3H344.2H316.2C315.6 296.3 315.1 296.2 314.7 296C314 295.8 313.4 295.3 313.1 294.6L299.2 262.7C299.2 262.6 299.1 262.5 299.1 262.4C299.2 262 299.6 261.7 300.1 261.7Z" fill="#225E9F"/>
<path d="M318.9 278.7C319.6 280.2 320.9 281.3 322 281.1C323 280.9 323.3 279.5 322.6 278C321.9 276.5 320.6 275.4 319.5 275.7C318.5 275.8 318.2 277.1 318.9 278.7Z" fill="white"/>
<g opacity="0.3">
<path d="M334 263.2L347.4 293.9H346L331.5 261.7C332.6 261.7 333.6 262.3 334 263.2Z" fill="black"/>
</g>
<path opacity="0.5" d="M300.1 261.7H331.4C332.6 261.7 333.6 262.3 334 263.2L347.4 293.9H357.6H375.2C375.2 295.2 373.7 296.3 371.9 296.3H354.3H344.2H316.2C315.6 296.3 315.1 296.2 314.7 296C314 295.8 313.4 295.3 313.1 294.6L299.2 262.7C299.2 262.6 299.1 262.5 299.1 262.4C299.2 262 299.6 261.7 300.1 261.7Z" fill="white"/>
<path d="M371.3 287.9C371.3 287.9 365.9 281.4 367.6 280.1L368.2 219.6L369.7 219.1L382 216.3L394.7 213.6L401.4 215L413.1 227.9C413.1 227.9 414.8 259.5 414.8 260.9C414.9 262.7 415.8 285.5 415.8 285.5C395.8 290 371 289.5 371.3 287.9Z" fill="#225E9F"/>
<path d="M377.9 217.4L383 225.1L392.4 213.5C392.4 213.5 389.9 211.6 387.8 209.7C386.1 208.3 381.6 202.5 381.6 202.5L380.4 203.6L372.5 210.4C372.5 210.4 378.1 213.6 378 214.8C378.2 215.9 378.4 217 377.9 217.4Z" fill="#E9B376"/>
<path opacity="0.2" d="M377.9 214.9C378.1 216.1 378.2 216.3 377.9 217.4C383.8 216.2 381 203.7 381 203.7H380.4L372.5 210.5C372.4 210.5 378.1 213.7 377.9 214.9Z" fill="black"/>
<path d="M357.2 191.4C356.4 194.8 357.4 201.5 361.9 199C366.3 196.5 358.5 185.6 357.2 191.4Z" fill="#263238"/>
<path d="M381.2 194.3C382.3 202.8 383.1 207.5 379.7 212.6C374.6 220.2 363.8 218.4 360.2 210.5C357 203.3 355.7 190.7 363.3 185.9C370.6 181 380.1 185.8 381.2 194.3Z" fill="#E9B376"/>
<path d="M380.7 182.9C378.7 178.5 372.2 177.1 369.5 180.1C369.1 180.5 373 181.1 372.5 181L374.1 187.7C374.6 187.5 375.7 187.9 376.5 189.3C376.5 189.3 377 198.4 381.3 201.4C389.4 195.6 387.3 183.6 380.7 182.9Z" fill="#263238"/>
<path d="M385.799 200.6C385.499 202.9 384.299 204.8 382.799 206C380.499 207.7 378.299 206 378.099 203.3C377.899 200.9 378.699 197.1 381.399 196.4C384.099 195.7 386.099 198 385.799 200.6Z" fill="#E9B376"/>
<path d="M369.7 199C369.9 199.9 369.5 200.6 369 200.7C368.4 200.8 367.9 200.2 367.7 199.3C367.5 198.4 367.9 197.7 368.4 197.6C368.9 197.5 369.5 198.1 369.7 199Z" fill="#263238"/>
<path d="M361.3 200.8C361.5 201.7 361.1 202.4 360.6 202.5C360 202.6 359.5 202 359.3 201.1C359.1 200.2 359.5 199.5 360 199.4C360.6 199.3 361.2 199.9 361.3 200.8Z" fill="#263238"/>
<path d="M364 199.8C364 199.8 362.1 204.6 361.6 206.5C363 207.3 365 206.5 365 206.5L364 199.8Z" fill="#D58745"/>
<path d="M370.699 194C370.599 194.1 370.399 194.1 370.299 194C368.599 193.2 367.399 194 367.299 194C367.099 194.1 366.899 194.1 366.699 193.9C366.599 193.7 366.599 193.5 366.799 193.3C366.899 193.3 368.499 192.3 370.499 193.3C370.699 193.4 370.799 193.6 370.699 193.8C370.799 193.9 370.699 194 370.699 194Z" fill="#263238"/>
<path d="M357.499 198.9C357.399 198.9 357.299 198.9 357.299 198.8C357.099 198.7 357.099 198.4 357.199 198.2C358.599 196.5 360.499 196.7 360.599 196.7C360.799 196.7 360.999 196.9 360.999 197.2C360.999 197.4 360.799 197.6 360.599 197.6C360.499 197.6 359.099 197.4 357.899 198.8C357.799 198.8 357.699 198.9 357.499 198.9Z" fill="#263238"/>
<path d="M380.399 183.2C381.399 182 382.699 181 383.899 180.7" stroke="#263238" stroke-width="0.5" stroke-miterlimit="10" stroke-linecap="round" stroke-linejoin="round"/>
<path d="M380.5 183C381 181.4 380.9 179.7 380.2 178.1" stroke="#263238" stroke-width="0.5" stroke-miterlimit="10" stroke-linecap="round" stroke-linejoin="round"/>
<path opacity="0.2" d="M383.5 198.6C383.1 198.2 382.3 198.1 381.8 198.4C381.2 198.7 380.8 199.2 380.6 199.7C380.3 200.4 380.1 201.1 380.2 201.8" stroke="black" stroke-width="0.5" stroke-miterlimit="10" stroke-linecap="round" stroke-linejoin="round"/>
<path d="M367 208.4C368.9 207.9 370.5 206.5 371.3 204.6C371.3 204.5 371.3 204.4 371.2 204.3C371.1 204.3 371 204.3 370.9 204.4C370.2 206.1 368.7 207.4 366.9 207.9C366.8 207.9 366.7 208.1 366.8 208.2C366.8 208.3 367 208.4 367 208.4C367.1 208.3 367.1 208.3 367 208.4Z" fill="#263238"/>
<path d="M375.7 217.8C375.9 217.6 378.1 215.9 378.1 215.9L382.6 219.5L389.1 210.5L394.8 213.6L382.8 228.6L375.7 217.8Z" fill="#225E9F"/>
<path opacity="0.1" d="M382.6 221C381.7 232.5 381 243.9 381.1 254.9C381.2 265.9 379.3 278.1 382.8 288.6" stroke="black" stroke-width="0.5" stroke-miterlimit="10" stroke-linecap="round" stroke-linejoin="round"/>
<path opacity="0.2" d="M401 256.8L395.3 257.4L397.2 233.2L398.6 253.9L414.6 254.5L401 256.8Z" fill="black"/>
<path opacity="0.2" d="M375.7 217.8C375.8 218 378.4 223.2 379.6 225.4C379.8 225.8 380.3 225.7 380.5 225.4L382.5 220L380 224.2L375.7 217.8Z" fill="black"/>
<path opacity="0.2" d="M382.8 219.6C383 219.8 387.4 224.5 387.4 224.5L393.9 213.6L388.3 226C388 226.6 387.2 226.6 386.9 226.1L382.8 219.6Z" fill="black"/>
<path d="M401 243.9C401 243.9 401 261.4 400.9 261.6C400.9 261.8 370.5 274.5 370.5 274.5C370.5 275 375 280.2 375 280.2C375 280.2 408.2 275.8 411.9 270.2C415.1 265.4 415.6 243.7 415.6 243.7L401 243.9Z" fill="#E9B376"/>
<path d="M401.4 215C413.5 216 416.5 225 416.3 238.8C416.1 252 416.4 255 416.4 255L398.2 254.6C398.2 254.6 397.9 231 397.9 228.7C397.9 226.4 401.4 215 401.4 215Z" fill="#225E9F"/>
<path d="M370.1 260.2L353.4 256C353.4 256 358 232.3 358.7 228.3C359.6 223.8 365 220.4 369.7 219.1L373.6 234.3L370.1 260.2Z" fill="#225E9F"/>
<path opacity="0.2" d="M367.6 259.6C367.4 259.6 364.9 235.4 364.9 235.4L363.5 258.6L367.6 259.6Z" fill="black"/>
<path d="M354.5 291.2C354.7 289.6 357.6 282.8 359.1 280.6C360.6 278.3 370.5 274.5 370.5 274.5L376.3 278.7C376.3 278.7 376.3 281.1 374.2 282.9C373 283.9 369 284.9 369 284.9C369 284.9 369.3 286.1 369.3 287.5C369.3 289 369 290.9 367.7 290.9C366.4 290.8 366 286.8 365.9 286.2C366 286.8 366.3 290.9 364.6 291.1C363 291.2 362.7 286.9 362.7 286.9C362.7 286.9 362.6 288.9 362.6 289.9C362.5 290.9 361.5 291.8 360.6 290.7C359.5 289.4 359.4 287.1 359.4 287.1C359.4 287.1 358.5 288.4 357.2 291.4C356.4 293.4 354.4 292.5 354.5 291.2Z" fill="#E9B376"/>
<path opacity="0.1" d="M366.1 286.7C366.1 285.9 366 285.1 366.1 284.4C366.2 283.6 366.5 282.9 367 282.3" stroke="black" stroke-width="0.5" stroke-miterlimit="10" stroke-linecap="round" stroke-linejoin="round"/>
<path opacity="0.1" d="M362.8 287.3C362.8 286.5 362.7 285.7 362.8 285C362.9 284.2 363.2 283.5 363.7 282.9" stroke="black" stroke-width="0.5" stroke-miterlimit="10" stroke-linecap="round" stroke-linejoin="round"/>
<path opacity="0.1" d="M359.5 287C359.5 286.2 359.4 285.4 359.5 284.7C359.6 283.9 359.9 283.2 360.4 282.6" stroke="black" stroke-width="0.5" stroke-miterlimit="10" stroke-linecap="round" stroke-linejoin="round"/>
<path d="M378.9 179.9C378.1 178.9 376.9 178.4 375.7 178.2C374.1 177.9 372.3 178 370.8 178.5C369 179.1 367.3 180.1 365.4 180.4C365.2 180.4 364.9 180.4 364.7 180.3C364.6 180.2 364.5 180 364.5 179.9C364.2 178.9 363.1 178.1 362.1 178.1C361 178.1 360 178.8 359.6 179.9C358.6 178.3 356.1 178.1 354.5 179.1C352.9 180.1 351.9 181.2 351.4 183.1C351.2 183.7 351.1 185.2 351.4 186.2C351.9 188.3 353 189.6 354.9 190.7C357.4 192.2 360.3 193.3 363.2 192.7C367 192 369.9 188.7 373.7 187.8C375.1 187.5 376.8 187.5 377.8 188.6L380.9 182.8C380.7 181.9 379.7 181 378.9 179.9Z" fill="#263238"/>
<path d="M62.5999 147.8C63.5999 152.6 65.7999 162.3 62.3999 165.6C62.3999 165.6 63.6999 170.4 72.6999 170.4C82.4999 170.4 77.3999 165.6 77.3999 165.6C71.9999 164.3 72.0999 160.3 73.0999 156.6L62.5999 147.8Z" fill="#B97964"/>
<path d="M82.7996 139C82.6996 139 82.5996 139 82.4996 138.9C82.2996 138.7 82.2996 138.5 82.4996 138.3C83.4996 137.3 84.8996 136.9 86.2996 137.1C86.4996 137.2 86.6996 137.4 86.5996 137.6C86.5996 137.8 86.2996 138 86.0996 137.9C84.9996 137.7 83.8996 138.1 83.0996 138.8C82.9996 138.9 82.8996 139 82.7996 139Z" fill="#263238"/>
<path d="M84.2 144.6C84.5 146.4 85 148.2 85.7 149.8C84.8 150.2 83.8 150.1 83 149.7L84.2 144.6Z" fill="#A24E3F"/>
<path d="M83.8 143.2C83.6 143.9 83.8999 144.6 84.3999 144.7C84.8999 144.8 85.3999 144.3 85.4999 143.6C85.5999 142.9 85.3999 142.2 84.9999 142.1C84.3999 142 84 142.5 83.8 143.2Z" fill="#263238"/>
<path d="M84.6997 142.1L86.4997 142C86.5997 142 85.3997 143.1 84.6997 142.1Z" fill="#263238"/>
<path d="M60.0998 135C58.5998 144 57.7998 147.8 61.1998 153.4C66.3998 161.8 77.6998 161.8 81.8998 153.4C85.5998 145.9 87.4998 132.4 79.5998 126.9C74.0998 122.9 66.2998 124.1 62.2998 129.7C61.1998 131.2 60.3998 133 60.0998 135Z" fill="#B97964"/>
<path d="M71.1997 122.5C78.6997 119.4 86.4997 121.5 87.2997 129.3C88.0997 137.1 79.2997 144.5 79.2997 144.5L71.1997 122.5Z" fill="#263238"/>
<path d="M74.8 142.8C74.6 144.6 75.1 146.3 76.2 147.7C77.7 149.5 79.7 148.6 80.5 146.5C81.2 144.6 81.2 141.4 79.2 140.3C77.7 139.5 75.9 140.1 75.2 141.6C75 142 74.8 142.4 74.8 142.8Z" fill="#B97964"/>
<path opacity="0.3" d="M78.3997 142.6C77.9997 142.6 77.6997 142.8 77.4997 143.1C77.2997 143.4 77.1997 143.8 77.1997 144.2C77.1997 145.3 77.6997 146.5 78.5997 147.2" stroke="black" stroke-width="0.5" stroke-miterlimit="10" stroke-linecap="round" stroke-linejoin="round"/>
<path d="M52.7998 186.6C52.2998 186.6 49.1998 206.6 49.3998 207.2C50.1998 209.4 73.2998 204.5 73.2998 204.5L74.7998 210.7C74.7998 210.7 64.6998 215.6 53.7998 217.4C42.5998 219.2 38.3998 214.3 38.2998 206.6C38.2998 199.6 41.0998 182.7 41.0998 182.7L52.7998 186.6Z" fill="#B97964"/>
<path d="M127.2 175.7C124.4 179.8 121.3 183.6 118.2 187.3C116.6 189.1 93.9997 214.1 92.2997 215.9L89.7997 218.6C88.8997 219.7 87.4996 220.3 85.9996 220.2C84.2996 220.2 82.8996 219 82.5996 217.4C82.2996 216 82.7997 214.6 83.7997 213.7L86.3997 211C88.0997 209.2 110.9 184.4 112.7 182.7C116.3 179.3 119.1 175.1 123 172C123.9 171.3 126.1 172.2 126.9 173C127.6 173.9 127.7 174.9 127.2 175.7Z" fill="#263238"/>
<path d="M91.5997 221.8L56.0997 226.8C50.7997 233.7 50.1997 244.4 50.5997 255.8C51.5997 273.6 55.6997 300.1 56.0997 306.1H56.4997C56.4997 310.7 53.5997 326.2 53.5997 333.1C53.5997 356.6 56.3997 393.5 56.3997 393.5L58.4997 399.8L65.6997 394.3C65.6997 394.3 78.0997 311.7 78.2997 306.8C78.2997 306.3 78.2997 305.7 78.3997 305.1L78.8997 296.5C79.3997 288.7 80.0997 280 80.2997 271.2L81.0997 256.9C91.4997 253.2 96.1997 240.5 97.9997 237.9C94.9997 228 94.1997 226.1 91.5997 221.8Z" fill="#B97964"/>
<path d="M96.9997 233.7C96.9997 233.7 102.3 251.9 106.8 295.6C107.7 303.9 104.9 316.5 103.5 324.3L89.6997 394.8L80.2997 396.1C78.0997 362.2 81.5997 320.1 84.6997 306.6L64.1997 243.1L96.9997 233.7Z" fill="#B97964"/>
<path d="M66.8994 393.1H63.7994C63.0994 393.1 62.4994 393.4 62.0994 394C60.2994 396.4 58.9994 395.5 57.0994 393.2C55.8994 393.1 55.5994 394.5 55.4994 394.8L53.1994 403.1C52.9994 403.8 53.3994 404.5 54.0994 404.7C54.1994 404.7 54.3994 404.8 54.4994 404.8C58.1994 404.8 59.9994 404.8 64.5994 404.8H78.6994C82.4994 404.8 83.2994 400.9 81.7994 400.6C74.6994 399 69.5994 396.9 67.3994 394.9C66.8994 394.5 67.3994 394.3 66.8994 393.1Z" fill="#263238"/>
<path d="M73.4995 395.5C73.7995 395.3 73.9995 394.9 73.9995 394.5C73.9995 394.3 73.8995 394.1 73.7995 394C72.7995 393.3 68.9995 395.1 68.5995 395.3L68.4995 395.4C68.4995 395.5 68.4995 395.6 68.5995 395.6C69.4995 395.8 70.4995 395.9 71.4995 396C72.1995 396 72.8995 395.9 73.4995 395.5ZM73.5995 394.3C73.6995 394.3 73.6995 394.4 73.6995 394.5C73.6995 394.8 73.4995 395.1 73.2995 395.2C72.3995 395.8 70.2995 395.6 69.1995 395.4C70.7995 394.7 72.9995 393.9 73.5995 394.3Z" fill="#225E9F"/>
<path d="M68.6994 395.6C69.7994 395.1 72.1994 393.2 72.0994 392.2C72.0994 392 71.8994 391.7 71.3994 391.7C69.2994 391.5 68.3994 395.2 68.3994 395.4C68.3994 395.5 68.3994 395.5 68.3994 395.6C68.5994 395.6 68.5994 395.6 68.6994 395.6ZM71.3994 392.1C71.7994 392.1 71.7994 392.3 71.7994 392.3C71.8994 392.9 70.1994 394.5 68.8994 395.1C69.1994 394.2 69.8994 392 71.2994 392L71.3994 392.1Z" fill="#225E9F"/>
<path d="M68.9994 395.5C67.8994 395.6 66.9994 396.3 66.3994 397.2" stroke="#225E9F" stroke-width="0.5" stroke-miterlimit="10" stroke-linecap="round" stroke-linejoin="round"/>
<path d="M70.8993 396.9C69.7993 397 68.8993 397.7 68.2993 398.6" stroke="#225E9F" stroke-width="0.5" stroke-miterlimit="10" stroke-linecap="round" stroke-linejoin="round"/>
<path d="M73.2992 398.1C72.1992 398.2 71.2992 398.9 70.6992 399.8" stroke="#225E9F" stroke-width="0.5" stroke-miterlimit="10" stroke-linecap="round" stroke-linejoin="round"/>
<path opacity="0.3" d="M77.9994 399.7L77.7994 404.8H74.8994L76.4994 399.3L77.9994 399.7Z" fill="black"/>
<path d="M90.0996 393.3H86.9996C86.2996 393.3 85.6996 393.6 85.2996 394.2C83.4996 396.6 82.1996 395.7 80.2996 393.4C79.0996 393.3 78.7996 394.7 78.6996 395L76.3996 403.3C76.1996 404 76.5996 404.7 77.2996 404.9C77.3996 404.9 77.5996 405 77.6996 405C81.3996 405 83.1996 405 87.7996 405H101.9C105.7 405 106.5 401.1 105 400.8C97.8996 399.2 92.7996 397.1 90.5996 395.1C90.1996 394.7 90.5996 394.5 90.0996 393.3Z" fill="#263238"/>
<path d="M96.7998 395.7C97.0998 395.5 97.2998 395.1 97.2998 394.7C97.2998 394.5 97.1998 394.3 97.0998 394.2C96.0998 393.5 92.2998 395.3 91.8998 395.5L91.7998 395.6C91.7998 395.7 91.7998 395.8 91.8998 395.8C92.7998 396 93.7998 396.1 94.7998 396.2C95.3998 396.2 96.0998 396.1 96.7998 395.7ZM96.7998 394.4C96.8998 394.4 96.8998 394.5 96.8998 394.6C96.8998 394.9 96.6998 395.2 96.4998 395.3C95.5998 395.9 93.4998 395.7 92.3998 395.5C93.9998 394.9 96.2998 394.1 96.7998 394.4Z" fill="#225E9F"/>
<path d="M91.9997 395.8C93.0997 395.3 95.4997 393.4 95.3997 392.4C95.3997 392.2 95.1997 391.9 94.6997 391.9C92.5997 391.7 91.6997 395.4 91.6997 395.6C91.6997 395.7 91.6997 395.7 91.6997 395.8C91.7997 395.8 91.7997 395.8 91.9997 395.8ZM94.5997 392.3C94.9997 392.3 94.9997 392.5 94.9997 392.5C95.0997 393.1 93.3997 394.7 92.0997 395.3C92.3997 394.4 93.0997 392.2 94.4997 392.2L94.5997 392.3Z" fill="#225E9F"/>
<path d="M92.2997 395.7C91.1997 395.8 90.2997 396.5 89.6997 397.4" stroke="#225E9F" stroke-width="0.5" stroke-miterlimit="10" stroke-linecap="round" stroke-linejoin="round"/>
<path d="M94.0995 397.1C92.9995 397.2 92.0995 397.9 91.4995 398.8" stroke="#225E9F" stroke-width="0.5" stroke-miterlimit="10" stroke-linecap="round" stroke-linejoin="round"/>
<path d="M96.4994 398.3C95.3994 398.4 94.4994 399.1 93.8994 400" stroke="#225E9F" stroke-width="0.5" stroke-miterlimit="10" stroke-linecap="round" stroke-linejoin="round"/>
<path opacity="0.2" d="M56.3999 308.5L56.5999 306H78.3999L77.9999 310.4L56.3999 308.5Z" fill="black"/>
<path opacity="0.2" d="M84.4999 306L84.6999 306.7L83.8999 310.8L105.5 312.8L106.5 306H84.4999Z" fill="black"/>
<path d="M54.6997 223.7C54.6997 223.7 46.4997 243.4 47.9997 257C49.4997 270.7 52.3997 306.1 52.3997 306.1H109.2C109.2 306.1 107.9 285.5 106.2 275.1C104.6 264.7 100.6 239 95.0997 228.9C89.7997 218.6 54.6997 223.7 54.6997 223.7Z" fill="#225E9F"/>
<path opacity="0.2" d="M78.6997 287.8C74.9997 271.5 68.5997 267 66.1997 264.2L80.6997 296.6L78.6997 287.8Z" fill="black"/>
<path d="M94.2996 172.4C98.6996 180.8 100.4 188.1 100.4 188.1L82.7996 191.4C82.7996 191.4 78.8996 173.2 80.7996 168.7C82.5996 164.5 83.7996 166.5 90.1996 168.8C91.9996 169.5 93.4996 170.8 94.2996 172.4Z" fill="#225E9F"/>
<path d="M48.4997 190L43.1997 171.8C46.5997 166.8 63.2997 162.9 63.2997 162.9L74.2997 163.5C74.2997 163.5 78.4997 164.4 82.1997 165.6C86.9997 167.2 89.6997 168.4 90.7997 171.1C90.7997 171.1 91.2997 181 90.0997 193.3C89.7997 196.7 90.4997 210.5 91.4997 216.3L96.8997 230.4C65.5997 243.4 51.4997 229.9 51.4997 229.9C52.3997 227.1 54.5997 219.9 54.9997 217.2C54.6997 213.7 54.4997 212.3 53.0997 206.3C52.5997 205.1 48.9997 191.1 48.4997 190Z" fill="#225E9F"/>
<path d="M44.4998 170.3C40.5998 172.4 38.7998 186.3 38.7998 186.3L52.4998 192.2C52.4998 192.2 57.7998 180.3 55.4998 175C53.5998 170.6 49.4998 167.5 44.4998 170.3Z" fill="#225E9F"/>
<g opacity="0.4">
<path d="M94.2996 172.4C98.6996 180.8 100.4 188.1 100.4 188.1L82.7996 191.4C82.7996 191.4 78.8996 173.2 80.7996 168.7C82.5996 164.5 83.7996 166.5 90.1996 168.8C91.9996 169.5 93.4996 170.8 94.2996 172.4Z" fill="black"/>
<path d="M48.4997 190L43.1997 171.8C46.5997 166.8 63.2997 162.9 63.2997 162.9L74.2997 163.5C74.2997 163.5 78.4997 164.4 82.1997 165.6C86.9997 167.2 89.6997 168.4 90.7997 171.1C90.7997 171.1 91.2997 181 90.0997 193.3C89.7997 196.7 90.4997 210.5 91.4997 216.3L96.8997 230.4C65.5997 243.4 51.4997 229.9 51.4997 229.9C52.3997 227.1 54.5997 219.9 54.9997 217.2C54.6997 213.7 54.4997 212.3 53.0997 206.3C52.5997 205.1 48.9997 191.1 48.4997 190Z" fill="black"/>
<path d="M44.4998 170.3C40.5998 172.4 38.7998 186.3 38.7998 186.3L52.4998 192.2C52.4998 192.2 57.7998 180.3 55.4998 175C53.5998 170.6 49.4998 167.5 44.4998 170.3Z" fill="black"/>
</g>
<path d="M98.8998 188.4L103.9 200.9L112.5 189.5L119.3 192.3C119.3 192.3 114 201.2 109.8 210.2C105.4 219.8 99.3998 218.1 95.6998 211.4C92.3998 205.3 86.7998 190.6 86.7998 190.6L98.8998 188.4Z" fill="#B97964"/>
<path d="M124 183.6C124 184.8 120.2 190.7 120.2 190.7L115.7 198.8L111 191.9L113.1 188.9C112.4 187.9 111.6 184.3 112.1 183.2C112.6 182 113.9 181.1 113.9 181.1H114.5C114.5 181.1 114.5 183.5 116.1 183.6C117.6 183.7 120.3 183.2 121.1 183C122.1 182.6 124.1 180.4 124.1 180.4C124.1 180.4 124.7 180.8 124.6 181.7C124.5 182.6 123.9 183.2 123.9 183.2L124 183.6Z" fill="#B97964"/>
<path opacity="0.3" d="M172.299 166.5C163.5 177.8 148.499 182.3 134.999 177.6C131.599 176.4 128.4 174.7 125.6 172.5C111 161.2 108.3 140.3 119.6 125.7C130.9 111.1 151.799 108.4 166.399 119.7C180.899 131 183.6 151.9 172.299 166.5Z" fill="white"/>
<path opacity="0.4" d="M176.499 133.7L113.899 141.7C113.999 141.2 113.999 140.7 114.099 140.2C114.599 137 115.499 134 116.899 131.1L170.999 124.2C173.399 127.1 175.199 130.3 176.499 133.7Z" fill="white"/>
<path opacity="0.4" d="M177.299 154.5L118.399 162C115.799 157.8 114.299 153 113.899 148L178.199 139.7C178.999 144.7 178.699 149.7 177.299 154.5Z" fill="white"/>
<path d="M169 115.6C152.6 103 129.2 106.1 116.6 122.4C104 138.8 107.1 162.2 123.4 174.8C139.7 187.4 163.1 184.4 175.8 168.1C188.4 151.8 185.4 128.3 169 115.6C169.1 115.6 169 115.6 169 115.6ZM126.2 171.1C112 160.1 109.3 139.7 120.3 125.4C131.3 111.1 151.7 108.5 166 119.5C180.2 130.5 182.8 150.9 171.9 165.1C161 179.4 140.5 182 126.2 171.1C126.3 171 126.2 171 126.2 171.1Z" fill="#263238"/>
<path opacity="0.3" d="M45.5 174.6C45.6 174.8 47.7 187.2 52 188.3C54.1 188.8 70.5 188.5 70.5 188.5L72 186.2L74.5 188.5H85L79 178.1L79.6 161.1L45.5 174.6Z" fill="black"/>
<path d="M77.6999 144.3C81.3999 137.3 79.2999 124.6 71.0999 122.2C63.7999 120.1 52.0999 122.3 52.5999 135.4C52.9999 148.5 49.9999 147.2 46.6999 155.6C43.1999 164.5 44.1999 176.1 50.0999 185.7H66.3999L69.3999 181.4L72.8999 185.7H86.9999C79.9999 176 84.1999 172.3 84.9999 163.5C85.7999 154.7 74.4999 150.4 77.6999 144.3Z" fill="#263238"/>
<path d="M60.9996 124.6C60.5996 123.6 59.6996 122.7 58.5996 122.6C57.9996 122.6 57.4996 122.7 56.9996 122.9L56.8996 123.6C56.4996 124.7 55.5996 125.5 54.8996 126.5C54.1996 127.5 53.7996 128.8 54.3996 129.8C54.7996 130.6 55.6996 131 56.5996 131.1C58.1996 131.3 59.7996 130.5 60.6996 129.2C61.4996 127.9 61.5996 126.1 60.9996 124.6Z" fill="#225E9F"/>
<path d="M59.1001 129.5C59.6001 128.3 60.0001 125.6 59.8001 124.6C59.4001 123.1 58.4001 121.9 57.2001 120.9C56.6001 120.4 55.9001 120 55.2001 119.7C54.0001 119.3 52.7001 119.4 51.4001 119.7C50.0001 120 48.6001 120.6 47.6001 121.6C46.2001 123 45.7001 125.2 46.4001 127C47.1001 128.8 48.9001 130.2 50.8001 130.4C49.6001 130.8 48.4001 131.3 47.4001 132C47.3001 132.1 47.2001 132.1 47.2001 132.3C47.2001 132.4 47.3001 132.5 47.3001 132.6C47.9001 133.3 48.9001 133.5 49.8001 133.4C50.7001 133.3 51.6001 133 52.5001 132.7C52.2001 133.6 52.0001 134.5 51.7001 135.4C51.6001 135.7 51.5001 136 51.6001 136.2C51.8001 136.8 52.6001 137 53.2001 136.8C55.1001 136.5 56.7001 135 57.7001 133.2C58.4001 132.2 58.8001 130.9 59.1001 129.5Z" fill="#263238"/>
</g>
<defs>
<clipPath id="clip0_396_6759">
<rect width="500" height="415.4" fill="white" transform="translate(-12)"/>
</clipPath>
</defs>
</svg>
