<svg width="524" height="365" viewBox="0 0 524 365" fill="none" xmlns="http://www.w3.org/2000/svg">
<g clip-path="url(#clip0_556_42)">
<path d="M373.957 80.9789C366.197 111.575 384.741 142.777 415.318 150.562C445.895 158.327 477.076 139.772 484.856 109.175C492.617 78.5788 474.073 47.3772 443.496 39.5919C412.919 31.8268 381.717 50.3824 373.957 80.9789ZM388.087 82.6328C394.96 59.8013 419.026 46.8528 441.843 53.7304C464.66 60.6081 477.6 84.69 470.727 107.521C463.854 130.353 439.787 143.301 416.97 136.424C394.154 129.546 381.213 105.464 388.087 82.6328Z" fill="#FFC727"/>
<path d="M334.31 81.0596C334.572 82.4311 335.822 82.8949 338.865 84.1253C344.328 86.2833 349.79 88.4616 355.172 90.8214C356.018 91.1844 356.865 92.5156 356.966 93.4837C357.59 99.2117 357.873 104.96 358.538 110.668C358.739 112.443 358.578 113.37 356.986 114.379C350.637 118.372 344.388 122.547 338.18 126.601C339.732 133.277 347.553 148.263 351.745 152.438C358.336 149.655 365.109 146.932 371.76 143.947C373.836 143.019 374.884 143.201 376.618 144.854C380.629 148.687 384.983 152.156 389.397 155.544C391.191 156.916 392.138 157.984 391.554 160.445C390.062 166.819 388.933 173.273 387.543 179.686C387.16 181.401 387.502 182.49 389.195 183.014C397.177 185.495 405.159 187.956 413.161 190.416C415.116 191.021 415.419 189.408 415.922 188.258C418.402 182.409 420.921 176.56 423.199 170.63C424.066 168.412 425.214 167.666 427.613 167.585C434.023 167.383 440.392 166.758 447.285 166.274C451.357 172.466 455.852 179.283 460.468 186.302C469.739 183.236 478.104 178.617 486.005 172.547C482.881 165.023 479.737 157.48 476.975 150.845C481.712 144.834 486.227 139.368 490.399 133.661C491.609 132.007 492.556 131.744 494.37 132.128C500.679 133.519 507.008 134.709 513.317 136.04C514.688 136.323 515.675 136.383 516.381 134.891C519.908 127.348 522.77 119.623 523.919 111.313C524.181 109.458 523.516 108.732 521.984 108.106C515.837 105.565 509.749 102.923 503.602 100.402C502.11 99.7966 501.485 99.1512 501.344 97.336C500.881 91.0231 500.135 84.7303 499.228 78.4779C499.006 76.8846 499.51 76.2593 500.639 75.5131C506.907 71.3784 513.136 67.2034 519.545 62.9275C516.3 53.791 512.148 45.3199 506.202 37.5145C498.522 40.7214 490.903 43.8879 483.587 46.9335C477.439 41.8307 471.473 36.8893 465.103 31.5848C466.232 25.9374 467.583 19.4632 468.812 12.9485C469.82 7.60374 470.586 8.30966 465.224 6.05072C464.721 5.82886 464.277 5.42548 463.813 5.12294C459.016 3.67077 454.219 2.23876 449.422 0.786587C448.293 0.665572 447.124 0.70591 446.076 0.363036C443.335 -0.504235 441.783 0.121006 440.694 3.06569C438.417 9.1971 435.756 15.1873 433.095 21.1775C432.753 21.9641 431.604 22.7709 430.757 22.8919C425.154 23.5978 419.45 23.8197 413.907 24.8281C411.186 25.3122 410.037 24.5659 408.706 22.4482C404.897 16.4378 400.846 10.5888 396.512 4.07415C387.905 8.59202 379.52 13.0091 371.035 17.4664C371.7 19.1606 372.063 20.1287 372.466 21.0969C374.945 27.0467 377.364 33.037 379.964 38.9465C380.689 40.6205 380.327 41.5685 379.178 42.94C375.227 47.6394 371.579 52.5808 367.669 57.3004C367.064 58.0265 365.552 58.5509 364.605 58.3895C359.384 57.4819 354.224 56.2919 349.044 55.2835C344.832 54.4565 343.28 54.1742 341.949 55.5457L334.31 81.0596ZM371.982 80.4747C375.872 65.126 385.507 52.2178 399.112 44.13C412.718 36.0422 428.641 33.7227 443.98 37.6355C459.319 41.5281 472.219 51.169 480.301 64.7831C488.384 78.3972 490.702 94.3308 486.792 109.679C482.901 125.028 473.267 137.936 459.661 146.024C446.056 154.112 430.132 156.431 414.794 152.519C399.455 148.626 386.555 138.985 378.472 125.371C370.41 111.777 368.092 95.8233 371.982 80.4747Z" fill="#FFC727"/>
<path d="M11.0859 160.284C11.9728 160.97 12.9604 160.606 15.4598 159.739C19.9143 158.186 24.3688 156.633 28.8636 155.221C29.5691 154.999 30.7785 155.363 31.3428 155.887C34.7291 159.033 37.9138 162.381 41.3201 165.487C42.3683 166.455 42.7714 167.121 42.328 168.553C40.5744 174.321 38.9619 180.13 37.3292 185.878C41.7837 189.105 54.4015 194.087 59.1382 194.43C61.6779 189.287 64.3587 184.063 66.8379 178.738C67.6038 177.085 68.3496 176.641 70.2644 176.722C74.7189 176.943 79.1936 176.762 83.6481 176.48C85.442 176.359 86.5909 176.52 87.5382 178.315C89.9771 182.974 92.6982 187.492 95.2178 192.111C95.9031 193.361 96.6488 193.825 97.959 193.26C104.107 190.558 110.254 187.855 116.402 185.152C117.914 184.487 117.248 183.357 116.946 182.389C115.374 177.528 113.842 172.668 112.109 167.847C111.464 166.052 111.766 165.003 113.197 163.672C116.986 160.183 120.534 156.452 124.464 152.539C130.189 154.152 136.498 155.927 142.988 157.763C146.999 151.026 149.66 143.826 151.272 135.98C145.407 133.055 139.541 130.131 134.381 127.549C134.099 121.418 133.978 115.71 133.514 110.043C133.373 108.409 133.817 107.743 135.127 107.017C139.682 104.536 144.157 101.935 148.692 99.4134C149.68 98.8689 150.305 98.3848 149.942 97.1142C148.128 90.6802 145.79 84.4883 142.121 78.841C141.295 77.5905 140.509 77.4897 139.259 77.9132C134.2 79.6074 129.1 81.2008 124.061 82.895C122.832 83.3185 122.126 83.258 121.098 82.2294C117.49 78.6393 113.741 75.2105 109.912 71.8826C108.924 71.0355 108.904 70.3901 109.206 69.3413C110.839 63.5326 112.431 57.7239 114.084 51.7539C107.311 47.9218 100.337 44.9569 92.6378 43.3434C89.6546 49.3336 86.6917 55.2633 83.8497 60.951C77.44 61.0922 71.2117 61.2132 64.5602 61.3544C62.2826 57.3407 59.7026 52.6817 57.0218 48.0831C54.8248 44.3115 55.6713 44.3317 51.237 45.7838C50.8137 45.925 50.33 45.9049 49.8865 45.9654C46.2181 47.6192 42.5497 49.2529 38.8813 50.9068C38.1355 51.411 37.4502 52.0564 36.6238 52.4195C34.5074 53.3271 33.8825 54.5372 34.7694 56.897C36.6036 61.8183 38.1355 66.8605 39.6673 71.8826C39.8689 72.5482 39.6069 73.6374 39.1433 74.1618C36.0997 77.5502 32.7739 80.6764 29.9319 84.206C28.5411 85.9405 27.4527 86.0817 25.5177 85.4968C20.0554 83.8429 14.5124 82.4311 8.44544 80.757C5.60342 88.0179 2.82186 95.1174 0 102.298C1.28999 102.983 2.03577 103.367 2.78155 103.75C7.41747 106.069 12.0332 108.429 16.7095 110.648C18.0398 111.273 18.3018 112.059 18.322 113.491C18.3824 118.413 18.7856 123.334 18.8863 128.255C18.9065 129.022 18.2615 130.111 17.5963 130.514C13.9481 132.713 10.199 134.689 6.51044 136.807C3.52733 138.562 2.41874 139.207 2.33812 140.74L11.0859 160.284ZM33.6608 140.115C27.9566 128.739 27.0294 115.831 31.0405 103.77C35.0516 91.7089 43.5172 81.9268 54.8651 76.219C66.2332 70.5111 79.1331 69.5834 91.1865 73.597C103.24 77.6107 113.016 86.0817 118.72 97.4369C124.424 108.812 125.351 121.72 121.34 133.782C117.329 145.843 108.863 155.625 97.5155 161.333C86.1475 167.04 73.2475 167.968 61.1941 163.955C49.1407 159.941 39.365 151.47 33.6608 140.115Z" fill="#50BFA5"/>
<path d="M66.1727 29.9107L67.9868 26.5828L66.2937 23.1944C66.0921 22.8112 66.4347 22.3675 66.858 22.4482L70.5668 23.1541L73.2475 20.4918C73.5499 20.1892 74.0739 20.3708 74.1344 20.7943L74.6182 24.5458L77.9842 26.2803C78.3672 26.482 78.3672 27.0266 77.9641 27.2081L74.5577 28.8216L73.953 32.5529C73.8925 32.9764 73.3685 33.1378 73.0661 32.8353L70.466 30.0721L66.7371 30.657C66.2937 30.7377 65.9712 30.294 66.1727 29.9107Z" fill="#FFC727"/>
<path d="M263.643 45.6628L265.195 43.1417L263.945 42.6375C263.683 42.5366 263.542 42.2139 263.643 41.9517C263.744 41.6895 264.066 41.5483 264.328 41.6492L265.759 42.2341L267.15 39.9751L265.82 39.4306C265.558 39.3297 265.417 39.007 265.517 38.7448C265.618 38.4826 265.941 38.3414 266.203 38.4423L267.714 39.0474L269.327 36.4657C269.468 36.2439 269.73 36.1632 269.972 36.264L270.194 36.3649C270.496 36.4859 270.617 36.8489 270.456 37.1313L268.964 39.5718L271.161 40.4592L272.774 37.8776C272.915 37.6557 273.177 37.575 273.419 37.6759L273.681 37.7767C273.983 37.8977 274.104 38.2608 273.943 38.5431L272.451 40.9836L273.701 41.4878C273.963 41.5887 274.104 41.9114 273.983 42.1736C273.882 42.4358 273.56 42.577 273.298 42.4761L271.867 41.8912L270.516 44.1501L271.846 44.6947C272.108 44.7956 272.25 45.1183 272.149 45.3805C272.048 45.6427 271.725 45.7838 271.463 45.6628L269.952 45.0577L268.319 47.7201C268.178 47.9419 267.916 48.0226 267.674 47.9419L267.412 47.8411C267.11 47.7201 266.989 47.357 267.15 47.0747L268.702 44.5535L266.505 43.6661L264.872 46.3284C264.731 46.5503 264.469 46.6309 264.227 46.5503L263.965 46.4494C263.603 46.3082 263.482 45.9452 263.643 45.6628ZM269.246 43.6459L270.637 41.387L268.44 40.4995L267.049 42.7585L269.246 43.6459Z" fill="#07345A"/>
<path d="M253.746 89.3894L251.65 100.523C251.831 101.087 252.376 101.229 253.706 101.612C256.104 102.277 258.503 102.943 260.881 103.709C261.264 103.83 261.668 104.355 261.768 104.738C262.292 107.118 262.655 109.538 263.199 111.918C263.361 112.665 263.34 113.068 262.716 113.552C260.216 115.529 257.777 117.566 255.338 119.562C256.286 122.305 260.277 128.275 262.232 129.849C264.893 128.376 267.614 126.924 270.294 125.351C271.121 124.867 271.584 124.887 272.391 125.512C274.245 126.944 276.261 128.215 278.276 129.445C279.082 129.949 279.546 130.353 279.405 131.422C279.062 134.185 278.881 136.948 278.579 139.711C278.498 140.458 278.679 140.901 279.425 141.042C282.912 141.728 286.379 142.414 289.866 143.08C290.713 143.241 290.773 142.555 290.934 142.051C291.72 139.469 292.506 136.888 293.212 134.286C293.474 133.298 293.917 132.955 294.945 132.813C297.646 132.45 300.307 131.886 303.189 131.381C305.185 133.802 307.382 136.484 309.659 139.247C313.429 137.533 316.754 135.214 319.818 132.289C318.165 129.244 316.492 126.218 315.041 123.536C316.774 120.793 318.427 118.272 319.939 115.69C320.382 114.944 320.765 114.782 321.552 114.863C324.273 115.165 326.994 115.387 329.735 115.67C330.319 115.73 330.743 115.71 330.985 115.044C332.133 111.696 332.98 108.308 333.101 104.758C333.121 103.972 332.819 103.689 332.134 103.488C329.433 102.701 326.732 101.854 324.031 101.067C323.366 100.886 323.083 100.644 322.942 99.8773C322.459 97.2352 321.874 94.6132 321.209 92.0114C321.048 91.3458 321.229 91.0634 321.672 90.7004C324.132 88.6835 326.57 86.6262 329.09 84.5488C327.316 80.8377 325.18 77.4493 322.317 74.4239C319.213 76.1181 316.15 77.8123 313.207 79.4057C310.385 77.53 307.644 75.7148 304.721 73.7584C304.943 71.3381 305.225 68.5346 305.447 65.7311C305.628 63.4318 305.991 63.694 303.633 62.9881C303.411 62.9275 303.209 62.7662 302.988 62.6654C300.891 62.2821 298.815 61.8788 296.719 61.4955C296.235 61.4955 295.752 61.5561 295.288 61.4754C294.099 61.2333 293.474 61.5561 293.131 62.8469C292.446 65.5294 291.599 68.1917 290.733 70.8338C290.612 71.1767 290.168 71.5801 289.826 71.6608C287.488 72.2053 285.109 72.5684 282.811 73.234C281.683 73.5567 281.179 73.2945 280.514 72.4675C278.639 70.1077 276.664 67.8085 274.547 65.2672C271.121 67.5664 267.775 69.8052 264.389 72.0641C264.751 72.7499 264.953 73.1533 265.155 73.5365C266.465 75.9366 267.755 78.3569 269.125 80.7369C269.508 81.4024 269.387 81.826 268.964 82.4512C267.513 84.6093 266.203 86.8683 264.751 89.0264C264.53 89.3692 263.925 89.6516 263.502 89.6113C261.264 89.4701 259.027 89.1877 256.79 89.0062C254.915 88.7843 254.23 88.744 253.746 89.3894ZM274.406 98.7479C276.281 88.8045 285.855 82.2495 295.792 84.1253C305.729 86.001 312.28 95.5813 310.405 105.525C308.531 115.468 298.956 122.023 289.019 120.147C279.082 118.272 272.532 108.691 274.406 98.7479Z" fill="#F47458"/>
<path d="M181.043 28.3981L187.634 29.1847L184.812 24.0819L181.043 28.3981Z" fill="#355389"/>
<path d="M205.23 85.1741C205.028 87.3927 206.943 89.4297 209.06 89.813C211.257 90.1962 213.212 88.7642 213.978 86.7473C215.469 82.7538 211.095 79.6074 208.737 82.0277C206.52 84.2866 207.225 87.6347 209.604 87.6347C210.511 87.6347 211.962 86.8884 211.378 85.7791C211.257 85.5371 210.894 85.5573 210.753 85.7791C210.471 86.2632 210.491 86.2834 210.35 86.4044C210.128 86.5859 209.846 86.6262 209.564 86.6262C207.125 86.5859 208.757 81.0192 211.619 82.3706C213.192 83.1168 213.655 84.9119 213.111 86.4649C212.587 87.9776 211.176 89.1272 209.543 89.0264C207.588 88.9053 205.956 87.1103 205.835 85.1942C205.794 84.7707 205.25 84.7908 205.23 85.1741Z" fill="#F47458"/>
<path d="M325.462 2.72283L327.437 3.56993C327.437 3.56993 330.722 2.84385 331.085 2.21861C331.448 1.59336 331.67 0.0403442 332.133 0.0403442C332.597 0.0403442 333.464 0.262204 333.585 1.35134C333.665 2.13793 332.335 4.29602 332.496 4.55822C332.597 4.71957 333.705 5.24397 334.532 5.60701C335.076 5.84904 335.439 6.37344 335.479 6.95834C335.499 7.36172 335.257 7.72477 334.854 7.82561L334.25 7.98697L334.391 8.59204C334.492 9.05593 334.209 9.49965 333.766 9.60049L333.302 9.70134L333.423 10.0846C333.564 10.5686 333.262 11.0728 332.778 11.1737L332.375 11.2544V11.3552C332.415 11.7989 332.093 12.1821 331.67 12.2628L331.267 12.3233L326.026 10.0644C325.542 9.86269 325.099 9.53999 324.716 9.15677L323.003 8.06764C322.821 7.94663 322.74 7.7046 322.841 7.52308L324.877 2.94469C324.998 2.72283 325.24 2.62199 325.462 2.72283Z" fill="#50BFA5"/>
<path d="M270.153 96.5696H234.577C230.929 96.5696 227.986 99.5143 227.986 103.165V114.823C227.986 118.473 230.929 121.418 234.577 121.418H270.153C273.801 121.418 276.744 118.473 276.744 114.823V103.165C276.744 99.5143 273.781 96.5696 270.153 96.5696Z" fill="#5184CE"/>
<path d="M223.028 341.564L185.356 358.949V362.802H319.515V358.949L281.501 341.564H223.028Z" fill="#466EB6"/>
<path d="M281.541 267.099H223.028V341.604H281.541V267.099Z" fill="#466EB6"/>
<path d="M429.326 290.475V122.447C429.326 114.46 422.856 107.985 414.874 107.985H89.2918C81.31 107.985 74.8398 114.46 74.8398 122.447V290.475H429.326Z" fill="#466EB6"/>
<path opacity="0.3" d="M319.536 358.949H185.356V362.802H319.536V358.949Z" fill="#184655"/>
<path opacity="0.3" d="M281.521 332.83H223.028V341.584H281.521V332.83Z" fill="#184655"/>
<path d="M74.8599 290.475V317.401C74.8599 323.008 78.5686 327.546 83.1239 327.546H421.062C425.618 327.546 429.326 323.008 429.326 317.401V290.475H74.8599Z" fill="#5184CE"/>
<path d="M252.638 106.452C254.452 106.452 255.923 104.981 255.923 103.165C255.923 101.349 254.452 99.8773 252.638 99.8773C250.823 99.8773 249.352 101.349 249.352 103.165C249.352 104.981 250.823 106.452 252.638 106.452Z" fill="#184655"/>
<path d="M421.022 283.174V122.89C421.022 118.695 417.495 115.286 413.141 115.286H91.0251C86.6714 115.286 83.144 118.695 83.144 122.89V283.174H421.022Z" fill="#CCE6FF"/>
<path d="M301.073 128.215H97.9995V270.004H301.073V128.215Z" fill="#E9FFFF"/>
<path d="M301.073 128.215H97.9995V144.814H301.073V128.215Z" fill="#5184CE"/>
<path opacity="0.6" d="M387.2 163.692H373.333V271.052H387.2V163.692Z" fill="#9BC1F9"/>
<path opacity="0.6" d="M367.85 196.447H353.983V271.052H367.85V196.447Z" fill="#9BC1F9"/>
<path opacity="0.6" d="M406.832 186.967H392.965V271.073H406.832V186.967Z" fill="#9BC1F9"/>
<path opacity="0.6" d="M348.48 183.66H334.613V271.073H348.48V183.66Z" fill="#9BC1F9"/>
<path opacity="0.6" d="M329.13 209.577H315.263V271.073H329.13V209.577Z" fill="#9BC1F9"/>
<path opacity="0.3" d="M387.2 188.44H373.333V271.052H387.2V188.44Z" fill="#9BC1F9"/>
<path opacity="0.3" d="M367.85 213.651H353.983V271.073H367.85V213.651Z" fill="#9BC1F9"/>
<path opacity="0.3" d="M406.832 206.35H392.965V271.073H406.832V206.35Z" fill="#9BC1F9"/>
<path opacity="0.3" d="M348.48 203.788H334.613V271.052H348.48V203.788Z" fill="#9BC1F9"/>
<path opacity="0.3" d="M329.13 223.736H315.263V271.052H329.13V223.736Z" fill="#9BC1F9"/>
<path opacity="0.6" d="M292.426 151.672H104.994V175.753H292.426V151.672Z" fill="#9BC1F9"/>
<path opacity="0.6" d="M292.426 182.571H171.791V188.742H292.426V182.571Z" fill="#9BC1F9"/>
<path d="M164.333 182.571H104.994V253.767H164.333V182.571Z" fill="#5184CE"/>
<path opacity="0.6" d="M292.426 195.58H171.791V201.751H292.426V195.58Z" fill="#9BC1F9"/>
<path opacity="0.6" d="M292.426 234.607H171.791V240.779H292.426V234.607Z" fill="#9BC1F9"/>
<path opacity="0.6" d="M292.426 247.616H171.791V253.788H292.426V247.616Z" fill="#9BC1F9"/>
<path d="M20.2771 208.105L132.95 207.903C134.643 207.903 136.014 209.274 136.014 210.969L136.276 359.534C136.276 361.228 134.905 362.6 133.212 362.6L20.5391 362.802C18.846 362.802 17.4754 361.43 17.4754 359.736L17.2134 211.17C17.2134 209.476 18.584 208.105 20.2771 208.105Z" fill="#FFC727"/>
<path d="M129.836 212.225L23.3916 212.416L23.653 357.634L130.098 357.442L129.836 212.225Z" fill="white"/>
<path d="M99.6721 205.906C99.6721 205.261 99.148 204.716 98.4829 204.716L53.7966 204.797C53.1516 204.797 52.6074 205.321 52.6074 205.987V210.626L99.6721 210.545V205.906Z" fill="#13375B"/>
<path d="M76.1502 199.129C72.2601 199.129 69.1157 202.296 69.1157 206.189C69.1157 210.081 72.2802 213.228 76.1704 213.228C80.0605 213.228 83.2049 210.061 83.2049 206.168C83.2049 202.256 80.0404 199.109 76.1502 199.129ZM76.1704 210.686C73.671 210.686 71.6554 208.669 71.6352 206.168C71.6352 203.667 73.6509 201.651 76.1502 201.63C78.6496 201.63 80.6652 203.647 80.6854 206.148C80.6854 208.669 78.6697 210.686 76.1704 210.686Z" fill="#13375B"/>
<path d="M98.967 204.817C99.3902 204.999 99.6926 205.422 99.6926 205.906V210.545L52.6279 210.626C52.6279 213.853 55.2482 216.455 58.4732 216.455L93.8675 216.394C97.0924 216.394 99.6926 213.772 99.6926 210.545V205.906C99.6724 205.422 99.3902 204.999 98.967 204.817Z" fill="#355389"/>
<path d="M52.6885 205.644C52.7086 205.563 52.7489 205.503 52.7691 205.422C52.7288 205.503 52.7086 205.563 52.6885 205.644Z" fill="#9BC1F9"/>
<path d="M117.632 255.058L102.494 255.078L102.474 239.931L117.611 239.911L117.632 255.058ZM103.119 254.473L117.007 254.453L116.987 240.557L103.099 240.577L103.119 254.473Z" fill="#184655"/>
<path d="M117.672 280.249L102.534 280.27L102.514 265.123L117.651 265.103L117.672 280.249ZM103.159 279.665L117.047 279.644L117.027 265.748L103.139 265.768L103.159 279.665Z" fill="#184655"/>
<path d="M117.732 305.441L102.595 305.461L102.575 290.314L117.712 290.294L117.732 305.441ZM103.2 304.856L117.087 304.836L117.067 290.939L103.179 290.959L103.2 304.856Z" fill="#184655"/>
<path d="M117.773 330.652L102.635 330.672L102.615 315.525L117.753 315.505L117.773 330.652ZM103.26 330.047L117.148 330.027L117.128 316.13L103.24 316.15L103.26 330.047Z" fill="#184655"/>
<path d="M96.1431 240.277L31.3813 240.394L31.3853 242.572L96.1471 242.455L96.1431 240.277Z" fill="#9BC1F9"/>
<path d="M96.1431 246.449L31.3813 246.565L31.3853 248.744L96.1471 248.627L96.1431 246.449Z" fill="#9BC1F9"/>
<path d="M96.1631 252.62L31.4014 252.737L31.4053 254.915L96.1671 254.799L96.1631 252.62Z" fill="#9BC1F9"/>
<path d="M96.1832 266.315L31.4214 266.432L31.4253 268.61L96.1871 268.494L96.1832 266.315Z" fill="#9BC1F9"/>
<path d="M96.2037 272.487L31.4419 272.604L31.4458 274.782L96.2076 274.665L96.2037 272.487Z" fill="#9BC1F9"/>
<path d="M96.2037 278.659L31.4419 278.775L31.4458 280.954L96.2076 280.837L96.2037 278.659Z" fill="#9BC1F9"/>
<path d="M96.2237 291.002L31.4619 291.119L31.4658 293.297L96.2276 293.181L96.2237 291.002Z" fill="#9BC1F9"/>
<path d="M96.2437 297.174L31.4819 297.291L31.4859 299.469L96.2476 299.352L96.2437 297.174Z" fill="#9BC1F9"/>
<path d="M96.2642 303.346L31.5024 303.462L31.5064 305.641L96.2681 305.524L96.2642 303.346Z" fill="#9BC1F9"/>
<path d="M96.2842 315.689L31.5225 315.806L31.5264 317.984L96.2882 317.868L96.2842 315.689Z" fill="#9BC1F9"/>
<path d="M96.2842 321.861L31.5225 321.978L31.5264 324.156L96.2882 324.039L96.2842 321.861Z" fill="#9BC1F9"/>
<path d="M96.3043 328.033L31.5425 328.149L31.5464 330.328L96.3082 330.211L96.3043 328.033Z" fill="#9BC1F9"/>
<path d="M106.261 343.978L31.5625 344.112L31.5664 346.291L106.265 346.156L106.261 343.978Z" fill="#9BC1F9"/>
<path d="M121.016 349.228L31.583 349.39L31.5869 351.568L121.02 351.407L121.016 349.228Z" fill="#9BC1F9"/>
<path d="M109.992 252.598L105.296 244.53L106.969 243.542L109.71 248.221L114.165 237.531L115.959 238.278L109.992 252.598Z" fill="#F47458"/>
<path d="M110.032 278.112L105.336 270.044L107.029 269.056L109.75 273.755L114.205 263.065L115.999 263.812L110.032 278.112Z" fill="#F47458"/>
<path d="M110.133 328.01L105.437 319.942L107.11 318.974L109.831 323.653L114.286 312.964L116.079 313.71L110.133 328.01Z" fill="#F47458"/>
<path d="M115.354 294.065L114.004 292.714L110.134 296.546L106.264 292.714L104.913 294.085L108.783 297.897L104.933 301.709L106.284 303.081L110.154 299.249L114.024 303.061L115.374 301.689L111.504 297.897L115.354 294.065Z" fill="#F47458"/>
<path opacity="0.3" d="M34.3661 308.91C30.5969 308.91 26.9486 309.676 23.5825 311.088V314.638C26.8478 313.044 30.4961 312.137 34.3661 312.137C47.9715 312.117 59.0574 323.169 59.0775 336.783C59.0977 345.497 54.5626 353.201 47.7296 357.598H53.0307C53.4137 357.255 53.7765 356.892 54.1594 356.529C59.4202 351.245 62.3025 344.246 62.2824 336.783C62.2622 329.321 59.3597 322.322 54.0788 317.058C48.818 311.794 41.8037 308.91 34.3661 308.91Z" fill="#9BC1F9"/>
<path opacity="0.3" d="M34.3661 316.493C30.3953 316.493 26.7067 317.643 23.5825 319.62V321.556C26.6261 319.398 30.355 318.107 34.3661 318.107C44.686 318.087 53.0912 326.477 53.1113 336.804C53.1315 347.13 44.7465 355.541 34.4265 355.561C30.4155 355.561 26.6866 354.31 23.6228 352.152V354.089C26.747 356.045 30.4558 357.195 34.4265 357.174C45.6334 357.154 54.744 348.018 54.7238 336.804C54.7238 325.569 45.5729 316.473 34.3661 316.493Z" fill="#9BC1F9"/>
<path d="M54.0186 233.256V225.995H51.1362V225.369H57.8281V225.995H54.9457V233.256H54.0186Z" fill="#184655"/>
<path d="M65.1849 232.61V233.235H59.3799V225.349H64.9833V225.974H60.2869V228.738H63.6933V229.363H60.3071V232.59H65.1849V232.61Z" fill="#184655"/>
<path d="M66.1123 231.36L66.8984 231.097C67.1604 231.662 67.5031 232.066 67.9062 232.348C68.3093 232.61 68.8132 232.751 69.4179 232.751C70.0428 232.751 70.5265 232.61 70.9095 232.328C71.2924 232.045 71.4738 231.682 71.4738 231.218C71.4738 230.855 71.3529 230.553 71.111 230.311C70.8692 230.069 70.4459 229.867 69.8614 229.665C69.5389 229.565 69.1156 229.444 68.5915 229.282C68.0675 229.141 67.7248 229.02 67.5636 228.959C67.1 228.738 66.7573 228.496 66.5557 228.254C66.3542 228.012 66.2534 227.689 66.2534 227.326C66.2534 226.68 66.4953 226.156 66.9992 225.773C67.5031 225.39 68.1884 225.208 69.0551 225.208C69.821 225.208 70.466 225.369 70.9699 225.672C71.4738 225.974 71.8568 226.459 72.1188 227.084L71.3529 227.285C71.111 226.801 70.8087 226.438 70.4257 226.196C70.0428 225.954 69.5792 225.853 69.0148 225.853C68.4706 225.853 68.0271 225.974 67.7046 226.237C67.362 226.499 67.2007 226.822 67.2007 227.225C67.2007 227.527 67.3015 227.79 67.5232 227.991C67.745 228.193 68.0876 228.375 68.531 228.496C68.7125 228.556 68.9543 228.617 69.297 228.717C70.2645 228.98 70.8692 229.181 71.1513 229.343C71.5948 229.585 71.9173 229.827 72.1188 230.109C72.3204 230.392 72.4212 230.714 72.4212 231.097C72.4212 231.783 72.1592 232.328 71.6149 232.751C71.0707 233.155 70.3451 233.356 69.4179 233.356C68.5915 233.356 67.9062 233.195 67.3821 232.872C66.8581 232.57 66.4348 232.045 66.1123 231.36Z" fill="#184655"/>
<path d="M76.1704 233.256V225.995H73.2881V225.369H79.9799V225.995H77.0976V233.256H76.1704Z" fill="#184655"/>
<path d="M81.6929 233.256V225.369H82.5999V233.256H81.6929Z" fill="#184655"/>
<path d="M86.2282 225.934V233.256H85.3413V225.369H86.8127L91.4889 232.025V225.369H92.3758V233.256H91.4083L86.2282 225.934Z" fill="#184655"/>
<path d="M100.66 232.368C100.338 232.711 99.9547 232.973 99.5113 233.155C99.0678 233.336 98.5438 233.417 97.9592 233.417C96.7499 233.417 95.8227 233.074 95.1978 232.368C94.573 231.662 94.2505 230.654 94.2505 229.323C94.2505 228.012 94.573 227.003 95.218 226.277C95.863 225.571 96.77 225.208 97.9592 225.208C98.8259 225.208 99.5314 225.39 100.055 225.773C100.58 226.156 100.962 226.741 101.225 227.548L100.378 227.689C100.176 227.043 99.8741 226.58 99.4709 226.277C99.0678 225.974 98.5639 225.833 97.9592 225.833C97.0724 225.833 96.4072 226.136 95.9234 226.721C95.4397 227.306 95.1978 228.153 95.1978 229.222C95.1978 230.392 95.4397 231.259 95.9234 231.864C96.4072 232.449 97.1328 232.751 98.1003 232.751C98.8259 232.751 99.4105 232.59 99.8337 232.247C100.277 231.904 100.499 231.46 100.499 230.916V230.069H98.0802V229.484H101.487V233.235H100.68V232.368H100.66Z" fill="#184655"/>
<path d="M215.207 37.8574L213.151 45.8645L219.44 42.3349L238.226 35.3967L224.378 35.0135C224.378 35.0135 217.203 35.8808 216.779 36.1632C216.376 36.4859 215.207 37.8574 215.207 37.8574Z" fill="#50BFA5"/>
<path d="M209.745 32.21L238.226 35.4169L215.207 37.8574L209.745 32.21Z" fill="#96D9C9"/>
<path d="M223.371 47.1553L216.639 40.2575L238.226 35.4169L223.371 47.1553Z" fill="#96D9C9"/>
<path d="M172.053 62.4031C172.214 61.7577 172.416 61.1325 172.658 60.5072C172.88 59.9425 173.121 59.3576 173.404 58.7929L174.008 59.0954C173.746 59.64 173.504 60.1845 173.283 60.7493C173.061 61.3544 172.859 61.9594 172.698 62.5847C172.658 62.7662 172.618 62.9477 172.577 63.1292L171.912 62.988C171.952 62.7662 171.993 62.5847 172.053 62.4031ZM175.762 55.0616C176.649 53.9523 177.657 52.8632 178.785 51.8547L179.229 52.3589C178.12 53.3472 177.133 54.396 176.286 55.4851L175.762 55.0616ZM197.168 56.2516C197.127 56.2314 197.087 56.1911 197.067 56.1709L197.51 55.6667C197.551 55.6868 197.571 55.7272 197.591 55.7473C197.591 55.7473 197.611 55.7675 197.652 55.7675C198.014 55.9087 198.962 56.0095 199.546 55.7675C200.03 55.5457 200.453 55.1826 200.776 54.6582L201.34 55.0213C200.937 55.6465 200.413 56.1104 199.808 56.3726C199.002 56.7356 197.853 56.5541 197.41 56.3928C197.309 56.3524 197.228 56.3121 197.168 56.2516ZM182.272 49.152C183.462 48.3655 184.752 47.6192 186.082 46.9536L186.384 47.5587C185.074 48.2041 183.824 48.9302 182.655 49.7168L182.272 49.152ZM195.132 50.7051C195.213 50.0597 195.374 49.4142 195.616 48.7688C195.737 48.426 195.898 48.0831 196.079 47.72L196.684 48.0226C196.523 48.3453 196.382 48.668 196.261 48.9907C196.039 49.5756 195.898 50.1807 195.817 50.7656C195.777 51.1891 195.757 51.6127 195.797 52.0362L195.132 52.0967C195.051 51.6328 195.072 51.169 195.132 50.7051ZM198.74 47.6797L198.659 47.6192L199.022 47.0545L199.103 47.115C200.413 47.9419 201.421 49.1924 201.864 50.5437L201.219 50.7656C200.836 49.5554 199.929 48.426 198.74 47.6797ZM190.355 45.7435C191.121 45.6023 192.532 45.3804 193.237 45.4409C193.802 45.4813 194.306 45.5418 194.789 45.6023L194.689 46.2679C194.225 46.1872 193.721 46.1469 193.197 46.1065C192.733 46.0662 191.726 46.1872 190.476 46.4091L190.355 45.7435ZM198.8 44.2106C199.889 43.2022 201.118 42.3551 202.469 41.7097L202.771 42.3147C201.481 42.94 200.312 43.7467 199.264 44.6947L198.8 44.2106Z" fill="#9BC1F9"/>
<path d="M206.822 41.0642C207.548 40.9634 208.274 40.9029 208.979 40.9231L208.999 40.2575C208.254 40.2373 207.488 40.2978 206.722 40.4188L206.822 41.0642Z" fill="#9BC1F9"/>
<path d="M156.613 51.1085C157.016 51.1286 158.125 51.4917 159.758 54.5775C161.834 58.5105 164.877 70.3901 164.877 70.3901L155.807 73.7785L154.638 71.2977L152.723 52.2178C152.723 52.2178 156.492 51.1085 156.613 51.1085Z" fill="#A34B3D"/>
<path d="M144.62 49.4143C147.221 49.4143 153.63 50.1807 156.613 51.1286C156.613 51.1286 158.81 69.9464 154.638 84.2463C153.711 87.4532 155.404 97.5175 155.404 97.5175L128.516 97.1545C128.516 97.1545 131.7 72.8104 130.491 68.8774C129.282 64.9445 129.261 51.2295 129.261 51.2295C129.261 51.2295 129.443 51.2093 135.308 50.1807C138.049 49.737 141.839 49.3941 144.62 49.4143Z" fill="#B75742"/>
<path d="M141.476 132.45C141.476 132.45 142.081 139.328 143.169 141.224C144.258 143.12 143.109 146.367 143.048 146.811C142.988 147.255 140.751 147.88 137.183 147.517C133.615 147.134 133.676 146.307 133.958 144.975C134.24 143.644 136.155 141.93 136.256 140.659C136.377 139.389 135.167 134.83 135.167 134.83L141.476 132.45Z" fill="#F7A491"/>
<path d="M152.381 91.85C152.381 91.85 170.944 90.8214 175.076 93.3224C179.229 95.8435 172.134 108.167 172.134 108.167C172.134 108.167 159.213 107.562 133.938 109.034C127.951 109.377 127.427 93.403 128.556 92.092C129.665 90.7609 152.381 91.85 152.381 91.85Z" fill="#E0973F"/>
<path d="M136.74 148.041C133.071 147.658 133.515 145.843 133.817 144.471C133.998 143.604 135.046 142.595 135.691 141.647C136.014 141.91 136.558 142.374 138.151 142.837C139.803 143.322 142.081 142.353 143.532 141.748C144.056 143.664 144.076 146.125 144.016 146.488C143.956 146.952 140.408 148.424 136.74 148.041Z" fill="#FF522C"/>
<path d="M138.775 105.141C139.521 110.748 143.19 138.703 143.19 138.703L134.664 139.752C134.664 139.752 124.182 103.266 124.727 97.6991C125.271 92.1122 129.181 91.6483 129.181 91.6483C129.181 91.6483 136.8 90.2768 138.775 105.141Z" fill="#FFC727"/>
<path d="M128.979 53.3472C131.499 52.3993 132.728 75.0693 133.071 84.3875C137.525 84.811 145.286 84.3875 147.221 84.2463C148.128 84.1858 150.224 83.4193 151.131 83.2983C152.058 83.1773 152.905 83.1168 153.348 83.1975C153.509 83.2177 158.145 85.1337 158.548 85.5371C159.032 86.0615 160.362 87.3523 160.141 87.917C159.919 88.4818 157.581 86.3439 157.581 86.3439L156.432 85.6984C157.843 87.0901 160.564 88.9255 160.181 89.5911C159.798 90.2365 157.359 88.3809 155.606 87.1103C157.097 88.4616 158.951 90.8819 158.528 91.2449C158.145 91.5878 156.029 88.7843 153.771 87.9776C152.945 87.675 152.098 88.5019 151.453 88.6028C150.97 88.6835 150.224 88.8247 149.74 88.7036L147.301 88.0179C146.475 88.0986 146.455 88.5826 145.608 88.7642C144.641 88.9658 143.028 89.1877 141.799 89.4902C134.643 91.245 132.265 92.0517 130.068 92.0517C123.436 92.0517 123.053 55.5658 128.979 53.3472Z" fill="#F7A491"/>
<path d="M124.222 74.6055C123.759 65.0453 123.819 53.2666 129.181 51.2698C131.297 50.4832 135.006 55.2431 134.341 74.8071C131.479 75.0492 127.286 75.2307 124.222 74.6055Z" fill="#A34B3D"/>
<path d="M167.276 139.126C167.276 139.126 166.046 141.305 167.014 143.12C167.981 144.935 173.061 147.618 173.585 148.606C174.109 149.594 173.907 150.3 173.907 150.3L158.831 146.589L159.979 142.031L161.39 138.884L167.276 139.126Z" fill="#F7A491"/>
<path d="M167.8 144.088C167.8 144.088 163.567 144.814 161.874 143.483C160.201 142.132 160.302 141.89 159.677 142.132C159.274 142.273 158.669 144.088 158.286 145.359C158.085 146.044 158.488 146.75 159.173 146.912L174.875 150.804C176.064 151.026 176.85 150.28 176.064 149.332C175.52 148.666 174.814 148.162 174.452 147.819C173.283 146.77 167.8 144.088 167.8 144.088Z" fill="#FF522C"/>
<path d="M165.804 96.2469C167.014 93.7257 169.735 90.4382 174.532 92.4148C179.108 94.3106 180.337 98.9495 178.886 103.709C177.435 108.469 167.941 136.424 167.598 140.256L160 140.316C160 140.316 161.37 118.191 161.713 112.826C162.055 107.683 163.728 100.624 165.804 96.2469Z" fill="#FFC727"/>
<path d="M178.12 70.5111H152.744C152.078 70.5111 151.474 70.9145 151.212 71.5397L143.391 90.6802H129.403C129.02 90.6802 128.697 91.0029 128.697 91.3861C128.697 91.7693 129.02 92.092 129.403 92.092H169.231C170.32 92.092 171.328 91.4466 171.771 90.4382L179.632 72.8306C180.136 71.7414 179.33 70.5111 178.12 70.5111Z" fill="#184655"/>
<path d="M164.454 81.6445C164.273 82.5117 163.527 83.0765 162.781 82.9353C162.035 82.7941 161.572 81.9672 161.733 81.0999C161.915 80.2326 162.66 79.6679 163.406 79.8091C164.172 79.9704 164.636 80.7974 164.454 81.6445Z" fill="white"/>
<path d="M150.647 26.4215C149.881 26.1593 149.135 25.8769 148.41 25.5139C147.583 25.1105 146.515 24.6466 145.85 24.5458C144.439 24.3239 142 24.4651 140.65 25.9374C138.977 27.7527 135.994 26.2601 136.598 35.78C137.284 46.5502 143.27 45.3804 143.411 45.1788C143.552 44.9972 148.752 38.2809 148.752 38.2809C148.752 38.2809 150.566 42.2542 150.566 42.1131C150.566 41.992 159.838 29.5074 150.647 26.4215Z" fill="#0E2E35"/>
<path d="M146.092 45.9855L146.616 49.8378C146.616 49.8378 147.765 55.3843 146.293 56.4533C144.802 57.5222 139.964 49.6765 139.964 49.6765L140.468 39.9146L146.092 45.9855Z" fill="#F7A491"/>
<path d="M140.307 43.0812C141.537 46.4091 144.459 48.4461 146.556 49.2529L146.112 45.9855L140.468 39.9146L140.307 43.0812Z" fill="#F47458"/>
<path d="M145.79 29.3057C148.954 28.8014 151.776 31.3428 151.695 34.4891C151.655 35.8606 151.554 37.575 151.272 39.4306C150.587 43.8678 147.563 47.7806 145.548 47.4377C143.552 47.0948 138.513 43.2627 139.4 36.9296C139.944 33.037 142.484 29.8502 145.79 29.3057Z" fill="#F7A491"/>
<path d="M140.791 37.696C140.63 38.6641 139.844 39.3499 139.037 39.2087C138.251 39.0675 137.727 38.1599 137.909 37.1918C138.07 36.2237 138.856 35.5379 139.662 35.6791C140.448 35.8203 140.952 36.7077 140.791 37.696Z" fill="#F7A491"/>
<path d="M139.642 35.6791C139.642 35.6791 142.061 36.2842 142.968 34.7312C143.875 33.1781 147.08 29.8099 151.171 31.2016C155.263 32.5932 147.583 27.8132 147.241 27.8132C146.918 27.8132 142.988 27.793 142.988 27.793C142.988 27.793 139.964 30.2738 139.864 30.5562C139.763 30.8385 138.876 33.8034 138.876 33.8034L139.642 35.6791Z" fill="#0E2E35"/>
<path d="M144.076 42.1736L148.49 43.0207C148.49 43.0207 148.067 44.6745 146.112 44.372C143.734 43.9888 144.076 42.1736 144.076 42.1736Z" fill="white"/>
<path d="M195.353 345.839C195.353 345.839 194.547 351.467 193.156 353.282C192.693 353.887 191.846 354.653 191.282 355.763C190.415 357.477 190.899 360.038 191.544 361.43C191.866 362.156 191.524 362.156 192.27 362.378C194.487 363.064 196.845 361.914 197.792 359.776C198.316 358.586 198.78 356.993 198.881 354.976C199.123 349.873 200.695 347.271 200.695 347.271L195.353 345.839Z" fill="#F7A491"/>
<path d="M219.642 348.421C219.642 348.421 220.145 354.774 219.742 356.832C219.521 357.941 218.311 360.22 218.876 361.249C219.42 362.297 220.065 362.539 220.065 362.539L234.396 362.781C235.182 362.802 234.658 362.297 234.033 361.813C233.005 361.047 232.179 360.543 228.873 358.949C228.651 358.848 227.885 358.344 227.603 358.163C226.898 357.719 226.172 357.033 225.547 356.347C224.519 355.198 224.419 349.611 224.419 349.611L219.642 348.421Z" fill="#F7A491"/>
<path d="M230.828 264.013C230.828 264.013 232.642 274.32 231.453 281.076C230.264 287.833 224.58 350.478 224.58 350.478L218.251 350.841C218.251 350.841 216.92 324.682 217.162 321.031C217.404 317.401 219.279 311.31 219.279 311.31L218.654 290.173L226.636 262.42L230.828 264.013Z" fill="#E25A44"/>
<path d="M212.265 261.855C212.265 261.855 207.286 269.399 206.097 275.631C204.908 281.863 206.964 301.044 204.686 309.212C203.456 313.629 198.78 320.467 198.055 326.195C197.349 331.923 194.547 346.888 194.547 346.888L200.856 348.139L215.53 310.725L227.039 276.901L229.982 259.495L212.265 261.855Z" fill="#F47458"/>
<path d="M198.216 358.667C194.769 359.292 192.491 357.275 191.282 355.763C190.415 357.477 189.972 360.038 190.617 361.45C191.181 362.701 192.834 362.66 194.144 362.701C195.515 362.761 196.583 361.975 197.268 360.764C197.611 360.22 197.954 359.514 198.216 358.667Z" fill="#FFC727"/>
<path d="M227.583 358.163C223.794 359.151 220.992 358.485 219.42 357.84C219.017 358.99 218.473 360.442 218.755 361.269C219.097 362.297 219.601 362.519 220.045 362.539C223.512 362.64 232.723 362.761 235.363 362.781C235.726 362.781 235.928 362.358 235.706 362.075C235.041 361.289 227.865 358.344 227.583 358.163Z" fill="#FFC727"/>
<path d="M253.524 246.204C253.786 245.639 251.005 244.873 250.924 244.268C250.843 243.663 254.572 244.006 254.754 243.501C255.096 242.574 250.682 242.876 250.823 242.432C250.964 241.989 255.479 241.464 255.096 240.637C254.693 239.831 250.46 241.686 250.38 241.162C250.319 240.637 254.472 239.79 254.532 238.641C254.552 238.036 247.598 240.98 246.853 240.577C246.127 240.174 248.001 237.471 247.437 236.987C246.873 236.503 244.434 242.13 243.99 242.311C243.547 242.473 233.993 245.357 230.748 245.841C230.466 244.732 228.027 238.681 227.785 237.652C225.87 238.742 223.451 237.431 221.496 238.399C222.484 241.868 224.681 253.283 225.568 253.808C228.248 255.381 242.378 247.898 244.716 246.587C247.054 245.256 248.243 245.902 249.775 245.559C251.287 245.216 253.262 246.769 253.524 246.204Z" fill="#F38B80"/>
<path d="M228.369 212.542C229.075 209.315 229.78 206.047 227.906 202.498C226.394 199.613 223.774 197.96 220.73 197.617C212.144 196.588 213.978 204.636 201.965 206.37C198.236 206.915 194.769 207.439 191.645 209.295C186.021 212.643 183.885 218.028 187.634 226.801C196.764 248.261 218.634 229.605 221.98 225.813C225.285 222.041 227.926 214.639 228.369 212.542Z" fill="#0E2E35"/>
<path d="M214.845 222.747C214.845 222.747 210.511 223.231 207.911 226.075C205.311 228.899 212.103 251.609 212.587 255.22C213.051 258.81 208.072 268.773 208.072 268.773C208.072 268.773 225.023 272.142 229.438 269.237C229.438 269.237 229.821 241.444 229.357 238.863C228.893 236.301 224.943 225.853 224.016 224.825C223.048 223.776 214.845 222.747 214.845 222.747Z" fill="#FFC727"/>
<path d="M217.041 213.994C217.041 213.994 217.001 214.196 216.941 214.518C216.638 216.092 215.53 221.315 214.764 222.768C213.837 224.502 217.908 230.049 221.839 229.363C223.008 229.161 220.851 224.28 220.952 223.756C221.153 222.768 221.415 221.416 221.698 220.025C221.859 219.238 222 218.451 222.161 217.705C222.584 215.587 222.927 213.853 222.927 213.853L217.041 213.994Z" fill="#F7A491"/>
<path opacity="0.5" d="M216.941 214.518C217.001 214.196 217.041 213.994 217.041 213.994L222.907 213.853C222.907 213.853 222.564 215.587 222.141 217.705C222 218.451 221.839 219.238 221.677 220.004C220.77 219.863 219.823 219.44 218.876 218.593C217.848 217.685 217.162 216.596 216.759 215.446C216.84 215.083 216.9 214.76 216.941 214.518Z" fill="#F47458"/>
<path d="M220.569 200.037C220.569 200.037 218.17 200.36 216.437 202.619C214.703 204.857 212.829 211.775 217.142 215.547C221.456 219.319 225.709 215.043 226.334 210.525C226.958 206.007 226.837 199.876 220.569 200.037Z" fill="#F7A491"/>
<path d="M227.583 209.416C227.321 210.505 226.596 211.251 225.991 211.07C225.386 210.888 225.104 209.859 225.386 208.77C225.648 207.681 226.374 206.935 226.979 207.116C227.583 207.298 227.866 208.327 227.583 209.416Z" fill="#F7A491"/>
<path d="M223.23 200.057C223.23 200.057 217.606 206.511 214.966 206.814C212.325 207.116 211.982 210.626 211.982 210.626C211.982 210.626 212.93 202.558 215.55 201.005C218.15 199.452 223.23 200.057 223.23 200.057Z" fill="#0E2E35"/>
<path d="M215.812 208.387C216.034 209.557 215.59 210.626 214.845 210.787C214.099 210.948 213.313 210.122 213.091 208.952C212.869 207.782 213.313 206.713 214.058 206.552C214.824 206.41 215.61 207.217 215.812 208.387Z" fill="#F7A491"/>
<path d="M215.731 241.182L233.912 243.844C234.456 243.925 234.839 244.429 234.759 244.974L231.211 269.237C231.131 269.782 230.627 270.165 230.083 270.084L211.902 267.422C211.358 267.341 210.975 266.837 211.055 266.292L214.603 242.029C214.683 241.485 215.187 241.101 215.731 241.182Z" fill="#184655"/>
<path d="M229.296 242.372C229.317 242.271 229.236 242.15 229.135 242.15L221.557 241.041C221.456 241.021 221.335 241.101 221.335 241.202L221.214 241.989L229.196 243.159L229.296 242.372Z" fill="#13375B"/>
<path d="M225.467 240.637C224.802 240.537 224.197 241 224.096 241.666C223.996 242.332 224.459 242.937 225.124 243.038C225.789 243.138 226.394 242.674 226.495 242.009C226.596 241.343 226.132 240.718 225.467 240.637ZM225.185 242.594C224.761 242.533 224.459 242.13 224.54 241.706C224.6 241.283 225.003 240.98 225.427 241.061C225.85 241.121 226.152 241.525 226.072 241.948C226.011 242.352 225.608 242.654 225.185 242.594Z" fill="#13375B"/>
<path d="M229.297 242.372L229.176 243.159L221.194 241.989C221.113 242.533 221.496 243.038 222.04 243.118L228.047 244.006C228.591 244.086 229.095 243.703 229.176 243.159L229.297 242.372Z" fill="#355389"/>
<path d="M223.633 212.764L219.541 212.744C219.541 212.744 219.622 214.297 221.416 214.357C223.633 214.438 223.633 212.764 223.633 212.764Z" fill="white"/>
<path d="M202.993 247.394L209.584 248.06C209.584 248.06 209.483 253.646 209.584 254.292C209.584 254.292 220.851 257.418 225.548 258.265C225.548 258.265 227.684 257.055 228.551 256.672C229.418 256.289 231.756 255.865 232.26 255.805C232.784 255.744 232.602 256.309 232.159 256.49C231.715 256.692 230.566 257.237 230.244 257.882C230.244 257.882 231.171 257.983 231.675 257.761C232.159 257.539 232.844 257.075 232.864 256.833C232.884 256.591 232.985 256.006 233.146 256.047C233.187 256.047 233.247 256.248 233.308 256.45C233.368 256.631 233.408 256.833 233.469 257.015C233.55 257.358 233.65 257.862 233.691 258.084C233.771 258.588 233.469 260.02 233.408 260.524C233.328 261.452 233.066 261.855 232.582 262.077C231.796 262.36 230.97 262.521 229.76 262.642C227.523 262.864 225.467 262.238 224.56 262.117C223.653 262.017 209.322 260.585 209.322 260.585C209.322 260.585 203.618 259.758 203.235 258.79C202.832 257.842 202.993 247.394 202.993 247.394Z" fill="#F7A491"/>
<path d="M208.697 225.248C208.697 225.248 206.621 226.237 204.787 230.492C203.053 234.546 202.549 254.736 202.549 254.736L209.443 253.586L212.95 244.167C215.449 238.52 214.804 231.965 211.156 226.983C210.188 225.672 209.302 224.865 208.697 225.248Z" fill="#FFC727"/>
<path opacity="0.6" d="M346.585 128.215H317.339V157.48H346.585V128.215Z" fill="#9BC1F9"/>
<path opacity="0.6" d="M408.787 128.215H351.745V132.188H408.787V128.215Z" fill="#9BC1F9"/>
<path opacity="0.6" d="M390.243 136.646H351.745V140.619H390.243V136.646Z" fill="#9BC1F9"/>
<path opacity="0.6" d="M402.982 145.056H351.745V149.029H402.982V145.056Z" fill="#9BC1F9"/>
<path d="M428.42 225.329C427.231 224.361 417.979 228.415 418.1 229.827C418.221 231.239 411.65 244.933 411.65 244.933L400.302 235.878C400.201 235.555 399.133 232.025 399.072 231.4C399.012 230.734 397.097 229.585 396.21 229.746C395.323 229.907 396.976 231.037 397.077 231.239C397.379 231.803 396.23 232.005 396.23 232.005C396.23 232.005 392.985 230.956 392.925 229.907C392.864 228.838 390.647 231.763 390.909 232.166C391.171 232.57 396.452 236.825 397.218 237.753C397.218 237.753 411.892 254.554 412.94 254.978C413.847 255.361 417.132 249.572 420.216 245.74C423.28 241.928 432.149 228.375 428.42 225.329Z" fill="#F7A491"/>
<path d="M458.029 348.804C458.029 348.804 460.045 350.781 460.085 351.487C460.126 352.213 460.267 359.958 459.44 360.684C458.614 361.41 456.195 361.914 456.981 362.741C457.566 363.346 462.081 363.225 465.084 363.064C465.951 363.023 467.059 356.025 467.402 354.996C467.906 353.504 469.135 350.156 468.672 349.107C468.45 348.603 467.382 347.554 465.87 346.586C464.298 345.557 462.786 343.298 462.786 343.298L458.029 348.804Z" fill="#F48C7F"/>
<path d="M437.147 353.383C437.147 353.383 438.961 358.485 438.961 358.506C439.102 359.312 439.626 361.309 439.626 362.055C439.626 364.818 427.19 359.716 429.972 358.485C430.234 358.385 431.02 357.497 431.1 356.549C431.221 355.097 430.052 353.282 430.052 353.282L437.147 353.383Z" fill="#F7A491"/>
<path d="M417.616 258.366C417.616 258.366 416.709 267.523 416.709 267.644C416.709 282.448 413.787 311.35 414.331 314.134C415.681 320.91 430.335 355.541 430.335 355.541L438.236 354.593L429.75 312.762L431.725 296.465L437.087 263.489L417.616 258.366Z" fill="#50BFA5"/>
<path d="M444.162 266.474L445.653 275.147L449.705 310.826L465.205 345.698C465.205 345.698 463.028 350.781 459.823 351.487L435.213 315.687L419.914 269.862L420.458 259.677L444.162 266.474Z" fill="#96D9C9"/>
<path d="M414.472 236.604L425.437 237.733C425.437 237.733 425.941 228.738 425.941 224.442C425.941 219.238 425.497 212.522 424.872 212.663C423.099 213.066 420.74 214.034 419.309 215.991C414.411 222.707 414.472 236.604 414.472 236.604Z" fill="#B75742"/>
<path d="M419.853 223.514C419.632 225.107 415.399 268.269 415.399 268.269C435.374 277.93 446.399 269.983 446.399 269.983C446.399 269.983 445.754 239.669 446.52 235.555C447.044 232.832 447.689 214.68 445.915 214.176C443.638 213.53 441.038 212.824 438.216 212.542C435.797 212.3 426.404 212.138 424.711 212.703C424.711 212.703 420.821 216.838 419.853 223.514Z" fill="#F47458"/>
<path d="M465.789 346.545C465.789 346.545 461.133 359.635 459.319 360.28C458.835 360.442 456.517 360.865 456.074 361.894C455.933 362.197 456.074 363.245 456.074 363.245H465.769C465.769 363.245 466.999 357.477 467.482 354.936C467.482 354.936 470.042 348.744 469.76 348.179C469.478 347.594 465.789 346.545 465.789 346.545Z" fill="#F47458"/>
<path d="M440.312 362.963L438.881 358.465C438.881 358.465 435.898 359.736 434.386 359.514C432.894 359.312 429.972 358.465 429.972 358.465C424.005 360.442 419.107 361.39 419.994 362.963H440.312Z" fill="#F47458"/>
<path d="M412.92 255.018C412.879 254.998 412.718 254.877 412.617 254.796C412.98 250.561 412.9 246.466 411.589 245.075C411.63 245.014 411.912 244.389 412.214 243.743C413.746 244.933 414.492 248.1 414.189 253.223C414.169 253.566 414.069 253.848 413.988 254.292C413.544 254.776 413.141 255.099 412.92 255.018Z" fill="#F7A491"/>
<path d="M435.555 204.192L436.845 212.683C436.845 212.683 432.149 222.788 429.327 221.921C426.969 221.194 428.42 212.239 428.42 212.239C428.42 212.239 429.71 207.439 429.327 205.039C428.944 202.619 435.555 204.192 435.555 204.192Z" fill="#F7A491"/>
<path d="M429.327 205.019C428.944 202.619 435.555 204.192 435.555 204.192L435.656 204.898C435.454 205.362 435.233 205.765 434.93 206.088C433.459 207.681 431.141 208.629 429.146 208.71C429.367 207.399 429.488 206.007 429.327 205.019Z" fill="#F47458"/>
<path d="M436.643 192.171C436.825 192.111 438.135 201.832 435.656 204.515C433.176 207.197 428.319 208.064 426.585 205.967C424.67 203.627 424.751 193.159 428.621 190.416C432.491 187.653 436.643 192.171 436.643 192.171Z" fill="#F7A491"/>
<path d="M430.093 185.193C433.076 185.798 435.011 187.633 435.736 188.42C437.087 188.581 438.941 189.327 440.836 192.494C443.174 196.386 441.44 200.682 438.719 202.78C435.998 204.898 436.039 207.338 436.039 207.338L435.615 206.068C435.293 205.12 435.172 204.091 435.273 203.103C435.333 202.498 435.474 201.852 435.716 201.308C436.381 199.896 434.305 198.968 433.721 197.798C433.277 196.891 433.257 194.833 432.552 193.341L431.705 192.211C431.705 192.211 429.77 190.699 427.875 191.122C425.981 191.546 426.243 184.426 430.093 185.193Z" fill="#0E2E35"/>
<path d="M436.341 199.557C436.361 198.365 435.818 197.389 435.128 197.378C434.438 197.366 433.862 198.322 433.841 199.514C433.821 200.706 434.364 201.682 435.054 201.693C435.744 201.705 436.32 200.749 436.341 199.557Z" fill="#F7A491"/>
<path d="M429.79 202.276L426.041 202.074C426.041 202.074 426.061 203.506 427.694 203.647C429.709 203.809 429.79 202.276 429.79 202.276Z" fill="white"/>
<path d="M399.093 224.482C399.98 223.574 400.786 222.647 401.552 221.699L417.919 237.693C418.926 238.681 418.584 240.658 417.153 242.13C415.722 243.602 413.746 243.985 412.738 243.017L396.372 227.023C397.299 226.216 398.226 225.369 399.093 224.482Z" fill="#0E2E35"/>
<path opacity="0.6" d="M398.778 224.169C414.715 207.841 414.328 181.601 397.915 165.561C381.502 149.52 355.277 149.753 339.34 166.082C323.403 182.41 323.789 208.65 340.202 224.691C356.616 240.731 382.841 240.498 398.778 224.169Z" fill="#C5DDF9"/>
<path d="M398.831 223.736C392.038 230.956 382.746 235.676 372.547 236.604L327.74 191.042C327.74 190.961 327.76 190.86 327.76 190.779C328.868 180.372 333.706 171.276 340.781 164.701L398.831 223.736Z" fill="white"/>
<path d="M368.697 153.628L410.118 195.761C410.098 197.032 410.017 198.323 409.876 199.613C409.251 205.503 407.417 210.969 404.676 215.809L348.742 158.912C354.708 155.544 361.521 153.648 368.697 153.628Z" fill="white"/>
<path d="M336.447 228.536C355.011 246.668 384.66 246.406 402.68 227.951C420.7 209.496 420.256 179.828 401.692 161.696C383.129 143.564 353.479 143.826 335.459 162.28C317.44 180.735 317.883 210.404 336.447 228.536ZM340.196 224.684C323.769 208.649 323.386 182.389 339.329 166.072C355.273 149.735 381.496 149.513 397.903 165.568C414.33 181.602 414.713 207.863 398.77 224.179C382.846 240.496 356.623 240.718 340.196 224.684Z" fill="#184655"/>
<path opacity="0.5" d="M338.422 226.499C355.857 243.542 383.713 243.3 400.624 225.954C417.555 208.609 417.132 180.755 399.697 163.712C382.262 146.67 354.406 146.912 337.495 164.257C320.564 181.602 320.987 209.476 338.422 226.499ZM340.196 224.684C323.769 208.649 323.386 182.389 339.329 166.072C355.273 149.735 381.496 149.513 397.903 165.568C414.33 181.602 414.713 207.863 398.77 224.179C382.847 240.496 356.623 240.718 340.196 224.684Z" fill="#50BFA5"/>
<path d="M468.792 294.691L471.332 292.048C473.872 289.406 473.791 285.211 471.171 282.67L423.885 236.805C421.244 234.264 417.052 234.345 414.512 236.987L411.972 239.629C409.433 242.271 409.513 246.466 412.154 249.008L459.42 294.872C462.04 297.393 466.253 297.333 468.792 294.691Z" fill="#184655"/>
<path d="M466.192 268.713C466.212 268.612 466.212 268.531 466.192 268.43C465.89 265.445 463.411 240.335 463.008 239.266C462.625 238.298 451.498 222.384 451.498 222.384L446.036 229.847L456.739 244.127C456.981 245.034 460.831 261.976 460.831 261.976C460.831 261.976 461.617 265.062 461.98 266.918C461.818 267.361 461.657 267.785 461.516 268.128C461.153 268.874 460.75 269.479 460.367 269.983C459.883 270.629 459.097 272.021 458.997 272.404C458.876 272.847 458.674 273.755 458.573 274.3C458.452 274.844 458.291 275.49 458.271 275.772C458.251 275.953 458.069 276.317 457.928 276.559C457.707 276.942 458.069 277.385 458.493 277.244C458.876 277.123 459.178 276.619 459.38 276.296C459.904 275.409 460.186 273.795 460.327 273.876C460.448 273.957 460.911 276.7 460.992 277.022C461.073 277.325 461.617 280.512 461.939 281.097C462.242 281.681 462.665 281.581 462.766 281.218C462.867 280.895 462.423 276.438 462.423 276.438C462.423 276.438 462.363 275.873 462.625 276.054C462.867 276.236 463.29 280.27 463.451 280.875C463.632 281.46 464.015 281.782 464.358 281.298C464.761 280.713 464.056 276.438 464.056 276.438C464.056 276.438 463.975 275.893 464.217 275.953C464.459 276.014 464.741 279.443 464.923 279.745C465.104 280.048 465.547 280.149 465.769 279.644C466.031 279.06 465.366 275.227 465.366 275.227C465.366 275.227 465.406 274.925 465.547 275.026C465.688 275.127 466.152 278.051 466.434 278.313C466.676 278.535 466.898 278.313 466.898 278.313C467.442 277.95 466.616 275.167 466.616 273.775C466.616 272.384 465.991 270.831 466.172 269.197C466.132 269.136 466.152 268.874 466.192 268.713Z" fill="#F8A492"/>
<path d="M460.186 232.489L450.692 238.883C450.692 238.883 445.331 230.916 442.468 228.072C438.86 224.522 443.779 213.611 446.097 214.236C451.277 215.587 460.186 232.489 460.186 232.489Z" fill="#F47458"/>
<path d="M479.737 362.176H6.87305V365H479.737V362.176Z" fill="#0E2E35"/>
</g>
<defs>
<clipPath id="clip0_556_42">
<rect width="524" height="365" fill="white"/>
</clipPath>
</defs>
</svg>
