<svg width="557" height="409" viewBox="0 0 557 409" fill="none" xmlns="http://www.w3.org/2000/svg">
<path d="M556.096 359.353H0.482422V359.08H556.096V359.353Z" fill="#EBEBEB"/>
<path d="M99.9376 366.796H58.7666V366.523H99.9376V366.796Z" fill="#EBEBEB"/>
<path d="M267.176 372.706H188.279V372.433H267.176V372.706Z" fill="#EBEBEB"/>
<path d="M162.331 366.959H105.937V366.685H162.331V366.959Z" fill="#EBEBEB"/>
<path d="M506.591 375.114H452.529V374.84H506.591V375.114Z" fill="#EBEBEB"/>
<path d="M447.583 375.114H412.023V374.84H447.583V375.114Z" fill="#EBEBEB"/>
<path d="M377.411 370.517H308.515V370.244H377.411V370.517Z" fill="#EBEBEB"/>
<path fill-rule="evenodd" clip-rule="evenodd" d="M263.843 310.266H49.2647C45.7643 310.266 42.9307 307.475 42.9307 304.027V6.93193C42.9307 3.48433 45.7643 0.693413 49.2647 0.693413H263.843C267.343 0.693413 270.177 3.48433 270.177 6.93193V304.027C270.177 307.475 267.343 310.266 263.843 310.266ZM49.2647 0.967047C45.931 0.967047 43.2085 3.64851 43.2085 6.93193V304.027C43.2085 307.311 45.931 309.992 49.2647 309.992H263.843C267.176 309.992 269.899 307.311 269.899 304.027V6.93193C269.899 3.64851 267.176 0.967047 263.843 0.967047H49.2647Z" fill="#EBEBEB"/>
<path fill-rule="evenodd" clip-rule="evenodd" d="M504.2 310.266H289.622C286.122 310.266 283.288 307.475 283.288 304.027V6.93193C283.288 3.48433 286.122 0.693413 289.622 0.693413H504.2C507.7 0.693413 510.534 3.48433 510.534 6.93193V304.027C510.534 307.475 507.7 310.266 504.2 310.266ZM289.622 0.967047C286.288 0.967047 283.566 3.64851 283.566 6.93193V304.027C283.566 307.311 286.288 309.992 289.622 309.992H504.2C507.534 309.992 510.256 307.311 510.256 304.027V6.93193C510.256 3.64851 507.534 0.967047 504.2 0.967047H289.622Z" fill="#EBEBEB"/>
<path d="M397.858 248.975H484.533V355.686H397.858C389.468 355.686 382.634 348.955 382.634 340.692V263.969C382.634 255.706 389.468 248.975 397.858 248.975Z" fill="#F0F0F0"/>
<path d="M483.812 248.975H485.256C493.646 248.975 500.536 255.706 500.536 263.969V340.692C500.536 348.955 493.646 355.686 485.256 355.686H483.812C475.478 355.686 468.588 348.955 468.588 340.692V263.969C468.588 255.706 475.478 248.975 483.812 248.975Z" fill="#F5F5F5"/>
<path d="M472.918 288.321H283.01V355.686H472.918V288.321Z" fill="#F0F0F0"/>
<path d="M482.252 359.08H201.5C199.778 359.08 198.389 357.712 198.389 356.015V355.687H397.798L485.363 356.015C485.363 357.712 483.974 359.08 482.252 359.08Z" fill="#E0E0E0"/>
<path d="M401.743 204.703H219.669C207.89 204.703 198.389 214.061 198.389 225.608V303.589H422.968V225.608C422.968 214.061 413.467 204.703 401.743 204.703Z" fill="#E0E0E0"/>
<path d="M418.36 204.703H234.229C223.061 204.703 214.005 213.623 214.005 224.623V303.589H438.584V224.623C438.584 213.623 429.527 204.703 418.36 204.703Z" fill="#F5F5F5"/>
<path d="M463.865 282.193H297.459C292.18 282.193 287.847 286.407 287.847 291.66V300.197C287.847 305.396 292.18 309.61 297.459 309.61H463.865C471.588 309.61 477.811 303.481 477.811 295.929C477.811 288.322 471.588 282.193 463.865 282.193Z" fill="#E0E0E0"/>
<path d="M195.836 248.975H282.512V355.686H195.836C187.446 355.686 180.557 348.955 180.557 340.692V263.969C180.557 255.706 187.446 248.975 195.836 248.975Z" fill="#F0F0F0"/>
<path d="M281.79 248.975H283.235C291.625 248.975 298.459 255.706 298.459 263.969V340.692C298.459 348.955 291.625 355.686 283.235 355.686H281.79C273.4 355.686 266.566 348.955 266.566 340.692V263.969C266.566 255.706 273.4 248.975 281.79 248.975Z" fill="#F5F5F5"/>
<path d="M446.138 41.7903H367.686V155.506H446.138V41.7903Z" fill="#E0E0E0"/>
<path d="M450.863 41.7903H369.799V155.506H450.863V41.7903Z" fill="#F5F5F5"/>
<path d="M376.576 50.7661V146.533H444.083V50.7661H376.576Z" fill="white"/>
<path d="M401.97 103.246V110.579C411.193 110.579 418.749 103.137 418.749 93.9978V86.7195C409.471 86.7195 401.97 94.1072 401.97 103.246Z" fill="#F5F5F5"/>
<path d="M401.97 78.6749V85.9531C411.193 85.9531 418.749 78.5654 418.749 69.4265V62.1483C409.471 62.1483 401.97 69.536 401.97 78.6749Z" fill="#F5F5F5"/>
<path d="M401.97 127.871V135.149C411.193 135.149 418.749 127.762 418.749 118.623V111.29C409.471 111.29 401.97 118.732 401.97 127.871Z" fill="#F5F5F5"/>
<path d="M73.2666 130.991V50.7656H329.571V130.991H73.2666Z" fill="#EBEBEB"/>
<path d="M73.2686 130.991V50.7656H71.7129V130.991H73.2686Z" fill="#E0E0E0"/>
<path d="M316.958 118.513H85.8779V63.1877H316.958V118.513Z" fill="#F5F5F5"/>
<path d="M141.274 118.513H122.105L137.107 63.1877H156.276L141.274 118.513Z" fill="white"/>
<path d="M159.109 118.513H147.997L163.054 63.1877H174.166L159.109 118.513Z" fill="white"/>
<path d="M255.732 118.513H244.62L259.622 63.1877H270.734L255.732 118.513Z" fill="white"/>
<path d="M173.057 267.363H110.939L103.271 184.238H165.389L173.057 267.363Z" fill="#E6E6E6"/>
<path d="M176.277 267.363H114.16L106.492 184.238H168.61L176.277 267.363Z" fill="#F0F0F0"/>
<path d="M122.661 258.169L116.66 193.431H160.109L166.11 258.169H122.661Z" fill="white"/>
<path d="M219.671 359.08H211.281V267.363H219.671V359.08Z" fill="#E6E6E6"/>
<path d="M222.283 359.08H216.449V267.363H222.283V359.08Z" fill="#F5F5F5"/>
<path d="M135.774 277.486H224.061V267.362H135.774V277.486Z" fill="#F5F5F5"/>
<path d="M132.052 359.08H123.662V277.487H132.052V359.08Z" fill="#E6E6E6"/>
<path d="M134.661 359.08H128.883V277.487H134.661V359.08Z" fill="#F5F5F5"/>
<path d="M79.0997 359.08H70.71V277.487H79.0997V359.08Z" fill="#E6E6E6"/>
<path d="M81.7675 359.08H75.9336V277.487H81.7675V359.08Z" fill="#F5F5F5"/>
<path d="M166.722 359.08H158.332V277.487H166.722V359.08Z" fill="#E6E6E6"/>
<path d="M169.332 359.08H163.554V277.487H169.332V359.08Z" fill="#F5F5F5"/>
<path d="M135.772 277.486H70.71V267.362H135.772V277.486Z" fill="#E6E6E6"/>
<path d="M493.754 396.128C493.754 402.968 397.3 408.495 278.287 408.495C159.275 408.495 62.8203 402.968 62.8203 396.128C62.8203 389.287 159.275 383.705 278.287 383.705C397.3 383.705 493.754 389.287 493.754 396.128Z" fill="#F5F5F5"/>
<path d="M365.353 89.4003C361.131 86.7735 348.907 89.3455 350.963 102.534C352.963 115.722 337.295 112.33 340.684 127.597C344.129 142.865 371.91 165.576 388.967 150.144C406.08 134.766 391.689 127.981 392.023 109.648C392.189 98.8127 387.189 79.3311 365.353 89.4003Z" fill="#263238"/>
<path d="M390.58 149.488C390.506 149.488 390.432 149.47 390.358 149.433C390.247 149.324 390.247 149.105 390.358 148.996C400.915 138.707 398.47 132.414 395.414 124.479C393.692 120.101 391.747 115.122 391.58 108.664C391.414 101.659 388.858 92.1375 382.079 88.1974C377.301 85.4065 371.189 85.899 363.855 89.6202C363.744 89.6749 363.577 89.6202 363.466 89.5108C363.411 89.3466 363.466 89.1824 363.633 89.1277C371.134 85.297 377.412 84.8045 382.413 87.7049C389.302 91.7544 391.969 101.495 392.191 108.609C392.303 115.012 394.247 119.937 395.914 124.26C399.081 132.414 401.581 138.872 390.747 149.433C390.71 149.47 390.654 149.488 390.58 149.488Z" fill="#263238"/>
<path d="M392.967 148.009C392.967 147.955 393.189 148.228 393.3 148.392L393.745 148.994C394.078 149.396 394.411 149.797 394.745 150.198C395.485 151.037 396.282 151.822 397.134 152.551C398.801 154.084 400.69 155.506 402.634 156.71C404.635 157.969 406.69 159.118 408.913 160.103C409.968 160.65 411.135 161.088 412.246 161.581C412.413 161.635 412.246 161.581 412.08 161.635C411.913 161.69 411.802 161.8 411.913 161.745C412.191 161.635 412.746 160.924 413.191 160.048C413.691 159.173 414.08 158.133 414.469 157.093C415.191 154.904 415.747 152.497 416.247 150.089C416.747 147.681 417.136 145.218 417.525 142.756C417.858 140.293 418.136 137.776 418.414 135.313H422.97C423.303 140.567 423.303 145.711 422.859 151.019C422.636 153.701 422.248 156.327 421.581 159.063C421.247 160.432 420.803 161.854 420.192 163.277C419.525 164.7 418.803 166.287 417.025 167.819C416.191 168.585 414.858 169.297 413.413 169.57C411.969 169.844 410.468 169.57 409.468 169.187C408.135 168.75 406.857 168.366 405.524 167.819C402.968 166.834 400.412 165.63 397.967 164.262C395.522 162.785 393.189 161.198 391.022 159.282C389.911 158.334 388.874 157.312 387.911 156.218C387.392 155.671 386.892 155.087 386.41 154.467L385.744 153.536C385.521 153.153 385.355 152.934 384.966 152.332L392.967 148.009Z" fill="#FFC3BD"/>
<path d="M391.468 143.961C401.858 150.473 401.025 154.523 401.025 154.523L394.468 163.826C394.468 163.826 377.856 157.259 376.8 152.115C375.689 146.752 386.412 140.787 391.468 143.961Z" fill="#263238"/>
<path d="M391.468 143.961C401.858 150.473 401.025 154.523 401.025 154.523L394.468 163.826C394.468 163.826 377.856 157.259 376.8 152.115C375.689 146.752 386.412 140.787 391.468 143.961Z" fill="white" fill-opacity="0.1"/>
<path d="M401.579 153.592C401.968 153.866 402.079 154.413 401.801 154.796L395.134 164.209C394.856 164.646 394.301 164.756 393.856 164.427C393.467 164.154 393.356 163.607 393.634 163.224L400.357 153.811C400.635 153.428 401.19 153.319 401.579 153.592Z" fill="#407BFF"/>
<path d="M419.248 137.448L414.081 130.662L423.971 128.145C423.971 128.145 425.971 134.164 422.693 138.597L419.248 137.448Z" fill="#FFC3BD"/>
<path d="M414.359 122.29L422.582 120.922L423.971 128.145L414.081 130.663L414.359 122.29Z" fill="#FFC3BD"/>
<path d="M330.572 386.66L339.962 387.536L346.741 365.756L337.295 364.825L330.572 386.66Z" fill="#FFC3BD"/>
<path d="M270.622 354.428L277.623 360.885L292.68 344.523L285.679 338.066L270.622 354.428Z" fill="#FFC3BD"/>
<path d="M280.844 357.767L275.565 348.464C275.399 348.136 275.01 347.972 274.621 348.081L266.564 351.146C265.731 351.474 265.342 352.514 265.787 353.28C267.676 356.508 268.787 357.986 271.065 362.036C272.509 364.553 275.232 370.354 277.232 373.856C279.121 377.249 282.788 375.607 282.288 373.965C280.066 366.687 280.455 362.638 281.121 359.464C281.233 358.862 281.121 358.26 280.844 357.767Z" fill="#263238"/>
<path d="M341.131 384.745H329.686C329.241 384.745 328.908 385.019 328.797 385.402L326.296 394.322C326.019 395.252 326.741 396.073 327.686 396.073C331.686 396.127 333.631 396.127 338.631 396.127C341.743 396.127 349.743 396.127 354.022 396.127C358.189 396.127 359.078 391.968 357.355 391.585C349.577 389.889 345.132 387.536 342.743 385.347C342.298 384.909 341.687 384.745 341.131 384.745Z" fill="#263238"/>
<path d="M346.739 365.757L343.239 376.975H333.516L337.294 364.826L346.739 365.757Z" fill="black" fill-opacity="0.2"/>
<path d="M285.678 338.066L292.679 344.524L284.9 352.951L277.899 346.494L285.678 338.066Z" fill="black" fill-opacity="0.2"/>
<path d="M391.468 143.961C391.468 143.961 395.246 146.478 371.299 197.699C356.353 193.65 340.852 189.436 333.573 187.466C338.463 172.472 341.13 163.169 342.519 130.17C342.519 130.17 350.853 130.608 359.076 132.469C365.521 133.892 370.799 135.095 376.189 137.12C383.412 139.802 391.468 143.961 391.468 143.961Z" fill="#263238"/>
<path d="M391.468 143.961C391.468 143.961 395.246 146.478 371.299 197.699C356.353 193.65 340.852 189.436 333.573 187.466C338.463 172.472 341.13 163.169 342.519 130.17C342.519 130.17 350.853 130.608 359.076 132.469C365.521 133.892 370.799 135.095 376.189 137.12C383.412 139.802 391.468 143.961 391.468 143.961Z" fill="white" fill-opacity="0.1"/>
<path d="M366.13 113.917C365.686 119.663 363.963 129.897 359.074 132.469C359.074 132.469 356.24 141.936 368.575 145.438C378.965 148.393 376.187 137.12 376.187 137.12C370.464 134.001 374.02 128.474 375.075 122.29L366.13 113.917Z" fill="#FFC3BD"/>
<path d="M366.13 113.916C365.741 118.513 364.575 126.065 361.63 130.115C365.075 130.498 370.52 129.458 372.075 126.886C372.52 126.229 373.298 123.712 374.02 121.304L366.13 113.916Z" fill="black" fill-opacity="0.2"/>
<path d="M381.354 105.654C381.354 115.067 381.52 119.061 377.02 124.151C370.186 131.812 358.462 129.678 355.629 120.484C353.073 112.166 353.573 98.1569 362.685 93.8884C371.63 89.6747 381.409 96.2416 381.354 105.654Z" fill="#FFC3BD"/>
<path d="M361.63 100.4C366.963 107.788 385.021 118.076 386.243 108.171C387.466 98.2659 378.242 88.5251 369.075 89.4554C359.963 90.3857 357.018 94.1069 361.63 100.4Z" fill="#263238"/>
<path d="M385.356 114.41C384.467 116.161 382.856 117.365 381.3 117.912C379.022 118.623 377.744 116.653 378.244 114.41C378.745 112.385 380.578 109.594 382.967 109.813C385.301 110.032 386.301 112.44 385.356 114.41Z" fill="#FFC3BD"/>
<path d="M371.297 197.7C371.297 197.7 384.743 251.275 375.908 291.77C370.019 318.913 348.739 373.746 348.739 373.746L332.126 373.309C332.126 373.309 348.239 315.794 351.572 293.193C357.24 254.449 343.683 190.203 343.683 190.203L371.297 197.7Z" fill="#407BFF"/>
<path d="M356.354 205.415L348.02 218.33C350.131 231.738 352.242 248.483 352.798 264.572C364.466 243.996 358.91 216.305 356.354 205.415Z" fill="black" fill-opacity="0.2"/>
<path d="M351.741 374.567L330.572 374.074L331.961 366.632L353.297 368.219L351.741 374.567Z" fill="#263238"/>
<path d="M363.02 195.564C363.02 195.564 355.297 254.119 338.517 287.391C324.96 314.26 288.79 352.512 288.79 352.512L279.566 343.154C279.566 343.154 303.958 301.564 314.07 283.724C338.739 239.945 316.848 200.708 333.572 187.465L363.02 195.564Z" fill="#407BFF"/>
<path d="M289.734 353.772L277.844 342.335L281.789 337.027L294.79 350.27L289.734 353.772Z" fill="#263238"/>
<path d="M333.627 185.113L331.016 187.959C330.794 188.178 331.016 188.561 331.46 188.67L371.02 199.451C371.353 199.505 371.687 199.451 371.742 199.232L373.02 196.003C373.131 195.784 372.909 195.511 372.52 195.401L334.35 185.004C334.072 184.894 333.794 184.949 333.627 185.113Z" fill="#407BFF"/>
<path d="M333.627 185.113L331.016 187.959C330.794 188.178 331.016 188.561 331.46 188.67L371.02 199.451C371.353 199.505 371.687 199.451 371.742 199.232L373.02 196.003C373.131 195.784 372.909 195.511 372.52 195.401L334.35 185.004C334.072 184.894 333.794 184.949 333.627 185.113Z" fill="white" fill-opacity="0.5"/>
<path d="M337.573 190.696L336.573 190.422C336.351 190.367 336.24 190.203 336.295 190.094L337.962 185.935C338.018 185.771 338.24 185.716 338.462 185.771L339.462 186.099C339.685 186.154 339.796 186.263 339.74 186.427L338.073 190.586C338.018 190.696 337.796 190.751 337.573 190.696Z" fill="#407BFF"/>
<path d="M368.021 199.013L367.02 198.739C366.798 198.684 366.687 198.52 366.743 198.411L368.41 194.197C368.465 194.088 368.687 194.033 368.91 194.088L369.91 194.361C370.132 194.416 370.243 194.58 370.187 194.69L368.521 198.903C368.465 199.013 368.243 199.067 368.021 199.013Z" fill="#407BFF"/>
<path d="M352.797 194.854L351.797 194.58C351.575 194.525 351.463 194.361 351.519 194.252L353.186 190.093C353.241 189.929 353.464 189.874 353.686 189.929L354.686 190.202C354.908 190.257 355.019 190.421 354.964 190.531L353.297 194.744C353.241 194.854 353.019 194.909 352.797 194.854Z" fill="#407BFF"/>
<path d="M367.077 109.101C367.133 109.867 366.744 110.524 366.244 110.524C365.744 110.579 365.299 109.977 365.244 109.211C365.188 108.445 365.577 107.788 366.077 107.733C366.577 107.733 367.022 108.335 367.077 109.101Z" fill="#263238"/>
<path d="M358.298 109.594C358.353 110.36 357.964 111.017 357.464 111.017C356.964 111.072 356.52 110.47 356.464 109.704C356.409 108.938 356.798 108.281 357.298 108.281C357.798 108.226 358.298 108.828 358.298 109.594Z" fill="#263238"/>
<path d="M357.52 108.281L355.631 107.898C355.631 107.898 356.687 109.265 357.52 108.281Z" fill="#263238"/>
<path d="M360.686 110.798C360.686 110.798 359.575 114.136 358.241 115.833C359.297 116.708 361.019 116.161 361.019 116.161L360.686 110.798Z" fill="#ED847E"/>
<path d="M365.352 118.787C364.907 118.897 364.444 118.952 363.962 118.952C363.851 119.006 363.74 118.897 363.74 118.787C363.74 118.678 363.796 118.623 363.907 118.623C367.352 118.404 368.796 115.942 368.796 115.942C368.852 115.832 368.963 115.832 369.074 115.887C369.185 115.887 369.185 116.051 369.13 116.106C369.074 116.215 367.963 118.076 365.352 118.787Z" fill="#263238"/>
<path d="M369.965 103.52C369.854 103.52 369.743 103.52 369.632 103.41C368.187 101.987 366.52 102.316 366.465 102.316C366.243 102.37 366.02 102.261 365.965 102.042C365.965 101.823 366.076 101.659 366.298 101.604C366.354 101.604 368.41 101.166 370.188 102.863C370.299 103.027 370.299 103.246 370.188 103.41C370.113 103.447 370.039 103.483 369.965 103.52Z" fill="#263238"/>
<path d="M354.52 104.614C354.353 104.669 354.242 104.669 354.131 104.559C353.964 104.45 353.909 104.231 354.02 104.067C355.52 102.097 357.576 102.206 357.687 102.206C357.853 102.206 358.02 102.37 358.02 102.589C358.02 102.808 357.853 102.972 357.631 102.918C357.52 102.918 355.853 102.863 354.631 104.505C354.594 104.541 354.557 104.577 354.52 104.614Z" fill="#263238"/>
<path d="M343.353 144.289C342.408 145.712 341.519 146.861 340.519 148.12C339.556 149.287 338.574 150.455 337.574 151.622C335.5 153.884 333.314 156.055 331.018 158.134C328.74 160.159 326.351 162.129 323.739 163.88C322.517 164.811 321.184 165.631 319.85 166.452L317.794 167.602L316.794 168.149C316.405 168.368 315.905 168.641 315.461 168.805C313.572 169.626 311.127 170.064 308.849 169.681C306.571 169.298 304.626 168.204 303.126 167C301.626 165.796 300.515 164.428 299.515 163.059C298.552 161.71 297.718 160.323 297.014 158.9C294.236 153.209 292.625 147.518 291.569 141.498L296.014 140.513C296.903 143.085 297.959 145.821 299.126 148.339C300.237 150.911 301.515 153.373 302.959 155.617C304.404 157.861 306.071 159.94 307.793 161.089C308.627 161.637 309.405 161.91 310.016 161.965C310.682 162.02 311.294 161.856 312.071 161.472C312.238 161.363 312.405 161.308 312.683 161.144L313.516 160.597L315.238 159.448C316.35 158.627 317.516 157.915 318.572 157.04C320.795 155.343 322.85 153.538 324.906 151.622C326.906 149.762 328.795 147.737 330.629 145.657C331.555 144.599 332.462 143.541 333.351 142.483C334.185 141.444 335.074 140.294 335.796 139.309L343.353 144.289Z" fill="#FFC3BD"/>
<path d="M296.902 144.562L297.902 134.329L288.567 138.105C288.567 138.105 289.679 143.194 293.235 145.054L296.902 144.562Z" fill="#FFC3BD"/>
<path d="M294.901 128.802L287.733 127.27L288.567 138.105L297.901 134.329L294.901 128.802Z" fill="#FFC3BD"/>
<path d="M342.519 130.171C337.63 130.116 325.962 148.394 325.962 148.394L334.185 156.821C334.185 156.821 349.742 146.533 350.353 140.404C350.909 135.205 348.687 130.226 342.519 130.171Z" fill="#263238"/>
<path d="M342.519 130.171C337.63 130.116 325.962 148.394 325.962 148.394L334.185 156.821C334.185 156.821 349.742 146.533 350.353 140.404C350.909 135.205 348.687 130.226 342.519 130.171Z" fill="white" fill-opacity="0.1"/>
<path d="M334.962 157.204C334.628 157.533 334.073 157.587 333.739 157.204L325.35 149.16C325.016 148.832 325.016 148.284 325.35 147.956C325.683 147.573 326.294 147.573 326.628 147.901L334.962 155.946C335.295 156.329 335.295 156.876 334.962 157.204Z" fill="#407BFF"/>
<path fill-rule="evenodd" clip-rule="evenodd" d="M282.288 362.692C281.177 362.364 280.399 360.229 280.065 359.025C280.065 358.971 280.065 358.916 280.121 358.861C280.177 358.806 280.288 358.806 280.343 358.806C280.677 359.025 283.732 360.612 283.844 361.816C283.844 361.98 283.788 362.254 283.51 362.473C283.214 362.692 282.936 362.801 282.677 362.801C282.566 362.801 282.436 362.765 282.288 362.692ZM282.399 362.363C282.695 362.473 282.992 362.4 283.288 362.145C283.455 362.035 283.455 361.926 283.455 361.816C283.399 361.105 281.621 359.956 280.565 359.354C281.066 361.05 281.788 362.145 282.399 362.363Z" fill="#407BFF"/>
<path fill-rule="evenodd" clip-rule="evenodd" d="M280.121 359.134C280.084 359.097 280.065 359.042 280.065 358.969C280.065 358.896 280.102 358.842 280.177 358.805C280.232 358.75 282.677 357.492 283.955 357.93C284.325 358.039 284.566 358.258 284.677 358.586C284.899 359.079 284.677 359.407 284.51 359.517C284.233 359.736 283.732 359.845 283.121 359.845C282.066 359.845 280.732 359.517 280.121 359.134ZM280.677 358.969C281.677 359.407 283.677 359.681 284.288 359.243C284.344 359.134 284.455 359.024 284.344 358.75C284.233 358.532 284.066 358.367 283.844 358.258C283.695 358.221 283.529 358.203 283.344 358.203C282.455 358.203 281.232 358.696 280.677 358.969Z" fill="#407BFF"/>
<path fill-rule="evenodd" clip-rule="evenodd" d="M343.074 386.168C342.963 386.113 342.907 386.058 342.907 386.004C342.907 385.894 342.963 385.839 343.018 385.785C343.463 385.566 347.63 383.705 348.686 384.417C348.797 384.471 348.963 384.635 348.963 384.964C348.926 385.402 348.741 385.748 348.408 386.004C347.852 386.387 347.074 386.551 346.185 386.551C345.074 386.551 343.907 386.332 343.074 386.168ZM343.685 385.894C344.963 386.113 347.241 386.441 348.13 385.73C348.389 385.548 348.537 385.292 348.574 384.964C348.574 384.8 348.519 384.745 348.463 384.69C348.352 384.617 348.204 384.581 348.019 384.581C347.019 384.581 345.13 385.292 343.685 385.894Z" fill="#407BFF"/>
<path fill-rule="evenodd" clip-rule="evenodd" d="M342.963 386.114C342.926 386.077 342.907 386.022 342.907 385.949C342.963 385.73 343.907 381.736 346.13 382.009C346.685 382.064 346.852 382.338 346.908 382.556C347.019 383.596 344.407 385.621 343.185 386.168C343.148 386.168 343.111 386.168 343.074 386.168C343.037 386.168 343 386.15 342.963 386.114ZM343.407 385.621C344.741 384.91 346.63 383.268 346.519 382.611C346.519 382.556 346.463 382.392 346.074 382.338C346.037 382.338 346 382.338 345.963 382.338C344.519 382.338 343.685 384.691 343.407 385.621Z" fill="#407BFF"/>
<path d="M366.299 107.788L364.41 107.351C364.41 107.351 365.466 108.772 366.299 107.788Z" fill="#263238"/>
<path d="M169.942 391.148L295.622 380.313C304.123 379.601 310.457 372.159 309.735 363.786L283.51 68.4967C282.788 60.124 275.231 53.8855 266.73 54.5969L141.051 65.4322C132.55 66.1436 126.216 73.6408 126.938 82.0135L153.163 377.248C153.885 385.621 161.442 391.914 169.942 391.148Z" fill="#407BFF"/>
<path d="M136.384 169.188C138.829 168.969 140.607 166.835 140.385 164.482L136.94 125.464C136.718 123.111 134.551 121.305 132.162 121.524C129.717 121.743 127.939 123.822 128.161 126.23L131.606 165.193C131.828 167.601 133.94 169.407 136.384 169.188Z" fill="#407BFF"/>
<path d="M289.845 138.379L291.401 138.269C293.235 138.105 294.568 136.518 294.402 134.767L292.29 110.962C292.124 109.211 290.512 107.898 288.734 108.062L287.179 108.171C285.401 108.335 284.067 109.922 284.234 111.674L286.345 135.478C286.456 137.23 288.068 138.543 289.845 138.379Z" fill="#263238"/>
<path d="M293.401 178.382L294.957 178.218C296.735 178.109 298.124 176.522 297.957 174.716L295.846 150.966C295.679 149.16 294.068 147.846 292.29 148.01L290.734 148.12C288.956 148.284 287.623 149.871 287.734 151.622L289.845 175.427C290.012 177.178 291.623 178.546 293.401 178.382Z" fill="#263238"/>
<path d="M172.61 390.929L298.289 380.093C306.79 379.382 313.124 371.939 312.402 363.567L286.177 68.2771C285.455 59.9044 277.898 53.6659 269.398 54.3773L143.718 65.2126C135.217 65.924 128.827 73.3665 129.605 81.7392L155.775 377.029C156.552 385.402 164.109 391.64 172.61 390.929Z" fill="#263238"/>
<path d="M160.219 372.542L307.235 359.901C308.79 359.737 310.013 358.369 309.846 356.782L284.954 75.9391C284.788 74.3521 283.399 73.2029 281.787 73.3124L134.772 85.9536C133.216 86.1178 131.994 87.4858 132.161 89.0728L157.052 369.915C157.219 371.502 158.608 372.652 160.219 372.542Z" fill="#407BFF" fill-opacity="0.4"/>
<path d="M262.399 75.0084L243.897 365.318L213.172 367.945L231.674 77.6351L262.399 75.0084Z" fill="#407BFF" fill-opacity="0.3"/>
<path d="M222.893 65.6511L191.501 68.3872C190.778 68.442 190.223 69.0439 190.278 69.7553L190.389 71.014C190.445 71.7254 191.112 72.2726 191.834 72.2179L223.226 69.5364C223.948 69.4817 224.504 68.825 224.393 68.1136L224.282 66.855C224.226 66.1436 223.615 65.5963 222.893 65.6511Z" fill="white" fill-opacity="0.2"/>
<path d="M193.616 178.162H346.521C354.799 178.162 361.522 184.838 361.522 192.938V266.815C361.522 274.969 354.799 281.59 346.521 281.59H293.626L270.068 304.793L246.51 281.59H193.616C185.337 281.59 178.614 274.969 178.614 266.815V192.938C178.614 184.838 185.337 178.162 193.616 178.162Z" fill="#407BFF"/>
<path d="M193.616 178.162H346.521C354.799 178.162 361.522 184.838 361.522 192.938V266.815C361.522 274.969 354.799 281.59 346.521 281.59H293.626L270.068 304.793L246.51 281.59H193.616C185.337 281.59 178.614 274.969 178.614 266.815V192.938C178.614 184.838 185.337 178.162 193.616 178.162Z" fill="white" fill-opacity="0.3"/>
<path d="M203.391 203.774V255.98C203.391 260.249 206.891 263.697 211.058 263.697H329.07C333.293 263.697 336.738 260.249 336.738 255.98V203.774C336.738 202.789 336.516 201.804 336.182 200.874C335.016 198.083 332.237 196.058 329.07 196.058H211.058C207.891 196.058 205.113 198.083 204.002 200.874C203.613 201.804 203.391 202.734 203.391 203.774Z" fill="white"/>
<path d="M204.004 200.874L261.01 225.335C266.788 227.853 273.345 227.853 279.123 225.335L336.184 200.874C335.018 198.083 332.24 196.058 329.073 196.058H211.06C207.893 196.058 205.115 198.083 204.004 200.874Z" fill="black" fill-opacity="0.1"/>
<path d="M167.611 184.729C167.611 197.152 177.835 207.221 190.391 207.221C203.004 207.221 213.227 197.152 213.227 184.729C213.227 172.362 203.004 162.292 190.391 162.292C177.835 162.292 167.611 172.362 167.611 184.729Z" fill="#DE5753"/>
<path d="M194.835 198.411H189.501V178.71C187.575 180.498 185.297 181.83 182.667 182.705V177.944C184.038 177.506 185.538 176.667 187.167 175.427C188.797 174.186 189.908 172.727 190.501 171.049H194.835V198.411Z" fill="white"/>
<path d="M318.682 45.5122C317.071 45.5122 315.682 44.363 315.459 42.776C312.292 22.2546 292.79 8.0264 271.955 11.1457C270.121 11.4193 268.454 10.1606 268.177 8.40947C267.899 6.60358 269.177 4.96187 270.955 4.68825C295.402 1.07648 318.293 17.7125 321.96 41.791C322.238 43.5421 321.016 45.2386 319.182 45.5122C319.034 45.5122 318.867 45.5122 318.682 45.5122Z" fill="#407BFF"/>
<path d="M302.29 47.9758C300.679 47.9758 299.235 46.8266 299.012 45.1849C297.234 33.5835 286.178 25.5938 274.399 27.2902C272.621 27.5639 270.954 26.3599 270.676 24.554C270.398 22.8029 271.621 21.1612 273.454 20.8876C288.845 18.5892 303.235 29.0414 305.569 44.1999C305.846 46.0058 304.568 47.6475 302.791 47.9211C302.605 47.9576 302.439 47.9758 302.29 47.9758Z" fill="#407BFF"/>
<path d="M285.845 50.3838C284.233 50.3838 282.844 49.2346 282.566 47.6476C282.4 46.3342 281.677 45.185 280.622 44.4189C279.511 43.598 278.233 43.3244 276.899 43.4886C275.066 43.7622 273.399 42.5583 273.121 40.7524C272.843 39.0012 274.121 37.3048 275.899 37.0312C278.955 36.5934 282.066 37.3595 284.511 39.1654C287.011 40.9713 288.678 43.6528 289.123 46.6626C289.4 48.4137 288.123 50.1102 286.345 50.3838C286.159 50.3838 285.993 50.3838 285.845 50.3838Z" fill="#407BFF"/>
</svg>
