<svg width="54" height="52" viewBox="0 0 54 52" fill="none" xmlns="http://www.w3.org/2000/svg">
<path d="M15.0681 42.1407L10.6407 41.818L8.96117 37.7702C8.85357 37.5175 8.60222 37.3534 8.32398 37.3534C8.04574 37.3534 7.7948 37.5179 7.68719 37.7706L6.00768 41.8184L1.57987 42.1407C1.30244 42.1621 1.06514 42.3459 0.979215 42.6066C0.892892 42.8672 0.974799 43.1535 1.18639 43.3314L4.57595 46.1557L3.51921 50.4049C3.45578 50.6714 3.56097 50.9494 3.78582 51.1104C4.01067 51.2714 4.31179 51.2836 4.54949 51.142L8.3245 48.8397L12.0987 51.142C12.3364 51.2836 12.6375 51.2713 12.8624 51.1104C13.0872 50.9495 13.1924 50.6715 13.129 50.4049L12.0722 46.1581L15.4618 43.3339C15.6738 43.1555 15.7553 42.8696 15.6694 42.609C15.583 42.348 15.3457 42.1645 15.0683 42.1431L15.0681 42.1407ZM33.5369 42.1407L29.1087 41.818L27.4292 37.7702C27.3236 37.5155 27.0714 37.3494 26.7924 37.3494C26.5129 37.3494 26.2616 37.5159 26.1556 37.7706L24.4761 41.8184L20.0479 42.1411C19.772 42.1648 19.5372 42.3483 19.4512 42.6077C19.3657 42.8672 19.4456 43.1523 19.6544 43.3314L23.0447 46.1557L21.9871 50.4033C21.9237 50.6698 22.0289 50.9478 22.2537 51.1088C22.479 51.2697 22.7797 51.282 23.0174 51.14L26.7912 48.84L30.5662 51.1423C30.8039 51.2843 31.1046 51.2717 31.3299 51.1107C31.5547 50.9502 31.6599 50.6718 31.5965 50.4052L30.5389 46.1585L33.9288 43.3338C34.1404 43.1554 34.2219 42.8695 34.1359 42.6089C34.05 42.3483 33.8127 42.1644 33.5353 42.143L33.5369 42.1407ZM52.6049 42.6074C52.5178 42.3464 52.2801 42.1621 52.0022 42.1408L47.5748 41.8181L45.8953 37.7703C45.7877 37.5176 45.5364 37.3534 45.2581 37.3534C44.9799 37.3534 44.729 37.518 44.6213 37.7706L42.9418 41.8185L38.5144 42.1412C38.237 42.1625 37.9993 42.346 37.913 42.6066C37.8271 42.8672 37.9086 43.1535 38.1206 43.3315L41.5101 46.1558L40.4534 50.4025C40.3899 50.6691 40.4951 50.9471 40.72 51.108C40.9448 51.269 41.246 51.2812 41.4837 51.1397L45.2578 48.8374L49.0328 51.1397C49.2705 51.2812 49.5717 51.269 49.7965 51.108C50.0214 50.9471 50.1265 50.6691 50.0631 50.4025L49.0092 46.1581L52.3987 43.3338C52.6103 43.1551 52.6922 42.8684 52.6063 42.6074L52.6049 42.6074ZM22.5039 33.4163H38.114C40.3122 33.4163 42.0769 31.8503 42.5049 29.5203L44.5031 18.6253C44.5878 17.52 44.2088 16.4289 43.4552 15.606C42.7032 14.668 41.5625 14.1136 40.3496 14.097H32.3283V7.39046C32.3283 4.06981 30.4817 1.96441 28.7533 1.10116C27.2652 0.358501 25.7199 0.388943 24.6182 1.18381C23.924 1.68485 22.8287 2.94482 23.2976 5.75169L23.302 5.77898C24.3463 10.768 22.2175 12.2984 20.3393 13.6438C19.6042 14.1061 18.9585 14.6929 18.4314 15.3775C18.1468 15.209 17.8207 15.1197 17.4887 15.1197H10.8875C10.3996 15.1208 9.93189 15.3122 9.58662 15.6523C9.24132 15.992 9.047 16.4531 9.04579 16.9336V31.1451C9.047 31.626 9.24132 32.0871 9.58662 32.4268C9.93152 32.7669 10.3997 32.9583 10.8875 32.9594H17.4887C18.1423 32.959 18.747 32.6174 19.0774 32.0618C19.9917 32.9436 21.2243 33.4316 22.5039 33.4174L22.5039 33.4163ZM21.1496 14.7362C23.1407 13.3062 25.8697 11.3483 24.6519 5.51577C24.3962 3.97152 24.6728 2.82076 25.4296 2.27459C25.8404 2.03812 26.3085 1.91631 26.7844 1.92185C27.2601 1.92778 27.7251 2.06065 28.1298 2.30702C29.4934 2.98721 30.9504 4.6805 30.9504 7.38786V14.7742C30.9504 15.1498 31.2595 15.4543 31.641 15.4543H40.3497C41.1539 15.4737 41.9064 15.8486 42.399 16.475C42.8824 16.997 43.1494 17.6784 43.1474 18.385L41.1503 29.2791C40.915 30.5619 39.9783 32.0603 38.1141 32.0603H22.504C20.786 32.0603 19.3337 30.8795 19.3337 29.4815V16.9353C19.3337 16.0839 19.99 15.5718 21.1496 14.7362ZM17.9576 31.1435C17.9576 31.3986 17.7476 31.605 17.4886 31.605H10.8874C10.6289 31.6046 10.4193 31.3982 10.4193 31.1435V16.935C10.4193 16.6803 10.6289 16.4739 10.8874 16.4735H17.4886C17.7476 16.4735 17.9576 16.6803 17.9576 16.935V31.1435Z" fill="#225E9F"/>
<path d="M15.0682 42.1413L15.566 42.0986L15.5292 41.6814L15.1051 41.6505L15.0682 42.1413ZM10.6409 41.8186L10.1783 42.0047L10.2954 42.2869L10.604 42.3094L10.6409 41.8186ZM8.96134 37.7707L9.42388 37.5846L9.4221 37.5804L8.96134 37.7707ZM7.68736 37.7711L7.22657 37.5808L7.22484 37.585L7.68736 37.7711ZM6.00784 41.819L6.04467 42.3098L6.35329 42.2873L6.47036 42.0051L6.00784 41.819ZM1.58004 42.1413L1.54321 41.6505L1.54111 41.6506L1.58004 42.1413ZM1.18655 43.332L0.862083 43.7062L0.863846 43.7077L1.18655 43.332ZM4.57612 46.1563L5.06143 46.2733L5.13503 45.9774L4.89883 45.7806L4.57612 46.1563ZM3.51938 50.4055L3.03405 50.2884L3.03291 50.2931L3.51938 50.4055ZM4.54965 51.1426L4.80821 51.5637L4.8127 51.561L4.54965 51.1426ZM8.32466 48.8403L8.58775 48.4219L8.32469 48.2614L8.06162 48.4219L8.32466 48.8403ZM12.0988 51.1426L11.8357 51.561L11.8403 51.5637L12.0988 51.1426ZM13.1291 50.4055L13.6156 50.2932L13.6144 50.2883L13.1291 50.4055ZM12.0724 46.1587L11.7497 45.783L11.5134 45.9798L11.5871 46.2758L12.0724 46.1587ZM15.4619 43.3344L15.7847 43.7101L15.7865 43.7086L15.4619 43.3344ZM15.0685 42.1437L14.5707 42.1863L14.6074 42.6018L15.0295 42.6343L15.0685 42.1437ZM11.3921 49.1194L11.129 49.5378L12.1684 50.1719L11.8773 49.0023L11.3921 49.1194ZM3.36034 43.3704L3.32359 42.8796L2.10402 42.9682L3.03763 43.7461L3.36034 43.3704ZM6.53426 43.1398L6.57101 43.6306L6.5727 43.6305L6.53426 43.1398ZM8.32459 39.8188L8.78712 39.6327L8.32467 38.518L7.86208 39.6326L8.32459 39.8188ZM9.52831 42.7202L9.06578 42.9064L9.06644 42.908L9.52831 42.7202ZM10.1141 43.1398L10.0757 43.6305L10.0774 43.6306L10.1141 43.1398ZM13.288 43.3704L13.6107 43.7461L14.5444 42.9682L13.3248 42.8796L13.288 43.3704ZM33.5371 42.1413L33.948 42.4213L34.4449 41.7139L33.574 41.6505L33.5371 42.1413ZM29.1089 41.8186L28.6464 42.0047L28.7634 42.2869L29.072 42.3094L29.1089 41.8186ZM24.4763 41.819L24.5131 42.3097L24.8217 42.2873L24.9388 42.0051L24.4763 41.819ZM20.048 42.1417L20.0112 41.6508L20.0046 41.6514L20.048 42.1417ZM19.6546 43.332L19.3263 43.7031L19.3319 43.7077L19.6546 43.332ZM23.0449 46.1563L23.5301 46.2735L23.6038 45.9774L23.3675 45.7805L23.0449 46.1563ZM21.9873 50.4038L21.502 50.2866L21.5008 50.2915L21.9873 50.4038ZM23.0176 51.1406L23.2767 51.5614L23.2805 51.559L23.0176 51.1406ZM26.7913 48.8406L27.0544 48.4222L26.7914 48.2618L26.5284 48.4221L26.7913 48.8406ZM30.5664 51.1429L30.3033 51.5613L30.3073 51.5637L30.5664 51.1429ZM31.5966 50.4058L32.0831 50.2935L32.0819 50.2885L31.5966 50.4058ZM30.5391 46.159L30.2163 45.7833L29.9801 45.9802L30.0538 46.2762L30.5391 46.159ZM33.9289 43.3343L34.2517 43.71L34.2538 43.7082L33.9289 43.3343ZM33.5354 42.1436L33.1246 41.8636L32.63 42.5675L33.4965 42.6342L33.5354 42.1436ZM29.8581 49.1195L29.595 49.5378L30.6347 50.172L30.3434 49.0022L29.8581 49.1195ZM21.8272 43.3708L21.7903 42.88L20.5711 42.969L21.5045 43.7465L21.8272 43.3708ZM26.7914 39.8188L27.254 39.6326L26.7915 38.5183L26.329 39.6326L26.7914 39.8188ZM31.7553 43.3704L32.0779 43.7462L33.0121 42.9682L31.792 42.8796L31.7553 43.3704ZM52.6051 42.608L52.1304 42.7617L52.247 43.1109L52.6201 43.0999L52.6051 42.608ZM52.0024 42.1413L52.0413 41.6507L52.0393 41.6505L52.0024 42.1413ZM47.575 41.8186L47.1125 42.0048L47.2295 42.2869L47.5381 42.3094L47.575 41.8186ZM45.8955 37.7708L46.358 37.5846L46.3563 37.5805L45.8955 37.7708ZM44.6215 37.7712L44.1607 37.5809L44.159 37.585L44.6215 37.7712ZM42.942 41.819L42.9789 42.3098L43.2875 42.2873L43.4045 42.0052L42.942 41.819ZM38.5146 42.1417L38.4777 41.6509L38.4757 41.6511L38.5146 42.1417ZM38.1207 43.332L37.7966 43.7066L37.798 43.7078L38.1207 43.332ZM41.5103 46.1563L41.9956 46.2735L42.0692 45.9775L41.833 45.7806L41.5103 46.1563ZM40.4535 50.4031L39.9682 50.2859L39.9671 50.2908L40.4535 50.4031ZM41.4838 51.1402L41.7424 51.5614L41.7469 51.5586L41.4838 51.1402ZM45.258 48.8379L45.521 48.4195L45.258 48.2591L44.9949 48.4195L45.258 48.8379ZM49.033 51.1402L48.77 51.5586L48.7745 51.5613L49.033 51.1402ZM50.0633 50.4031L50.5498 50.2908L50.5486 50.2862L50.0633 50.4031ZM49.0093 46.1587L48.6866 45.7829L48.4505 45.9797L48.524 46.2756L49.0093 46.1587ZM52.3989 43.3344L52.7216 43.7101L52.7242 43.7079L52.3989 43.3344ZM52.6065 42.6079L53.0817 42.4561L52.9661 42.1049L52.5914 42.116L52.6065 42.6079ZM47.5674 46.0753L48.0527 45.9581L48.0523 45.9568L47.5674 46.0753ZM48.325 49.1195L48.0619 49.5378L49.1014 50.1719L48.8103 49.0023L48.325 49.1195ZM45.6197 47.4692L45.3554 47.8869L45.3566 47.8876L45.6197 47.4692ZM44.895 47.4692L45.158 47.8876L45.1592 47.8869L44.895 47.4692ZM42.1896 49.1195L41.7044 49.0023L41.4133 50.1719L42.4527 49.5378L42.1896 49.1195ZM43.4684 43.1398L43.5052 43.6306L43.5069 43.6305L43.4684 43.1398ZM44.0546 42.7203L44.5165 42.908L44.5172 42.9064L44.0546 42.7203ZM45.2584 39.8188L45.7209 39.6326L45.2583 38.518L44.7958 39.6327L45.2584 39.8188ZM47.0483 43.1398L47.0098 43.6305L47.0115 43.6306L47.0483 43.1398ZM50.2222 43.3704L50.5449 43.7461L51.4788 42.9682L50.259 42.8796L50.2222 43.3704ZM22.5041 33.4168V32.9247H22.0061L22.0044 33.4152L22.5041 33.4168ZM44.5033 18.6258L44.995 18.7133L44.9996 18.6882L45.0015 18.6629L44.5033 18.6258ZM43.4554 15.6065L43.0632 15.9115L43.0734 15.9242L43.0844 15.9361L43.4554 15.6065ZM40.3497 14.0975L40.3567 13.6054H40.3497V14.0975ZM32.3284 14.0975H31.8288V14.5896H32.3284V14.0975ZM23.2978 5.75224L23.7912 5.67477L23.7908 5.67234L23.2978 5.75224ZM23.3022 5.77953L22.8088 5.857L22.8106 5.868L22.8128 5.8789L23.3022 5.77953ZM20.3395 13.6444L20.6084 14.0592L20.6211 14.0511L20.6334 14.0424L20.3395 13.6444ZM18.4316 15.378L18.1742 15.7999L18.5587 16.0274L18.8297 15.6754L18.4316 15.378ZM10.8876 15.1202V14.6281H10.8864L10.8876 15.1202ZM9.04596 16.9341L8.54631 16.9329V16.9341H9.04596ZM9.04596 31.1457H8.5463L8.54631 31.1469L9.04596 31.1457ZM10.8876 32.96L10.8864 33.4521H10.8876V32.96ZM19.0776 32.0623L19.4272 31.7107L18.97 31.2697L18.6465 31.8136L19.0776 32.0623ZM22.5041 33.418L22.5097 33.9101L23.0021 33.9046L23.0037 33.4196L22.5041 33.418ZM24.6521 5.51632L24.159 5.59555L24.1606 5.60554L24.1627 5.61545L24.6521 5.51632ZM25.4298 2.27514L25.1777 1.85028L25.1553 1.86313L25.1345 1.87817L25.4298 2.27514ZM28.13 2.30757L27.8673 2.72619L27.8853 2.73716L27.9042 2.74659L28.13 2.30757ZM40.3498 15.4549L40.3621 14.9628H40.3498V15.4549ZM42.3992 16.4756L42.0042 16.7769L42.0165 16.7926L42.03 16.8072L42.3992 16.4756ZM43.1476 18.3856L43.6393 18.473L43.6471 18.4303L43.6472 18.387L43.1476 18.3856ZM15.1051 41.6505L10.6777 41.3278L10.604 42.3094L15.0314 42.632L15.1051 41.6505ZM11.1034 41.6324L9.42388 37.5846L8.49882 37.9569L10.1783 42.0047L11.1034 41.6324ZM9.4221 37.5804C9.23639 37.1443 8.80302 36.8618 8.32415 36.8618V37.8461C8.40176 37.8461 8.47107 37.8918 8.50057 37.9611L9.4221 37.5804ZM8.32415 36.8618C7.84444 36.8618 7.41196 37.1454 7.22657 37.5808L8.14813 37.9615C8.17795 37.8914 8.24738 37.8461 8.32415 37.8461V36.8618ZM7.22484 37.585L5.54532 41.6328L6.47036 42.0051L8.14988 37.9573L7.22484 37.585ZM5.97102 41.3282L1.54321 41.6505L1.61686 42.632L6.04467 42.3098L5.97102 41.3282ZM1.54111 41.6506C1.06245 41.6875 0.652663 42.0047 0.504158 42.4551L1.45439 42.7597C1.47774 42.6889 1.54275 42.6378 1.61897 42.6319L1.54111 41.6506ZM0.504158 42.4551C0.355045 42.9053 0.496719 43.3989 0.862083 43.7062L1.51102 42.9577C1.4532 42.9091 1.43086 42.8308 1.45439 42.7597L0.504158 42.4551ZM0.863846 43.7077L4.25341 46.532L4.89883 45.7806L1.50926 42.9563L0.863846 43.7077ZM4.09081 46.0392L3.03405 50.2884L4.00469 50.5225L5.06143 46.2733L4.09081 46.0392ZM3.03291 50.2931C2.92351 50.7528 3.10498 51.2318 3.49223 51.509L4.07974 50.7129C4.01729 50.6682 3.98838 50.5912 4.00584 50.5178L3.03291 50.2931ZM3.49223 51.509C3.88002 51.7866 4.39881 51.8076 4.80821 51.5637L4.2911 50.7215C4.22512 50.7608 4.14165 50.7572 4.07974 50.7129L3.49223 51.509ZM4.8127 51.561L8.58771 49.2587L8.06162 48.4219L4.2866 50.7242L4.8127 51.561ZM8.06157 49.2587L11.8357 51.561L12.3619 50.7242L8.58775 48.4219L8.06157 49.2587ZM11.8403 51.5637C12.2497 51.8075 12.7685 51.7866 13.1563 51.509L12.5688 50.7129C12.5069 50.7572 12.4234 50.7608 12.3574 50.7215L11.8403 51.5637ZM13.1563 51.509C13.5435 51.2318 13.725 50.7528 13.6156 50.2932L12.6427 50.5178C12.6601 50.5912 12.6312 50.6682 12.5688 50.7129L13.1563 51.509ZM13.6144 50.2883L12.5577 46.0416L11.5871 46.2758L12.6438 50.5226L13.6144 50.2883ZM12.3951 46.5344L15.7847 43.7101L15.1392 42.9587L11.7497 45.783L12.3951 46.5344ZM15.7865 43.7086C16.1523 43.4008 16.293 42.9072 16.1447 42.4575L15.1943 42.7615C15.2179 42.8331 15.1956 42.9113 15.1374 42.9602L15.7865 43.7086ZM16.1447 42.4575C15.9957 42.0069 15.5858 41.6899 15.1074 41.6531L15.0295 42.6343C15.106 42.6402 15.1707 42.6902 15.1943 42.7615L16.1447 42.4575ZM15.5662 42.1011L15.566 42.0986L14.5705 42.1839L14.5707 42.1863L15.5662 42.1011ZM10.5358 45.019C10.1914 45.3063 10.0419 45.7611 10.1491 46.1923L11.1197 45.9582C11.1025 45.8888 11.1267 45.8158 11.1814 45.7702L10.5358 45.019ZM10.1491 46.1923L10.9068 49.2366L11.8773 49.0023L11.1197 45.9582L10.1491 46.1923ZM11.6551 48.7011L8.94982 47.0508L8.42281 47.8871L11.129 49.5378L11.6551 48.7011ZM8.94982 47.0508C8.56634 46.8159 8.08129 46.8161 7.69775 47.0515L8.22628 47.8868C8.28601 47.8502 8.36222 47.8499 8.42281 47.8871L8.94982 47.0508ZM6.49912 46.1944C6.60901 45.7608 6.45717 45.3053 6.11243 45.0189L5.46759 45.7708C5.52275 45.8166 5.54654 45.8891 5.52956 45.9561L6.49912 46.1944ZM6.11243 45.0189L3.68305 42.9946L3.03763 43.7461L5.46759 45.7708L6.11243 45.0189ZM3.39709 43.8611L6.57101 43.6306L6.49751 42.649L3.32359 42.8796L3.39709 43.8611ZM6.5727 43.6305C7.02042 43.5965 7.41151 43.3173 7.5826 42.9073L6.65831 42.5332C6.63106 42.5985 6.56843 42.6436 6.49582 42.6492L6.5727 43.6305ZM7.5826 42.9073L8.7871 40.005L7.86208 39.6326L6.65831 42.5332L7.5826 42.9073ZM7.86206 40.005L9.06578 42.9064L9.99084 42.5341L8.78712 39.6327L7.86206 40.005ZM9.06644 42.908C9.23766 43.3167 9.62709 43.5964 10.0757 43.6305L10.1525 42.6492C10.0808 42.6437 10.0181 42.5992 9.99019 42.5325L9.06644 42.908ZM10.0774 43.6306L13.2513 43.8611L13.3248 42.8796L10.1509 42.649L10.0774 43.6306ZM12.9653 42.9946L10.5358 45.019L11.1814 45.7702L13.6107 43.7461L12.9653 42.9946ZM33.574 41.6505L29.1457 41.3278L29.072 42.3094L33.5002 42.632L33.574 41.6505ZM29.5714 41.6324L27.8919 37.5846L26.9668 37.9568L28.6464 42.0047L29.5714 41.6324ZM27.8919 37.5846C27.7092 37.144 27.2738 36.8579 26.7926 36.8579V37.8421C26.8694 37.8421 26.9383 37.888 26.9668 37.9568L27.8919 37.5846ZM26.7926 36.8579C26.3098 36.8579 25.8762 37.1455 25.6935 37.5845L26.6181 37.9578C26.6474 37.8874 26.7164 37.8421 26.7926 37.8421V36.8579ZM25.6935 37.5845L24.0137 41.6328L24.9388 42.0051L26.6181 37.9578L25.6935 37.5845ZM24.4394 41.3282L20.0112 41.6508L20.0849 42.6324L24.5131 42.3097L24.4394 41.3282ZM20.0046 41.6514C19.5295 41.6923 19.1245 42.0084 18.9764 42.4557L19.9264 42.7609C19.9501 42.6893 20.015 42.6385 20.0915 42.6319L20.0046 41.6514ZM18.9764 42.4557C18.8291 42.9024 18.9663 43.3941 19.3263 43.7031L19.9828 42.9609C19.9253 42.9116 19.9026 42.8331 19.9264 42.7609L18.9764 42.4557ZM19.3319 43.7077L22.7222 46.532L23.3675 45.7805L19.9772 42.9562L19.3319 43.7077ZM22.5596 46.0391L21.502 50.2866L22.4726 50.521L23.5301 46.2735L22.5596 46.0391ZM21.5008 50.2915C21.3914 50.7512 21.5729 51.2302 21.9601 51.5074L22.5477 50.7112C22.4852 50.6665 22.4563 50.5895 22.4738 50.5161L21.5008 50.2915ZM21.9601 51.5074C22.348 51.7846 22.8668 51.8061 23.2767 51.5614L22.7585 50.7198C22.6929 50.7589 22.6103 50.756 22.5477 50.7112L21.9601 51.5074ZM23.2805 51.559L27.0543 49.2591L26.5284 48.4221L22.7547 50.7221L23.2805 51.559ZM26.5283 49.259L30.3033 51.5613L30.8294 50.7245L27.0544 48.4222L26.5283 49.259ZM30.3073 51.5637C30.7176 51.8088 31.236 51.7864 31.6234 51.5096L31.0367 50.7128C30.9737 50.7579 30.8905 50.761 30.8254 50.7221L30.3073 51.5637ZM31.6234 51.5096C32.0115 51.2325 32.1924 50.7528 32.0831 50.2935L31.1102 50.5181C31.1277 50.5918 31.0984 50.6688 31.0367 50.7128L31.6234 51.5096ZM32.0819 50.2885L31.0243 46.0418L30.0538 46.2762L31.1114 50.523L32.0819 50.2885ZM30.8618 46.5347L34.2517 43.71L33.6062 42.9586L30.2163 45.7833L30.8618 46.5347ZM34.2538 43.7082C34.6189 43.4004 34.7596 42.907 34.6113 42.4574L33.6609 42.7614C33.6845 42.8331 33.6621 42.9115 33.6041 42.9604L34.2538 43.7082ZM34.6113 42.4574C34.4628 42.007 34.0531 41.6898 33.5744 41.653L33.4965 42.6342C33.5727 42.6401 33.6375 42.6906 33.6609 42.7614L34.6113 42.4574ZM33.9463 42.4236L33.948 42.4213L33.1262 41.8612L33.1246 41.8636L33.9463 42.4236ZM29.0015 45.0193C28.6572 45.3065 28.5075 45.761 28.6147 46.1923L29.5854 45.9582C29.5682 45.8889 29.5922 45.8164 29.6471 45.7706L29.0015 45.0193ZM28.6147 46.1923L29.3728 49.2367L30.3434 49.0022L29.5854 45.9582L28.6147 46.1923ZM30.1212 48.7011L27.4159 47.0508L26.8896 47.8875L29.595 49.5378L30.1212 48.7011ZM27.4159 47.0508C27.033 46.8172 26.5486 46.8172 26.1657 47.0509L26.692 47.8876C26.7524 47.8507 26.8292 47.8507 26.8896 47.8875L27.4159 47.0508ZM26.1657 47.0509L23.4605 48.7011L23.9866 49.5378L26.692 47.8876L26.1657 47.0509ZM24.5802 45.0193L22.1498 42.995L21.5045 43.7465L23.9349 45.7709L24.5802 45.0193ZM21.8641 43.8615L25.0385 43.6298L24.9654 42.6482L21.7903 42.88L21.8641 43.8615ZM25.0385 43.6298C25.4886 43.5976 25.8795 43.3166 26.0498 42.906L25.1248 42.5336C25.0976 42.5992 25.0355 42.6432 24.9654 42.6482L25.0385 43.6298ZM26.0498 42.906L27.2539 40.0051L26.329 39.6326L25.1248 42.5336L26.0498 42.906ZM26.3289 40.005L27.5331 42.9065L28.4581 42.5341L27.254 39.6326L26.3289 40.005ZM27.5331 42.9065C27.7034 43.3171 28.0949 43.5978 28.5445 43.6306L28.6183 42.6491C28.5475 42.6439 28.4853 42.5996 28.4581 42.5341L27.5331 42.9065ZM28.5445 43.6306L31.7185 43.8612L31.792 42.8796L28.6183 42.6491L28.5445 43.6306ZM31.4327 42.9946L29.0015 45.0193L29.6471 45.7706L32.0779 43.7462L31.4327 42.9946ZM53.0797 42.4543C52.9299 42.0053 52.5208 41.6876 52.0413 41.6507L51.9635 42.632C52.0397 42.6378 52.106 42.6886 52.1304 42.7617L53.0797 42.4543ZM52.0393 41.6505L47.6119 41.3279L47.5381 42.3094L51.9655 42.6321L52.0393 41.6505ZM48.0375 41.6325L46.358 37.5846L45.433 37.957L47.1125 42.0048L48.0375 41.6325ZM46.3563 37.5805C46.1705 37.1444 45.7372 36.8619 45.2583 36.8619V37.8461C45.3359 37.8461 45.4052 37.8919 45.4347 37.9611L46.3563 37.5805ZM45.2583 36.8619C44.7786 36.8619 44.3461 37.1455 44.1607 37.5809L45.0823 37.9615C45.1121 37.8915 45.1815 37.8461 45.2583 37.8461V36.8619ZM44.159 37.585L42.4795 41.6329L43.4045 42.0052L45.084 37.9574L44.159 37.585ZM42.9051 41.3282L38.4777 41.6509L38.5515 42.6325L42.9789 42.3098L42.9051 41.3282ZM38.4757 41.6511C37.9977 41.6879 37.5874 42.004 37.4381 42.4545L38.3882 42.7598C38.4116 42.6891 38.4766 42.6383 38.5535 42.6323L38.4757 41.6511ZM37.4381 42.4545C37.29 42.9038 37.4301 43.3989 37.7966 43.7066L38.4448 42.9575C38.3874 42.9093 38.3644 42.8317 38.3882 42.7598L37.4381 42.4545ZM37.798 43.7078L41.1876 46.532L41.833 45.7806L38.4434 42.9563L37.798 43.7078ZM41.025 46.0392L39.9682 50.2859L40.9388 50.5202L41.9956 46.2735L41.025 46.0392ZM39.9671 50.2908C39.8577 50.7504 40.0391 51.2295 40.4264 51.5067L41.0139 50.7105C40.9515 50.6658 40.9225 50.5888 40.94 50.5154L39.9671 50.2908ZM40.4264 51.5067C40.8142 51.7842 41.333 51.8052 41.7424 51.5614L41.2253 50.7191C41.1593 50.7584 41.0758 50.7548 41.0139 50.7105L40.4264 51.5067ZM41.7469 51.5586L45.5211 49.2563L44.9949 48.4195L41.2207 50.7218L41.7469 51.5586ZM44.995 49.2563L48.77 51.5586L49.2961 50.7218L45.521 48.4195L44.995 49.2563ZM48.7745 51.5613C49.1839 51.8052 49.7027 51.7842 50.0904 51.5067L49.5029 50.7105C49.441 50.7548 49.3575 50.7584 49.2916 50.7191L48.7745 51.5613ZM50.0904 51.5067C50.4777 51.2295 50.6592 50.7504 50.5498 50.2908L49.5768 50.5154C49.5943 50.5888 49.5654 50.6658 49.5029 50.7105L50.0904 51.5067ZM50.5486 50.2862L49.4947 46.0417L48.524 46.2756L49.5779 50.52L50.5486 50.2862ZM49.332 46.5344L52.7216 43.7101L52.0762 42.9587L48.6866 45.7829L49.332 46.5344ZM52.7242 43.7079C53.0887 43.4 53.2299 42.9061 53.0817 42.4561L52.1312 42.7597C52.1549 42.8317 52.1323 42.9113 52.0736 42.9608L52.7242 43.7079ZM52.5914 42.116L52.59 42.1161L52.6201 43.0999L52.6215 43.0998L52.5914 42.116ZM47.4693 45.0189C47.1241 45.3057 46.9735 45.7611 47.0824 46.1938L48.0523 45.9568C48.0352 45.8888 48.0588 45.8167 48.1135 45.7713L47.4693 45.0189ZM47.0821 46.1924L47.8397 49.2366L48.8103 49.0023L48.0527 45.9581L47.0821 46.1924ZM48.5881 48.7011L45.8828 47.0508L45.3566 47.8876L48.0619 49.5378L48.5881 48.7011ZM45.884 47.0516C45.5006 46.8162 45.0141 46.8162 44.6307 47.0515L45.1592 47.8869C45.2191 47.8501 45.2955 47.8501 45.3554 47.8869L45.884 47.0516ZM44.6319 47.0508L41.9266 48.7011L42.4527 49.5378L45.158 47.8876L44.6319 47.0508ZM42.6749 49.2366L43.4326 46.1924L42.462 45.9581L41.7044 49.0023L42.6749 49.2366ZM40.3313 43.8612L43.5052 43.6306L43.4317 42.649L40.2578 42.8796L40.3313 43.8612ZM43.5069 43.6305C43.9551 43.5964 44.3452 43.317 44.5165 42.908L43.5928 42.5325C43.565 42.5988 43.5021 42.6437 43.43 42.6492L43.5069 43.6305ZM44.5172 42.9064L45.7209 40.005L44.7958 39.6327L43.5921 42.5341L44.5172 42.9064ZM44.7959 40.005L46 42.9065L46.925 42.534L45.7209 39.6326L44.7959 40.005ZM46 42.9065C46.171 43.3162 46.5618 43.5964 47.0098 43.6305L47.0867 42.6492C47.0145 42.6437 46.9524 42.5997 46.925 42.534L46 42.9065ZM47.0115 43.6306L50.1855 43.8612L50.259 42.8796L47.085 42.649L47.0115 43.6306ZM49.8996 42.9946L47.4693 45.0189L48.1135 45.7713L50.5449 43.7461L49.8996 42.9946ZM22.5041 33.9089H38.1141V32.9247H22.5041V33.9089ZM38.1141 33.9089C40.5858 33.9089 42.5316 32.1404 42.9967 29.6085L42.0134 29.4332C41.6225 31.5612 40.039 32.9247 38.1141 32.9247V33.9089ZM42.9967 29.6085L44.995 18.7133L44.0116 18.5383L42.0134 29.4332L42.9967 29.6085ZM45.0015 18.6629C45.0965 17.4232 44.6714 16.1997 43.8264 15.2769L43.0844 15.9361C43.7465 16.6592 44.0795 17.6178 44.0051 18.5888L45.0015 18.6629ZM43.8475 15.3016C43.0023 14.2473 41.7202 13.6241 40.3567 13.6054L40.3428 14.5896C41.4052 14.6041 42.4044 15.0897 43.0632 15.9115L43.8475 15.3016ZM40.3497 13.6054H32.3284V14.5896H40.3497V13.6054ZM32.8281 14.0975V7.39101H31.8288V14.0975H32.8281ZM32.8281 7.39101C32.8281 3.87297 30.8646 1.60432 28.9794 0.6628L28.5275 1.54063C30.0992 2.32559 31.8288 4.26777 31.8288 7.39101H32.8281ZM28.9794 0.6628C27.3684 -0.141216 25.6133 -0.143566 24.3231 0.787369L24.9136 1.58136C25.8267 0.922558 27.1624 0.859333 28.5275 1.54063L28.9794 0.6628ZM24.3231 0.787369C23.9146 1.08223 23.4018 1.59134 23.0593 2.41759C22.7168 3.24388 22.5579 4.35473 22.8048 5.83214L23.7908 5.67234C23.5687 4.34288 23.723 3.42031 23.9845 2.78964C24.2459 2.15894 24.628 1.78754 24.9136 1.58136L24.3231 0.787369ZM22.8044 5.82972L22.8088 5.857L23.7956 5.70206L23.7912 5.67477L22.8044 5.82972ZM22.8128 5.8789C23.3191 8.29769 23.0418 9.80242 22.476 10.8466C21.9011 11.9075 20.9944 12.5667 20.0456 13.2464L20.6334 14.0424C21.5628 13.3766 22.6596 12.5979 23.3576 11.31C24.0646 10.0054 24.3296 8.25039 23.7916 5.68016L22.8128 5.8789ZM20.0706 13.2296C19.2856 13.7232 18.5962 14.3498 18.0335 15.0807L18.8297 15.6754C19.3211 15.0372 19.9231 14.4901 20.6084 14.0592L20.0706 13.2296ZM18.6889 14.9562C18.3268 14.7419 17.9119 14.6281 17.4888 14.6281V15.6123C17.7299 15.6123 17.967 15.6772 18.1742 15.7999L18.6889 14.9562ZM17.4888 14.6281H10.8876V15.6123H17.4888V14.6281ZM10.8864 14.6281C10.2665 14.6296 9.67214 14.8728 9.23346 15.3049L9.93989 16.0011C10.1917 15.753 10.5331 15.6132 10.8889 15.6123L10.8864 14.6281ZM9.23346 15.3049C8.79445 15.7368 8.54783 16.3225 8.54631 16.9329L9.54561 16.9353C9.54649 16.5848 9.6883 16.2486 9.93989 16.0011L9.23346 15.3049ZM8.54631 16.9341L8.5463 31.1457H9.54561V16.9341H8.54631ZM8.54631 31.1469C8.54784 31.7576 8.79463 32.3436 9.23369 32.7755L9.9403 32.0795C9.68877 31.8321 9.54649 31.4955 9.54561 31.1445L8.54631 31.1469ZM9.23369 32.7755C9.67219 33.2079 10.2667 33.4506 10.8864 33.4521L10.8889 32.4679C10.533 32.467 10.1916 32.3273 9.9403 32.0795L9.23369 32.7755ZM10.8876 33.4521H17.4888V32.4679H10.8876V33.4521ZM17.4888 33.4521C18.3198 33.4516 19.0887 33.0173 19.5087 32.3111L18.6465 31.8136C18.4056 32.2186 17.9652 32.4676 17.4888 32.4679V33.4521ZM18.728 32.4139C19.7369 33.3871 21.0973 33.9257 22.5097 33.9101L22.4984 32.9259C21.3516 32.9386 20.2467 32.5012 19.4272 31.7107L18.728 32.4139ZM23.0037 33.4196L23.0037 33.4184L22.0044 33.4152L22.0044 33.4163L23.0037 33.4196ZM21.4442 15.1343C22.4333 14.4239 23.703 13.5198 24.5422 12.0143C25.3909 10.492 25.7684 8.41977 25.1415 5.41719L24.1627 5.61545C24.7536 8.4454 24.3755 10.2684 23.6663 11.5406C22.9477 12.8297 21.8573 13.6195 20.8554 14.3391L21.4442 15.1343ZM25.1452 5.43709C24.8977 3.94233 25.2055 3.04711 25.7251 2.67211L25.1345 1.87817C24.1405 2.59552 23.895 4.0018 24.159 5.59555L25.1452 5.43709ZM25.682 2.7C26.0144 2.50863 26.3933 2.41 26.7786 2.41448L26.7908 1.43031C26.2245 1.42372 25.6667 1.56871 25.1777 1.85028L25.682 2.7ZM26.7786 2.41448C27.164 2.41928 27.5399 2.52689 27.8673 2.72619L28.3927 1.88894C27.9106 1.59551 27.357 1.43737 26.7908 1.43031L26.7786 2.41448ZM27.9042 2.74659C29.1036 3.34486 30.4509 4.87067 30.4509 7.38841H31.4502C31.4502 4.49143 29.8835 2.63065 28.3557 1.86855L27.9042 2.74659ZM30.4509 7.38841V14.7747H31.4502V7.38841H30.4509ZM30.4509 14.7747C30.4509 15.4222 30.9837 15.947 31.6411 15.947V14.9628C31.5356 14.9628 31.4502 14.8786 31.4502 14.7747H30.4509ZM31.6411 15.947H40.3498V14.9628H31.6411V15.947ZM40.3376 15.9469C40.9916 15.9626 41.6035 16.2674 42.0042 16.7769L42.7942 16.1742C42.2096 15.4309 41.3166 14.9858 40.3621 14.9628L40.3376 15.9469ZM42.03 16.8072C42.4291 17.2382 42.6496 17.8007 42.6479 18.3842L43.6472 18.387C43.6496 17.5572 43.336 16.7569 42.7683 16.1439L42.03 16.8072ZM42.6559 18.2981L40.6588 29.1922L41.6422 29.3671L43.6393 18.473L42.6559 18.2981ZM40.6588 29.1922C40.4441 30.3623 39.6301 31.5688 38.1143 31.5688V32.553C40.3269 32.553 41.3862 30.7627 41.6422 29.3671L40.6588 29.1922ZM38.1143 31.5688H22.5042V32.553H38.1143V31.5688ZM22.5042 31.5688C20.9683 31.5688 19.8335 30.5243 19.8335 29.4821H18.8342C18.8342 31.2358 20.604 32.553 22.5042 32.553V31.5688ZM19.8335 29.4821V16.9359H18.8342V29.4821H19.8335ZM19.8335 16.9359C19.8335 16.6604 19.9302 16.4318 20.1787 16.1592C20.4465 15.8656 20.8543 15.5594 21.4442 15.1343L20.8554 14.3391C20.2857 14.7496 19.7856 15.1173 19.4352 15.5015C19.0658 15.9068 18.8342 16.36 18.8342 16.9359H19.8335ZM17.4581 31.1441C17.4581 31.1268 17.4724 31.1134 17.4888 31.1134V32.0977C18.0232 32.0977 18.4574 31.6715 18.4574 31.1441H17.4581ZM17.4888 31.1134H10.8876L10.8868 32.0977H17.4888V31.1134ZM10.8876 31.1134C10.9042 31.1135 10.9191 31.1268 10.9191 31.1441H9.91978C9.91978 31.6707 10.3531 32.0969 10.8868 32.0977L10.8876 31.1134ZM10.9191 31.1441V16.9356H9.91978V31.1441H10.9191ZM10.9191 16.9356C10.9191 16.9528 10.905 16.9662 10.8884 16.9662L10.8876 15.9819C10.3538 15.9828 9.91978 16.409 9.91978 16.9356H10.9191ZM10.8884 16.9662H17.4888V15.9819H10.8876L10.8884 16.9662ZM17.4888 16.9662C17.4721 16.9662 17.4581 16.953 17.4581 16.9356H18.4574C18.4574 16.4088 18.0234 15.9819 17.4888 15.9819V16.9662ZM17.4581 16.9356V31.1441H18.4574V16.9356H17.4581Z" fill="#225E9F"/>
</svg>
